<svg width="305" height="40" viewBox="0 0 305 40" fill="none" xmlns="http://www.w3.org/2000/svg">
<path d="M17.7305 40H12.8086V4.97266H0.367188V0.542969H30.1719V4.97266H17.7305V40ZM60.8125 35.5703V40H36.3672V0.542969H60.8125V4.97266H41.2891V17.6328H59.8008V22.0078H41.2891V35.5703H60.8125ZM68.3203 0.542969H81.582C93.2852 0.542969 100.203 7.84375 100.203 20.2578C100.203 32.6992 93.3125 40 81.582 40H68.3203V0.542969ZM73.2422 4.97266V35.5703H81.2539C90.1953 35.5703 95.1719 30.1016 95.1719 20.3125C95.1719 10.4414 90.2227 4.97266 81.2539 4.97266H73.2422ZM116.105 29.1719H115.996L109.133 40H103.855L113.535 25.7812L104.02 11.5625H109.324L116.16 22.2266H116.27L123.023 11.5625H128.328L118.73 25.5898L128.191 40H122.914L116.105 29.1719Z" fill="white"/>
<path d="M139.008 40H134.086V0.542969H139.008V40ZM152.586 40H147.664V0.542969H152.586V40ZM176.145 40H171.223V4.97266H158.781V0.542969H188.586V4.97266H176.145V40ZM199.703 4.91797V20.0391H209.137C214.195 20.0391 217.066 17.3047 217.066 12.4648C217.066 7.73438 214.004 4.91797 208.918 4.91797H199.703ZM199.703 24.3867V40H194.781V0.542969H209.574C217.176 0.542969 222.152 5.19141 222.152 12.3008C222.152 17.7969 219.172 22.0625 214.223 23.6211L223.355 40H217.586L209.137 24.3867H199.703ZM255.008 40L251.043 28.707H235.348L231.383 40H226.215L240.762 0.542969H245.629L260.176 40H255.008ZM243.113 6.53125L236.797 24.5234H249.594L243.277 6.53125H243.113ZM304.57 40H299.977V9.59375H299.785L287.207 39.7266H283.051L270.473 9.59375H270.281V40H265.688V0.542969H271.402L285.02 33.4648H285.238L298.855 0.542969H304.57V40Z" fill="#FF0606"/>
</svg>
