<svg width="1200" height="816" viewBox="0 0 1200 816" fill="none" xmlns="http://www.w3.org/2000/svg">
<g clip-path="url(#clip0_156_8800)">
<rect width="1200" height="272.333" transform="translate(0 0.666016)" fill="url(#paint0_radial_156_8800)"/>
<path d="M632.934 157.842C635.151 157.842 637.308 157.6 639.404 157.116C641.541 156.633 643.395 155.625 644.967 154.093C646.58 152.561 647.89 150.364 648.897 147.502C649.905 144.6 650.409 140.71 650.409 135.832C650.409 131.035 649.925 127.185 648.958 124.283C647.99 121.34 646.721 119.083 645.149 117.51C643.617 115.938 641.762 114.91 639.586 114.427C637.449 113.903 635.232 113.641 632.934 113.641H627.25V157.842H632.934ZM581.658 180.275V157.842C585.205 157.842 587.745 157.378 589.277 156.451C590.809 155.484 591.575 153.69 591.575 151.07V120.473C591.575 117.813 590.809 116.019 589.277 115.092C587.745 114.124 585.205 113.641 581.658 113.641V91.2072H645.814C651.578 91.2072 657.161 91.9731 662.563 93.505C667.965 95.0368 672.762 97.5361 676.954 101.003C681.187 104.47 684.573 109.065 687.113 114.789C689.693 120.473 690.983 127.488 690.983 135.832C690.983 144.176 689.713 151.191 687.173 156.875C684.674 162.559 681.247 167.134 676.894 170.601C672.58 174.067 667.521 176.567 661.717 178.099C655.912 179.63 649.744 180.396 643.214 180.396L581.658 180.275Z" fill="url(#paint1_linear_156_8800)"/>
<path d="M632.934 157.842C635.151 157.842 637.308 157.6 639.404 157.116C641.541 156.633 643.395 155.625 644.967 154.093C646.58 152.561 647.89 150.364 648.897 147.502C649.905 144.6 650.409 140.71 650.409 135.832C650.409 131.035 649.925 127.185 648.958 124.283C647.99 121.34 646.721 119.083 645.149 117.51C643.617 115.938 641.762 114.91 639.586 114.427C637.449 113.903 635.232 113.641 632.934 113.641H627.25V157.842H632.934ZM581.658 180.275V157.842C585.205 157.842 587.745 157.378 589.277 156.451C590.809 155.484 591.575 153.69 591.575 151.07V120.473C591.575 117.813 590.809 116.019 589.277 115.092C587.745 114.124 585.205 113.641 581.658 113.641V91.2072H645.814C651.578 91.2072 657.161 91.9731 662.563 93.505C667.965 95.0368 672.762 97.5361 676.954 101.003C681.187 104.47 684.573 109.065 687.113 114.789C689.693 120.473 690.983 127.488 690.983 135.832C690.983 144.176 689.713 151.191 687.173 156.875C684.674 162.559 681.247 167.134 676.894 170.601C672.58 174.067 667.521 176.567 661.717 178.099C655.912 179.63 649.744 180.396 643.214 180.396L581.658 180.275Z" fill="url(#paint2_linear_156_8800)"/>
<path d="M578.755 159.233C580.972 159.233 583.129 158.991 585.225 158.507C587.362 158.023 589.216 157.016 590.788 155.484C592.401 153.952 593.711 151.755 594.719 148.893C595.726 145.99 596.23 142.1 596.23 137.223C596.23 132.426 595.747 128.576 594.779 125.673C593.812 122.731 592.542 120.473 590.97 118.901C589.438 117.329 587.584 116.301 585.407 115.817C583.27 115.293 581.053 115.031 578.755 115.031H573.071V159.233H578.755ZM527.479 181.666V159.233C531.027 159.233 533.566 158.769 535.098 157.842C536.63 156.874 537.396 155.081 537.396 152.46V121.864C537.396 119.203 536.63 117.41 535.098 116.482C533.566 115.515 531.027 115.031 527.479 115.031V92.5978H591.635C597.399 92.5978 602.983 93.3638 608.384 94.8956C613.786 96.4274 618.583 98.9267 622.775 102.394C627.008 105.86 630.394 110.456 632.934 116.18C635.514 121.864 636.804 128.878 636.804 137.223C636.804 145.567 635.534 152.581 632.994 158.265C630.495 163.949 627.069 168.524 622.715 171.991C618.402 175.458 613.343 177.957 607.538 179.489C601.733 181.021 595.565 181.787 589.035 181.787L527.479 181.666Z" fill="#6974D8"/>
<circle cx="643.032" cy="128.999" r="1.93495" fill="white"/>
<rect width="1200" height="272.333" transform="translate(0 272)" fill="#C5CCFF"/>
<path d="M418.412 416.565C419.212 416.565 419.991 416.478 420.748 416.303C421.52 416.128 422.189 415.764 422.757 415.211C423.339 414.658 423.812 413.865 424.176 412.831C424.54 411.783 424.722 410.378 424.722 408.617C424.722 406.885 424.547 405.495 424.198 404.446C423.849 403.384 423.39 402.569 422.822 402.001C422.269 401.433 421.6 401.062 420.814 400.887C420.042 400.698 419.241 400.603 418.412 400.603H416.359V416.565H418.412ZM399.895 424.666V416.565C401.176 416.565 402.093 416.398 402.647 416.063C403.2 415.714 403.476 415.066 403.476 414.12V403.071C403.476 402.11 403.2 401.462 402.647 401.127C402.093 400.778 401.176 400.603 399.895 400.603V392.503H423.063C425.144 392.503 427.16 392.779 429.111 393.332C431.062 393.885 432.794 394.788 434.308 396.04C435.836 397.292 437.059 398.951 437.976 401.018C438.908 403.071 439.374 405.604 439.374 408.617C439.374 411.63 438.915 414.163 437.998 416.216C437.095 418.268 435.858 419.92 434.286 421.172C432.728 422.424 430.901 423.327 428.805 423.88C426.709 424.433 424.482 424.71 422.124 424.71L399.895 424.666ZM457.562 400.603V414.207C457.562 415.182 457.803 415.823 458.283 416.128C458.763 416.42 459.375 416.565 460.117 416.565H460.707V424.666H442.321V416.565H443.173C443.944 416.565 444.512 416.325 444.876 415.845C445.255 415.35 445.444 414.818 445.444 414.251V411.172C445.444 410.327 445.175 409.709 444.636 409.316C444.112 408.908 443.5 408.704 442.802 408.704H442.321V400.603H457.562ZM445.094 395.232C445.094 393.98 445.568 392.91 446.514 392.022C447.475 391.134 448.836 390.69 450.597 390.69C452.387 390.69 453.763 391.134 454.724 392.022C455.699 392.91 456.187 393.98 456.187 395.232C456.187 396.513 455.699 397.597 454.724 398.485C453.763 399.359 452.387 399.796 450.597 399.796C448.836 399.796 447.475 399.359 446.514 398.485C445.568 397.597 445.094 396.513 445.094 395.232ZM494.093 428.64C494.093 431.115 492.666 433.007 489.813 434.317C486.975 435.627 482.862 436.282 477.476 436.282C475.526 436.282 473.626 436.253 471.777 436.195C469.929 436.137 468.291 435.94 466.864 435.606C465.438 435.285 464.288 434.769 463.414 434.055C462.555 433.342 462.126 432.33 462.126 431.02C462.126 429.972 462.461 429.113 463.13 428.444C463.8 427.774 464.521 427.243 465.292 426.85C464.346 426.282 463.698 425.649 463.349 424.95C463.014 424.251 462.847 423.487 462.847 422.657C462.847 421.667 463.203 420.721 463.917 419.819C464.63 418.901 465.656 418.014 466.995 417.155C465.685 416.296 464.681 415.248 463.982 414.01C463.283 412.773 462.934 411.303 462.934 409.6C462.934 407.955 463.276 406.514 463.96 405.276C464.644 404.039 465.627 403.005 466.908 402.176C468.189 401.346 469.717 400.713 471.493 400.276C473.269 399.839 475.264 399.621 477.476 399.621C479.849 399.621 481.989 399.876 483.896 400.385C485.817 400.895 487.448 401.666 488.787 402.7C489.049 402.35 489.406 402.008 489.857 401.673C490.235 401.411 490.716 401.171 491.298 400.953C491.88 400.72 492.594 400.603 493.438 400.603H495.447V408.704H494.006C493.38 408.704 492.899 408.879 492.565 409.228C492.244 409.563 492.055 409.891 491.997 410.211C491.487 413.283 490.003 415.626 487.542 417.242C485.082 418.858 481.727 419.666 477.476 419.666C475.089 419.666 472.927 419.411 470.991 418.901C470.686 419.105 470.533 419.36 470.533 419.666C470.533 420.233 470.867 420.634 471.537 420.867C472.207 421.1 473.095 421.26 474.201 421.347C475.307 421.42 476.567 421.449 477.979 421.434C479.391 421.405 480.832 421.427 482.302 421.5C483.787 421.558 485.235 421.689 486.647 421.893C488.074 422.097 489.333 422.461 490.425 422.985C491.531 423.509 492.419 424.222 493.089 425.125C493.758 426.042 494.093 427.213 494.093 428.64ZM474.419 409.6C474.419 411.114 474.63 412.285 475.053 413.115C475.475 413.93 476.283 414.338 477.476 414.338C478.685 414.338 479.5 413.93 479.922 413.115C480.344 412.285 480.555 411.114 480.555 409.6C480.555 408.1 480.344 406.958 479.922 406.171C479.5 405.385 478.685 404.992 477.476 404.992C476.283 404.992 475.475 405.385 475.053 406.171C474.63 406.958 474.419 408.1 474.419 409.6ZM478.459 428.968C476.901 428.968 475.489 428.924 474.223 428.837C472.956 428.764 471.814 428.655 470.795 428.509C470.649 428.757 470.576 429.011 470.576 429.273C470.576 430.321 471.144 431.006 472.28 431.326C473.415 431.661 474.907 431.828 476.756 431.828C479.23 431.828 481.035 431.675 482.171 431.369C483.321 431.078 483.896 430.663 483.896 430.125C483.896 429.848 483.729 429.637 483.394 429.492C483.073 429.346 482.644 429.23 482.105 429.142C481.581 429.055 480.999 429.004 480.359 428.989C479.718 428.975 479.085 428.968 478.459 428.968ZM512.937 400.603V414.207C512.937 415.182 513.177 415.823 513.658 416.128C514.138 416.42 514.749 416.565 515.492 416.565H516.081V424.666H497.696V416.565H498.547C499.319 416.565 499.887 416.325 500.251 415.845C500.629 415.35 500.818 414.818 500.818 414.251V411.172C500.818 410.327 500.549 409.709 500.01 409.316C499.486 408.908 498.875 408.704 498.176 408.704H497.696V400.603H512.937ZM500.469 395.232C500.469 393.98 500.942 392.91 501.888 392.022C502.849 391.134 504.21 390.69 505.971 390.69C507.762 390.69 509.138 391.134 510.098 392.022C511.074 392.91 511.561 393.98 511.561 395.232C511.561 396.513 511.074 397.597 510.098 398.485C509.138 399.359 507.762 399.796 505.971 399.796C504.21 399.796 502.849 399.359 501.888 398.485C500.942 397.597 500.469 396.513 500.469 395.232ZM532.698 392.503V400.603H539.227V408.704H532.698V415.408C532.698 416.369 532.829 417.155 533.091 417.766C533.368 418.377 533.928 418.683 534.772 418.683C535.238 418.683 535.609 418.596 535.886 418.421C536.177 418.232 536.403 417.992 536.563 417.701C536.738 417.395 536.847 417.053 536.89 416.674C536.934 416.281 536.956 415.859 536.956 415.408V412.154H539.467V415.67C539.467 417.082 539.314 418.399 539.008 419.622C538.717 420.845 538.208 421.9 537.48 422.788C536.767 423.676 535.791 424.382 534.554 424.906C533.317 425.43 531.759 425.692 529.881 425.692C527.8 425.692 526.14 425.438 524.903 424.928C523.665 424.419 522.726 423.72 522.086 422.832C521.445 421.944 521.023 420.888 520.82 419.666C520.63 418.443 520.536 417.111 520.536 415.67V408.704H517.108V401.499C518.199 401.499 519.211 401.266 520.143 400.8C521.089 400.32 521.897 399.665 522.566 398.835C523.251 397.99 523.775 397.03 524.139 395.952C524.517 394.875 524.706 393.725 524.706 392.503H532.698ZM552.481 403.639C551.738 403.639 551.098 403.697 550.559 403.813C550.035 403.915 549.584 404.039 549.206 404.184C548.827 404.33 548.514 404.497 548.267 404.687C548.019 404.861 547.801 405.021 547.612 405.167L547.83 405.385C548.106 405.24 548.405 405.094 548.725 404.949C549.06 404.803 549.482 404.73 549.992 404.73C550.85 404.73 551.593 405.014 552.219 405.582C552.845 406.135 553.158 407.023 553.158 408.246C553.158 409.41 552.677 410.349 551.717 411.063C550.77 411.761 549.497 412.111 547.895 412.111C546.367 412.111 545.144 411.674 544.227 410.801C543.325 409.913 542.873 408.661 542.873 407.045C542.873 406.157 543.121 405.276 543.616 404.403C544.111 403.515 544.875 402.721 545.908 402.023C546.956 401.324 548.281 400.749 549.882 400.298C551.498 399.846 553.442 399.621 555.712 399.621C558.42 399.621 560.633 399.876 562.35 400.385C564.068 400.895 565.4 401.55 566.346 402.35C567.307 403.151 567.962 404.061 568.311 405.08C568.675 406.099 568.857 407.125 568.857 408.158V416.696C568.857 418.021 568.901 418.923 568.988 419.404C569.076 419.87 569.403 420.102 569.971 420.102C570.422 420.102 570.735 419.891 570.91 419.469C571.099 419.032 571.194 418.29 571.194 417.242V414.513H573.683V417.286C573.683 418.596 573.574 419.76 573.355 420.779C573.137 421.784 572.722 422.65 572.111 423.378C571.499 424.091 570.67 424.63 569.622 424.994C568.574 425.372 567.234 425.561 565.604 425.561C564.134 425.561 562.911 425.401 561.936 425.081C560.975 424.775 560.211 424.389 559.643 423.924C559.075 423.458 558.668 422.977 558.42 422.482C558.187 421.973 558.071 421.522 558.071 421.129H557.721C557.634 421.726 557.379 422.293 556.957 422.832C556.55 423.37 555.975 423.851 555.232 424.273C554.504 424.681 553.624 425.008 552.59 425.256C551.571 425.518 550.406 425.649 549.096 425.649C547.844 425.649 546.702 425.525 545.668 425.277C544.649 425.044 543.776 424.673 543.048 424.164C542.335 423.64 541.774 422.97 541.367 422.155C540.974 421.325 540.777 420.343 540.777 419.207C540.777 417.81 541.17 416.711 541.956 415.91C542.742 415.095 543.732 414.454 544.926 413.989C546.119 413.508 547.415 413.122 548.813 412.831C550.225 412.526 551.527 412.162 552.721 411.739C553.915 411.317 554.905 410.771 555.691 410.102C556.477 409.432 556.87 408.486 556.87 407.263C556.87 406.171 556.528 405.298 555.843 404.643C555.159 403.973 554.038 403.639 552.481 403.639ZM556.87 413.093C556.55 413.559 556.149 413.938 555.669 414.229C555.188 414.505 554.723 414.782 554.271 415.058C553.835 415.32 553.449 415.641 553.114 416.019C552.794 416.383 552.634 416.878 552.634 417.504C552.634 417.984 552.765 418.421 553.027 418.814C553.289 419.193 553.798 419.382 554.555 419.382C555.239 419.382 555.793 419.12 556.215 418.596C556.651 418.057 556.87 417.307 556.87 416.347V413.093ZM590.365 392.503V414.207C590.365 415.182 590.605 415.823 591.086 416.128C591.566 416.42 592.178 416.565 592.92 416.565H593.51V424.666H575.124V416.565H575.976C576.747 416.565 577.315 416.325 577.679 415.845C578.057 415.35 578.247 414.818 578.247 414.251V403.071C578.247 402.227 577.977 401.608 577.439 401.215C576.915 400.807 576.303 400.603 575.604 400.603H575.124V392.503H590.365Z" fill="#6974D8"/>
<path d="M613.358 416.565C614.158 416.565 614.937 416.478 615.694 416.303C616.466 416.128 617.135 415.764 617.703 415.211C618.285 414.658 618.758 413.865 619.122 412.831C619.486 411.783 619.668 410.378 619.668 408.617C619.668 406.885 619.494 405.495 619.144 404.446C618.795 403.384 618.336 402.569 617.769 402.001C617.215 401.433 616.546 401.062 615.76 400.887C614.988 400.698 614.188 400.603 613.358 400.603H611.305V416.565H613.358ZM594.841 424.666V416.565C596.122 416.565 597.04 416.398 597.593 416.063C598.146 415.714 598.422 415.066 598.422 414.12V403.071C598.422 402.11 598.146 401.462 597.593 401.127C597.04 400.778 596.122 400.603 594.841 400.603V392.503H618.009C620.09 392.503 622.107 392.779 624.057 393.332C626.008 393.885 627.74 394.788 629.254 396.04C630.782 397.292 632.005 398.951 632.922 401.018C633.854 403.071 634.32 405.604 634.32 408.617C634.32 411.63 633.861 414.163 632.944 416.216C632.042 418.268 630.804 419.92 629.232 421.172C627.675 422.424 625.848 423.327 623.751 423.88C621.655 424.433 619.428 424.71 617.07 424.71L594.841 424.666ZM648.84 413.989C648.899 416.157 649.306 417.657 650.063 418.487C650.835 419.302 651.934 419.709 653.36 419.709C653.841 419.709 654.306 419.644 654.758 419.513C655.224 419.367 655.653 419.142 656.046 418.836C656.439 418.516 656.774 418.101 657.05 417.591C657.342 417.067 657.531 416.412 657.618 415.626H665.566C665.275 417.504 664.736 419.076 663.95 420.343C663.179 421.609 662.182 422.635 660.959 423.421C659.736 424.193 658.31 424.746 656.679 425.081C655.063 425.43 653.258 425.605 651.264 425.605C649.212 425.605 647.283 425.343 645.478 424.819C643.673 424.295 642.086 423.501 640.718 422.439C639.364 421.362 638.301 420.015 637.53 418.399C636.758 416.769 636.372 414.833 636.372 412.591C636.372 410.451 636.736 408.573 637.464 406.958C638.192 405.342 639.211 403.995 640.521 402.918C641.846 401.826 643.403 401.004 645.194 400.451C646.999 399.897 648.979 399.621 651.133 399.621C653.782 399.621 656.061 399.97 657.968 400.669C659.874 401.368 661.432 402.343 662.64 403.595C663.849 404.847 664.736 406.353 665.304 408.115C665.872 409.876 666.141 411.834 666.112 413.989H648.84ZM652.072 405.516C651.053 405.516 650.296 405.88 649.801 406.608C649.321 407.321 649 408.508 648.84 410.167H655.238C655.151 408.741 654.845 407.613 654.321 406.783C653.797 405.939 653.047 405.516 652.072 405.516ZM691.07 425.387C690.138 425.387 689.309 425.336 688.581 425.234C687.853 425.146 687.191 425.015 686.594 424.841C685.997 424.666 685.429 424.462 684.891 424.229C684.352 423.982 683.813 423.727 683.275 423.465V425.605C683.275 426.376 683.406 426.922 683.668 427.243C683.944 427.577 684.476 427.745 685.262 427.745H686.55V435.846H668.165V427.745H669.475C670.072 427.745 670.523 427.548 670.829 427.155C671.149 426.777 671.309 426.318 671.309 425.78V410.451C671.309 409.767 671.105 409.308 670.698 409.076C670.29 408.828 669.831 408.704 669.322 408.704H668.165V400.603H682.336V405.08H682.707C683.246 403.566 684.199 402.314 685.567 401.324C686.936 400.334 688.814 399.839 691.201 399.839C694.622 399.839 697.293 400.924 699.215 403.093C701.151 405.247 702.119 408.413 702.119 412.591C702.119 416.769 701.129 419.95 699.149 422.133C697.184 424.302 694.491 425.387 691.07 425.387ZM689.673 412.809C689.673 412.038 689.629 411.303 689.541 410.604C689.454 409.905 689.287 409.294 689.039 408.77C688.806 408.246 688.486 407.838 688.079 407.547C687.685 407.241 687.161 407.089 686.506 407.089C685.851 407.089 685.313 407.234 684.891 407.525C684.468 407.802 684.141 408.188 683.908 408.683C683.675 409.177 683.508 409.767 683.406 410.451C683.318 411.135 683.275 411.863 683.275 412.635V418.006C683.522 418.385 683.981 418.69 684.65 418.923C685.32 419.142 685.939 419.251 686.506 419.251C687.161 419.251 687.685 419.069 688.079 418.705C688.486 418.326 688.806 417.832 689.039 417.22C689.287 416.609 689.454 415.917 689.541 415.146C689.629 414.374 689.673 413.595 689.673 412.809ZM703.931 412.591C703.931 410.451 704.302 408.573 705.045 406.958C705.787 405.342 706.842 403.995 708.211 402.918C709.594 401.826 711.253 401.004 713.189 400.451C715.125 399.897 717.287 399.621 719.674 399.621C722.062 399.621 724.223 399.897 726.159 400.451C728.095 401.004 729.748 401.826 731.116 402.918C732.484 403.995 733.54 405.342 734.282 406.958C735.039 408.573 735.418 410.451 735.418 412.591C735.418 414.702 735.039 416.572 734.282 418.203C733.54 419.833 732.484 421.201 731.116 422.308C729.748 423.4 728.095 424.222 726.159 424.775C724.223 425.328 722.062 425.605 719.674 425.605C717.287 425.605 715.125 425.328 713.189 424.775C711.253 424.222 709.594 423.4 708.211 422.308C706.842 421.201 705.787 419.833 705.045 418.203C704.302 416.572 703.931 414.702 703.931 412.591ZM716.355 412.591C716.355 413.814 716.406 414.855 716.508 415.714C716.625 416.558 716.807 417.242 717.054 417.766C717.302 418.276 717.636 418.654 718.058 418.901C718.481 419.134 719.019 419.251 719.674 419.251C720.329 419.251 720.861 419.134 721.268 418.901C721.69 418.654 722.025 418.276 722.273 417.766C722.535 417.242 722.717 416.558 722.819 415.714C722.92 414.855 722.971 413.814 722.971 412.591C722.971 410.145 722.739 408.435 722.273 407.46C721.821 406.47 720.955 405.975 719.674 405.975C719.019 405.975 718.481 406.091 718.058 406.324C717.636 406.543 717.302 406.914 717.054 407.438C716.807 407.947 716.625 408.632 716.508 409.49C716.406 410.335 716.355 411.368 716.355 412.591ZM752.493 392.503V400.603H759.022V408.704H752.493V415.408C752.493 416.369 752.624 417.155 752.886 417.766C753.162 418.377 753.723 418.683 754.567 418.683C755.033 418.683 755.404 418.596 755.681 418.421C755.972 418.232 756.198 417.992 756.358 417.701C756.532 417.395 756.642 417.053 756.685 416.674C756.729 416.281 756.751 415.859 756.751 415.408V412.154H759.262V415.67C759.262 417.082 759.109 418.399 758.803 419.622C758.512 420.845 758.003 421.9 757.275 422.788C756.562 423.676 755.586 424.382 754.349 424.906C753.112 425.43 751.554 425.692 749.676 425.692C747.594 425.692 745.935 425.438 744.698 424.928C743.46 424.419 742.521 423.72 741.881 422.832C741.24 421.944 740.818 420.888 740.614 419.666C740.425 418.443 740.331 417.111 740.331 415.67V408.704H736.902V401.499C737.994 401.499 739.006 401.266 739.938 400.8C740.884 400.32 741.692 399.665 742.361 398.835C743.045 397.99 743.569 397.03 743.933 395.952C744.312 394.875 744.501 393.725 744.501 392.503H752.493Z" fill="white"/>
<rect width="240" height="272.333" transform="translate(0 543.332)" fill="#26293E"/>
<path d="M75.5156 666.116V673.181C74.5508 673.181 73.8779 673.333 73.4971 673.638C73.1289 673.93 72.9448 674.418 72.9448 675.104V683.902C72.9448 684.372 72.9956 684.822 73.0972 685.254C73.1987 685.686 73.3701 686.073 73.6113 686.416C73.8652 686.746 74.1953 687.012 74.6016 687.215C75.0205 687.406 75.5474 687.501 76.1821 687.501C77.4009 687.501 78.2896 687.184 78.8481 686.549C79.4067 685.901 79.686 685.032 79.686 683.94V675.18C79.686 674.393 79.4512 673.866 78.9814 673.6C78.5117 673.32 77.8643 673.181 77.0391 673.181V666.116H89.5884V673.181C88.7378 673.181 88.084 673.308 87.627 673.562C87.1699 673.803 86.9414 674.317 86.9414 675.104V684.188C86.9414 685.355 86.7891 686.574 86.4844 687.844C86.1924 689.101 85.6084 690.256 84.7324 691.31C83.8691 692.351 82.6313 693.22 81.019 693.918C79.4067 694.604 77.2739 694.947 74.6206 694.947C72.6909 694.947 71.0278 694.769 69.6313 694.414C68.2476 694.071 67.0732 693.614 66.1084 693.042C65.1436 692.471 64.3755 691.824 63.8042 691.1C63.2329 690.364 62.7886 689.608 62.4712 688.834C62.1665 688.047 61.9634 687.285 61.8618 686.549C61.7603 685.8 61.7095 685.114 61.7095 684.492V675.333C61.7095 674.495 61.4683 673.93 60.9858 673.638C60.5034 673.333 59.7036 673.181 58.5864 673.181V666.116H75.5156ZM105.223 666.116V685.044C105.223 685.895 105.432 686.454 105.851 686.72C106.27 686.974 106.803 687.101 107.451 687.101H107.965V694.166H91.9307V687.101H92.6733C93.3462 687.101 93.8413 686.892 94.1587 686.473C94.4888 686.041 94.6538 685.578 94.6538 685.083V675.333C94.6538 674.596 94.4189 674.057 93.9492 673.714C93.4922 673.358 92.959 673.181 92.3496 673.181H91.9307V666.116H105.223ZM122.457 666.116V673.181H128.15V680.246H122.457V686.092C122.457 686.93 122.571 687.615 122.799 688.148C123.041 688.682 123.529 688.948 124.266 688.948C124.672 688.948 124.996 688.872 125.237 688.72C125.491 688.555 125.688 688.345 125.827 688.091C125.979 687.825 126.075 687.526 126.113 687.196C126.151 686.854 126.17 686.485 126.17 686.092V683.254H128.36V686.32C128.36 687.552 128.227 688.701 127.96 689.767C127.706 690.833 127.262 691.754 126.627 692.528C126.005 693.303 125.154 693.918 124.075 694.375C122.996 694.833 121.638 695.061 120 695.061C118.185 695.061 116.737 694.839 115.658 694.395C114.579 693.95 113.76 693.341 113.202 692.566C112.643 691.792 112.275 690.872 112.097 689.805C111.932 688.739 111.85 687.577 111.85 686.32V680.246H108.86V673.961C109.812 673.961 110.694 673.758 111.507 673.352C112.332 672.933 113.037 672.362 113.621 671.638C114.217 670.902 114.674 670.064 114.992 669.125C115.322 668.185 115.487 667.182 115.487 666.116H122.457ZM141.633 673.181L141.309 678.417H141.633C142.077 676.412 142.813 674.895 143.842 673.866C144.883 672.838 146.229 672.324 147.879 672.324C148.856 672.324 149.694 672.482 150.393 672.8C151.104 673.104 151.675 673.517 152.106 674.038C152.538 674.558 152.849 675.161 153.04 675.847C153.23 676.52 153.325 677.218 153.325 677.941C153.325 678.538 153.236 679.128 153.059 679.712C152.881 680.296 152.595 680.823 152.202 681.293C151.808 681.763 151.3 682.144 150.678 682.436C150.056 682.715 149.288 682.854 148.374 682.854C147.104 682.854 146.102 682.531 145.365 681.883C144.642 681.236 144.28 680.455 144.28 679.541C144.28 679.097 144.331 678.722 144.432 678.417C144.534 678.1 144.635 677.846 144.737 677.656C144.851 677.453 144.927 677.307 144.965 677.218C145.003 677.129 144.959 677.084 144.832 677.084C144.565 677.084 144.273 677.389 143.956 677.999C143.651 678.608 143.499 679.566 143.499 680.874V685.235C143.499 685.908 143.613 686.39 143.842 686.682C144.083 686.961 144.54 687.101 145.213 687.101H146.355V694.166H130.321V687.101H131.445C131.965 687.101 132.359 686.936 132.625 686.606C132.905 686.263 133.044 685.857 133.044 685.387V681.769C133.044 681.172 132.867 680.772 132.511 680.569C132.168 680.354 131.775 680.246 131.331 680.246H130.321V673.181H141.633ZM164.008 675.828C163.361 675.828 162.802 675.878 162.333 675.98C161.875 676.069 161.482 676.177 161.152 676.304C160.822 676.431 160.549 676.577 160.333 676.742C160.117 676.894 159.927 677.034 159.762 677.161L159.952 677.351C160.193 677.224 160.454 677.097 160.733 676.97C161.025 676.843 161.393 676.78 161.837 676.78C162.586 676.78 163.234 677.027 163.78 677.522C164.326 678.005 164.599 678.779 164.599 679.846C164.599 680.861 164.18 681.68 163.342 682.302C162.517 682.912 161.406 683.216 160.009 683.216C158.676 683.216 157.61 682.835 156.81 682.074C156.023 681.299 155.629 680.208 155.629 678.798C155.629 678.024 155.845 677.256 156.277 676.494C156.708 675.72 157.375 675.028 158.276 674.418C159.19 673.809 160.346 673.308 161.742 672.914C163.151 672.521 164.846 672.324 166.827 672.324C169.188 672.324 171.118 672.546 172.616 672.99C174.114 673.435 175.275 674.006 176.101 674.704C176.938 675.402 177.51 676.196 177.814 677.084C178.132 677.973 178.291 678.868 178.291 679.77V687.215C178.291 688.371 178.329 689.158 178.405 689.577C178.481 689.983 178.767 690.186 179.262 690.186C179.655 690.186 179.928 690.002 180.081 689.634C180.246 689.253 180.328 688.605 180.328 687.691V685.311H182.499V687.729C182.499 688.872 182.404 689.888 182.213 690.776C182.023 691.652 181.661 692.408 181.128 693.042C180.595 693.665 179.871 694.134 178.957 694.452C178.043 694.782 176.875 694.947 175.453 694.947C174.171 694.947 173.104 694.807 172.254 694.528C171.416 694.261 170.75 693.925 170.254 693.519C169.759 693.112 169.404 692.693 169.188 692.262C168.985 691.817 168.883 691.424 168.883 691.081H168.579C168.502 691.602 168.28 692.097 167.912 692.566C167.557 693.036 167.055 693.455 166.408 693.823C165.773 694.179 165.005 694.464 164.104 694.68C163.215 694.909 162.199 695.023 161.057 695.023C159.965 695.023 158.968 694.915 158.067 694.699C157.178 694.496 156.417 694.172 155.782 693.728C155.16 693.271 154.671 692.687 154.315 691.976C153.973 691.252 153.801 690.396 153.801 689.405C153.801 688.187 154.144 687.228 154.83 686.53C155.515 685.819 156.378 685.26 157.419 684.854C158.46 684.435 159.59 684.099 160.809 683.845C162.041 683.578 163.177 683.261 164.218 682.893C165.259 682.524 166.122 682.048 166.808 681.464C167.493 680.88 167.836 680.055 167.836 678.989C167.836 678.037 167.538 677.275 166.941 676.704C166.344 676.12 165.367 675.828 164.008 675.828ZM167.836 684.073C167.557 684.479 167.208 684.81 166.789 685.063C166.37 685.305 165.963 685.546 165.57 685.787C165.189 686.016 164.853 686.295 164.561 686.625C164.281 686.942 164.142 687.374 164.142 687.92C164.142 688.339 164.256 688.72 164.484 689.062C164.713 689.393 165.157 689.558 165.817 689.558C166.414 689.558 166.896 689.329 167.265 688.872C167.646 688.402 167.836 687.749 167.836 686.911V684.073Z" fill="white"/>
<rect width="240" height="272.333" transform="translate(240 543.332)" fill="#4D3BAB"/>
<path d="M299.61 664.939H309.417C311.524 664.939 313.321 665.257 314.806 665.892C316.292 666.526 317.428 667.466 318.215 668.71C319.015 669.941 319.415 671.465 319.415 673.28C319.415 674.664 319.161 675.883 318.653 676.937C318.145 677.99 317.428 678.879 316.501 679.603C315.574 680.313 314.47 680.866 313.188 681.259L311.74 681.964H302.923L302.885 678.174H309.493C310.636 678.174 311.588 677.971 312.35 677.565C313.111 677.159 313.683 676.606 314.063 675.908C314.457 675.197 314.654 674.397 314.654 673.509C314.654 672.544 314.463 671.706 314.083 670.995C313.714 670.271 313.143 669.719 312.369 669.338C311.594 668.945 310.61 668.748 309.417 668.748H304.39V692.666H299.61V664.939ZM315.435 692.666L308.922 680.212L313.93 680.193L320.538 692.418V692.666H315.435ZM322.842 682.592V682.154C322.842 680.669 323.058 679.292 323.49 678.022C323.921 676.74 324.543 675.629 325.356 674.689C326.181 673.737 327.184 673.001 328.365 672.48C329.558 671.947 330.904 671.681 332.402 671.681C333.913 671.681 335.258 671.947 336.439 672.48C337.632 673.001 338.642 673.737 339.467 674.689C340.292 675.629 340.92 676.74 341.352 678.022C341.784 679.292 342 680.669 342 682.154V682.592C342 684.078 341.784 685.455 341.352 686.725C340.92 687.994 340.292 689.105 339.467 690.057C338.642 690.997 337.639 691.733 336.458 692.266C335.277 692.787 333.938 693.047 332.44 693.047C330.929 693.047 329.577 692.787 328.384 692.266C327.203 691.733 326.2 690.997 325.375 690.057C324.55 689.105 323.921 687.994 323.49 686.725C323.058 685.455 322.842 684.078 322.842 682.592ZM327.432 682.154V682.592C327.432 683.519 327.527 684.395 327.717 685.22C327.908 686.045 328.206 686.769 328.612 687.391C329.019 688.013 329.539 688.502 330.174 688.857C330.809 689.213 331.564 689.391 332.44 689.391C333.291 689.391 334.027 689.213 334.649 688.857C335.284 688.502 335.804 688.013 336.21 687.391C336.617 686.769 336.915 686.045 337.105 685.22C337.309 684.395 337.41 683.519 337.41 682.592V682.154C337.41 681.24 337.309 680.377 337.105 679.564C336.915 678.739 336.61 678.009 336.191 677.375C335.785 676.74 335.265 676.245 334.63 675.889C334.008 675.521 333.265 675.337 332.402 675.337C331.539 675.337 330.79 675.521 330.155 675.889C329.533 676.245 329.019 676.74 328.612 677.375C328.206 678.009 327.908 678.739 327.717 679.564C327.527 680.377 327.432 681.24 327.432 682.154ZM345.865 663.416H350.455V688.267L350.017 692.666H345.865V663.416ZM363.899 682.173V682.573C363.899 684.097 363.728 685.5 363.385 686.782C363.055 688.051 362.547 689.156 361.861 690.095C361.188 691.035 360.351 691.765 359.348 692.285C358.357 692.793 357.208 693.047 355.901 693.047C354.619 693.047 353.501 692.806 352.549 692.323C351.597 691.841 350.797 691.155 350.15 690.267C349.515 689.378 349.001 688.318 348.607 687.086C348.214 685.855 347.935 684.497 347.77 683.011V681.735C347.935 680.237 348.214 678.879 348.607 677.66C349.001 676.429 349.515 675.369 350.15 674.48C350.797 673.579 351.591 672.887 352.53 672.404C353.482 671.922 354.593 671.681 355.863 671.681C357.183 671.681 358.345 671.935 359.348 672.442C360.363 672.95 361.208 673.674 361.88 674.613C362.553 675.54 363.055 676.645 363.385 677.927C363.728 679.209 363.899 680.625 363.899 682.173ZM359.31 682.573V682.173C359.31 681.247 359.233 680.377 359.081 679.564C358.929 678.739 358.675 678.016 358.319 677.394C357.977 676.771 357.507 676.283 356.91 675.927C356.326 675.559 355.596 675.375 354.72 675.375C353.908 675.375 353.209 675.515 352.625 675.794C352.042 676.073 351.553 676.454 351.159 676.937C350.766 677.419 350.455 677.978 350.226 678.612C350.01 679.247 349.864 679.933 349.788 680.669V684.116C349.902 685.068 350.144 685.944 350.512 686.744C350.893 687.531 351.426 688.166 352.111 688.648C352.797 689.118 353.679 689.353 354.758 689.353C355.609 689.353 356.326 689.181 356.91 688.838C357.494 688.496 357.958 688.02 358.3 687.41C358.656 686.788 358.91 686.064 359.062 685.239C359.227 684.414 359.31 683.525 359.31 682.573ZM366.908 682.592V682.154C366.908 680.669 367.124 679.292 367.555 678.022C367.987 676.74 368.609 675.629 369.421 674.689C370.247 673.737 371.25 673.001 372.43 672.48C373.624 671.947 374.969 671.681 376.467 671.681C377.978 671.681 379.324 671.947 380.504 672.48C381.698 673.001 382.707 673.737 383.532 674.689C384.357 675.629 384.986 676.74 385.417 678.022C385.849 679.292 386.065 680.669 386.065 682.154V682.592C386.065 684.078 385.849 685.455 385.417 686.725C384.986 687.994 384.357 689.105 383.532 690.057C382.707 690.997 381.704 691.733 380.523 692.266C379.343 692.787 378.003 693.047 376.505 693.047C374.995 693.047 373.643 692.787 372.449 692.266C371.269 691.733 370.266 690.997 369.44 690.057C368.615 689.105 367.987 687.994 367.555 686.725C367.124 685.455 366.908 684.078 366.908 682.592ZM371.497 682.154V682.592C371.497 683.519 371.592 684.395 371.783 685.22C371.973 686.045 372.271 686.769 372.678 687.391C373.084 688.013 373.604 688.502 374.239 688.857C374.874 689.213 375.629 689.391 376.505 689.391C377.356 689.391 378.092 689.213 378.714 688.857C379.349 688.502 379.87 688.013 380.276 687.391C380.682 686.769 380.98 686.045 381.171 685.22C381.374 684.395 381.476 683.519 381.476 682.592V682.154C381.476 681.24 381.374 680.377 381.171 679.564C380.98 678.739 380.676 678.009 380.257 677.375C379.851 676.74 379.33 676.245 378.695 675.889C378.073 675.521 377.331 675.337 376.467 675.337C375.604 675.337 374.855 675.521 374.22 675.889C373.598 676.245 373.084 676.74 372.678 677.375C372.271 678.009 371.973 678.739 371.783 679.564C371.592 680.377 371.497 681.24 371.497 682.154ZM399.357 672.062V675.413H387.741V672.062H399.357ZM391.092 667.015H395.682V686.972C395.682 687.607 395.771 688.096 395.948 688.438C396.139 688.769 396.399 688.991 396.729 689.105C397.059 689.219 397.446 689.276 397.891 689.276C398.208 689.276 398.513 689.257 398.805 689.219C399.097 689.181 399.332 689.143 399.509 689.105L399.528 692.609C399.147 692.723 398.703 692.825 398.195 692.914C397.7 693.002 397.129 693.047 396.481 693.047C395.428 693.047 394.495 692.863 393.682 692.495C392.87 692.114 392.235 691.498 391.778 690.647C391.321 689.797 391.092 688.667 391.092 687.258V667.015ZM401.566 682.592V682.154C401.566 680.669 401.782 679.292 402.213 678.022C402.645 676.74 403.267 675.629 404.08 674.689C404.905 673.737 405.908 673.001 407.088 672.48C408.282 671.947 409.627 671.681 411.125 671.681C412.636 671.681 413.982 671.947 415.163 672.48C416.356 673.001 417.365 673.737 418.19 674.689C419.016 675.629 419.644 676.74 420.076 678.022C420.507 679.292 420.723 680.669 420.723 682.154V682.592C420.723 684.078 420.507 685.455 420.076 686.725C419.644 687.994 419.016 689.105 418.19 690.057C417.365 690.997 416.362 691.733 415.182 692.266C414.001 692.787 412.662 693.047 411.164 693.047C409.653 693.047 408.301 692.787 407.107 692.266C405.927 691.733 404.924 690.997 404.099 690.057C403.273 689.105 402.645 687.994 402.213 686.725C401.782 685.455 401.566 684.078 401.566 682.592ZM406.155 682.154V682.592C406.155 683.519 406.25 684.395 406.441 685.22C406.631 686.045 406.93 686.769 407.336 687.391C407.742 688.013 408.263 688.502 408.897 688.857C409.532 689.213 410.288 689.391 411.164 689.391C412.014 689.391 412.75 689.213 413.373 688.857C414.007 688.502 414.528 688.013 414.934 687.391C415.34 686.769 415.639 686.045 415.829 685.22C416.032 684.395 416.134 683.519 416.134 682.592V682.154C416.134 681.24 416.032 680.377 415.829 679.564C415.639 678.739 415.334 678.009 414.915 677.375C414.509 676.74 413.988 676.245 413.354 675.889C412.731 675.521 411.989 675.337 411.125 675.337C410.262 675.337 409.513 675.521 408.878 675.889C408.256 676.245 407.742 676.74 407.336 677.375C406.93 678.009 406.631 678.739 406.441 679.564C406.25 680.377 406.155 681.24 406.155 682.154Z" fill="white"/>
<rect width="240" height="272.333" transform="translate(480 543.332)" fill="#854BFE"/>
<path d="M539.61 664.939H549.417C551.524 664.939 553.321 665.257 554.806 665.892C556.292 666.526 557.428 667.466 558.215 668.71C559.015 669.941 559.415 671.465 559.415 673.28C559.415 674.664 559.161 675.883 558.653 676.937C558.145 677.99 557.428 678.879 556.501 679.603C555.574 680.313 554.47 680.866 553.188 681.259L551.74 681.964H542.923L542.885 678.174H549.493C550.636 678.174 551.588 677.971 552.35 677.565C553.111 677.159 553.683 676.606 554.063 675.908C554.457 675.197 554.654 674.397 554.654 673.509C554.654 672.544 554.463 671.706 554.083 670.995C553.714 670.271 553.143 669.719 552.369 669.338C551.594 668.945 550.61 668.748 549.417 668.748H544.39V692.666H539.61V664.939ZM555.435 692.666L548.922 680.212L553.93 680.193L560.538 692.418V692.666H555.435ZM562.842 682.592V682.154C562.842 680.669 563.058 679.292 563.49 678.022C563.921 676.74 564.543 675.629 565.356 674.689C566.181 673.737 567.184 673.001 568.365 672.48C569.558 671.947 570.904 671.681 572.402 671.681C573.913 671.681 575.258 671.947 576.439 672.48C577.632 673.001 578.642 673.737 579.467 674.689C580.292 675.629 580.92 676.74 581.352 678.022C581.784 679.292 582 680.669 582 682.154V682.592C582 684.078 581.784 685.455 581.352 686.725C580.92 687.994 580.292 689.105 579.467 690.057C578.642 690.997 577.639 691.733 576.458 692.266C575.277 692.787 573.938 693.047 572.44 693.047C570.929 693.047 569.577 692.787 568.384 692.266C567.203 691.733 566.2 690.997 565.375 690.057C564.55 689.105 563.921 687.994 563.49 686.725C563.058 685.455 562.842 684.078 562.842 682.592ZM567.432 682.154V682.592C567.432 683.519 567.527 684.395 567.717 685.22C567.908 686.045 568.206 686.769 568.612 687.391C569.019 688.013 569.539 688.502 570.174 688.857C570.809 689.213 571.564 689.391 572.44 689.391C573.291 689.391 574.027 689.213 574.649 688.857C575.284 688.502 575.804 688.013 576.21 687.391C576.617 686.769 576.915 686.045 577.105 685.22C577.309 684.395 577.41 683.519 577.41 682.592V682.154C577.41 681.24 577.309 680.377 577.105 679.564C576.915 678.739 576.61 678.009 576.191 677.375C575.785 676.74 575.265 676.245 574.63 675.889C574.008 675.521 573.265 675.337 572.402 675.337C571.539 675.337 570.79 675.521 570.155 675.889C569.533 676.245 569.019 676.74 568.612 677.375C568.206 678.009 567.908 678.739 567.717 679.564C567.527 680.377 567.432 681.24 567.432 682.154ZM585.865 663.416H590.455V688.267L590.017 692.666H585.865V663.416ZM603.899 682.173V682.573C603.899 684.097 603.728 685.5 603.385 686.782C603.055 688.051 602.547 689.156 601.861 690.095C601.188 691.035 600.351 691.765 599.348 692.285C598.357 692.793 597.208 693.047 595.901 693.047C594.619 693.047 593.501 692.806 592.549 692.323C591.597 691.841 590.797 691.155 590.15 690.267C589.515 689.378 589.001 688.318 588.607 687.086C588.214 685.855 587.935 684.497 587.77 683.011V681.735C587.935 680.237 588.214 678.879 588.607 677.66C589.001 676.429 589.515 675.369 590.15 674.48C590.797 673.579 591.591 672.887 592.53 672.404C593.482 671.922 594.593 671.681 595.863 671.681C597.183 671.681 598.345 671.935 599.348 672.442C600.363 672.95 601.208 673.674 601.88 674.613C602.553 675.54 603.055 676.645 603.385 677.927C603.728 679.209 603.899 680.625 603.899 682.173ZM599.31 682.573V682.173C599.31 681.247 599.233 680.377 599.081 679.564C598.929 678.739 598.675 678.016 598.319 677.394C597.977 676.771 597.507 676.283 596.91 675.927C596.326 675.559 595.596 675.375 594.72 675.375C593.908 675.375 593.209 675.515 592.625 675.794C592.042 676.073 591.553 676.454 591.159 676.937C590.766 677.419 590.455 677.978 590.226 678.612C590.01 679.247 589.864 679.933 589.788 680.669V684.116C589.902 685.068 590.144 685.944 590.512 686.744C590.893 687.531 591.426 688.166 592.111 688.648C592.797 689.118 593.679 689.353 594.758 689.353C595.609 689.353 596.326 689.181 596.91 688.838C597.494 688.496 597.958 688.02 598.3 687.41C598.656 686.788 598.91 686.064 599.062 685.239C599.227 684.414 599.31 683.525 599.31 682.573ZM606.908 682.592V682.154C606.908 680.669 607.124 679.292 607.555 678.022C607.987 676.74 608.609 675.629 609.421 674.689C610.247 673.737 611.25 673.001 612.43 672.48C613.624 671.947 614.969 671.681 616.467 671.681C617.978 671.681 619.324 671.947 620.504 672.48C621.698 673.001 622.707 673.737 623.532 674.689C624.357 675.629 624.986 676.74 625.417 678.022C625.849 679.292 626.065 680.669 626.065 682.154V682.592C626.065 684.078 625.849 685.455 625.417 686.725C624.986 687.994 624.357 689.105 623.532 690.057C622.707 690.997 621.704 691.733 620.523 692.266C619.343 692.787 618.003 693.047 616.505 693.047C614.995 693.047 613.643 692.787 612.449 692.266C611.269 691.733 610.266 690.997 609.44 690.057C608.615 689.105 607.987 687.994 607.555 686.725C607.124 685.455 606.908 684.078 606.908 682.592ZM611.497 682.154V682.592C611.497 683.519 611.592 684.395 611.783 685.22C611.973 686.045 612.271 686.769 612.678 687.391C613.084 688.013 613.604 688.502 614.239 688.857C614.874 689.213 615.629 689.391 616.505 689.391C617.356 689.391 618.092 689.213 618.714 688.857C619.349 688.502 619.87 688.013 620.276 687.391C620.682 686.769 620.98 686.045 621.171 685.22C621.374 684.395 621.476 683.519 621.476 682.592V682.154C621.476 681.24 621.374 680.377 621.171 679.564C620.98 678.739 620.676 678.009 620.257 677.375C619.851 676.74 619.33 676.245 618.695 675.889C618.073 675.521 617.331 675.337 616.467 675.337C615.604 675.337 614.855 675.521 614.22 675.889C613.598 676.245 613.084 676.74 612.678 677.375C612.271 678.009 611.973 678.739 611.783 679.564C611.592 680.377 611.497 681.24 611.497 682.154ZM639.357 672.062V675.413H627.741V672.062H639.357ZM631.092 667.015H635.682V686.972C635.682 687.607 635.771 688.096 635.948 688.438C636.139 688.769 636.399 688.991 636.729 689.105C637.059 689.219 637.446 689.276 637.891 689.276C638.208 689.276 638.513 689.257 638.805 689.219C639.097 689.181 639.332 689.143 639.509 689.105L639.528 692.609C639.147 692.723 638.703 692.825 638.195 692.914C637.7 693.002 637.129 693.047 636.481 693.047C635.428 693.047 634.495 692.863 633.682 692.495C632.87 692.114 632.235 691.498 631.778 690.647C631.321 689.797 631.092 688.667 631.092 687.258V667.015ZM641.566 682.592V682.154C641.566 680.669 641.782 679.292 642.213 678.022C642.645 676.74 643.267 675.629 644.08 674.689C644.905 673.737 645.908 673.001 647.088 672.48C648.282 671.947 649.627 671.681 651.125 671.681C652.636 671.681 653.982 671.947 655.163 672.48C656.356 673.001 657.365 673.737 658.19 674.689C659.016 675.629 659.644 676.74 660.076 678.022C660.507 679.292 660.723 680.669 660.723 682.154V682.592C660.723 684.078 660.507 685.455 660.076 686.725C659.644 687.994 659.016 689.105 658.19 690.057C657.365 690.997 656.362 691.733 655.182 692.266C654.001 692.787 652.662 693.047 651.164 693.047C649.653 693.047 648.301 692.787 647.107 692.266C645.927 691.733 644.924 690.997 644.099 690.057C643.273 689.105 642.645 687.994 642.213 686.725C641.782 685.455 641.566 684.078 641.566 682.592ZM646.155 682.154V682.592C646.155 683.519 646.25 684.395 646.441 685.22C646.631 686.045 646.93 686.769 647.336 687.391C647.742 688.013 648.263 688.502 648.897 688.857C649.532 689.213 650.288 689.391 651.164 689.391C652.014 689.391 652.75 689.213 653.373 688.857C654.007 688.502 654.528 688.013 654.934 687.391C655.34 686.769 655.639 686.045 655.829 685.22C656.032 684.395 656.134 683.519 656.134 682.592V682.154C656.134 681.24 656.032 680.377 655.829 679.564C655.639 678.739 655.334 678.009 654.915 677.375C654.509 676.74 653.988 676.245 653.354 675.889C652.731 675.521 651.989 675.337 651.125 675.337C650.262 675.337 649.513 675.521 648.878 675.889C648.256 676.245 647.742 676.74 647.336 677.375C646.93 678.009 646.631 678.739 646.441 679.564C646.25 680.377 646.155 681.24 646.155 682.154Z" fill="white"/>
<rect width="240" height="272.333" transform="translate(720 543.332)" fill="#C5CCFF"/>
<path d="M779.61 664.939H789.417C791.524 664.939 793.321 665.257 794.806 665.892C796.292 666.526 797.428 667.466 798.215 668.71C799.015 669.941 799.415 671.465 799.415 673.28C799.415 674.664 799.161 675.883 798.653 676.937C798.145 677.99 797.428 678.879 796.501 679.603C795.574 680.313 794.47 680.866 793.188 681.259L791.74 681.964H782.923L782.885 678.174H789.493C790.636 678.174 791.588 677.971 792.35 677.565C793.111 677.159 793.683 676.606 794.063 675.908C794.457 675.197 794.654 674.397 794.654 673.509C794.654 672.544 794.463 671.706 794.083 670.995C793.714 670.271 793.143 669.719 792.369 669.338C791.594 668.945 790.61 668.748 789.417 668.748H784.39V692.666H779.61V664.939ZM795.435 692.666L788.922 680.212L793.93 680.193L800.538 692.418V692.666H795.435ZM802.842 682.592V682.154C802.842 680.669 803.058 679.292 803.49 678.022C803.921 676.74 804.543 675.629 805.356 674.689C806.181 673.737 807.184 673.001 808.365 672.48C809.558 671.947 810.904 671.681 812.402 671.681C813.913 671.681 815.258 671.947 816.439 672.48C817.632 673.001 818.642 673.737 819.467 674.689C820.292 675.629 820.92 676.74 821.352 678.022C821.784 679.292 822 680.669 822 682.154V682.592C822 684.078 821.784 685.455 821.352 686.725C820.92 687.994 820.292 689.105 819.467 690.057C818.642 690.997 817.639 691.733 816.458 692.266C815.277 692.787 813.938 693.047 812.44 693.047C810.929 693.047 809.577 692.787 808.384 692.266C807.203 691.733 806.2 690.997 805.375 690.057C804.55 689.105 803.921 687.994 803.49 686.725C803.058 685.455 802.842 684.078 802.842 682.592ZM807.432 682.154V682.592C807.432 683.519 807.527 684.395 807.717 685.22C807.908 686.045 808.206 686.769 808.612 687.391C809.019 688.013 809.539 688.502 810.174 688.857C810.809 689.213 811.564 689.391 812.44 689.391C813.291 689.391 814.027 689.213 814.649 688.857C815.284 688.502 815.804 688.013 816.21 687.391C816.617 686.769 816.915 686.045 817.105 685.22C817.309 684.395 817.41 683.519 817.41 682.592V682.154C817.41 681.24 817.309 680.377 817.105 679.564C816.915 678.739 816.61 678.009 816.191 677.375C815.785 676.74 815.265 676.245 814.63 675.889C814.008 675.521 813.265 675.337 812.402 675.337C811.539 675.337 810.79 675.521 810.155 675.889C809.533 676.245 809.019 676.74 808.612 677.375C808.206 678.009 807.908 678.739 807.717 679.564C807.527 680.377 807.432 681.24 807.432 682.154ZM825.865 663.416H830.455V688.267L830.017 692.666H825.865V663.416ZM843.899 682.173V682.573C843.899 684.097 843.728 685.5 843.385 686.782C843.055 688.051 842.547 689.156 841.861 690.095C841.188 691.035 840.351 691.765 839.348 692.285C838.357 692.793 837.208 693.047 835.901 693.047C834.619 693.047 833.501 692.806 832.549 692.323C831.597 691.841 830.797 691.155 830.15 690.267C829.515 689.378 829.001 688.318 828.607 687.086C828.214 685.855 827.935 684.497 827.77 683.011V681.735C827.935 680.237 828.214 678.879 828.607 677.66C829.001 676.429 829.515 675.369 830.15 674.48C830.797 673.579 831.591 672.887 832.53 672.404C833.482 671.922 834.593 671.681 835.863 671.681C837.183 671.681 838.345 671.935 839.348 672.442C840.363 672.95 841.208 673.674 841.88 674.613C842.553 675.54 843.055 676.645 843.385 677.927C843.728 679.209 843.899 680.625 843.899 682.173ZM839.31 682.573V682.173C839.31 681.247 839.233 680.377 839.081 679.564C838.929 678.739 838.675 678.016 838.319 677.394C837.977 676.771 837.507 676.283 836.91 675.927C836.326 675.559 835.596 675.375 834.72 675.375C833.908 675.375 833.209 675.515 832.625 675.794C832.042 676.073 831.553 676.454 831.159 676.937C830.766 677.419 830.455 677.978 830.226 678.612C830.01 679.247 829.864 679.933 829.788 680.669V684.116C829.902 685.068 830.144 685.944 830.512 686.744C830.893 687.531 831.426 688.166 832.111 688.648C832.797 689.118 833.679 689.353 834.758 689.353C835.609 689.353 836.326 689.181 836.91 688.838C837.494 688.496 837.958 688.02 838.3 687.41C838.656 686.788 838.91 686.064 839.062 685.239C839.227 684.414 839.31 683.525 839.31 682.573ZM846.908 682.592V682.154C846.908 680.669 847.124 679.292 847.555 678.022C847.987 676.74 848.609 675.629 849.421 674.689C850.247 673.737 851.25 673.001 852.43 672.48C853.624 671.947 854.969 671.681 856.467 671.681C857.978 671.681 859.324 671.947 860.504 672.48C861.698 673.001 862.707 673.737 863.532 674.689C864.357 675.629 864.986 676.74 865.417 678.022C865.849 679.292 866.065 680.669 866.065 682.154V682.592C866.065 684.078 865.849 685.455 865.417 686.725C864.986 687.994 864.357 689.105 863.532 690.057C862.707 690.997 861.704 691.733 860.523 692.266C859.343 692.787 858.003 693.047 856.505 693.047C854.995 693.047 853.643 692.787 852.449 692.266C851.269 691.733 850.266 690.997 849.44 690.057C848.615 689.105 847.987 687.994 847.555 686.725C847.124 685.455 846.908 684.078 846.908 682.592ZM851.497 682.154V682.592C851.497 683.519 851.592 684.395 851.783 685.22C851.973 686.045 852.271 686.769 852.678 687.391C853.084 688.013 853.604 688.502 854.239 688.857C854.874 689.213 855.629 689.391 856.505 689.391C857.356 689.391 858.092 689.213 858.714 688.857C859.349 688.502 859.87 688.013 860.276 687.391C860.682 686.769 860.98 686.045 861.171 685.22C861.374 684.395 861.476 683.519 861.476 682.592V682.154C861.476 681.24 861.374 680.377 861.171 679.564C860.98 678.739 860.676 678.009 860.257 677.375C859.851 676.74 859.33 676.245 858.695 675.889C858.073 675.521 857.331 675.337 856.467 675.337C855.604 675.337 854.855 675.521 854.22 675.889C853.598 676.245 853.084 676.74 852.678 677.375C852.271 678.009 851.973 678.739 851.783 679.564C851.592 680.377 851.497 681.24 851.497 682.154ZM879.357 672.062V675.413H867.741V672.062H879.357ZM871.092 667.015H875.682V686.972C875.682 687.607 875.771 688.096 875.948 688.438C876.139 688.769 876.399 688.991 876.729 689.105C877.059 689.219 877.446 689.276 877.891 689.276C878.208 689.276 878.513 689.257 878.805 689.219C879.097 689.181 879.332 689.143 879.509 689.105L879.528 692.609C879.147 692.723 878.703 692.825 878.195 692.914C877.7 693.002 877.129 693.047 876.481 693.047C875.428 693.047 874.495 692.863 873.682 692.495C872.87 692.114 872.235 691.498 871.778 690.647C871.321 689.797 871.092 688.667 871.092 687.258V667.015ZM881.566 682.592V682.154C881.566 680.669 881.782 679.292 882.213 678.022C882.645 676.74 883.267 675.629 884.08 674.689C884.905 673.737 885.908 673.001 887.088 672.48C888.282 671.947 889.627 671.681 891.125 671.681C892.636 671.681 893.982 671.947 895.163 672.48C896.356 673.001 897.365 673.737 898.19 674.689C899.016 675.629 899.644 676.74 900.076 678.022C900.507 679.292 900.723 680.669 900.723 682.154V682.592C900.723 684.078 900.507 685.455 900.076 686.725C899.644 687.994 899.016 689.105 898.19 690.057C897.365 690.997 896.362 691.733 895.182 692.266C894.001 692.787 892.662 693.047 891.164 693.047C889.653 693.047 888.301 692.787 887.107 692.266C885.927 691.733 884.924 690.997 884.099 690.057C883.273 689.105 882.645 687.994 882.213 686.725C881.782 685.455 881.566 684.078 881.566 682.592ZM886.155 682.154V682.592C886.155 683.519 886.25 684.395 886.441 685.22C886.631 686.045 886.93 686.769 887.336 687.391C887.742 688.013 888.263 688.502 888.897 688.857C889.532 689.213 890.288 689.391 891.164 689.391C892.014 689.391 892.75 689.213 893.373 688.857C894.007 688.502 894.528 688.013 894.934 687.391C895.34 686.769 895.639 686.045 895.829 685.22C896.032 684.395 896.134 683.519 896.134 682.592V682.154C896.134 681.24 896.032 680.377 895.829 679.564C895.639 678.739 895.334 678.009 894.915 677.375C894.509 676.74 893.988 676.245 893.354 675.889C892.731 675.521 891.989 675.337 891.125 675.337C890.262 675.337 889.513 675.521 888.878 675.889C888.256 676.245 887.742 676.74 887.336 677.375C886.93 678.009 886.631 678.739 886.441 679.564C886.25 680.377 886.155 681.24 886.155 682.154Z" fill="white"/>
<rect width="240" height="272.333" transform="translate(960 543.332)" fill="white"/>
<path d="M1019.61 664.939H1029.42C1031.52 664.939 1033.32 665.257 1034.81 665.892C1036.29 666.526 1037.43 667.466 1038.21 668.71C1039.01 669.941 1039.41 671.465 1039.41 673.28C1039.41 674.664 1039.16 675.883 1038.65 676.937C1038.15 677.99 1037.43 678.879 1036.5 679.603C1035.57 680.313 1034.47 680.866 1033.19 681.259L1031.74 681.964H1022.92L1022.89 678.174H1029.49C1030.64 678.174 1031.59 677.971 1032.35 677.565C1033.11 677.159 1033.68 676.606 1034.06 675.908C1034.46 675.197 1034.65 674.397 1034.65 673.509C1034.65 672.544 1034.46 671.706 1034.08 670.995C1033.71 670.271 1033.14 669.719 1032.37 669.338C1031.59 668.945 1030.61 668.748 1029.42 668.748H1024.39V692.666H1019.61V664.939ZM1035.43 692.666L1028.92 680.212L1033.93 680.193L1040.54 692.418V692.666H1035.43ZM1042.84 682.592V682.154C1042.84 680.669 1043.06 679.292 1043.49 678.022C1043.92 676.74 1044.54 675.629 1045.36 674.689C1046.18 673.737 1047.18 673.001 1048.36 672.48C1049.56 671.947 1050.9 671.681 1052.4 671.681C1053.91 671.681 1055.26 671.947 1056.44 672.48C1057.63 673.001 1058.64 673.737 1059.47 674.689C1060.29 675.629 1060.92 676.74 1061.35 678.022C1061.78 679.292 1062 680.669 1062 682.154V682.592C1062 684.078 1061.78 685.455 1061.35 686.725C1060.92 687.994 1060.29 689.105 1059.47 690.057C1058.64 690.997 1057.64 691.733 1056.46 692.266C1055.28 692.787 1053.94 693.047 1052.44 693.047C1050.93 693.047 1049.58 692.787 1048.38 692.266C1047.2 691.733 1046.2 690.997 1045.38 690.057C1044.55 689.105 1043.92 687.994 1043.49 686.725C1043.06 685.455 1042.84 684.078 1042.84 682.592ZM1047.43 682.154V682.592C1047.43 683.519 1047.53 684.395 1047.72 685.22C1047.91 686.045 1048.21 686.769 1048.61 687.391C1049.02 688.013 1049.54 688.502 1050.17 688.857C1050.81 689.213 1051.56 689.391 1052.44 689.391C1053.29 689.391 1054.03 689.213 1054.65 688.857C1055.28 688.502 1055.8 688.013 1056.21 687.391C1056.62 686.769 1056.92 686.045 1057.11 685.22C1057.31 684.395 1057.41 683.519 1057.41 682.592V682.154C1057.41 681.24 1057.31 680.377 1057.11 679.564C1056.92 678.739 1056.61 678.009 1056.19 677.375C1055.79 676.74 1055.26 676.245 1054.63 675.889C1054.01 675.521 1053.27 675.337 1052.4 675.337C1051.54 675.337 1050.79 675.521 1050.15 675.889C1049.53 676.245 1049.02 676.74 1048.61 677.375C1048.21 678.009 1047.91 678.739 1047.72 679.564C1047.53 680.377 1047.43 681.24 1047.43 682.154ZM1065.87 663.416H1070.45V688.267L1070.02 692.666H1065.87V663.416ZM1083.9 682.173V682.573C1083.9 684.097 1083.73 685.5 1083.38 686.782C1083.05 688.051 1082.55 689.156 1081.86 690.095C1081.19 691.035 1080.35 691.765 1079.35 692.285C1078.36 692.793 1077.21 693.047 1075.9 693.047C1074.62 693.047 1073.5 692.806 1072.55 692.323C1071.6 691.841 1070.8 691.155 1070.15 690.267C1069.52 689.378 1069 688.318 1068.61 687.086C1068.21 685.855 1067.93 684.497 1067.77 683.011V681.735C1067.93 680.237 1068.21 678.879 1068.61 677.66C1069 676.429 1069.52 675.369 1070.15 674.48C1070.8 673.579 1071.59 672.887 1072.53 672.404C1073.48 671.922 1074.59 671.681 1075.86 671.681C1077.18 671.681 1078.34 671.935 1079.35 672.442C1080.36 672.95 1081.21 673.674 1081.88 674.613C1082.55 675.54 1083.05 676.645 1083.38 677.927C1083.73 679.209 1083.9 680.625 1083.9 682.173ZM1079.31 682.573V682.173C1079.31 681.247 1079.23 680.377 1079.08 679.564C1078.93 678.739 1078.67 678.016 1078.32 677.394C1077.98 676.771 1077.51 676.283 1076.91 675.927C1076.33 675.559 1075.6 675.375 1074.72 675.375C1073.91 675.375 1073.21 675.515 1072.63 675.794C1072.04 676.073 1071.55 676.454 1071.16 676.937C1070.77 677.419 1070.45 677.978 1070.23 678.612C1070.01 679.247 1069.86 679.933 1069.79 680.669V684.116C1069.9 685.068 1070.14 685.944 1070.51 686.744C1070.89 687.531 1071.43 688.166 1072.11 688.648C1072.8 689.118 1073.68 689.353 1074.76 689.353C1075.61 689.353 1076.33 689.181 1076.91 688.838C1077.49 688.496 1077.96 688.02 1078.3 687.41C1078.66 686.788 1078.91 686.064 1079.06 685.239C1079.23 684.414 1079.31 683.525 1079.31 682.573ZM1086.91 682.592V682.154C1086.91 680.669 1087.12 679.292 1087.56 678.022C1087.99 676.74 1088.61 675.629 1089.42 674.689C1090.25 673.737 1091.25 673.001 1092.43 672.48C1093.62 671.947 1094.97 671.681 1096.47 671.681C1097.98 671.681 1099.32 671.947 1100.5 672.48C1101.7 673.001 1102.71 673.737 1103.53 674.689C1104.36 675.629 1104.99 676.74 1105.42 678.022C1105.85 679.292 1106.06 680.669 1106.06 682.154V682.592C1106.06 684.078 1105.85 685.455 1105.42 686.725C1104.99 687.994 1104.36 689.105 1103.53 690.057C1102.71 690.997 1101.7 691.733 1100.52 692.266C1099.34 692.787 1098 693.047 1096.51 693.047C1094.99 693.047 1093.64 692.787 1092.45 692.266C1091.27 691.733 1090.27 690.997 1089.44 690.057C1088.62 689.105 1087.99 687.994 1087.56 686.725C1087.12 685.455 1086.91 684.078 1086.91 682.592ZM1091.5 682.154V682.592C1091.5 683.519 1091.59 684.395 1091.78 685.22C1091.97 686.045 1092.27 686.769 1092.68 687.391C1093.08 688.013 1093.6 688.502 1094.24 688.857C1094.87 689.213 1095.63 689.391 1096.51 689.391C1097.36 689.391 1098.09 689.213 1098.71 688.857C1099.35 688.502 1099.87 688.013 1100.28 687.391C1100.68 686.769 1100.98 686.045 1101.17 685.22C1101.37 684.395 1101.48 683.519 1101.48 682.592V682.154C1101.48 681.24 1101.37 680.377 1101.17 679.564C1100.98 678.739 1100.68 678.009 1100.26 677.375C1099.85 676.74 1099.33 676.245 1098.7 675.889C1098.07 675.521 1097.33 675.337 1096.47 675.337C1095.6 675.337 1094.85 675.521 1094.22 675.889C1093.6 676.245 1093.08 676.74 1092.68 677.375C1092.27 678.009 1091.97 678.739 1091.78 679.564C1091.59 680.377 1091.5 681.24 1091.5 682.154ZM1119.36 672.062V675.413H1107.74V672.062H1119.36ZM1111.09 667.015H1115.68V686.972C1115.68 687.607 1115.77 688.096 1115.95 688.438C1116.14 688.769 1116.4 688.991 1116.73 689.105C1117.06 689.219 1117.45 689.276 1117.89 689.276C1118.21 689.276 1118.51 689.257 1118.8 689.219C1119.1 689.181 1119.33 689.143 1119.51 689.105L1119.53 692.609C1119.15 692.723 1118.7 692.825 1118.2 692.914C1117.7 693.002 1117.13 693.047 1116.48 693.047C1115.43 693.047 1114.49 692.863 1113.68 692.495C1112.87 692.114 1112.23 691.498 1111.78 690.647C1111.32 689.797 1111.09 688.667 1111.09 687.258V667.015ZM1121.57 682.592V682.154C1121.57 680.669 1121.78 679.292 1122.21 678.022C1122.65 676.74 1123.27 675.629 1124.08 674.689C1124.9 673.737 1125.91 673.001 1127.09 672.48C1128.28 671.947 1129.63 671.681 1131.13 671.681C1132.64 671.681 1133.98 671.947 1135.16 672.48C1136.36 673.001 1137.37 673.737 1138.19 674.689C1139.02 675.629 1139.64 676.74 1140.08 678.022C1140.51 679.292 1140.72 680.669 1140.72 682.154V682.592C1140.72 684.078 1140.51 685.455 1140.08 686.725C1139.64 687.994 1139.02 689.105 1138.19 690.057C1137.37 690.997 1136.36 691.733 1135.18 692.266C1134 692.787 1132.66 693.047 1131.16 693.047C1129.65 693.047 1128.3 692.787 1127.11 692.266C1125.93 691.733 1124.92 690.997 1124.1 690.057C1123.27 689.105 1122.65 687.994 1122.21 686.725C1121.78 685.455 1121.57 684.078 1121.57 682.592ZM1126.16 682.154V682.592C1126.16 683.519 1126.25 684.395 1126.44 685.22C1126.63 686.045 1126.93 686.769 1127.34 687.391C1127.74 688.013 1128.26 688.502 1128.9 688.857C1129.53 689.213 1130.29 689.391 1131.16 689.391C1132.01 689.391 1132.75 689.213 1133.37 688.857C1134.01 688.502 1134.53 688.013 1134.93 687.391C1135.34 686.769 1135.64 686.045 1135.83 685.22C1136.03 684.395 1136.13 683.519 1136.13 682.592V682.154C1136.13 681.24 1136.03 680.377 1135.83 679.564C1135.64 678.739 1135.33 678.009 1134.92 677.375C1134.51 676.74 1133.99 676.245 1133.35 675.889C1132.73 675.521 1131.99 675.337 1131.13 675.337C1130.26 675.337 1129.51 675.521 1128.88 675.889C1128.26 676.245 1127.74 676.74 1127.34 677.375C1126.93 678.009 1126.63 678.739 1126.44 679.564C1126.25 680.377 1126.16 681.24 1126.16 682.154Z" fill="#26293E"/>
</g>
<defs>
<radialGradient id="paint0_radial_156_8800" cx="0" cy="0" r="1" gradientUnits="userSpaceOnUse" gradientTransform="translate(600 136.167) rotate(90) scale(136.167 600)">
<stop offset="0.049278" stop-color="#202338"/>
<stop offset="1" stop-color="#282B41"/>
</radialGradient>
<linearGradient id="paint1_linear_156_8800" x1="656.577" y1="103.758" x2="638.985" y2="117.156" gradientUnits="userSpaceOnUse">
<stop offset="0.996145" stop-color="white"/>
<stop offset="1" stop-color="white" stop-opacity="0"/>
</linearGradient>
<linearGradient id="paint2_linear_156_8800" x1="668.187" y1="179.307" x2="639.162" y2="156.088" gradientUnits="userSpaceOnUse">
<stop offset="0.98073" stop-color="white"/>
<stop offset="1" stop-color="white" stop-opacity="0"/>
</linearGradient>
<clipPath id="clip0_156_8800">
<rect y="0.666016" width="1200" height="815" rx="12" fill="white"/>
</clipPath>
</defs>
</svg>
