<svg width="1440" height="1381" viewBox="0 0 1440 1381" fill="none" xmlns="http://www.w3.org/2000/svg">
<g filter="url(#filter0_d_148_8350)">
<rect width="1920" height="1080" transform="translate(-239 147.666)" fill="#9747FF"/>
<g clip-path="url(#clip0_148_8350)">
<path fill-rule="evenodd" clip-rule="evenodd" d="M939 687.967C939 674.08 937.71 660.53 935.043 646.543L934.005 641.164H933.866C921.95 588.578 890.688 541.061 847.458 510.13C844.481 507.993 840.359 508.688 838.222 511.658C836.098 514.629 836.773 518.764 839.743 520.888C881.717 550.926 911.695 597.649 922.023 649.077L922.294 650.42C924.636 663.09 925.768 675.383 925.768 687.967C925.768 691.619 928.725 694.583 932.384 694.583C936.042 694.583 939 691.619 939 687.967ZM556.543 564.615C587.064 523.72 631.525 495.846 681.755 486.126C694.478 483.632 707.598 482.375 720.738 482.375C752.059 482.375 782.262 489.395 810.533 503.229C813.828 504.837 817.791 503.487 819.385 500.199C820.987 496.917 819.63 492.954 816.349 491.347C786.258 476.612 754.097 469.143 720.738 469.143C706.744 469.143 692.771 470.486 679.227 473.139C625.768 483.487 578.436 513.16 545.937 556.702C543.747 559.633 544.356 563.774 547.28 565.958C548.471 566.844 549.854 567.274 551.23 567.274C553.255 567.274 555.246 566.355 556.543 564.615ZM516.389 743.213C519.942 742.359 522.132 738.786 521.285 735.234C521.153 734.684 521.021 734.221 520.895 733.791H520.908L519.519 725.898C510.679 681.179 517.633 634.045 538.812 593.17C540.492 589.928 539.566 585.932 536.324 584.251C533.075 582.571 529.767 583.841 528.087 587.083C505.644 630.386 495.713 680.312 508.946 727.744V727.777C508.946 732.786 508.575 734.625 509.29 736.702C509.442 737.152 508.251 737.635 508.417 738.33C509.144 741.354 511.857 743.405 514.848 743.405C515.357 743.391 515.873 743.325 516.389 743.213ZM672.929 896.596C725.819 826.107 742.035 763.247 727.188 686.399C726.494 682.813 723.007 680.464 719.434 681.159C715.848 681.854 713.506 685.321 714.194 688.913C728.472 762.684 713.44 820.55 662.35 888.65C660.153 891.575 660.748 895.723 663.673 897.906C664.864 898.8 666.26 899.23 667.636 899.23C669.647 899.25 671.632 898.336 672.929 896.596ZM701.888 901.797C753.574 828.734 768.91 762.81 753.164 681.384C751.483 672.69 746.514 665.174 739.184 660.219C731.873 655.277 723.067 653.484 714.406 655.171C705.732 656.851 698.229 661.807 693.28 669.138C688.338 676.462 686.538 685.281 688.219 693.955C694.114 724.449 694.134 751.999 688.285 778.179C687.491 781.746 689.734 785.279 693.3 786.073C696.886 786.873 700.406 784.624 701.2 781.057C707.452 753.077 707.459 723.748 701.213 691.428C700.207 686.214 701.286 680.921 704.25 676.521C707.214 672.121 711.713 669.151 716.927 668.138C722.134 667.133 727.4 668.205 731.78 671.162C736.186 674.133 739.164 678.645 740.189 683.872C755.182 761.414 740.5 824.308 691.097 894.135C688.986 897.119 689.694 901.241 692.678 903.365C693.843 904.185 695.173 904.582 696.496 904.582C698.553 904.582 700.598 903.616 701.888 901.797ZM646.259 887.903C666.114 862.43 680.471 838.804 690.144 815.654C691.553 812.279 689.959 808.402 686.585 806.993C683.197 805.57 679.333 807.165 677.931 810.546C668.721 832.591 654.946 855.232 635.825 879.758C633.576 882.643 634.092 886.791 636.976 889.034C638.187 889.98 639.616 890.437 641.039 890.437C643.01 890.45 644.955 889.577 646.259 887.903ZM621.779 876.179C669.23 816.944 685.381 768.963 677.507 710.581C677.018 706.949 673.663 704.455 670.064 704.911C666.445 705.401 663.904 708.729 664.394 712.355C671.831 767.461 656.984 811.082 611.458 867.915C609.168 870.773 609.631 874.941 612.483 877.211C613.7 878.19 615.163 878.666 616.618 878.666C618.55 878.66 620.475 877.826 621.779 876.179ZM778.782 740.407C782.44 740.407 785.352 737.536 785.299 733.897C785.014 715.272 782.957 696.032 779.132 676.343C773.72 648.369 749.167 628.071 720.724 628.071C716.92 628.071 713.096 628.441 709.364 629.162C693.743 632.193 680.24 641.124 671.334 654.311C667.06 660.649 664.076 667.649 662.469 675.119C661.701 678.691 663.97 682.211 667.543 682.979C671.129 683.726 674.636 681.47 675.403 677.904C676.654 672.088 678.983 666.63 682.304 661.701C689.225 651.446 699.731 644.486 711.885 642.13C714.79 641.568 717.767 641.257 720.724 641.257C742.836 641.257 761.937 657.003 766.145 678.758C769.803 697.693 771.795 716.245 772.066 734.096C772.119 737.715 775.063 740.414 778.682 740.414C778.709 740.407 778.749 740.407 778.782 740.407ZM733.064 902.802C761.804 858.547 778.299 815.131 783.479 770.074C783.889 766.442 781.296 763.161 777.664 762.75C774.018 762.34 770.75 764.94 770.339 768.566C765.39 811.538 749.564 853.088 721.962 895.591C719.97 898.661 720.843 902.756 723.907 904.748C725.025 905.469 726.275 905.813 727.506 905.813C729.669 905.813 731.807 904.754 733.064 902.802ZM766.707 898.819C808.938 826.445 821.152 754.149 805.127 671.301C800.423 647.013 785.424 625.881 763.994 613.336C760.845 611.484 756.789 612.542 754.95 615.698C753.104 618.854 754.163 622.903 757.312 624.749C775.46 635.375 788.15 653.259 792.14 673.815C807.509 753.329 795.812 822.706 755.287 892.15C753.455 895.313 754.52 899.362 757.663 901.195C758.708 901.817 759.859 902.101 760.997 902.101C763.26 902.101 765.476 900.943 766.707 898.819ZM599.489 861.683C647.013 803.103 660.497 759.687 649.249 701.504C645.551 682.396 649.507 662.998 660.398 646.881C671.288 630.757 687.789 619.847 706.877 616.142C713.4 614.865 720.169 614.547 726.725 615.07C730.331 615.361 733.56 612.648 733.851 609.009C734.149 605.37 731.436 602.175 727.79 601.884C720.043 601.255 712.051 601.652 704.349 603.147C681.795 607.514 662.29 620.416 649.428 639.464C636.566 658.505 631.888 681.43 636.255 704.005C646.649 757.775 633.9 798.246 589.214 853.326C586.911 856.171 587.341 860.34 590.18 862.629C591.404 863.621 592.879 864.117 594.341 864.117C596.273 864.131 598.179 863.297 599.489 861.683ZM802.746 888.161C812.643 868.352 820.616 847.928 826.445 827.45C827.437 823.937 825.406 820.278 821.893 819.279C818.373 818.267 814.714 820.318 813.722 823.831C808.125 843.521 800.463 863.165 790.922 882.239C789.288 885.508 790.605 889.484 793.873 891.118C794.833 891.581 795.838 891.806 796.831 891.806C799.252 891.819 801.581 890.49 802.746 888.161ZM834.331 792.358C840.855 752.495 839.803 711.243 831.103 666.273C820.881 613.442 774.468 575.095 720.751 575.095C713.559 575.095 706.354 575.789 699.341 577.159C669.839 582.862 644.334 599.733 627.515 624.657C610.69 649.567 604.577 679.545 610.286 709.073C613.171 723.986 613.945 736.504 612.728 748.479C612.357 752.118 615.004 755.36 618.636 755.737C622.328 756.035 625.517 753.461 625.888 749.822C627.25 736.524 626.417 722.775 623.281 706.552C618.233 680.498 623.631 654.046 638.478 632.06C653.318 610.075 675.82 595.188 701.862 590.153C708.048 588.942 714.406 588.334 720.744 588.334C768.149 588.334 809.097 622.169 818.115 668.793C826.511 712.202 827.537 751.926 821.271 790.227C820.682 793.833 823.117 797.234 826.736 797.816C827.1 797.882 827.444 797.909 827.808 797.909C830.99 797.896 833.802 795.6 834.331 792.358ZM579.29 844.547C596.809 822.839 608.99 803.572 616.512 785.669C617.928 782.295 616.347 778.418 612.973 777.002C609.592 775.592 605.728 777.167 604.312 780.528C597.279 797.274 585.72 815.495 568.988 836.237C566.692 839.082 567.142 843.25 569.981 845.539C571.205 846.518 572.673 847.001 574.129 847.001C576.067 847.001 577.986 846.161 579.29 844.547ZM561.201 824.777C604.365 770.273 603.24 742.379 597.292 711.581C590.908 678.592 597.742 645.081 616.539 617.227C623.287 607.236 631.392 598.278 640.642 590.61C643.454 588.274 643.844 584.106 641.508 581.294C639.173 578.482 635.005 578.098 632.193 580.427C621.977 588.896 613.019 598.787 605.569 609.823C584.794 640.602 577.245 677.633 584.298 714.081C589.776 742.419 590.583 766.356 550.827 816.553C548.557 819.425 549.04 823.58 551.912 825.849C553.129 826.815 554.571 827.278 556.014 827.278C557.965 827.285 559.897 826.425 561.201 824.777ZM840.762 868.477C866.619 803.242 871.799 737.39 857.078 661.231C853.307 641.693 845.539 623.552 834.007 607.302C831.89 604.325 827.768 603.624 824.778 605.741C821.8 607.858 821.092 611.987 823.216 614.971C833.65 629.665 840.676 646.08 844.084 663.752C858.309 737.318 853.346 800.82 828.463 863.615C827.12 867.009 828.78 870.859 832.181 872.202C832.982 872.52 833.796 872.666 834.609 872.666C837.243 872.666 839.737 871.084 840.762 868.477ZM809.818 589.644C812.147 586.825 811.744 582.65 808.912 580.328C784.088 559.871 752.78 548.603 720.738 548.603C711.845 548.603 702.947 549.457 694.299 551.151C683.713 553.202 673.339 556.49 663.474 560.936C660.146 562.438 658.658 566.355 660.16 569.683C661.655 573.011 665.565 574.499 668.906 572.997C677.838 568.975 687.233 565.997 696.827 564.138C704.647 562.61 712.692 561.836 720.738 561.836C749.71 561.836 778.041 572.031 800.496 590.537C801.727 591.556 803.209 592.052 804.697 592.052C806.609 592.052 808.495 591.232 809.818 589.644ZM880.883 683.21C884.496 682.654 886.977 679.274 886.414 675.661C885.428 669.224 884.33 662.746 883.06 656.203C868.028 578.509 799.768 522.119 720.738 522.119C710.158 522.119 699.566 523.138 689.277 525.149C645.902 533.551 608.388 558.356 583.65 594.996C570.457 614.534 561.737 636.136 557.727 659.193C557.099 662.793 559.514 666.22 563.113 666.848C566.752 667.477 570.139 665.062 570.768 661.463C574.453 640.251 582.479 620.383 594.613 602.4C617.372 568.69 651.883 545.871 691.798 538.136C701.273 536.291 711.005 535.351 720.738 535.351C793.443 535.351 856.244 587.235 870.072 658.717C871.303 665.102 872.375 671.414 873.334 677.692C873.83 680.961 876.655 683.296 879.864 683.296C880.202 683.29 880.539 683.263 880.883 683.21ZM879.619 836.071C890.278 795.951 893.831 755.062 890.51 711.071C890.232 707.426 887.056 704.713 883.424 704.971C879.772 705.242 877.039 708.418 877.317 712.057C880.532 754.553 877.105 794.005 866.837 832.664C865.897 836.19 868.008 839.823 871.534 840.762C872.103 840.908 872.686 840.98 873.241 840.98C876.166 840.987 878.839 839.029 879.619 836.071ZM545.335 802.071C579.184 757.358 575.359 737.562 571.31 716.589C569.947 709.576 569.074 702.351 568.704 695.086C568.525 691.428 565.475 688.622 561.763 688.814C558.118 688.999 555.306 692.109 555.491 695.755C555.888 703.628 556.841 711.488 558.316 719.103C562.087 738.634 565.071 754.063 534.782 794.072C532.579 796.983 533.148 801.138 536.066 803.334C537.263 804.241 538.666 804.677 540.055 804.677C542.053 804.697 544.032 803.791 545.335 802.071ZM531.904 775.566C550.469 748.221 548.087 735.895 545.335 721.631C536.264 674.755 545.983 627.144 572.693 587.566C599.409 547.988 639.927 521.199 686.783 512.128C705.302 508.502 724.694 507.854 743.901 510.381C747.547 510.812 750.855 508.304 751.318 504.685C751.794 501.059 749.253 497.738 745.621 497.261C725.018 494.549 704.151 495.244 684.262 499.14C633.946 508.886 590.425 537.66 561.73 580.169C533.042 622.672 522.602 673.809 532.347 724.151C534.815 736.921 536.443 745.343 520.968 768.136C518.91 771.16 519.704 775.281 522.727 777.333C523.865 778.107 525.156 778.477 526.439 778.477C528.543 778.47 530.621 777.458 531.904 775.566ZM909.69 789.619C909.478 789.619 909.253 789.606 909.009 789.592C905.376 789.209 902.736 785.967 903.094 782.328C907.235 741.698 904.913 699.625 896.041 653.675C883.788 590.398 838.129 538.414 776.883 518.003C773.423 516.845 771.544 513.101 772.701 509.634C773.859 506.174 777.578 504.288 781.071 505.452C846.829 527.365 895.875 583.206 909.029 651.168C918.165 698.408 920.534 741.75 916.267 783.677C915.936 787.085 913.051 789.619 909.69 789.619Z" fill="black" fill-opacity="0.05"/>
</g>
<path d="M603.755 689.465C603.755 693.21 603.459 696.554 602.866 699.495C602.295 702.436 601.364 704.932 600.073 706.985C598.804 709.037 597.132 710.603 595.059 711.682C592.985 712.761 590.467 713.301 587.505 713.301C583.781 713.301 580.724 712.359 578.333 710.476C575.942 708.572 574.175 705.842 573.032 702.288C571.89 698.712 571.319 694.438 571.319 689.465C571.319 684.451 571.837 680.166 572.874 676.611C573.932 673.035 575.646 670.295 578.015 668.391C580.385 666.487 583.548 665.535 587.505 665.535C591.208 665.535 594.255 666.487 596.646 668.391C599.058 670.274 600.846 673.004 602.01 676.58C603.173 680.134 603.755 684.43 603.755 689.465ZM581.062 689.465C581.062 692.999 581.253 695.951 581.634 698.32C582.036 700.669 582.702 702.436 583.633 703.621C584.564 704.806 585.855 705.398 587.505 705.398C589.134 705.398 590.414 704.816 591.345 703.652C592.298 702.467 592.975 700.701 593.377 698.352C593.779 695.982 593.98 693.02 593.98 689.465C593.98 685.932 593.779 682.98 593.377 680.61C592.975 678.241 592.298 676.463 591.345 675.278C590.414 674.072 589.134 673.469 587.505 673.469C585.855 673.469 584.564 674.072 583.633 675.278C582.702 676.463 582.036 678.241 581.634 680.61C581.253 682.98 581.062 685.932 581.062 689.465ZM639.397 676.643C639.397 678.78 638.953 680.632 638.064 682.197C637.176 683.763 635.969 685.043 634.446 686.038C632.944 687.032 631.251 687.762 629.368 688.228V688.418C633.092 688.883 635.917 690.026 637.842 691.846C639.789 693.665 640.762 696.099 640.762 699.146C640.762 701.854 640.095 704.277 638.762 706.414C637.451 708.551 635.419 710.233 632.669 711.46C629.918 712.687 626.374 713.301 622.036 713.301C619.476 713.301 617.085 713.089 614.864 712.666C612.663 712.264 610.589 711.64 608.643 710.793V702.446C610.632 703.462 612.716 704.234 614.895 704.763C617.075 705.271 619.106 705.525 620.989 705.525C624.501 705.525 626.956 704.922 628.352 703.716C629.77 702.489 630.479 700.775 630.479 698.574C630.479 697.284 630.151 696.194 629.495 695.305C628.839 694.417 627.696 693.739 626.067 693.274C624.459 692.808 622.206 692.576 619.307 692.576H615.784V685.054H619.37C622.227 685.054 624.396 684.789 625.877 684.26C627.379 683.71 628.395 682.97 628.924 682.039C629.474 681.086 629.749 680.007 629.749 678.801C629.749 677.151 629.241 675.86 628.225 674.929C627.21 673.998 625.517 673.533 623.147 673.533C621.666 673.533 620.312 673.723 619.085 674.104C617.879 674.464 616.789 674.908 615.816 675.437C614.842 675.945 613.985 676.442 613.245 676.929L608.706 670.168C610.526 668.857 612.652 667.767 615.086 666.899C617.54 666.032 620.46 665.598 623.845 665.598C628.627 665.598 632.415 666.561 635.208 668.486C638.001 670.412 639.397 673.131 639.397 676.643ZM686.782 666.265L669.485 712.666H660.694L677.991 666.265H686.782Z" fill="white"/>
<path d="M708.511 666.307C707.782 666.307 707.131 666.432 706.558 666.682C705.985 666.926 705.501 667.275 705.105 667.729C704.709 668.182 704.407 668.723 704.198 669.354C703.99 669.979 703.886 670.669 703.886 671.424C703.886 672.465 704.05 673.377 704.378 674.158C704.706 674.934 705.198 675.536 705.855 675.963C706.516 676.39 707.339 676.604 708.323 676.604C708.896 676.604 709.417 676.562 709.886 676.479C710.355 676.39 710.79 676.278 711.191 676.143V676.846C710.81 676.986 710.381 677.101 709.902 677.189C709.428 677.278 708.876 677.322 708.245 677.322C707.105 677.322 706.146 677.077 705.37 676.588C704.6 676.098 704.019 675.411 703.628 674.525C703.238 673.64 703.042 672.606 703.042 671.424C703.042 670.575 703.165 669.796 703.409 669.088C703.654 668.374 704.011 667.757 704.48 667.236C704.954 666.71 705.529 666.304 706.206 666.018C706.883 665.726 707.654 665.58 708.519 665.58C709.066 665.58 709.587 665.635 710.081 665.744C710.581 665.848 711.05 666.002 711.488 666.205L711.175 666.908C710.753 666.7 710.321 666.549 709.878 666.455C709.435 666.356 708.98 666.307 708.511 666.307ZM721.878 677.166H721.073V671.541H714.402V677.166H713.597V665.744H714.402V670.807H721.073V665.744H721.878V677.166ZM732.261 677.166L730.706 673.127H725.909L724.323 677.166H723.503L727.995 665.705H728.73L733.105 677.166H732.261ZM730.448 672.4L728.87 668.119C728.829 668.01 728.777 667.869 728.714 667.697C728.657 667.525 728.594 667.343 728.527 667.15C728.464 666.958 728.402 666.775 728.339 666.604C728.287 666.786 728.23 666.968 728.167 667.15C728.105 667.333 728.045 667.51 727.988 667.682C727.93 667.848 727.876 667.999 727.823 668.135L726.183 672.4H730.448ZM737.527 665.744C738.886 665.744 739.904 666.005 740.581 666.525C741.258 667.046 741.597 667.856 741.597 668.955C741.597 669.518 741.506 670.018 741.323 670.455C741.146 670.887 740.878 671.252 740.519 671.549C740.159 671.846 739.709 672.07 739.167 672.221C738.631 672.372 738.003 672.447 737.284 672.447H735.527V677.166H734.722V665.744H737.527ZM737.441 666.455H735.527V671.736H737.206C737.946 671.736 738.581 671.653 739.113 671.486C739.644 671.314 740.053 671.028 740.339 670.627C740.626 670.226 740.769 669.679 740.769 668.986C740.769 668.106 740.498 667.465 739.956 667.064C739.415 666.658 738.576 666.455 737.441 666.455ZM747.066 677.166H746.253V666.471H742.55V665.744H750.769V666.471H747.066V677.166ZM758.714 677.166H752.472V665.744H758.714V666.471H753.277V670.799H758.409V671.525H753.277V676.439H758.714V677.166ZM764.089 665.744C764.995 665.744 765.751 665.843 766.355 666.041C766.964 666.239 767.422 666.564 767.73 667.018C768.037 667.471 768.191 668.083 768.191 668.854C768.191 669.432 768.084 669.929 767.87 670.346C767.662 670.757 767.373 671.096 767.003 671.361C766.633 671.627 766.206 671.83 765.722 671.971L768.855 677.166H767.902L764.956 672.197H762.12V677.166H761.316V665.744H764.089ZM764.011 666.455H762.12V671.486H764.394C765.326 671.486 766.053 671.262 766.573 670.814C767.1 670.367 767.363 669.723 767.363 668.885C767.363 667.963 767.087 667.327 766.534 666.979C765.982 666.63 765.141 666.455 764.011 666.455Z" fill="white"/>
<path d="M717.079 710.166H704.745V688.75H717.079V692.471H709.286V697.173H716.537V700.894H709.286V706.416H717.079V710.166ZM738.876 710.166H733.691L728.71 702.065L723.73 710.166H718.866L725.971 699.121L719.321 688.75H724.33L728.945 696.455L733.471 688.75H738.364L731.64 699.37L738.876 710.166ZM753.906 710.166H741.572V688.75H753.906V692.471H746.113V697.173H753.364V700.894H746.113V706.416H753.906V710.166ZM767.485 692.222C766.615 692.222 765.844 692.393 765.17 692.734C764.506 693.066 763.945 693.55 763.486 694.185C763.036 694.819 762.695 695.586 762.46 696.484C762.226 697.383 762.109 698.394 762.109 699.517C762.109 701.03 762.294 702.324 762.665 703.398C763.046 704.463 763.632 705.278 764.423 705.845C765.214 706.401 766.235 706.68 767.485 706.68C768.354 706.68 769.223 706.582 770.092 706.387C770.971 706.191 771.923 705.913 772.948 705.552V709.36C772.001 709.751 771.069 710.029 770.151 710.195C769.233 710.371 768.202 710.459 767.06 710.459C764.853 710.459 763.036 710.005 761.611 709.097C760.195 708.179 759.145 706.899 758.461 705.259C757.778 703.608 757.436 701.685 757.436 699.487C757.436 697.866 757.656 696.382 758.095 695.034C758.534 693.687 759.179 692.52 760.029 691.533C760.878 690.547 761.928 689.785 763.178 689.248C764.428 688.711 765.864 688.442 767.485 688.442C768.549 688.442 769.614 688.579 770.678 688.853C771.752 689.116 772.778 689.482 773.754 689.951L772.289 693.643C771.489 693.262 770.683 692.93 769.872 692.646C769.062 692.363 768.266 692.222 767.485 692.222ZM794.95 688.75V702.607C794.95 704.082 794.623 705.415 793.969 706.606C793.324 707.788 792.343 708.726 791.025 709.419C789.716 710.112 788.066 710.459 786.073 710.459C783.241 710.459 781.083 709.736 779.599 708.291C778.115 706.846 777.372 704.932 777.372 702.549V688.75H781.899V701.86C781.899 703.628 782.26 704.868 782.983 705.581C783.705 706.294 784.775 706.65 786.191 706.65C787.187 706.65 787.992 706.479 788.608 706.138C789.233 705.796 789.692 705.269 789.985 704.556C790.278 703.843 790.424 702.935 790.424 701.831V688.75H794.95ZM808.456 710.166H803.915V692.529H798.1V688.75H814.272V692.529H808.456V710.166ZM817.568 710.166V688.75H822.109V710.166H817.568ZM846.938 699.429C846.938 701.079 846.733 702.583 846.323 703.94C845.912 705.288 845.287 706.45 844.448 707.427C843.617 708.403 842.563 709.155 841.283 709.683C840.004 710.2 838.49 710.459 836.742 710.459C834.994 710.459 833.481 710.2 832.201 709.683C830.922 709.155 829.863 708.403 829.023 707.427C828.193 706.45 827.573 705.283 827.162 703.926C826.752 702.568 826.547 701.06 826.547 699.399C826.547 697.183 826.908 695.254 827.631 693.613C828.364 691.963 829.487 690.684 831 689.775C832.514 688.867 834.438 688.413 836.772 688.413C839.096 688.413 841.005 688.867 842.499 689.775C844.003 690.684 845.116 691.963 845.839 693.613C846.572 695.264 846.938 697.202 846.938 699.429ZM831.308 699.429C831.308 700.923 831.493 702.212 831.865 703.296C832.245 704.37 832.836 705.2 833.637 705.786C834.438 706.362 835.473 706.65 836.742 706.65C838.031 706.65 839.076 706.362 839.877 705.786C840.678 705.2 841.259 704.37 841.62 703.296C841.991 702.212 842.177 700.923 842.177 699.429C842.177 697.183 841.757 695.415 840.917 694.126C840.077 692.837 838.696 692.192 836.772 692.192C835.492 692.192 834.448 692.485 833.637 693.071C832.836 693.647 832.245 694.478 831.865 695.562C831.493 696.636 831.308 697.925 831.308 699.429ZM870.375 710.166H864.604L855.287 693.965H855.156C855.195 694.639 855.229 695.317 855.258 696.001C855.287 696.685 855.317 697.368 855.346 698.052C855.375 698.726 855.405 699.404 855.434 700.088V710.166H851.376V688.75H857.104L866.406 704.79H866.508C866.489 704.126 866.464 703.467 866.435 702.812C866.406 702.158 866.376 701.504 866.347 700.85C866.327 700.195 866.308 699.541 866.288 698.887V688.75H870.375V710.166Z" fill="white"/>
</g>
<defs>
<filter id="filter0_d_148_8350" x="-389" y="0.666016" width="2220" height="1380" filterUnits="userSpaceOnUse" color-interpolation-filters="sRGB">
<feFlood flood-opacity="0" result="BackgroundImageFix"/>
<feColorMatrix in="SourceAlpha" type="matrix" values="0 0 0 0 0 0 0 0 0 0 0 0 0 0 0 0 0 0 127 0" result="hardAlpha"/>
<feOffset dy="3"/>
<feGaussianBlur stdDeviation="75"/>
<feComposite in2="hardAlpha" operator="out"/>
<feColorMatrix type="matrix" values="0 0 0 0 0.439216 0 0 0 0 0.439216 0 0 0 0 0.439216 0 0 0 0.2 0"/>
<feBlend mode="normal" in2="BackgroundImageFix" result="effect1_dropShadow_148_8350"/>
<feBlend mode="normal" in="SourceGraphic" in2="effect1_dropShadow_148_8350" result="shape"/>
</filter>
<clipPath id="clip0_148_8350">
<rect width="436" height="437.048" fill="white" transform="translate(503 469.143)"/>
</clipPath>
</defs>
</svg>
