<svg width="1440" height="1381" viewBox="0 0 1440 1381" fill="none" xmlns="http://www.w3.org/2000/svg">
<g filter="url(#filter0_d_110_4058)">
<rect width="1441" height="1080" transform="translate(0.5 147.666)" fill="#9747FF"/>
<g clip-path="url(#clip0_110_4058)">
<path fill-rule="evenodd" clip-rule="evenodd" d="M939.5 687.966C939.5 674.079 938.21 660.529 935.543 646.542L934.505 641.163H934.366C922.45 588.578 891.188 541.06 847.958 510.129C844.981 507.992 840.859 508.687 838.722 511.657C836.598 514.628 837.273 518.763 840.243 520.887C882.217 550.925 912.195 597.648 922.523 649.076L922.794 650.419C925.136 663.089 926.268 675.382 926.268 687.966C926.268 691.618 929.225 694.583 932.884 694.583C936.542 694.583 939.5 691.618 939.5 687.966ZM557.043 564.614C587.564 523.719 632.025 495.845 682.255 486.125C694.978 483.631 708.098 482.374 721.238 482.374C752.559 482.374 782.762 489.394 811.033 503.228C814.328 504.836 818.291 503.486 819.885 500.198C821.487 496.916 820.13 492.953 816.849 491.346C786.758 476.611 754.597 469.142 721.238 469.142C707.244 469.142 693.271 470.485 679.727 473.138C626.268 483.486 578.936 513.159 546.437 556.701C544.247 559.632 544.856 563.773 547.78 565.957C548.971 566.843 550.354 567.273 551.73 567.273C553.755 567.273 555.746 566.354 557.043 564.614ZM516.889 743.212C520.442 742.358 522.632 738.785 521.785 735.233C521.653 734.683 521.521 734.22 521.395 733.79H521.408L520.019 725.897C511.179 681.178 518.133 634.044 539.312 593.169C540.992 589.927 540.066 585.931 536.824 584.251C533.575 582.57 530.267 583.84 528.587 587.082C506.144 630.385 496.213 680.311 509.446 727.743V727.776C509.446 732.785 509.075 734.624 509.79 736.701C509.942 737.151 508.751 737.634 508.917 738.329C509.644 741.353 512.357 743.404 515.348 743.404C515.857 743.39 516.373 743.324 516.889 743.212ZM673.429 896.595C726.319 826.106 742.535 763.246 727.688 686.398C726.994 682.812 723.507 680.464 719.934 681.158C716.348 681.853 714.006 685.32 714.694 688.912C728.972 762.683 713.94 820.549 662.85 888.649C660.653 891.574 661.248 895.722 664.173 897.905C665.364 898.799 666.76 899.229 668.136 899.229C670.147 899.249 672.132 898.335 673.429 896.595ZM702.388 901.796C754.074 828.733 769.41 762.809 753.664 681.383C751.983 672.689 747.014 665.173 739.684 660.218C732.373 655.276 723.567 653.483 714.906 655.17C706.232 656.85 698.729 661.806 693.78 669.137C688.838 676.461 687.038 685.28 688.719 693.954C694.614 724.448 694.634 751.998 688.785 778.178C687.991 781.745 690.234 785.278 693.8 786.072C697.386 786.872 700.906 784.623 701.7 781.056C707.952 753.076 707.959 723.747 701.713 691.427C700.707 686.213 701.786 680.92 704.75 676.52C707.714 672.12 712.213 669.15 717.427 668.137C722.634 667.132 727.9 668.204 732.28 671.161C736.686 674.132 739.664 678.644 740.689 683.871C755.682 761.413 741 824.307 691.597 894.134C689.486 897.118 690.194 901.24 693.178 903.364C694.343 904.184 695.673 904.581 696.996 904.581C699.053 904.581 701.098 903.615 702.388 901.796ZM646.759 887.902C666.614 862.429 680.971 838.803 690.644 815.653C692.053 812.278 690.459 808.401 687.085 806.992C683.697 805.57 679.833 807.164 678.431 810.545C669.221 832.59 655.446 855.231 636.325 879.757C634.076 882.642 634.592 886.79 637.476 889.033C638.687 889.979 640.116 890.436 641.539 890.436C643.51 890.449 645.455 889.576 646.759 887.902ZM622.279 876.178C669.73 816.943 685.881 768.962 678.007 710.581C677.518 706.948 674.163 704.454 670.564 704.91C666.945 705.4 664.404 708.728 664.894 712.354C672.331 767.46 657.484 811.081 611.958 867.914C609.668 870.772 610.131 874.941 612.983 877.21C614.2 878.189 615.663 878.665 617.118 878.665C619.05 878.659 620.975 877.825 622.279 876.178ZM779.282 740.406C782.94 740.406 785.852 737.535 785.799 733.896C785.514 715.271 783.457 696.031 779.632 676.342C774.22 648.368 749.667 628.07 721.224 628.07C717.42 628.07 713.596 628.44 709.864 629.161C694.243 632.192 680.74 641.123 671.834 654.31C667.56 660.648 664.576 667.648 662.969 675.118C662.201 678.69 664.47 682.21 668.043 682.978C671.629 683.725 675.136 681.469 675.903 677.903C677.154 672.087 679.483 666.629 682.804 661.7C689.725 651.445 700.231 644.485 712.385 642.129C715.29 641.567 718.267 641.256 721.224 641.256C743.336 641.256 762.437 657.002 766.645 678.757C770.303 697.692 772.295 716.244 772.566 734.095C772.619 737.714 775.563 740.413 779.182 740.413C779.209 740.406 779.249 740.406 779.282 740.406ZM733.564 902.801C762.304 858.546 778.799 815.13 783.979 770.074C784.389 766.441 781.796 763.16 778.164 762.749C774.518 762.339 771.25 764.939 770.839 768.565C765.89 811.537 750.064 853.087 722.462 895.59C720.47 898.66 721.343 902.755 724.407 904.747C725.525 905.468 726.775 905.812 728.006 905.812C730.169 905.812 732.307 904.753 733.564 902.801ZM767.207 898.818C809.438 826.444 821.652 754.148 805.627 671.3C800.923 647.012 785.924 625.88 764.494 613.335C761.345 611.483 757.289 612.541 755.45 615.697C753.604 618.853 754.663 622.902 757.812 624.748C775.96 635.374 788.65 653.258 792.64 673.814C808.009 753.328 796.312 822.706 755.787 892.149C753.955 895.312 755.02 899.361 758.163 901.194C759.208 901.816 760.359 902.1 761.497 902.1C763.76 902.1 765.976 900.942 767.207 898.818ZM599.989 861.682C647.513 803.102 660.997 759.686 649.749 701.503C646.051 682.395 650.007 662.997 660.898 646.88C671.788 630.756 688.289 619.846 707.377 616.141C713.9 614.864 720.669 614.546 727.225 615.069C730.831 615.36 734.06 612.647 734.351 609.008C734.649 605.369 731.936 602.174 728.29 601.883C720.543 601.254 712.551 601.651 704.849 603.146C682.295 607.513 662.79 620.415 649.928 639.463C637.066 658.504 632.388 681.429 636.755 704.004C647.149 757.774 634.4 798.245 589.714 853.325C587.411 856.17 587.841 860.339 590.68 862.628C591.904 863.62 593.379 864.116 594.841 864.116C596.773 864.13 598.679 863.296 599.989 861.682ZM803.246 888.16C813.143 868.351 821.116 847.927 826.945 827.449C827.937 823.936 825.906 820.277 822.393 819.278C818.873 818.266 815.214 820.317 814.222 823.83C808.625 843.52 800.963 863.164 791.422 882.238C789.788 885.507 791.105 889.483 794.373 891.117C795.333 891.58 796.338 891.805 797.331 891.805C799.752 891.819 802.081 890.489 803.246 888.16ZM834.831 792.357C841.355 752.494 840.303 711.242 831.603 666.272C821.381 613.441 774.968 575.094 721.251 575.094C714.059 575.094 706.854 575.788 699.841 577.158C670.339 582.861 644.834 599.732 628.015 624.656C611.19 649.566 605.077 679.544 610.786 709.072C613.671 723.985 614.445 736.503 613.228 748.478C612.857 752.117 615.504 755.359 619.136 755.736C622.828 756.034 626.017 753.46 626.388 749.821C627.75 736.523 626.917 722.774 623.781 706.551C618.733 680.497 624.131 654.045 638.978 632.059C653.818 610.074 676.32 595.187 702.362 590.152C708.548 588.941 714.906 588.333 721.244 588.333C768.649 588.333 809.597 622.168 818.615 668.793C827.011 712.201 828.037 751.925 821.771 790.227C821.182 793.832 823.617 797.233 827.236 797.815C827.6 797.881 827.944 797.908 828.308 797.908C831.49 797.895 834.302 795.599 834.831 792.357ZM579.79 844.546C597.309 822.838 609.49 803.571 617.012 785.668C618.428 782.294 616.847 778.417 613.473 777.001C610.092 775.591 606.228 777.166 604.812 780.527C597.779 797.273 586.22 815.494 569.488 836.236C567.192 839.081 567.642 843.249 570.481 845.538C571.705 846.517 573.173 847 574.629 847C576.567 847 578.486 846.16 579.79 844.546ZM561.701 824.776C604.865 770.272 603.74 742.378 597.792 711.58C591.408 678.591 598.242 645.08 617.039 617.226C623.787 607.235 631.892 598.277 641.142 590.609C643.954 588.273 644.344 584.105 642.008 581.293C639.673 578.481 635.505 578.097 632.693 580.426C622.477 588.895 613.519 598.786 606.069 609.822C585.294 640.601 577.745 677.632 584.798 714.081C590.276 742.418 591.083 766.355 551.327 816.552C549.057 819.424 549.54 823.579 552.412 825.848C553.629 826.814 555.071 827.277 556.514 827.277C558.465 827.284 560.397 826.424 561.701 824.776ZM841.262 868.477C867.119 803.241 872.299 737.389 857.578 661.23C853.807 641.692 846.039 623.551 834.507 607.301C832.39 604.324 828.268 603.623 825.278 605.74C822.3 607.857 821.592 611.986 823.716 614.97C834.15 629.664 841.176 646.079 844.584 663.751C858.809 737.317 853.846 800.819 828.963 863.614C827.62 867.008 829.28 870.858 832.681 872.201C833.482 872.519 834.296 872.665 835.109 872.665C837.743 872.665 840.237 871.083 841.262 868.477ZM810.318 589.643C812.647 586.824 812.244 582.649 809.412 580.327C784.588 559.87 753.28 548.602 721.238 548.602C712.345 548.602 703.447 549.456 694.799 551.15C684.213 553.201 673.839 556.489 663.974 560.935C660.646 562.437 659.158 566.354 660.66 569.682C662.155 573.01 666.065 574.498 669.406 572.996C678.338 568.974 687.733 565.996 697.327 564.137C705.147 562.609 713.192 561.835 721.238 561.835C750.21 561.835 778.541 572.03 800.996 590.536C802.227 591.555 803.709 592.051 805.197 592.051C807.109 592.051 808.995 591.231 810.318 589.643ZM881.383 683.209C884.996 682.653 887.477 679.273 886.914 675.66C885.928 669.223 884.83 662.745 883.56 656.202C868.528 578.508 800.268 522.118 721.238 522.118C710.658 522.118 700.066 523.137 689.777 525.148C646.402 533.55 608.888 558.355 584.15 594.995C570.957 614.533 562.237 636.135 558.227 659.192C557.599 662.792 560.014 666.219 563.613 666.847C567.252 667.476 570.639 665.061 571.268 661.462C574.953 640.25 582.979 620.382 595.113 602.399C617.872 568.689 652.383 545.87 692.298 538.135C701.773 536.29 711.505 535.35 721.238 535.35C793.943 535.35 856.744 587.234 870.572 658.716C871.803 665.101 872.875 671.413 873.834 677.691C874.33 680.96 877.155 683.295 880.364 683.295C880.702 683.289 881.039 683.262 881.383 683.209ZM880.119 836.07C890.778 795.95 894.331 755.061 891.01 711.07C890.732 707.425 887.556 704.712 883.924 704.97C880.272 705.241 877.539 708.417 877.817 712.056C881.032 754.552 877.605 794.004 867.337 832.663C866.397 836.189 868.508 839.822 872.034 840.761C872.603 840.907 873.186 840.979 873.741 840.979C876.666 840.986 879.339 839.028 880.119 836.07ZM545.835 802.07C579.684 757.357 575.859 737.561 571.81 716.588C570.447 709.575 569.574 702.35 569.204 695.085C569.025 691.427 565.975 688.621 562.263 688.813C558.618 688.998 555.806 692.108 555.991 695.754C556.388 703.627 557.341 711.487 558.816 719.102C562.587 738.633 565.571 754.062 535.282 794.071C533.079 796.982 533.648 801.137 536.566 803.333C537.763 804.24 539.166 804.676 540.555 804.676C542.553 804.696 544.532 803.79 545.835 802.07ZM532.404 775.565C550.969 748.22 548.587 735.894 545.835 721.63C536.764 674.754 546.483 627.143 573.193 587.565C599.909 547.987 640.427 521.198 687.283 512.127C705.802 508.501 725.194 507.853 744.401 510.38C748.047 510.811 751.355 508.303 751.818 504.684C752.294 501.058 749.753 497.737 746.121 497.261C725.518 494.548 704.651 495.243 684.762 499.14C634.446 508.885 590.925 537.659 562.23 580.168C533.542 622.671 523.102 673.808 532.847 724.15C535.315 736.92 536.943 745.342 521.468 768.135C519.41 771.159 520.204 775.281 523.227 777.332C524.365 778.106 525.656 778.476 526.939 778.476C529.043 778.469 531.121 777.457 532.404 775.565ZM910.19 789.618C909.978 789.618 909.753 789.605 909.509 789.591C905.876 789.208 903.236 785.966 903.594 782.327C907.735 741.697 905.413 699.624 896.541 653.674C884.288 590.397 838.629 538.413 777.383 518.002C773.923 516.845 772.044 513.1 773.201 509.633C774.359 506.173 778.078 504.287 781.571 505.451C847.329 527.364 896.375 583.205 909.529 651.167C918.665 698.407 921.034 741.75 916.767 783.676C916.436 787.084 913.551 789.618 910.19 789.618Z" fill="black" fill-opacity="0.05"/>
</g>
<path d="M579.625 689.465C579.625 693.21 579.329 696.554 578.737 699.495C578.165 702.436 577.234 704.932 575.944 706.985C574.674 709.037 573.003 710.603 570.929 711.682C568.855 712.761 566.337 713.301 563.375 713.301C559.651 713.301 556.594 712.359 554.203 710.476C551.812 708.572 550.045 705.842 548.903 702.288C547.76 698.712 547.189 694.438 547.189 689.465C547.189 684.451 547.707 680.166 548.744 676.611C549.802 673.035 551.516 670.295 553.885 668.391C556.255 666.487 559.419 665.535 563.375 665.535C567.078 665.535 570.125 666.487 572.516 668.391C574.928 670.274 576.716 673.004 577.88 676.58C579.043 680.134 579.625 684.43 579.625 689.465ZM556.932 689.465C556.932 692.999 557.123 695.951 557.504 698.32C557.906 700.669 558.572 702.436 559.503 703.621C560.434 704.806 561.725 705.398 563.375 705.398C565.004 705.398 566.285 704.816 567.216 703.652C568.168 702.467 568.845 700.701 569.247 698.352C569.649 695.982 569.85 693.02 569.85 689.465C569.85 685.932 569.649 682.98 569.247 680.61C568.845 678.241 568.168 676.463 567.216 675.278C566.285 674.072 565.004 673.469 563.375 673.469C561.725 673.469 560.434 674.072 559.503 675.278C558.572 676.463 557.906 678.241 557.504 680.61C557.123 682.98 556.932 685.932 556.932 689.465ZM617.076 712.666H584.64V705.842L596.288 694.067C598.636 691.655 600.52 689.645 601.937 688.037C603.376 686.408 604.413 684.927 605.048 683.594C605.704 682.261 606.031 680.833 606.031 679.309C606.031 677.468 605.513 676.093 604.476 675.183C603.461 674.252 602.096 673.787 600.382 673.787C598.584 673.787 596.838 674.199 595.145 675.024C593.453 675.85 591.686 677.024 589.845 678.547L584.513 672.231C585.846 671.089 587.253 670.01 588.734 668.994C590.236 667.979 591.971 667.164 593.939 666.55C595.928 665.916 598.309 665.598 601.08 665.598C604.127 665.598 606.74 666.148 608.92 667.249C611.12 668.349 612.813 669.851 613.998 671.755C615.183 673.639 615.775 675.776 615.775 678.167C615.775 680.727 615.267 683.065 614.252 685.181C613.236 687.297 611.755 689.391 609.808 691.465C607.883 693.538 605.555 695.834 602.826 698.352L596.859 703.97V704.414H617.076V712.666ZM662.653 666.265L645.355 712.666H636.564L653.861 666.265H662.653Z" fill="white"/>
<path d="M684.381 666.307C683.652 666.307 683.001 666.432 682.428 666.682C681.855 666.926 681.37 667.275 680.975 667.729C680.579 668.182 680.277 668.723 680.068 669.354C679.86 669.979 679.756 670.669 679.756 671.424C679.756 672.465 679.92 673.377 680.248 674.158C680.576 674.934 681.068 675.536 681.725 675.963C682.386 676.39 683.209 676.604 684.193 676.604C684.766 676.604 685.287 676.562 685.756 676.479C686.225 676.39 686.66 676.278 687.061 676.143V676.846C686.68 676.986 686.251 677.101 685.771 677.189C685.298 677.278 684.745 677.322 684.115 677.322C682.975 677.322 682.016 677.077 681.24 676.588C680.469 676.098 679.889 675.411 679.498 674.525C679.107 673.64 678.912 672.606 678.912 671.424C678.912 670.575 679.035 669.796 679.279 669.088C679.524 668.374 679.881 667.757 680.35 667.236C680.824 666.71 681.399 666.304 682.076 666.018C682.753 665.726 683.524 665.58 684.389 665.58C684.936 665.58 685.456 665.635 685.951 665.744C686.451 665.848 686.92 666.002 687.357 666.205L687.045 666.908C686.623 666.7 686.191 666.549 685.748 666.455C685.305 666.356 684.85 666.307 684.381 666.307ZM697.748 677.166H696.943V671.541H690.271V677.166H689.467V665.744H690.271V670.807H696.943V665.744H697.748V677.166ZM708.131 677.166L706.576 673.127H701.779L700.193 677.166H699.373L703.865 665.705H704.6L708.975 677.166H708.131ZM706.318 672.4L704.74 668.119C704.699 668.01 704.646 667.869 704.584 667.697C704.527 667.525 704.464 667.343 704.396 667.15C704.334 666.958 704.271 666.775 704.209 666.604C704.157 666.786 704.1 666.968 704.037 667.15C703.975 667.333 703.915 667.51 703.857 667.682C703.8 667.848 703.745 667.999 703.693 668.135L702.053 672.4H706.318ZM713.396 665.744C714.756 665.744 715.774 666.005 716.451 666.525C717.128 667.046 717.467 667.856 717.467 668.955C717.467 669.518 717.376 670.018 717.193 670.455C717.016 670.887 716.748 671.252 716.389 671.549C716.029 671.846 715.579 672.07 715.037 672.221C714.501 672.372 713.873 672.447 713.154 672.447H711.396V677.166H710.592V665.744H713.396ZM713.311 666.455H711.396V671.736H713.076C713.816 671.736 714.451 671.653 714.982 671.486C715.514 671.314 715.923 671.028 716.209 670.627C716.495 670.226 716.639 669.679 716.639 668.986C716.639 668.106 716.368 667.465 715.826 667.064C715.285 666.658 714.446 666.455 713.311 666.455ZM722.936 677.166H722.123V666.471H718.42V665.744H726.639V666.471H722.936V677.166ZM734.584 677.166H728.342V665.744H734.584V666.471H729.146V670.799H734.279V671.525H729.146V676.439H734.584V677.166ZM739.959 665.744C740.865 665.744 741.62 665.843 742.225 666.041C742.834 666.239 743.292 666.564 743.6 667.018C743.907 667.471 744.061 668.083 744.061 668.854C744.061 669.432 743.954 669.929 743.74 670.346C743.532 670.757 743.243 671.096 742.873 671.361C742.503 671.627 742.076 671.83 741.592 671.971L744.725 677.166H743.771L740.826 672.197H737.99V677.166H737.186V665.744H739.959ZM739.881 666.455H737.99V671.486H740.264C741.196 671.486 741.923 671.262 742.443 670.814C742.969 670.367 743.232 669.723 743.232 668.885C743.232 667.963 742.956 667.327 742.404 666.979C741.852 666.63 741.011 666.455 739.881 666.455Z" fill="white"/>
<path d="M680.615 710.166V688.75H685.156V710.166H680.615ZM709.546 710.166H703.774L694.458 693.965H694.326C694.365 694.639 694.399 695.317 694.429 696.001C694.458 696.685 694.487 697.368 694.517 698.052C694.546 698.726 694.575 699.404 694.604 700.088V710.166H690.547V688.75H696.274L705.576 704.79H705.679C705.659 704.126 705.635 703.467 705.605 702.812C705.576 702.158 705.547 701.504 705.518 700.85C705.498 700.195 705.479 699.541 705.459 698.887V688.75H709.546V710.166ZM723.213 710.166H718.672V692.529H712.856V688.75H729.028V692.529H723.213V710.166ZM744.658 710.166H732.324V688.75H744.658V692.471H736.865V697.173H744.116V700.894H736.865V706.416H744.658V710.166ZM755.381 688.75C757.324 688.75 758.926 688.984 760.186 689.453C761.455 689.922 762.397 690.63 763.013 691.577C763.628 692.524 763.936 693.721 763.936 695.166C763.936 696.143 763.75 696.997 763.379 697.729C763.008 698.462 762.52 699.082 761.914 699.59C761.309 700.098 760.654 700.513 759.951 700.835L766.25 710.166H761.211L756.099 701.948H753.682V710.166H749.141V688.75H755.381ZM755.059 692.471H753.682V698.257H755.146C756.65 698.257 757.725 698.008 758.369 697.51C759.023 697.002 759.351 696.26 759.351 695.283C759.351 694.268 758.999 693.545 758.296 693.115C757.603 692.686 756.523 692.471 755.059 692.471ZM782.056 710.166L780.503 705.068H772.695L771.143 710.166H766.25L773.809 688.662H779.36L786.948 710.166H782.056ZM779.419 701.26L777.866 696.279C777.769 695.947 777.637 695.522 777.471 695.005C777.314 694.478 777.153 693.945 776.987 693.408C776.831 692.861 776.704 692.388 776.606 691.987C776.509 692.388 776.372 692.886 776.196 693.481C776.03 694.067 775.869 694.624 775.713 695.151C775.557 695.679 775.444 696.055 775.376 696.279L773.838 701.26H779.419ZM798.755 692.222C797.886 692.222 797.114 692.393 796.44 692.734C795.776 693.066 795.215 693.55 794.756 694.185C794.307 694.819 793.965 695.586 793.73 696.484C793.496 697.383 793.379 698.394 793.379 699.517C793.379 701.03 793.564 702.324 793.936 703.398C794.316 704.463 794.902 705.278 795.693 705.845C796.484 706.401 797.505 706.68 798.755 706.68C799.624 706.68 800.493 706.582 801.362 706.387C802.241 706.191 803.193 705.913 804.219 705.552V709.36C803.271 709.751 802.339 710.029 801.421 710.195C800.503 710.371 799.473 710.459 798.33 710.459C796.123 710.459 794.307 710.005 792.881 709.097C791.465 708.179 790.415 706.899 789.731 705.259C789.048 703.608 788.706 701.685 788.706 699.487C788.706 697.866 788.926 696.382 789.365 695.034C789.805 693.687 790.449 692.52 791.299 691.533C792.148 690.547 793.198 689.785 794.448 689.248C795.698 688.711 797.134 688.442 798.755 688.442C799.819 688.442 800.884 688.579 801.948 688.853C803.022 689.116 804.048 689.482 805.024 689.951L803.56 693.643C802.759 693.262 801.953 692.93 801.143 692.646C800.332 692.363 799.536 692.222 798.755 692.222ZM817.051 710.166H812.51V692.529H806.694V688.75H822.866V692.529H817.051V710.166ZM826.162 710.166V688.75H830.703V710.166H826.162ZM855.532 699.429C855.532 701.079 855.327 702.583 854.917 703.94C854.507 705.288 853.882 706.45 853.042 707.427C852.212 708.403 851.157 709.155 849.878 709.683C848.599 710.2 847.085 710.459 845.337 710.459C843.589 710.459 842.075 710.2 840.796 709.683C839.517 709.155 838.457 708.403 837.617 707.427C836.787 706.45 836.167 705.283 835.757 703.926C835.347 702.568 835.142 701.06 835.142 699.399C835.142 697.183 835.503 695.254 836.226 693.613C836.958 691.963 838.081 690.684 839.595 689.775C841.108 688.867 843.032 688.413 845.366 688.413C847.69 688.413 849.6 688.867 851.094 689.775C852.598 690.684 853.711 691.963 854.434 693.613C855.166 695.264 855.532 697.202 855.532 699.429ZM839.902 699.429C839.902 700.923 840.088 702.212 840.459 703.296C840.84 704.37 841.431 705.2 842.231 705.786C843.032 706.362 844.067 706.65 845.337 706.65C846.626 706.65 847.671 706.362 848.472 705.786C849.272 705.2 849.854 704.37 850.215 703.296C850.586 702.212 850.771 700.923 850.771 699.429C850.771 697.183 850.352 695.415 849.512 694.126C848.672 692.837 847.29 692.192 845.366 692.192C844.087 692.192 843.042 692.485 842.231 693.071C841.431 693.647 840.84 694.478 840.459 695.562C840.088 696.636 839.902 697.925 839.902 699.429ZM878.97 710.166H873.198L863.882 693.965H863.75C863.789 694.639 863.823 695.317 863.853 696.001C863.882 696.685 863.911 697.368 863.94 698.052C863.97 698.726 863.999 699.404 864.028 700.088V710.166H859.971V688.75H865.698L875 704.79H875.103C875.083 704.126 875.059 703.467 875.029 702.812C875 702.158 874.971 701.504 874.941 700.85C874.922 700.195 874.902 699.541 874.883 698.887V688.75H878.97V710.166ZM897.017 704.219C897.017 705.488 896.709 706.592 896.094 707.529C895.479 708.467 894.58 709.189 893.398 709.697C892.227 710.205 890.801 710.459 889.121 710.459C888.379 710.459 887.651 710.41 886.938 710.312C886.235 710.215 885.557 710.073 884.902 709.888C884.258 709.692 883.643 709.453 883.057 709.17V704.951C884.072 705.4 885.127 705.806 886.221 706.167C887.314 706.528 888.398 706.709 889.473 706.709C890.215 706.709 890.811 706.611 891.26 706.416C891.719 706.221 892.051 705.952 892.256 705.61C892.461 705.269 892.563 704.878 892.563 704.438C892.563 703.901 892.383 703.442 892.021 703.062C891.66 702.681 891.162 702.324 890.527 701.992C889.902 701.66 889.194 701.304 888.403 700.923C887.905 700.688 887.363 700.405 886.777 700.073C886.191 699.731 885.635 699.316 885.107 698.828C884.58 698.34 884.146 697.749 883.804 697.056C883.472 696.353 883.306 695.513 883.306 694.536C883.306 693.257 883.599 692.163 884.185 691.255C884.771 690.347 885.605 689.653 886.689 689.175C887.783 688.687 889.072 688.442 890.557 688.442C891.67 688.442 892.729 688.574 893.735 688.838C894.751 689.092 895.811 689.463 896.914 689.951L895.449 693.481C894.463 693.081 893.579 692.773 892.798 692.559C892.017 692.334 891.221 692.222 890.41 692.222C889.844 692.222 889.36 692.314 888.96 692.5C888.56 692.676 888.257 692.93 888.052 693.262C887.847 693.584 887.744 693.96 887.744 694.39C887.744 694.897 887.891 695.327 888.184 695.679C888.486 696.021 888.936 696.353 889.531 696.675C890.137 696.997 890.889 697.373 891.787 697.803C892.881 698.32 893.813 698.862 894.585 699.429C895.366 699.985 895.967 700.645 896.387 701.406C896.807 702.158 897.017 703.096 897.017 704.219Z" fill="white"/>
</g>
<defs>
<filter id="filter0_d_110_4058" x="-149.5" y="0.666016" width="1741" height="1380" filterUnits="userSpaceOnUse" color-interpolation-filters="sRGB">
<feFlood flood-opacity="0" result="BackgroundImageFix"/>
<feColorMatrix in="SourceAlpha" type="matrix" values="0 0 0 0 0 0 0 0 0 0 0 0 0 0 0 0 0 0 127 0" result="hardAlpha"/>
<feOffset dy="3"/>
<feGaussianBlur stdDeviation="75"/>
<feComposite in2="hardAlpha" operator="out"/>
<feColorMatrix type="matrix" values="0 0 0 0 0.439216 0 0 0 0 0.439216 0 0 0 0 0.439216 0 0 0 0.2 0"/>
<feBlend mode="normal" in2="BackgroundImageFix" result="effect1_dropShadow_110_4058"/>
<feBlend mode="normal" in="SourceGraphic" in2="effect1_dropShadow_110_4058" result="shape"/>
</filter>
<clipPath id="clip0_110_4058">
<rect width="436" height="437.048" fill="white" transform="translate(503.5 469.142)"/>
</clipPath>
</defs>
</svg>
