<svg width="60" height="60" viewBox="0 0 60 60" fill="none" xmlns="http://www.w3.org/2000/svg">
<path d="M39.4633 37.3454C40.0583 37.3454 40.637 37.2805 41.1995 37.1507C41.7728 37.0209 42.2704 36.7505 42.6923 36.3394C43.125 35.9283 43.4766 35.3388 43.747 34.5708C44.0174 33.7919 44.1526 32.748 44.1526 31.4392C44.1526 30.1519 44.0228 29.1188 43.7632 28.34C43.5036 27.5503 43.1629 26.9446 42.741 26.5227C42.3299 26.1008 41.8323 25.825 41.2482 25.6952C40.6749 25.5545 40.0799 25.4842 39.4633 25.4842H37.9381V37.3454H39.4633ZM25.7037 43.3652V37.3454C26.6556 37.3454 27.3371 37.221 27.7482 36.9722C28.1592 36.7126 28.3648 36.2312 28.3648 35.5281V27.3178C28.3648 26.6038 28.1592 26.1224 27.7482 25.8736C27.3371 25.614 26.6556 25.4842 25.7037 25.4842V19.4644H42.9195C44.4663 19.4644 45.9645 19.6699 47.4141 20.081C48.8636 20.492 50.1508 21.1627 51.2758 22.093C52.4116 23.0233 53.3203 24.2565 54.0018 25.7925C54.6941 27.3178 55.0403 29.2 55.0403 31.4392C55.0403 33.6783 54.6995 35.5605 54.018 37.0858C53.3473 38.611 52.4279 39.8388 51.2596 40.7691C50.1022 41.6994 48.7446 42.37 47.1869 42.7811C45.6292 43.1922 43.9741 43.3977 42.2217 43.3977L25.7037 43.3652Z" fill="url(#paint0_linear_108_3724)"/>
<path d="M39.4633 37.3454C40.0583 37.3454 40.637 37.2805 41.1995 37.1507C41.7728 37.0209 42.2704 36.7505 42.6923 36.3394C43.125 35.9283 43.4766 35.3388 43.747 34.5708C44.0174 33.7919 44.1526 32.748 44.1526 31.4392C44.1526 30.1519 44.0228 29.1188 43.7632 28.34C43.5036 27.5503 43.1629 26.9446 42.741 26.5227C42.3299 26.1008 41.8323 25.825 41.2482 25.6952C40.6749 25.5545 40.0799 25.4842 39.4633 25.4842H37.9381V37.3454H39.4633ZM25.7037 43.3652V37.3454C26.6556 37.3454 27.3371 37.221 27.7482 36.9722C28.1592 36.7126 28.3648 36.2312 28.3648 35.5281V27.3178C28.3648 26.6038 28.1592 26.1224 27.7482 25.8736C27.3371 25.614 26.6556 25.4842 25.7037 25.4842V19.4644H42.9195C44.4663 19.4644 45.9645 19.6699 47.4141 20.081C48.8636 20.492 50.1508 21.1627 51.2758 22.093C52.4116 23.0233 53.3203 24.2565 54.0018 25.7925C54.6941 27.3178 55.0403 29.2 55.0403 31.4392C55.0403 33.6783 54.6995 35.5605 54.018 37.0858C53.3473 38.611 52.4279 39.8388 51.2596 40.7691C50.1022 41.6994 48.7446 42.37 47.1869 42.7811C45.6292 43.1922 43.9741 43.3977 42.2217 43.3977L25.7037 43.3652Z" fill="url(#paint1_linear_108_3724)"/>
<path d="M24.9249 38.2302C25.5198 38.2302 26.0986 38.1653 26.6611 38.0355C27.2344 37.9056 27.732 37.6352 28.1538 37.2242C28.5865 36.8131 28.9381 36.2236 29.2085 35.4555C29.479 34.6767 29.6142 33.6328 29.6142 32.3239C29.6142 31.0367 29.4844 30.0036 29.2248 29.2248C28.9651 28.4351 28.6244 27.8293 28.2025 27.4075C27.7915 26.9856 27.2939 26.7097 26.7097 26.5799C26.1364 26.4393 25.5415 26.369 24.9249 26.369H23.3996V38.2302H24.9249ZM11.1653 44.25V38.2302C12.1172 38.2302 12.7987 38.1058 13.2097 37.857C13.6208 37.5974 13.8263 37.116 13.8263 36.4129V28.2025C13.8263 27.4886 13.6208 27.0072 13.2097 26.7584C12.7987 26.4988 12.1172 26.369 11.1653 26.369V20.3492H28.381C29.9279 20.3492 31.4261 20.5547 32.8756 20.9657C34.3251 21.3768 35.6124 22.0475 36.7374 22.9778C37.8732 23.9081 38.7819 25.1412 39.4633 26.6773C40.1556 28.2025 40.5018 30.0847 40.5018 32.3239C40.5018 34.5631 40.1611 36.4453 39.4796 37.9706C38.8089 39.4958 37.8894 40.7236 36.7212 41.6538C35.5637 42.5841 34.2061 43.2548 32.6484 43.6659C31.0907 44.0769 29.4357 44.2825 27.6833 44.2825L11.1653 44.25Z" fill="#6974D8"/>
<circle cx="42.173" cy="29.5388" r="0.519231" fill="white"/>
<defs>
<linearGradient id="paint0_linear_108_3724" x1="45.8077" y1="22.7652" x2="41.087" y2="26.3604" gradientUnits="userSpaceOnUse">
<stop offset="0.996145" stop-color="white"/>
<stop offset="1" stop-color="white" stop-opacity="0"/>
</linearGradient>
<linearGradient id="paint1_linear_108_3724" x1="48.9231" y1="43.0383" x2="41.1346" y2="36.8075" gradientUnits="userSpaceOnUse">
<stop offset="0.98073" stop-color="white"/>
<stop offset="1" stop-color="white" stop-opacity="0"/>
</linearGradient>
</defs>
</svg>
