<svg width="1440" height="1130" viewBox="0 0 1440 1130" fill="none" xmlns="http://www.w3.org/2000/svg">
<g filter="url(#filter0_d_110_3874)">
<rect width="1440" height="830" transform="translate(1 147)" fill="#854BFE"/>
<g clip-path="url(#clip0_110_3874)">
<path fill-rule="evenodd" clip-rule="evenodd" d="M939 562.3C939 548.413 937.71 534.863 935.043 520.876L934.005 515.497H933.866C921.95 462.912 890.688 415.394 847.458 384.463C844.481 382.326 840.359 383.021 838.222 385.991C836.098 388.962 836.773 393.097 839.743 395.221C881.717 425.259 911.695 471.982 922.023 523.41L922.294 524.753C924.636 537.423 925.768 549.716 925.768 562.3C925.768 565.952 928.725 568.916 932.384 568.916C936.042 568.916 939 565.952 939 562.3ZM556.543 438.948C587.064 398.053 631.525 370.179 681.755 360.459C694.478 357.965 707.598 356.708 720.738 356.708C752.059 356.708 782.262 363.728 810.533 377.562C813.828 379.17 817.791 377.82 819.385 374.532C820.987 371.25 819.63 367.287 816.349 365.68C786.258 350.945 754.097 343.476 720.738 343.476C706.744 343.476 692.771 344.819 679.227 347.472C625.768 357.82 578.436 387.493 545.937 431.035C543.747 433.966 544.356 438.107 547.28 440.291C548.471 441.177 549.854 441.607 551.23 441.607C553.255 441.607 555.246 440.688 556.543 438.948ZM516.389 617.546C519.942 616.692 522.132 613.119 521.285 609.567C521.153 609.017 521.021 608.554 520.895 608.124H520.908L519.519 600.231C510.679 555.512 517.633 508.378 538.812 467.503C540.492 464.261 539.566 460.265 536.324 458.584C533.075 456.904 529.767 458.174 528.087 461.416C505.644 504.719 495.713 554.645 508.946 602.077V602.11C508.946 607.119 508.575 608.958 509.29 611.035C509.442 611.485 508.251 611.968 508.417 612.663C509.144 615.687 511.857 617.738 514.848 617.738C515.357 617.724 515.873 617.658 516.389 617.546ZM672.929 770.929C725.819 700.44 742.035 637.58 727.188 560.732C726.494 557.146 723.007 554.798 719.434 555.492C715.848 556.187 713.506 559.654 714.194 563.246C728.472 637.017 713.44 694.883 662.35 762.983C660.153 765.908 660.748 770.056 663.673 772.239C664.864 773.133 666.26 773.563 667.636 773.563C669.647 773.583 671.632 772.669 672.929 770.929ZM701.888 776.13C753.574 703.067 768.91 637.143 753.164 555.717C751.483 547.023 746.514 539.507 739.184 534.552C731.873 529.61 723.067 527.817 714.406 529.504C705.732 531.184 698.229 536.14 693.28 543.471C688.338 550.795 686.538 559.614 688.219 568.288C694.114 598.782 694.134 626.332 688.285 652.512C687.491 656.079 689.734 659.612 693.3 660.406C696.886 661.206 700.406 658.957 701.2 655.39C707.452 627.41 707.459 598.081 701.213 565.761C700.207 560.547 701.286 555.254 704.25 550.854C707.214 546.454 711.713 543.484 716.927 542.471C722.134 541.466 727.4 542.538 731.78 545.495C736.186 548.466 739.164 552.978 740.189 558.205C755.182 635.747 740.5 698.641 691.097 768.468C688.986 771.452 689.694 775.574 692.678 777.698C693.843 778.518 695.173 778.915 696.496 778.915C698.553 778.915 700.598 777.949 701.888 776.13ZM646.259 762.236C666.114 736.763 680.471 713.137 690.144 689.987C691.553 686.612 689.959 682.735 686.585 681.326C683.197 679.904 679.333 681.498 677.931 684.879C668.721 706.924 654.946 729.565 635.825 754.091C633.576 756.976 634.092 761.124 636.976 763.367C638.187 764.313 639.616 764.77 641.039 764.77C643.01 764.783 644.955 763.91 646.259 762.236ZM621.779 750.512C669.23 691.277 685.381 643.296 677.507 584.915C677.018 581.282 673.663 578.788 670.064 579.244C666.445 579.734 663.904 583.062 664.394 586.688C671.831 641.794 656.984 685.415 611.458 742.248C609.168 745.106 609.631 749.275 612.483 751.544C613.7 752.523 615.163 752.999 616.618 752.999C618.55 752.993 620.475 752.159 621.779 750.512ZM778.782 614.74C782.44 614.74 785.352 611.869 785.299 608.23C785.014 589.605 782.957 570.365 779.132 550.676C773.72 522.702 749.167 502.404 720.724 502.404C716.92 502.404 713.096 502.774 709.364 503.495C693.743 506.526 680.24 515.457 671.334 528.644C667.06 534.982 664.076 541.982 662.469 549.452C661.701 553.024 663.97 556.544 667.543 557.312C671.129 558.059 674.636 555.803 675.403 552.237C676.654 546.421 678.983 540.963 682.304 536.034C689.225 525.779 699.731 518.819 711.885 516.463C714.79 515.901 717.767 515.59 720.724 515.59C742.836 515.59 761.937 531.336 766.145 553.091C769.803 572.026 771.795 590.578 772.066 608.429C772.119 612.048 775.063 614.747 778.682 614.747C778.709 614.74 778.749 614.74 778.782 614.74ZM733.064 777.135C761.804 732.88 778.299 689.464 783.479 644.408C783.889 640.775 781.296 637.494 777.664 637.083C774.018 636.673 770.75 639.273 770.339 642.899C765.39 685.871 749.564 727.421 721.962 769.924C719.97 772.994 720.843 777.089 723.907 779.081C725.025 779.802 726.275 780.146 727.506 780.146C729.669 780.146 731.807 779.087 733.064 777.135ZM766.707 773.152C808.938 700.778 821.152 628.482 805.127 545.634C800.423 521.346 785.424 500.214 763.994 487.669C760.845 485.817 756.789 486.875 754.95 490.031C753.104 493.187 754.163 497.236 757.312 499.082C775.46 509.708 788.15 527.592 792.14 548.148C807.509 627.662 795.812 697.039 755.287 766.483C753.455 769.646 754.52 773.695 757.663 775.528C758.708 776.15 759.859 776.434 760.997 776.434C763.26 776.434 765.476 775.276 766.707 773.152ZM599.489 736.016C647.013 677.436 660.497 634.02 649.249 575.837C645.551 556.729 649.507 537.331 660.398 521.214C671.288 505.09 687.789 494.18 706.877 490.475C713.4 489.198 720.169 488.88 726.725 489.403C730.331 489.694 733.56 486.981 733.851 483.342C734.149 479.703 731.436 476.508 727.79 476.217C720.043 475.588 712.051 475.985 704.349 477.48C681.795 481.847 662.29 494.749 649.428 513.797C636.566 532.838 631.888 555.763 636.255 578.338C646.649 632.108 633.9 672.579 589.214 727.659C586.911 730.504 587.341 734.673 590.18 736.962C591.404 737.954 592.879 738.45 594.341 738.45C596.273 738.464 598.179 737.63 599.489 736.016ZM802.746 762.494C812.643 742.685 820.616 722.261 826.445 701.783C827.437 698.27 825.406 694.611 821.893 693.612C818.373 692.6 814.714 694.651 813.722 698.164C808.125 717.854 800.463 737.498 790.922 756.572C789.288 759.841 790.605 763.817 793.873 765.451C794.833 765.914 795.838 766.139 796.831 766.139C799.252 766.152 801.581 764.823 802.746 762.494ZM834.331 666.691C840.855 626.828 839.803 585.576 831.103 540.606C820.881 487.775 774.468 449.428 720.751 449.428C713.559 449.428 706.354 450.122 699.341 451.492C669.839 457.195 644.334 474.066 627.515 498.99C610.69 523.9 604.577 553.878 610.286 583.406C613.171 598.319 613.945 610.837 612.728 622.812C612.357 626.451 615.004 629.693 618.636 630.07C622.328 630.368 625.517 627.794 625.888 624.155C627.25 610.857 626.417 597.108 623.281 580.885C618.233 554.831 623.631 528.379 638.478 506.393C653.318 484.408 675.82 469.521 701.862 464.486C708.048 463.275 714.406 462.667 720.744 462.667C768.149 462.667 809.097 496.502 818.115 543.126C826.511 586.535 827.537 626.259 821.271 664.56C820.682 668.166 823.117 671.567 826.736 672.149C827.1 672.215 827.444 672.242 827.808 672.242C830.99 672.229 833.802 669.933 834.331 666.691ZM579.29 718.88C596.809 697.172 608.99 677.905 616.512 660.002C617.928 656.628 616.347 652.751 612.973 651.335C609.592 649.925 605.728 651.5 604.312 654.861C597.279 671.607 585.72 689.828 568.988 710.57C566.692 713.415 567.142 717.583 569.981 719.872C571.205 720.851 572.673 721.334 574.129 721.334C576.067 721.334 577.986 720.494 579.29 718.88ZM561.201 699.11C604.365 644.606 603.24 616.712 597.292 585.914C590.908 552.925 597.742 519.414 616.539 491.56C623.287 481.569 631.392 472.611 640.642 464.943C643.454 462.607 643.844 458.439 641.508 455.627C639.173 452.815 635.005 452.431 632.193 454.76C621.977 463.229 613.019 473.12 605.569 484.156C584.794 514.935 577.245 551.966 584.298 588.414C589.776 616.752 590.583 640.689 550.827 690.886C548.557 693.758 549.04 697.913 551.912 700.182C553.129 701.148 554.571 701.611 556.014 701.611C557.965 701.618 559.897 700.758 561.201 699.11ZM840.762 742.81C866.619 677.575 871.799 611.723 857.078 535.564C853.307 516.026 845.539 497.885 834.007 481.635C831.89 478.658 827.768 477.957 824.778 480.074C821.8 482.191 821.092 486.32 823.216 489.304C833.65 503.998 840.676 520.413 844.084 538.085C858.309 611.651 853.346 675.153 828.463 737.948C827.12 741.342 828.78 745.192 832.181 746.535C832.982 746.853 833.796 746.999 834.609 746.999C837.243 746.999 839.737 745.417 840.762 742.81ZM809.818 463.977C812.147 461.158 811.744 456.983 808.912 454.661C784.088 434.204 752.78 422.936 720.738 422.936C711.845 422.936 702.947 423.79 694.299 425.484C683.713 427.535 673.339 430.823 663.474 435.269C660.146 436.771 658.658 440.688 660.16 444.016C661.655 447.344 665.565 448.832 668.906 447.33C677.838 443.308 687.233 440.33 696.827 438.471C704.647 436.943 712.692 436.169 720.738 436.169C749.71 436.169 778.041 446.364 800.496 464.87C801.727 465.889 803.209 466.385 804.697 466.385C806.609 466.385 808.495 465.565 809.818 463.977ZM880.883 557.543C884.496 556.987 886.977 553.607 886.414 549.994C885.428 543.557 884.33 537.079 883.06 530.536C868.028 452.842 799.768 396.452 720.738 396.452C710.158 396.452 699.566 397.471 689.277 399.482C645.902 407.884 608.388 432.689 583.65 469.329C570.457 488.867 561.737 510.469 557.727 533.526C557.099 537.126 559.514 540.553 563.113 541.181C566.752 541.81 570.139 539.395 570.768 535.796C574.453 514.584 582.479 494.716 594.613 476.733C617.372 443.023 651.883 420.204 691.798 412.469C701.273 410.624 711.005 409.684 720.738 409.684C793.443 409.684 856.244 461.568 870.072 533.05C871.303 539.435 872.375 545.747 873.334 552.025C873.83 555.294 876.655 557.629 879.864 557.629C880.202 557.623 880.539 557.596 880.883 557.543ZM879.619 710.404C890.278 670.284 893.831 629.395 890.51 585.404C890.232 581.759 887.056 579.046 883.424 579.304C879.772 579.575 877.039 582.751 877.317 586.39C880.532 628.886 877.105 668.338 866.837 706.997C865.897 710.523 868.008 714.156 871.534 715.095C872.103 715.241 872.686 715.313 873.241 715.313C876.166 715.32 878.839 713.362 879.619 710.404ZM545.335 676.404C579.184 631.691 575.359 611.895 571.31 590.922C569.947 583.909 569.074 576.684 568.704 569.419C568.525 565.761 565.475 562.955 561.763 563.147C558.118 563.332 555.306 566.442 555.491 570.088C555.888 577.961 556.841 585.821 558.316 593.436C562.087 612.967 565.071 628.396 534.782 668.405C532.579 671.316 533.148 675.471 536.066 677.667C537.263 678.574 538.666 679.01 540.055 679.01C542.053 679.03 544.032 678.124 545.335 676.404ZM531.904 649.899C550.469 622.554 548.087 610.228 545.335 595.964C536.264 549.088 545.983 501.477 572.693 461.899C599.409 422.321 639.927 395.532 686.783 386.461C705.302 382.835 724.694 382.187 743.901 384.714C747.547 385.145 750.855 382.637 751.318 379.018C751.794 375.392 749.253 372.071 745.621 371.595C725.018 368.882 704.151 369.577 684.262 373.474C633.946 383.219 590.425 411.993 561.73 454.502C533.042 497.005 522.602 548.142 532.347 598.484C534.815 611.254 536.443 619.676 520.968 642.469C518.91 645.493 519.704 649.615 522.727 651.666C523.865 652.44 525.156 652.81 526.439 652.81C528.543 652.803 530.621 651.791 531.904 649.899ZM909.69 663.952C909.478 663.952 909.253 663.939 909.009 663.925C905.376 663.542 902.736 660.3 903.094 656.661C907.235 616.031 904.913 573.958 896.041 528.008C883.788 464.731 838.129 412.747 776.883 392.336C773.423 391.178 771.544 387.434 772.701 383.967C773.859 380.507 777.578 378.621 781.071 379.785C846.829 401.698 895.875 457.539 909.029 525.501C918.165 572.741 920.534 616.083 916.267 658.01C915.936 661.418 913.051 663.952 909.69 663.952Z" fill="black" fill-opacity="0.05"/>
</g>
<path d="M612.985 563.799C612.985 567.544 612.689 570.888 612.096 573.829C611.525 576.77 610.594 579.266 609.303 581.319C608.034 583.371 606.362 584.937 604.289 586.016C602.215 587.095 599.697 587.635 596.735 587.635C593.011 587.635 589.954 586.693 587.563 584.81C585.172 582.906 583.405 580.176 582.262 576.622C581.12 573.046 580.549 568.772 580.549 563.799C580.549 558.785 581.067 554.5 582.104 550.945C583.162 547.369 584.876 544.629 587.245 542.725C589.615 540.821 592.778 539.869 596.735 539.869C600.438 539.869 603.485 540.821 605.876 542.725C608.288 544.608 610.076 547.338 611.24 550.914C612.403 554.468 612.985 558.764 612.985 563.799ZM590.292 563.799C590.292 567.333 590.483 570.285 590.864 572.654C591.266 575.003 591.932 576.77 592.863 577.955C593.794 579.139 595.085 579.732 596.735 579.732C598.364 579.732 599.644 579.15 600.575 577.986C601.528 576.801 602.205 575.035 602.607 572.686C603.009 570.316 603.21 567.354 603.21 563.799C603.21 560.266 603.009 557.314 602.607 554.944C602.205 552.575 601.528 550.797 600.575 549.612C599.644 548.406 598.364 547.803 596.735 547.803C595.085 547.803 593.794 548.406 592.863 549.612C591.932 550.797 591.266 552.575 590.864 554.944C590.483 557.314 590.292 560.266 590.292 563.799ZM642.248 587H632.441V560.149C632.441 559.409 632.451 558.499 632.472 557.42C632.494 556.32 632.525 555.198 632.568 554.056C632.61 552.892 632.652 551.845 632.695 550.914C632.462 551.189 631.986 551.665 631.266 552.342C630.568 552.998 629.912 553.59 629.299 554.119L623.967 558.404L619.238 552.5L634.186 540.599H642.248V587ZM696.012 540.599L678.715 587H669.924L687.221 540.599H696.012Z" fill="white"/>
<path d="M717.741 540.641C717.012 540.641 716.361 540.766 715.788 541.016C715.215 541.26 714.731 541.609 714.335 542.062C713.939 542.516 713.637 543.057 713.428 543.688C713.22 544.312 713.116 545.003 713.116 545.758C713.116 546.799 713.28 547.711 713.608 548.492C713.936 549.268 714.428 549.87 715.085 550.297C715.746 550.724 716.569 550.938 717.553 550.938C718.126 550.938 718.647 550.896 719.116 550.812C719.585 550.724 720.02 550.612 720.421 550.477V551.18C720.04 551.32 719.611 551.435 719.132 551.523C718.658 551.612 718.106 551.656 717.475 551.656C716.335 551.656 715.376 551.411 714.6 550.922C713.83 550.432 713.249 549.745 712.858 548.859C712.468 547.974 712.272 546.94 712.272 545.758C712.272 544.909 712.395 544.13 712.639 543.422C712.884 542.708 713.241 542.091 713.71 541.57C714.184 541.044 714.759 540.638 715.436 540.352C716.113 540.06 716.884 539.914 717.749 539.914C718.296 539.914 718.816 539.969 719.311 540.078C719.811 540.182 720.28 540.336 720.718 540.539L720.405 541.242C719.983 541.034 719.551 540.883 719.108 540.789C718.665 540.69 718.21 540.641 717.741 540.641ZM731.108 551.5H730.303V545.875H723.632V551.5H722.827V540.078H723.632V545.141H730.303V540.078H731.108V551.5ZM741.491 551.5L739.936 547.461H735.139L733.553 551.5H732.733L737.225 540.039H737.96L742.335 551.5H741.491ZM739.678 546.734L738.1 542.453C738.059 542.344 738.007 542.203 737.944 542.031C737.887 541.859 737.824 541.677 737.757 541.484C737.694 541.292 737.632 541.109 737.569 540.938C737.517 541.12 737.46 541.302 737.397 541.484C737.335 541.667 737.275 541.844 737.218 542.016C737.16 542.182 737.106 542.333 737.053 542.469L735.413 546.734H739.678ZM746.757 540.078C748.116 540.078 749.134 540.339 749.811 540.859C750.488 541.38 750.827 542.19 750.827 543.289C750.827 543.852 750.736 544.352 750.553 544.789C750.376 545.221 750.108 545.586 749.749 545.883C749.389 546.18 748.939 546.404 748.397 546.555C747.861 546.706 747.233 546.781 746.514 546.781H744.757V551.5H743.952V540.078H746.757ZM746.671 540.789H744.757V546.07H746.436C747.176 546.07 747.811 545.987 748.343 545.82C748.874 545.648 749.283 545.362 749.569 544.961C749.856 544.56 749.999 544.013 749.999 543.32C749.999 542.44 749.728 541.799 749.186 541.398C748.645 540.992 747.806 540.789 746.671 540.789ZM756.296 551.5H755.483V540.805H751.78V540.078H759.999V540.805H756.296V551.5ZM767.944 551.5H761.702V540.078H767.944V540.805H762.507V545.133H767.639V545.859H762.507V550.773H767.944V551.5ZM773.319 540.078C774.225 540.078 774.981 540.177 775.585 540.375C776.194 540.573 776.652 540.898 776.96 541.352C777.267 541.805 777.421 542.417 777.421 543.188C777.421 543.766 777.314 544.263 777.1 544.68C776.892 545.091 776.603 545.43 776.233 545.695C775.863 545.961 775.436 546.164 774.952 546.305L778.085 551.5H777.132L774.186 546.531H771.35V551.5H770.546V540.078H773.319ZM773.241 540.789H771.35V545.82H773.624C774.556 545.82 775.283 545.596 775.803 545.148C776.33 544.701 776.593 544.057 776.593 543.219C776.593 542.297 776.316 541.661 775.764 541.312C775.212 540.964 774.371 540.789 773.241 540.789Z" fill="white"/>
<path d="M720.216 563.084C722.159 563.084 723.76 563.318 725.02 563.787C726.29 564.256 727.232 564.964 727.847 565.911C728.463 566.858 728.77 568.055 728.77 569.5C728.77 570.477 728.585 571.331 728.214 572.063C727.843 572.796 727.354 573.416 726.749 573.924C726.143 574.432 725.489 574.847 724.786 575.169L731.085 584.5H726.046L720.933 576.282H718.516V584.5H713.975V563.084H720.216ZM719.893 566.805H718.516V572.591H719.981C721.485 572.591 722.559 572.342 723.204 571.844C723.858 571.336 724.185 570.594 724.185 569.617C724.185 568.602 723.834 567.879 723.131 567.449C722.437 567.02 721.358 566.805 719.893 566.805ZM746.114 584.5H733.78V563.084H746.114V566.805H738.321V571.507H745.572V575.228H738.321V580.75H746.114V584.5ZM763.238 578.553C763.238 579.822 762.93 580.926 762.315 581.863C761.7 582.801 760.802 583.523 759.62 584.031C758.448 584.539 757.022 584.793 755.343 584.793C754.6 584.793 753.873 584.744 753.16 584.646C752.457 584.549 751.778 584.407 751.124 584.222C750.479 584.026 749.864 583.787 749.278 583.504V579.285C750.294 579.734 751.348 580.14 752.442 580.501C753.536 580.862 754.62 581.043 755.694 581.043C756.436 581.043 757.032 580.945 757.481 580.75C757.94 580.555 758.272 580.286 758.477 579.944C758.682 579.603 758.785 579.212 758.785 578.772C758.785 578.235 758.604 577.776 758.243 577.396C757.882 577.015 757.384 576.658 756.749 576.326C756.124 575.994 755.416 575.638 754.625 575.257C754.127 575.022 753.585 574.739 752.999 574.407C752.413 574.065 751.856 573.65 751.329 573.162C750.802 572.674 750.367 572.083 750.025 571.39C749.693 570.687 749.527 569.847 749.527 568.87C749.527 567.591 749.82 566.497 750.406 565.589C750.992 564.681 751.827 563.987 752.911 563.509C754.005 563.021 755.294 562.776 756.778 562.776C757.891 562.776 758.951 562.908 759.957 563.172C760.972 563.426 762.032 563.797 763.135 564.285L761.671 567.815C760.684 567.415 759.801 567.107 759.019 566.893C758.238 566.668 757.442 566.556 756.632 566.556C756.065 566.556 755.582 566.648 755.181 566.834C754.781 567.01 754.478 567.264 754.273 567.596C754.068 567.918 753.966 568.294 753.966 568.724C753.966 569.231 754.112 569.661 754.405 570.013C754.708 570.354 755.157 570.687 755.753 571.009C756.358 571.331 757.11 571.707 758.009 572.137C759.102 572.654 760.035 573.196 760.806 573.763C761.588 574.319 762.188 574.979 762.608 575.74C763.028 576.492 763.238 577.43 763.238 578.553ZM779.454 584.5H767.12V563.084H779.454V566.805H771.661V571.507H778.912V575.228H771.661V580.75H779.454V584.5ZM797.047 584.5L795.494 579.402H787.686L786.134 584.5H781.241L788.8 562.996H794.351L801.939 584.5H797.047ZM794.41 575.594L792.857 570.613C792.76 570.281 792.628 569.856 792.462 569.339C792.305 568.812 792.144 568.279 791.978 567.742C791.822 567.195 791.695 566.722 791.597 566.321C791.5 566.722 791.363 567.22 791.187 567.815C791.021 568.401 790.86 568.958 790.704 569.485C790.548 570.013 790.435 570.389 790.367 570.613L788.829 575.594H794.41ZM810.889 563.084C812.833 563.084 814.434 563.318 815.694 563.787C816.964 564.256 817.906 564.964 818.521 565.911C819.136 566.858 819.444 568.055 819.444 569.5C819.444 570.477 819.259 571.331 818.887 572.063C818.516 572.796 818.028 573.416 817.423 573.924C816.817 574.432 816.163 574.847 815.46 575.169L821.759 584.5H816.719L811.607 576.282H809.19V584.5H804.649V563.084H810.889ZM810.567 566.805H809.19V572.591H810.655C812.159 572.591 813.233 572.342 813.878 571.844C814.532 571.336 814.859 570.594 814.859 569.617C814.859 568.602 814.508 567.879 813.804 567.449C813.111 567.02 812.032 566.805 810.567 566.805ZM833.551 566.556C832.681 566.556 831.91 566.727 831.236 567.068C830.572 567.4 830.01 567.884 829.552 568.519C829.102 569.153 828.76 569.92 828.526 570.818C828.292 571.717 828.175 572.728 828.175 573.851C828.175 575.364 828.36 576.658 828.731 577.732C829.112 578.797 829.698 579.612 830.489 580.179C831.28 580.735 832.301 581.014 833.551 581.014C834.42 581.014 835.289 580.916 836.158 580.721C837.037 580.525 837.989 580.247 839.014 579.886V583.694C838.067 584.085 837.135 584.363 836.217 584.529C835.299 584.705 834.268 584.793 833.126 584.793C830.919 584.793 829.102 584.339 827.677 583.431C826.26 582.513 825.211 581.233 824.527 579.593C823.844 577.942 823.502 576.019 823.502 573.821C823.502 572.2 823.721 570.716 824.161 569.368C824.6 568.021 825.245 566.854 826.094 565.867C826.944 564.881 827.994 564.119 829.244 563.582C830.494 563.045 831.929 562.776 833.551 562.776C834.615 562.776 835.679 562.913 836.744 563.187C837.818 563.45 838.844 563.816 839.82 564.285L838.355 567.977C837.554 567.596 836.749 567.264 835.938 566.98C835.128 566.697 834.332 566.556 833.551 566.556ZM861.134 584.5H856.607V575.257H848.126V584.5H843.585V563.084H848.126V571.478H856.607V563.084H861.134V584.5Z" fill="white"/>
</g>
<defs>
<filter id="filter0_d_110_3874" x="-149" y="0" width="1740" height="1130" filterUnits="userSpaceOnUse" color-interpolation-filters="sRGB">
<feFlood flood-opacity="0" result="BackgroundImageFix"/>
<feColorMatrix in="SourceAlpha" type="matrix" values="0 0 0 0 0 0 0 0 0 0 0 0 0 0 0 0 0 0 127 0" result="hardAlpha"/>
<feOffset dy="3"/>
<feGaussianBlur stdDeviation="75"/>
<feComposite in2="hardAlpha" operator="out"/>
<feColorMatrix type="matrix" values="0 0 0 0 0.439216 0 0 0 0 0.439216 0 0 0 0 0.439216 0 0 0 0.2 0"/>
<feBlend mode="normal" in2="BackgroundImageFix" result="effect1_dropShadow_110_3874"/>
<feBlend mode="normal" in="SourceGraphic" in2="effect1_dropShadow_110_3874" result="shape"/>
</filter>
<clipPath id="clip0_110_3874">
<rect width="436" height="437.048" fill="white" transform="translate(503 343.476)"/>
</clipPath>
</defs>
</svg>
