<svg width="1200" height="659" viewBox="0 0 1200 659" fill="none" xmlns="http://www.w3.org/2000/svg">
<g clip-path="url(#clip0_416_4790)">
<rect y="0.666016" width="400" height="658" fill="#EAEAEA"/>
<g style="mix-blend-mode:multiply" opacity="0.5">
<path d="M132.127 -48.3392C59.1459 -68.8085 -9.65183 -33.0471 -21.6624 31.338C-33.6729 95.723 15.6051 164.602 88.5864 185.071C161.568 205.54 230.365 169.779 242.376 105.394C254.386 41.0088 205.109 -27.8698 132.127 -48.3392Z" stroke="black" stroke-opacity="0.22"/>
</g>
<g style="mix-blend-mode:multiply" opacity="0.3">
<path d="M397.726 595.146C281.408 562.522 171.679 619.506 152.517 722.224C133.356 824.942 211.971 934.752 328.29 967.376C444.608 1000 554.337 943.016 573.499 840.298C592.66 737.58 514.045 627.77 397.726 595.146Z" stroke="black" stroke-opacity="0.22"/>
</g>
<g clip-path="url(#clip1_416_4790)">
<rect x="99" y="110.666" width="202" height="437.037" rx="14.1589" fill="white"/>
<path d="M113.657 422.217V421.147H120.033V422.217H117.463V429.385H116.224V422.217H113.657ZM120.704 429.385V423.206H121.866V424.188H121.93C122.043 423.855 122.242 423.594 122.526 423.403C122.813 423.21 123.137 423.114 123.499 423.114C123.574 423.114 123.663 423.117 123.765 423.122C123.869 423.127 123.951 423.134 124.01 423.142V424.292C123.962 424.279 123.876 424.264 123.753 424.248C123.629 424.229 123.506 424.22 123.383 424.22C123.098 424.22 122.845 424.28 122.622 424.401C122.402 424.519 122.228 424.684 122.099 424.896C121.971 425.105 121.906 425.344 121.906 425.612V429.385H120.704ZM127.492 429.509C126.884 429.509 126.36 429.379 125.92 429.119C125.483 428.856 125.145 428.488 124.906 428.013C124.67 427.536 124.552 426.977 124.552 426.336C124.552 425.703 124.67 425.145 124.906 424.662C125.145 424.18 125.477 423.803 125.904 423.532C126.333 423.261 126.834 423.126 127.408 423.126C127.757 423.126 128.095 423.184 128.422 423.299C128.749 423.414 129.042 423.595 129.303 423.842C129.563 424.089 129.768 424.409 129.918 424.803C130.068 425.195 130.143 425.671 130.143 426.231V426.658H125.232V425.757H128.965C128.965 425.44 128.9 425.16 128.772 424.916C128.643 424.669 128.462 424.475 128.229 424.333C127.998 424.19 127.727 424.119 127.416 424.119C127.078 424.119 126.783 424.203 126.531 424.369C126.282 424.532 126.089 424.747 125.952 425.012C125.818 425.275 125.751 425.561 125.751 425.869V426.573C125.751 426.986 125.823 427.337 125.968 427.627C126.115 427.917 126.321 428.138 126.583 428.291C126.846 428.441 127.153 428.516 127.505 428.516C127.732 428.516 127.94 428.484 128.128 428.419C128.316 428.352 128.478 428.253 128.615 428.122C128.751 427.99 128.856 427.828 128.928 427.635L130.067 427.84C129.976 428.175 129.812 428.469 129.576 428.721C129.343 428.97 129.049 429.165 128.695 429.304C128.344 429.441 127.943 429.509 127.492 429.509ZM132.68 425.716V429.385H131.478V423.206H132.632V424.212H132.709C132.851 423.885 133.073 423.622 133.376 423.424C133.682 423.225 134.067 423.126 134.531 423.126C134.952 423.126 135.32 423.214 135.637 423.391C135.953 423.566 136.199 423.826 136.373 424.172C136.547 424.518 136.634 424.945 136.634 425.455V429.385H135.432V425.6C135.432 425.152 135.315 424.802 135.082 424.55C134.848 424.295 134.528 424.168 134.12 424.168C133.842 424.168 133.593 424.228 133.376 424.349C133.162 424.469 132.991 424.646 132.865 424.88C132.742 425.11 132.68 425.389 132.68 425.716ZM140.56 429.505C140.062 429.505 139.616 429.378 139.225 429.123C138.836 428.866 138.53 428.5 138.308 428.025C138.088 427.548 137.978 426.975 137.978 426.308C137.978 425.64 138.089 425.069 138.312 424.594C138.537 424.119 138.845 423.756 139.237 423.504C139.628 423.252 140.072 423.126 140.568 423.126C140.952 423.126 141.26 423.19 141.493 423.319C141.729 423.445 141.912 423.592 142.041 423.761C142.172 423.93 142.274 424.079 142.346 424.208H142.419V421.147H143.621V429.385H142.447V428.423H142.346C142.274 428.555 142.169 428.705 142.032 428.874C141.898 429.043 141.713 429.19 141.477 429.316C141.241 429.442 140.936 429.505 140.56 429.505ZM140.826 428.48C141.172 428.48 141.464 428.389 141.703 428.206C141.944 428.021 142.126 427.765 142.25 427.438C142.376 427.111 142.439 426.73 142.439 426.296C142.439 425.866 142.377 425.491 142.254 425.169C142.13 424.847 141.949 424.597 141.711 424.417C141.472 424.237 141.177 424.148 140.826 424.148C140.464 424.148 140.162 424.241 139.921 424.429C139.679 424.617 139.497 424.873 139.374 425.197C139.253 425.522 139.193 425.888 139.193 426.296C139.193 426.709 139.254 427.08 139.378 427.41C139.501 427.74 139.683 428.001 139.925 428.194C140.169 428.385 140.469 428.48 140.826 428.48ZM145.338 429.385V423.206H146.541V429.385H145.338ZM145.945 422.253C145.736 422.253 145.556 422.183 145.406 422.044C145.259 421.902 145.185 421.733 145.185 421.537C145.185 421.339 145.259 421.17 145.406 421.03C145.556 420.888 145.736 420.817 145.945 420.817C146.154 420.817 146.333 420.888 146.48 421.03C146.63 421.17 146.706 421.339 146.706 421.537C146.706 421.733 146.63 421.902 146.48 422.044C146.333 422.183 146.154 422.253 145.945 422.253ZM149.361 425.716V429.385H148.159V423.206H149.313V424.212H149.389C149.532 423.885 149.754 423.622 150.057 423.424C150.363 423.225 150.748 423.126 151.212 423.126C151.633 423.126 152.001 423.214 152.318 423.391C152.634 423.566 152.88 423.826 153.054 424.172C153.228 424.518 153.315 424.945 153.315 425.455V429.385H152.113V425.6C152.113 425.152 151.996 424.802 151.763 424.55C151.529 424.295 151.209 424.168 150.801 424.168C150.522 424.168 150.274 424.228 150.057 424.349C149.843 424.469 149.672 424.646 149.546 424.88C149.423 425.11 149.361 425.389 149.361 425.716ZM157.519 431.83C157.028 431.83 156.606 431.766 156.252 431.637C155.9 431.509 155.613 431.338 155.391 431.126C155.168 430.915 155.002 430.683 154.892 430.431L155.926 430.004C155.998 430.122 156.095 430.247 156.215 430.378C156.339 430.512 156.505 430.626 156.714 430.72C156.926 430.814 157.198 430.861 157.531 430.861C157.987 430.861 158.363 430.75 158.661 430.527C158.959 430.307 159.108 429.956 159.108 429.473V428.258H159.031C158.959 428.39 158.854 428.536 158.717 428.697C158.583 428.858 158.398 428.997 158.162 429.115C157.926 429.233 157.619 429.292 157.241 429.292C156.753 429.292 156.313 429.178 155.922 428.95C155.533 428.72 155.225 428.381 154.997 427.933C154.771 427.482 154.659 426.928 154.659 426.271C154.659 425.614 154.77 425.051 154.993 424.582C155.218 424.113 155.526 423.753 155.918 423.504C156.309 423.252 156.753 423.126 157.249 423.126C157.633 423.126 157.942 423.19 158.178 423.319C158.414 423.445 158.598 423.592 158.729 423.761C158.864 423.93 158.967 424.079 159.039 424.208H159.128V423.206H160.306V429.522C160.306 430.052 160.183 430.488 159.936 430.829C159.69 431.169 159.356 431.421 158.935 431.585C158.516 431.749 158.044 431.83 157.519 431.83ZM157.507 428.295C157.853 428.295 158.145 428.214 158.384 428.053C158.625 427.89 158.807 427.656 158.931 427.353C159.057 427.048 159.12 426.682 159.12 426.255C159.12 425.84 159.058 425.474 158.935 425.157C158.811 424.841 158.63 424.594 158.392 424.417C158.153 424.237 157.858 424.148 157.507 424.148C157.145 424.148 156.843 424.241 156.602 424.429C156.36 424.614 156.178 424.866 156.055 425.185C155.934 425.504 155.874 425.861 155.874 426.255C155.874 426.66 155.935 427.016 156.059 427.321C156.182 427.627 156.364 427.866 156.606 428.037C156.85 428.209 157.15 428.295 157.507 428.295ZM171.856 423.826H170.601C170.552 423.558 170.463 423.322 170.331 423.118C170.2 422.914 170.039 422.741 169.848 422.599C169.658 422.457 169.445 422.35 169.209 422.277C168.976 422.205 168.728 422.169 168.465 422.169C167.99 422.169 167.565 422.288 167.19 422.527C166.817 422.765 166.522 423.115 166.305 423.576C166.09 424.038 165.983 424.601 165.983 425.266C165.983 425.936 166.09 426.502 166.305 426.963C166.522 427.425 166.818 427.773 167.194 428.009C167.569 428.245 167.991 428.363 168.461 428.363C168.721 428.363 168.968 428.328 169.201 428.258C169.437 428.186 169.65 428.08 169.84 427.941C170.031 427.801 170.192 427.631 170.323 427.43C170.457 427.226 170.55 426.993 170.601 426.73L171.856 426.734C171.789 427.139 171.659 427.512 171.465 427.852C171.275 428.19 171.03 428.482 170.729 428.729C170.432 428.973 170.091 429.162 169.708 429.296C169.324 429.43 168.906 429.497 168.453 429.497C167.739 429.497 167.104 429.328 166.546 428.991C165.988 428.65 165.548 428.163 165.227 427.53C164.908 426.898 164.748 426.143 164.748 425.266C164.748 424.386 164.909 423.631 165.231 423.001C165.553 422.368 165.992 421.883 166.55 421.545C167.108 421.205 167.742 421.034 168.453 421.034C168.89 421.034 169.297 421.097 169.675 421.223C170.056 421.347 170.398 421.529 170.701 421.77C171.004 422.009 171.255 422.301 171.453 422.647C171.652 422.99 171.786 423.383 171.856 423.826ZM175.849 429.509C175.27 429.509 174.764 429.377 174.332 429.111C173.901 428.846 173.565 428.474 173.327 427.997C173.088 427.52 172.969 426.962 172.969 426.324C172.969 425.683 173.088 425.122 173.327 424.642C173.565 424.162 173.901 423.79 174.332 423.524C174.764 423.259 175.27 423.126 175.849 423.126C176.428 423.126 176.934 423.259 177.365 423.524C177.797 423.79 178.132 424.162 178.371 424.642C178.61 425.122 178.729 425.683 178.729 426.324C178.729 426.962 178.61 427.52 178.371 427.997C178.132 428.474 177.797 428.846 177.365 429.111C176.934 429.377 176.428 429.509 175.849 429.509ZM175.853 428.5C176.228 428.5 176.539 428.401 176.786 428.202C177.033 428.004 177.215 427.74 177.333 427.41C177.454 427.08 177.514 426.717 177.514 426.32C177.514 425.925 177.454 425.563 177.333 425.234C177.215 424.901 177.033 424.634 176.786 424.433C176.539 424.232 176.228 424.132 175.853 424.132C175.475 424.132 175.161 424.232 174.912 424.433C174.665 424.634 174.481 424.901 174.361 425.234C174.243 425.563 174.184 425.925 174.184 426.32C174.184 426.717 174.243 427.08 174.361 427.41C174.481 427.74 174.665 428.004 174.912 428.202C175.161 428.401 175.475 428.5 175.853 428.5ZM181.274 421.147V429.385H180.071V421.147H181.274ZM184.095 421.147V429.385H182.892V421.147H184.095ZM188.376 429.509C187.767 429.509 187.243 429.379 186.803 429.119C186.366 428.856 186.028 428.488 185.789 428.013C185.553 427.536 185.435 426.977 185.435 426.336C185.435 425.703 185.553 425.145 185.789 424.662C186.028 424.18 186.36 423.803 186.787 423.532C187.216 423.261 187.717 423.126 188.291 423.126C188.64 423.126 188.978 423.184 189.305 423.299C189.632 423.414 189.926 423.595 190.186 423.842C190.446 424.089 190.651 424.409 190.801 424.803C190.951 425.195 191.026 425.671 191.026 426.231V426.658H186.115V425.757H189.848C189.848 425.44 189.783 425.16 189.655 424.916C189.526 424.669 189.345 424.475 189.112 424.333C188.881 424.19 188.61 424.119 188.299 424.119C187.961 424.119 187.666 424.203 187.414 424.369C187.165 424.532 186.972 424.747 186.835 425.012C186.701 425.275 186.634 425.561 186.634 425.869V426.573C186.634 426.986 186.706 427.337 186.851 427.627C186.999 427.917 187.204 428.138 187.467 428.291C187.729 428.441 188.036 428.516 188.388 428.516C188.616 428.516 188.823 428.484 189.011 428.419C189.199 428.352 189.361 428.253 189.498 428.122C189.635 427.99 189.739 427.828 189.812 427.635L190.95 427.84C190.859 428.175 190.695 428.469 190.459 428.721C190.226 428.97 189.932 429.165 189.578 429.304C189.227 429.441 188.826 429.509 188.376 429.509ZM194.963 429.509C194.365 429.509 193.85 429.374 193.419 429.103C192.99 428.83 192.66 428.453 192.429 427.973C192.199 427.493 192.083 426.943 192.083 426.324C192.083 425.696 192.201 425.142 192.437 424.662C192.673 424.18 193.006 423.803 193.435 423.532C193.864 423.261 194.369 423.126 194.951 423.126C195.421 423.126 195.839 423.213 196.206 423.387C196.574 423.559 196.87 423.8 197.095 424.111C197.323 424.422 197.459 424.786 197.501 425.201H196.331C196.267 424.912 196.119 424.662 195.889 424.453C195.661 424.244 195.355 424.14 194.971 424.14C194.636 424.14 194.343 424.228 194.09 424.405C193.841 424.579 193.647 424.829 193.507 425.153C193.368 425.475 193.298 425.856 193.298 426.296C193.298 426.746 193.366 427.135 193.503 427.462C193.64 427.789 193.833 428.043 194.082 428.222C194.335 428.402 194.631 428.492 194.971 428.492C195.199 428.492 195.406 428.45 195.591 428.367C195.779 428.281 195.935 428.159 196.061 428.001C196.19 427.843 196.28 427.652 196.331 427.43H197.501C197.459 427.829 197.329 428.186 197.111 428.5C196.894 428.814 196.603 429.06 196.238 429.24C195.876 429.42 195.451 429.509 194.963 429.509ZM201.672 423.206V424.172H198.297V423.206H201.672ZM199.202 421.726H200.405V427.571C200.405 427.804 200.44 427.98 200.509 428.098C200.579 428.213 200.669 428.292 200.779 428.335C200.891 428.375 201.013 428.395 201.145 428.395C201.241 428.395 201.326 428.389 201.398 428.375C201.471 428.362 201.527 428.351 201.567 428.343L201.784 429.336C201.715 429.363 201.615 429.39 201.487 429.417C201.358 429.446 201.197 429.463 201.004 429.465C200.688 429.471 200.393 429.414 200.119 429.296C199.846 429.178 199.624 428.996 199.455 428.749C199.286 428.503 199.202 428.193 199.202 427.82V421.726ZM203.002 429.385V423.206H204.205V429.385H203.002ZM203.61 422.253C203.4 422.253 203.221 422.183 203.071 422.044C202.923 421.902 202.849 421.733 202.849 421.537C202.849 421.339 202.923 421.17 203.071 421.03C203.221 420.888 203.4 420.817 203.61 420.817C203.819 420.817 203.997 420.888 204.145 421.03C204.295 421.17 204.37 421.339 204.37 421.537C204.37 421.733 204.295 421.902 204.145 422.044C203.997 422.183 203.819 422.253 203.61 422.253ZM208.425 429.509C207.846 429.509 207.341 429.377 206.909 429.111C206.477 428.846 206.142 428.474 205.903 427.997C205.665 427.52 205.545 426.962 205.545 426.324C205.545 425.683 205.665 425.122 205.903 424.642C206.142 424.162 206.477 423.79 206.909 423.524C207.341 423.259 207.846 423.126 208.425 423.126C209.005 423.126 209.51 423.259 209.942 423.524C210.374 423.79 210.709 424.162 210.947 424.642C211.186 425.122 211.305 425.683 211.305 426.324C211.305 426.962 211.186 427.52 210.947 427.997C210.709 428.474 210.374 428.846 209.942 429.111C209.51 429.377 209.005 429.509 208.425 429.509ZM208.429 428.5C208.805 428.5 209.116 428.401 209.363 428.202C209.609 428.004 209.792 427.74 209.91 427.41C210.03 427.08 210.091 426.717 210.091 426.32C210.091 425.925 210.03 425.563 209.91 425.234C209.792 424.901 209.609 424.634 209.363 424.433C209.116 424.232 208.805 424.132 208.429 424.132C208.051 424.132 207.738 424.232 207.488 424.433C207.241 424.634 207.058 424.901 206.937 425.234C206.819 425.563 206.76 425.925 206.76 426.32C206.76 426.717 206.819 427.08 206.937 427.41C207.058 427.74 207.241 428.004 207.488 428.202C207.738 428.401 208.051 428.5 208.429 428.5ZM213.851 425.716V429.385H212.648V423.206H213.802V424.212H213.879C214.021 423.885 214.243 423.622 214.546 423.424C214.852 423.225 215.237 423.126 215.701 423.126C216.122 423.126 216.491 423.214 216.807 423.391C217.123 423.566 217.369 423.826 217.543 424.172C217.717 424.518 217.805 424.945 217.805 425.455V429.385H216.602V425.6C216.602 425.152 216.485 424.802 216.252 424.55C216.019 424.295 215.698 424.168 215.291 424.168C215.012 424.168 214.764 424.228 214.546 424.349C214.332 424.469 214.162 424.646 214.036 424.88C213.912 425.11 213.851 425.389 213.851 425.716ZM224.047 424.715L222.957 424.908C222.912 424.768 222.839 424.636 222.74 424.51C222.644 424.384 222.512 424.28 222.346 424.2C222.18 424.119 221.972 424.079 221.722 424.079C221.382 424.079 221.098 424.156 220.87 424.308C220.642 424.459 220.528 424.653 220.528 424.892C220.528 425.098 220.604 425.264 220.757 425.391C220.91 425.517 221.157 425.62 221.497 425.7L222.479 425.925C223.047 426.057 223.471 426.259 223.75 426.533C224.029 426.806 224.168 427.162 224.168 427.599C224.168 427.969 224.061 428.299 223.846 428.588C223.634 428.875 223.338 429.101 222.957 429.264C222.579 429.428 222.141 429.509 221.642 429.509C220.95 429.509 220.386 429.362 219.949 429.067C219.511 428.769 219.243 428.347 219.144 427.8L220.307 427.623C220.379 427.926 220.528 428.155 220.753 428.311C220.978 428.464 221.272 428.54 221.634 428.54C222.028 428.54 222.343 428.458 222.579 428.295C222.815 428.128 222.933 427.926 222.933 427.687C222.933 427.494 222.861 427.332 222.716 427.201C222.574 427.069 222.355 426.97 222.06 426.903L221.014 426.674C220.438 426.542 220.012 426.333 219.735 426.046C219.462 425.759 219.325 425.396 219.325 424.956C219.325 424.591 219.427 424.272 219.631 423.999C219.835 423.725 220.116 423.512 220.475 423.359C220.835 423.204 221.246 423.126 221.71 423.126C222.378 423.126 222.904 423.271 223.287 423.56C223.671 423.847 223.924 424.232 224.047 424.715Z" fill="white"/>
<rect x="113.395" y="418.621" width="146.78" height="13.528" stroke="black" stroke-width="0.471963"/>
<rect x="113.395" y="440.172" width="173.21" height="114.215" fill="white"/>
<rect x="155.871" y="446.802" width="61.528" height="17.4159" stroke="black" stroke-width="0.471963"/>
<path d="M269.721 451.712V451.233L271.833 447.892H272.18V448.633H271.946L270.35 451.158V451.196H273.194V451.712H269.721ZM271.983 452.697V451.566V451.343V447.892H272.537V452.697H271.983ZM274.683 452.04L274.645 452.294C274.618 452.472 274.578 452.663 274.523 452.866C274.47 453.07 274.414 453.261 274.356 453.441C274.299 453.621 274.251 453.764 274.213 453.87H273.791C273.811 453.77 273.838 453.638 273.871 453.474C273.904 453.31 273.936 453.126 273.969 452.923C274.004 452.721 274.032 452.514 274.054 452.303L274.082 452.04H274.683ZM275.699 452.697V452.275L277.285 450.539C277.472 450.335 277.625 450.158 277.745 450.008C277.866 449.857 277.955 449.714 278.013 449.581C278.072 449.447 278.102 449.306 278.102 449.159C278.102 448.99 278.061 448.844 277.98 448.72C277.9 448.597 277.791 448.501 277.651 448.434C277.512 448.367 277.356 448.333 277.182 448.333C276.998 448.333 276.836 448.371 276.699 448.448C276.563 448.523 276.457 448.629 276.382 448.765C276.308 448.901 276.272 449.06 276.272 449.243H275.718C275.718 448.962 275.783 448.715 275.913 448.502C276.043 448.289 276.219 448.123 276.443 448.004C276.668 447.886 276.921 447.826 277.201 447.826C277.482 447.826 277.732 447.886 277.949 448.004C278.167 448.123 278.337 448.284 278.461 448.485C278.584 448.687 278.646 448.912 278.646 449.159C278.646 449.336 278.614 449.509 278.55 449.677C278.488 449.845 278.378 450.032 278.222 450.238C278.067 450.443 277.852 450.693 277.576 450.989L276.497 452.144V452.181H278.731V452.697H275.699ZM281.389 447.892V452.697H280.807V448.502H280.779L279.606 449.281V448.69L280.807 447.892H281.389ZM284.311 452.763C283.988 452.763 283.704 452.706 283.456 452.592C283.211 452.476 283.019 452.317 282.882 452.115C282.744 451.912 282.676 451.68 282.677 451.421C282.676 451.217 282.716 451.03 282.797 450.858C282.878 450.684 282.989 450.539 283.13 450.424C283.273 450.306 283.431 450.232 283.607 450.201V450.173C283.377 450.113 283.194 449.984 283.058 449.785C282.921 449.585 282.854 449.358 282.856 449.103C282.854 448.859 282.916 448.64 283.041 448.448C283.166 448.256 283.338 448.104 283.557 447.993C283.778 447.882 284.029 447.826 284.311 447.826C284.589 447.826 284.838 447.882 285.057 447.993C285.276 448.104 285.448 448.256 285.573 448.448C285.7 448.64 285.764 448.859 285.765 449.103C285.764 449.358 285.694 449.585 285.556 449.785C285.42 449.984 285.24 450.113 285.014 450.173V450.201C285.188 450.232 285.344 450.306 285.484 450.424C285.623 450.539 285.734 450.684 285.817 450.858C285.9 451.03 285.942 451.217 285.944 451.421C285.942 451.68 285.872 451.912 285.732 452.115C285.595 452.317 285.403 452.476 285.158 452.592C284.914 452.706 284.631 452.763 284.311 452.763ZM284.311 452.247C284.528 452.247 284.716 452.212 284.874 452.141C285.032 452.071 285.154 451.971 285.24 451.843C285.326 451.715 285.37 451.565 285.371 451.393C285.37 451.211 285.323 451.051 285.23 450.912C285.138 450.772 285.012 450.663 284.853 450.583C284.695 450.503 284.514 450.463 284.311 450.463C284.106 450.463 283.923 450.503 283.761 450.583C283.602 450.663 283.476 450.772 283.384 450.912C283.293 451.051 283.248 451.211 283.25 451.393C283.248 451.565 283.29 451.715 283.374 451.843C283.46 451.971 283.583 452.071 283.743 452.141C283.902 452.212 284.092 452.247 284.311 452.247ZM284.311 449.966C284.483 449.966 284.635 449.932 284.768 449.863C284.903 449.794 285.008 449.698 285.085 449.574C285.161 449.451 285.201 449.306 285.202 449.14C285.201 448.977 285.162 448.836 285.087 448.715C285.012 448.593 284.908 448.5 284.775 448.434C284.642 448.367 284.487 448.333 284.311 448.333C284.131 448.333 283.973 448.367 283.839 448.434C283.704 448.5 283.6 448.593 283.527 448.715C283.453 448.836 283.417 448.977 283.419 449.14C283.417 449.306 283.454 449.451 283.529 449.574C283.606 449.698 283.711 449.794 283.846 449.863C283.98 449.932 284.135 449.966 284.311 449.966Z" fill="#F5F8FA"/>
<rect x="255.927" y="445.785" width="30.6776" height="19.4526" stroke="black" stroke-width="0.471963"/>
<rect x="113.395" y="440.172" width="173.21" height="30.6776" stroke="black" stroke-width="0.471963"/>
<rect x="155.871" y="485.504" width="61.528" height="17.4159" stroke="black" stroke-width="0.471963"/>
<path d="M269.721 490.413V489.934L271.833 486.593H272.18V487.334H271.946L270.35 489.859V489.897H273.194V490.413H269.721ZM271.983 491.398V490.267V490.045V486.593H272.537V491.398H271.983ZM274.683 490.741L274.645 490.995C274.618 491.173 274.578 491.364 274.523 491.567C274.47 491.771 274.414 491.962 274.356 492.142C274.299 492.322 274.251 492.465 274.213 492.572H273.791C273.811 492.472 273.838 492.339 273.871 492.175C273.904 492.011 273.936 491.827 273.969 491.624C274.004 491.422 274.032 491.215 274.054 491.004L274.082 490.741H274.683ZM275.699 491.398V490.976L277.285 489.24C277.472 489.036 277.625 488.86 277.745 488.709C277.866 488.558 277.955 488.415 278.013 488.282C278.072 488.148 278.102 488.007 278.102 487.86C278.102 487.691 278.061 487.545 277.98 487.421C277.9 487.298 277.791 487.202 277.651 487.135C277.512 487.068 277.356 487.034 277.182 487.034C276.998 487.034 276.836 487.072 276.699 487.149C276.563 487.224 276.457 487.33 276.382 487.466C276.308 487.602 276.272 487.762 276.272 487.945H275.718C275.718 487.663 275.783 487.416 275.913 487.203C276.043 486.99 276.219 486.825 276.443 486.706C276.668 486.587 276.921 486.527 277.201 486.527C277.482 486.527 277.732 486.587 277.949 486.706C278.167 486.825 278.337 486.985 278.461 487.187C278.584 487.388 278.646 487.613 278.646 487.86C278.646 488.037 278.614 488.21 278.55 488.379C278.488 488.546 278.378 488.733 278.222 488.939C278.067 489.144 277.852 489.395 277.576 489.69L276.497 490.845V490.882H278.731V491.398H275.699ZM281.389 486.593V491.398H280.807V487.203H280.779L279.606 487.982V487.391L280.807 486.593H281.389ZM284.311 491.464C283.988 491.464 283.704 491.407 283.456 491.293C283.211 491.177 283.019 491.018 282.882 490.817C282.744 490.613 282.676 490.382 282.677 490.122C282.676 489.919 282.716 489.731 282.797 489.559C282.878 489.385 282.989 489.241 283.13 489.125C283.273 489.007 283.431 488.933 283.607 488.902V488.874C283.377 488.814 283.194 488.685 283.058 488.487C282.921 488.286 282.854 488.059 282.856 487.804C282.854 487.56 282.916 487.342 283.041 487.149C283.166 486.957 283.338 486.805 283.557 486.694C283.778 486.583 284.029 486.527 284.311 486.527C284.589 486.527 284.838 486.583 285.057 486.694C285.276 486.805 285.448 486.957 285.573 487.149C285.7 487.342 285.764 487.56 285.765 487.804C285.764 488.059 285.694 488.286 285.556 488.487C285.42 488.685 285.24 488.814 285.014 488.874V488.902C285.188 488.933 285.344 489.007 285.484 489.125C285.623 489.241 285.734 489.385 285.817 489.559C285.9 489.731 285.942 489.919 285.944 490.122C285.942 490.382 285.872 490.613 285.732 490.817C285.595 491.018 285.403 491.177 285.158 491.293C284.914 491.407 284.631 491.464 284.311 491.464ZM284.311 490.948C284.528 490.948 284.716 490.913 284.874 490.842C285.032 490.772 285.154 490.673 285.24 490.544C285.326 490.416 285.37 490.266 285.371 490.094C285.37 489.912 285.323 489.752 285.23 489.613C285.138 489.474 285.012 489.364 284.853 489.284C284.695 489.205 284.514 489.165 284.311 489.165C284.106 489.165 283.923 489.205 283.761 489.284C283.602 489.364 283.476 489.474 283.384 489.613C283.293 489.752 283.248 489.912 283.25 490.094C283.248 490.266 283.29 490.416 283.374 490.544C283.46 490.673 283.583 490.772 283.743 490.842C283.902 490.913 284.092 490.948 284.311 490.948ZM284.311 488.667C284.483 488.667 284.635 488.633 284.768 488.564C284.903 488.495 285.008 488.399 285.085 488.275C285.161 488.152 285.201 488.007 285.202 487.841C285.201 487.679 285.162 487.537 285.087 487.417C285.012 487.295 284.908 487.201 284.775 487.135C284.642 487.068 284.487 487.034 284.311 487.034C284.131 487.034 283.973 487.068 283.839 487.135C283.704 487.201 283.6 487.295 283.527 487.417C283.453 487.537 283.417 487.679 283.419 487.841C283.417 488.007 283.454 488.152 283.529 488.275C283.606 488.399 283.711 488.495 283.846 488.564C283.98 488.633 284.135 488.667 284.311 488.667Z" fill="#F5F8FA"/>
<rect x="255.927" y="484.486" width="30.6776" height="19.4526" stroke="black" stroke-width="0.471963"/>
<rect x="113.395" y="478.873" width="173.21" height="30.6776" stroke="black" stroke-width="0.471963"/>
<rect x="155.871" y="524.205" width="61.528" height="17.4159" stroke="black" stroke-width="0.471963"/>
<path d="M269.721 529.114V528.635L271.833 525.294H272.18V526.036H271.946L270.35 528.56V528.598H273.194V529.114H269.721ZM271.983 530.1V528.969V528.746V525.294H272.537V530.1H271.983ZM274.683 529.443L274.645 529.696C274.618 529.874 274.578 530.065 274.523 530.269C274.47 530.472 274.414 530.664 274.356 530.843C274.299 531.023 274.251 531.166 274.213 531.273H273.791C273.811 531.173 273.838 531.041 273.871 530.876C273.904 530.712 273.936 530.528 273.969 530.325C274.004 530.123 274.032 529.917 274.054 529.705L274.082 529.443H274.683ZM275.699 530.1V529.677L277.285 527.941C277.472 527.738 277.625 527.561 277.745 527.411C277.866 527.259 277.955 527.117 278.013 526.984C278.072 526.849 278.102 526.708 278.102 526.561C278.102 526.392 278.061 526.246 277.98 526.122C277.9 525.999 277.791 525.903 277.651 525.836C277.512 525.769 277.356 525.735 277.182 525.735C276.998 525.735 276.836 525.774 276.699 525.85C276.563 525.925 276.457 526.031 276.382 526.167C276.308 526.303 276.272 526.463 276.272 526.646H275.718C275.718 526.364 275.783 526.117 275.913 525.904C276.043 525.691 276.219 525.526 276.443 525.407C276.668 525.288 276.921 525.228 277.201 525.228C277.482 525.228 277.732 525.288 277.949 525.407C278.167 525.526 278.337 525.686 278.461 525.888C278.584 526.09 278.646 526.314 278.646 526.561C278.646 526.738 278.614 526.911 278.55 527.08C278.488 527.247 278.378 527.434 278.222 527.641C278.067 527.845 277.852 528.096 277.576 528.391L276.497 529.546V529.583H278.731V530.1H275.699ZM281.389 525.294V530.1H280.807V525.904H280.779L279.606 526.683V526.092L280.807 525.294H281.389ZM284.311 530.165C283.988 530.165 283.704 530.108 283.456 529.994C283.211 529.878 283.019 529.719 282.882 529.518C282.744 529.314 282.676 529.083 282.677 528.823C282.676 528.62 282.716 528.432 282.797 528.26C282.878 528.086 282.989 527.942 283.13 527.826C283.273 527.709 283.431 527.634 283.607 527.603V527.575C283.377 527.515 283.194 527.386 283.058 527.188C282.921 526.987 282.854 526.76 282.856 526.505C282.854 526.261 282.916 526.043 283.041 525.85C283.166 525.658 283.338 525.506 283.557 525.395C283.778 525.284 284.029 525.228 284.311 525.228C284.589 525.228 284.838 525.284 285.057 525.395C285.276 525.506 285.448 525.658 285.573 525.85C285.7 526.043 285.764 526.261 285.765 526.505C285.764 526.76 285.694 526.987 285.556 527.188C285.42 527.386 285.24 527.515 285.014 527.575V527.603C285.188 527.634 285.344 527.709 285.484 527.826C285.623 527.942 285.734 528.086 285.817 528.26C285.9 528.432 285.942 528.62 285.944 528.823C285.942 529.083 285.872 529.314 285.732 529.518C285.595 529.719 285.403 529.878 285.158 529.994C284.914 530.108 284.631 530.165 284.311 530.165ZM284.311 529.649C284.528 529.649 284.716 529.614 284.874 529.544C285.032 529.473 285.154 529.374 285.24 529.246C285.326 529.117 285.37 528.967 285.371 528.795C285.37 528.614 285.323 528.453 285.23 528.314C285.138 528.175 285.012 528.065 284.853 527.985C284.695 527.906 284.514 527.866 284.311 527.866C284.106 527.866 283.923 527.906 283.761 527.985C283.602 528.065 283.476 528.175 283.384 528.314C283.293 528.453 283.248 528.614 283.25 528.795C283.248 528.967 283.29 529.117 283.374 529.246C283.46 529.374 283.583 529.473 283.743 529.544C283.902 529.614 284.092 529.649 284.311 529.649ZM284.311 527.368C284.483 527.368 284.635 527.334 284.768 527.265C284.903 527.196 285.008 527.1 285.085 526.977C285.161 526.853 285.201 526.708 285.202 526.542C285.201 526.38 285.162 526.238 285.087 526.118C285.012 525.996 284.908 525.902 284.775 525.836C284.642 525.769 284.487 525.735 284.311 525.735C284.131 525.735 283.973 525.769 283.839 525.836C283.704 525.902 283.6 525.996 283.527 526.118C283.453 526.238 283.417 526.38 283.419 526.542C283.417 526.708 283.454 526.853 283.529 526.977C283.606 527.1 283.711 527.196 283.846 527.265C283.98 527.334 284.135 527.368 284.311 527.368Z" fill="#F5F8FA"/>
<rect x="255.927" y="523.187" width="30.6776" height="19.4526" stroke="black" stroke-width="0.471963"/>
<rect x="113.395" y="517.574" width="173.21" height="30.6776" stroke="black" stroke-width="0.471963"/>
<rect x="113.395" y="440.172" width="173.21" height="114.215" stroke="black" stroke-width="0.471963"/>
<circle cx="273.154" cy="146.061" r="12.507" stroke="black" stroke-width="1.41589"/>
<rect x="113.395" y="133.082" width="173.21" height="25.9579" rx="12.979" stroke="black" stroke-width="0.471963"/>
<rect x="113.395" y="180.75" width="67.4906" height="25.9579" stroke="black" stroke-width="0.471963"/>
<rect x="113.395" y="180.75" width="67.4906" height="25.9579" stroke="black" stroke-width="0.471963"/>
<rect x="195.516" y="180.75" width="67.4906" height="25.9579" stroke="black" stroke-width="0.471963"/>
<rect x="277.638" y="180.75" width="67.4906" height="25.9579" stroke="black" stroke-width="0.471963"/>
<rect x="120.946" y="224.17" width="110.439" height="121.766" fill="white"/>
<path d="M132.386 236.346H131.992L133.491 232.227H133.893L135.391 236.346H134.997L133.706 232.715H133.678L132.386 236.346ZM132.67 234.767H134.713V235.105H132.67V234.767ZM136.023 236.346V233.256H136.371V233.731H136.397C136.458 233.576 136.566 233.45 136.719 233.355C136.873 233.259 137.047 233.21 137.242 233.21C137.271 233.21 137.304 233.211 137.34 233.212C137.376 233.214 137.406 233.215 137.431 233.216V233.58C137.414 233.578 137.386 233.574 137.346 233.568C137.306 233.563 137.262 233.56 137.215 233.56C137.054 233.56 136.911 233.594 136.785 233.663C136.66 233.73 136.562 233.823 136.489 233.942C136.417 234.062 136.381 234.198 136.381 234.351V236.346H136.023ZM139.452 233.256V233.568H137.978V233.256H139.452ZM138.438 232.516H138.798V235.539C138.798 235.668 138.82 235.769 138.865 235.843C138.909 235.915 138.966 235.967 139.038 235.998C139.109 236.027 139.184 236.042 139.265 236.042C139.312 236.042 139.352 236.039 139.385 236.034C139.419 236.027 139.448 236.021 139.474 236.014L139.55 236.338C139.516 236.351 139.473 236.363 139.422 236.374C139.371 236.386 139.308 236.392 139.233 236.392C139.101 236.392 138.975 236.363 138.852 236.305C138.732 236.248 138.633 236.162 138.555 236.048C138.477 235.934 138.438 235.793 138.438 235.624V232.516Z" fill="white"/>
<rect x="124.722" y="228.693" width="22.1822" height="10.3037" rx="2.12383" stroke="black" stroke-width="0.471963"/>
<rect x="215.339" y="228.418" width="10.8551" height="10.8551" stroke="black" stroke-width="0.471963"/>
<rect x="120.946" y="224.17" width="110.439" height="121.766" stroke="black" stroke-width="0.471963"/>
<rect x="200.236" y="358.736" width="31.1495" height="6.52804" stroke="black" stroke-width="0.471963"/>
<rect x="120.946" y="357.736" width="110.439" height="8.52804" stroke="black" stroke-width="0.471963"/>
<g clip-path="url(#clip2_416_4790)">
<rect x="131.22" y="385.346" width="4.59266" height="4.61644" rx="2.29633" fill="#1C212B"/>
<g clip-path="url(#clip3_416_4790)">
<path d="M133.221 388.107L132.953 387.834C132.943 387.824 132.934 387.811 132.929 387.798C132.923 387.784 132.92 387.769 132.92 387.754C132.92 387.739 132.923 387.725 132.929 387.711C132.934 387.697 132.943 387.685 132.953 387.674L132.961 387.666C133.005 387.622 133.077 387.622 133.121 387.666L133.302 387.85L133.883 387.264C133.927 387.219 133.999 387.219 134.043 387.264L134.051 387.272C134.095 387.316 134.095 387.388 134.051 387.432L133.384 388.107C133.337 388.152 133.266 388.152 133.221 388.107Z" fill="#F5F8FA"/>
</g>
</g>
<rect x="131.456" y="385.582" width="4.1207" height="4.14447" rx="2.06035" stroke="black" stroke-width="0.471963"/>
<rect x="120.946" y="374.287" width="14.6308" height="15.4472" stroke="black" stroke-width="0.471963"/>
<rect x="120.946" y="374.287" width="38.4065" height="15.4472" stroke="black" stroke-width="0.471963"/>
<rect x="191.268" y="374.97" width="40.1168" height="14.0794" rx="4.48364" stroke="black" stroke-width="0.471963"/>
<rect x="113.395" y="216.619" width="125.542" height="180.667" rx="4.48364" stroke="black" stroke-width="0.471963"/>
<rect x="254.511" y="224.17" width="110.439" height="121.766" fill="white"/>
<path d="M265.952 236.346H265.558L267.056 232.227H267.458L268.957 236.346H268.562L267.271 232.715H267.243L265.952 236.346ZM266.235 234.767H268.279V235.105H266.235V234.767ZM269.588 236.346V233.256H269.936V233.731H269.962C270.024 233.576 270.131 233.45 270.284 233.355C270.438 233.259 270.613 233.21 270.807 233.21C270.836 233.21 270.869 233.211 270.905 233.212C270.942 233.214 270.972 233.215 270.996 233.216V233.58C270.98 233.578 270.952 233.574 270.912 233.568C270.871 233.563 270.828 233.56 270.781 233.56C270.62 233.56 270.476 233.594 270.35 233.663C270.226 233.73 270.127 233.823 270.055 233.942C269.982 234.062 269.946 234.198 269.946 234.351V236.346H269.588ZM273.017 233.256V233.568H271.543V233.256H273.017ZM272.004 232.516H272.364V235.539C272.364 235.668 272.386 235.769 272.43 235.843C272.474 235.915 272.532 235.967 272.603 235.998C272.674 236.027 272.75 236.042 272.83 236.042C272.877 236.042 272.917 236.039 272.951 236.034C272.984 236.027 273.014 236.021 273.039 236.014L273.116 236.338C273.081 236.351 273.038 236.363 272.987 236.374C272.936 236.386 272.873 236.392 272.798 236.392C272.667 236.392 272.54 236.363 272.418 236.305C272.297 236.248 272.198 236.162 272.12 236.048C272.042 235.934 272.004 235.793 272.004 235.624V232.516Z" fill="white"/>
<rect x="258.287" y="228.693" width="22.1822" height="10.3037" rx="2.12383" stroke="black" stroke-width="0.471963"/>
<rect x="254.511" y="224.17" width="110.439" height="121.766" stroke="black" stroke-width="0.471963"/>
<rect x="254.511" y="357.736" width="110.439" height="8.52804" stroke="black" stroke-width="0.471963"/>
<g clip-path="url(#clip4_416_4790)">
<rect x="264.786" y="385.346" width="4.59266" height="4.61644" rx="2.29633" fill="#1C212B"/>
<path d="M266.787 388.107L266.518 387.834C266.508 387.824 266.5 387.811 266.494 387.798C266.488 387.784 266.485 387.769 266.485 387.754C266.485 387.739 266.488 387.725 266.494 387.711C266.5 387.697 266.508 387.685 266.518 387.674L266.526 387.666C266.57 387.622 266.642 387.622 266.686 387.666L266.868 387.85L267.448 387.264C267.492 387.219 267.564 387.219 267.608 387.264L267.616 387.272C267.66 387.316 267.66 387.388 267.616 387.432L266.949 388.107C266.903 388.152 266.832 388.152 266.787 388.107Z" fill="#F5F8FA"/>
</g>
<rect x="265.022" y="385.582" width="4.1207" height="4.14447" rx="2.06035" stroke="black" stroke-width="0.471963"/>
<rect x="254.511" y="374.287" width="14.6308" height="15.4472" stroke="black" stroke-width="0.471963"/>
<rect x="254.511" y="374.287" width="38.4065" height="15.4472" stroke="black" stroke-width="0.471963"/>
<rect x="246.96" y="216.619" width="125.542" height="180.667" rx="4.48364" stroke="black" stroke-width="0.471963"/>
<path d="M128.262 146.77C128.466 146.77 128.635 146.703 128.769 146.569C128.903 146.436 128.97 146.267 128.97 146.062C128.97 145.858 128.903 145.688 128.769 145.555C128.635 145.421 128.466 145.354 128.262 145.354C128.057 145.354 127.888 145.421 127.754 145.555C127.621 145.688 127.554 145.858 127.554 146.062C127.554 146.267 127.621 146.436 127.754 146.569C127.888 146.703 128.057 146.77 128.262 146.77ZM123.07 149.366V142.758V149.366ZM123.07 150.31C122.811 150.31 122.588 150.217 122.403 150.033C122.219 149.848 122.126 149.625 122.126 149.366V142.758C122.126 142.499 122.219 142.277 122.403 142.091C122.588 141.907 122.811 141.814 123.07 141.814H129.678C129.937 141.814 130.159 141.907 130.345 142.091C130.529 142.277 130.622 142.499 130.622 142.758V143.938H129.678V142.758H123.07V149.366H129.678V148.186H130.622V149.366C130.622 149.625 130.529 149.848 130.345 150.033C130.159 150.217 129.937 150.31 129.678 150.31H123.07ZM126.846 148.422C126.586 148.422 126.364 148.33 126.179 148.145C125.994 147.96 125.902 147.738 125.902 147.478V144.646C125.902 144.387 125.994 144.164 126.179 143.979C126.364 143.795 126.586 143.702 126.846 143.702H130.15C130.409 143.702 130.631 143.795 130.816 143.979C131.001 144.164 131.094 144.387 131.094 144.646V147.478C131.094 147.738 131.001 147.96 130.816 148.145C130.631 148.33 130.409 148.422 130.15 148.422H126.846ZM130.15 147.478V144.646H126.846V147.478H130.15Z" fill="white"/>
<rect x="134.161" y="155.738" width="36.8131" height="7.07944" fill="white" stroke="black" stroke-width="0.471963"/>
<path d="M137.928 146.103L137.309 145.951L137.564 143.59H140.096V144.248H138.209L138.08 145.4C138.153 145.357 138.254 145.315 138.383 145.274C138.512 145.231 138.659 145.209 138.825 145.209C139.047 145.209 139.244 145.246 139.419 145.319C139.595 145.39 139.745 145.494 139.867 145.632C139.99 145.767 140.083 145.933 140.148 146.129C140.212 146.322 140.245 146.541 140.245 146.784C140.245 147.001 140.212 147.204 140.148 147.393C140.085 147.583 139.991 147.749 139.864 147.893C139.737 148.038 139.577 148.151 139.383 148.232C139.192 148.312 138.965 148.352 138.702 148.352C138.507 148.352 138.318 148.324 138.138 148.268C137.959 148.21 137.799 148.125 137.657 148.013C137.515 147.899 137.401 147.759 137.315 147.593C137.229 147.426 137.18 147.233 137.167 147.016H137.928C137.947 147.169 137.989 147.299 138.054 147.406C138.121 147.512 138.209 147.592 138.318 147.648C138.428 147.704 138.555 147.732 138.699 147.732C138.83 147.732 138.943 147.71 139.038 147.664C139.133 147.617 139.211 147.55 139.273 147.464C139.338 147.376 139.385 147.273 139.415 147.155C139.448 147.036 139.464 146.905 139.464 146.761C139.464 146.623 139.446 146.498 139.409 146.384C139.375 146.27 139.322 146.171 139.251 146.087C139.182 146.003 139.095 145.938 138.99 145.893C138.884 145.846 138.763 145.822 138.625 145.822C138.44 145.822 138.298 145.849 138.199 145.903C138.102 145.957 138.012 146.023 137.928 146.103ZM143.939 147.006C143.939 147.299 143.871 147.545 143.735 147.745C143.6 147.945 143.415 148.097 143.181 148.2C142.948 148.301 142.686 148.352 142.393 148.352C142.101 148.352 141.837 148.301 141.603 148.2C141.368 148.097 141.183 147.945 141.048 147.745C140.912 147.545 140.845 147.299 140.845 147.006C140.845 146.813 140.882 146.637 140.958 146.48C141.033 146.321 141.139 146.185 141.277 146.071C141.417 145.954 141.58 145.865 141.767 145.803C141.957 145.74 142.163 145.709 142.387 145.709C142.684 145.709 142.949 145.764 143.184 145.874C143.418 145.984 143.602 146.135 143.735 146.329C143.871 146.522 143.939 146.748 143.939 147.006ZM143.158 146.968C143.158 146.811 143.126 146.673 143.061 146.555C142.997 146.436 142.906 146.345 142.79 146.28C142.674 146.216 142.54 146.184 142.387 146.184C142.232 146.184 142.098 146.216 141.984 146.28C141.87 146.345 141.78 146.436 141.716 146.555C141.653 146.673 141.622 146.811 141.622 146.968C141.622 147.127 141.653 147.264 141.716 147.381C141.778 147.495 141.867 147.582 141.984 147.642C142.1 147.702 142.236 147.732 142.393 147.732C142.55 147.732 142.686 147.702 142.8 147.642C142.914 147.582 143.002 147.495 143.064 147.381C143.127 147.264 143.158 147.127 143.158 146.968ZM143.832 144.825C143.832 145.06 143.77 145.268 143.645 145.451C143.523 145.634 143.353 145.778 143.135 145.884C142.918 145.987 142.671 146.038 142.393 146.038C142.114 146.038 141.864 145.987 141.645 145.884C141.428 145.778 141.257 145.634 141.132 145.451C141.009 145.268 140.948 145.06 140.948 144.825C140.948 144.546 141.009 144.31 141.132 144.119C141.257 143.925 141.428 143.778 141.645 143.677C141.862 143.576 142.11 143.525 142.39 143.525C142.67 143.525 142.918 143.576 143.135 143.677C143.353 143.778 143.523 143.925 143.645 144.119C143.77 144.31 143.832 144.546 143.832 144.825ZM143.055 144.851C143.055 144.711 143.027 144.589 142.971 144.483C142.917 144.376 142.841 144.292 142.742 144.232C142.643 144.171 142.526 144.141 142.39 144.141C142.255 144.141 142.137 144.17 142.038 144.228C141.939 144.286 141.863 144.368 141.809 144.474C141.756 144.579 141.729 144.705 141.729 144.851C141.729 144.995 141.756 145.121 141.809 145.229C141.863 145.334 141.939 145.417 142.038 145.477C142.14 145.537 142.258 145.567 142.393 145.567C142.529 145.567 142.646 145.537 142.745 145.477C142.844 145.417 142.92 145.334 142.974 145.229C143.028 145.121 143.055 144.995 143.055 144.851ZM145.397 147.539L145.394 148.094C145.394 148.313 145.339 148.539 145.229 148.771C145.12 149.003 144.974 149.195 144.794 149.345L144.377 149.103C144.438 149.007 144.493 148.909 144.542 148.81C144.592 148.711 144.631 148.605 144.661 148.494C144.692 148.382 144.707 148.258 144.707 148.123V147.539H145.397ZM147.013 145.587H147.478C147.659 145.587 147.808 145.556 147.926 145.493C148.047 145.431 148.136 145.345 148.194 145.235C148.252 145.125 148.281 145 148.281 144.858C148.281 144.709 148.254 144.582 148.201 144.477C148.149 144.369 148.069 144.286 147.962 144.228C147.857 144.17 147.722 144.141 147.559 144.141C147.421 144.141 147.296 144.169 147.184 144.225C147.075 144.279 146.988 144.356 146.923 144.457C146.859 144.556 146.826 144.675 146.826 144.812H146.045C146.045 144.563 146.111 144.341 146.242 144.148C146.374 143.954 146.552 143.803 146.778 143.693C147.006 143.581 147.262 143.525 147.546 143.525C147.849 143.525 148.114 143.576 148.339 143.677C148.567 143.776 148.745 143.924 148.872 144.122C148.999 144.32 149.062 144.565 149.062 144.858C149.062 144.991 149.031 145.126 148.969 145.264C148.906 145.402 148.814 145.528 148.691 145.642C148.568 145.753 148.416 145.845 148.233 145.916C148.05 145.985 147.838 146.019 147.597 146.019H147.013V145.587ZM147.013 146.193V145.767H147.597C147.873 145.767 148.107 145.8 148.301 145.864C148.496 145.929 148.656 146.018 148.778 146.132C148.901 146.244 148.99 146.372 149.046 146.516C149.104 146.66 149.133 146.813 149.133 146.974C149.133 147.193 149.093 147.389 149.014 147.561C148.936 147.731 148.825 147.875 148.681 147.994C148.537 148.112 148.368 148.201 148.175 148.261C147.983 148.322 147.775 148.352 147.549 148.352C147.347 148.352 147.153 148.324 146.968 148.268C146.783 148.212 146.618 148.129 146.471 148.019C146.325 147.907 146.209 147.769 146.123 147.603C146.039 147.435 145.997 147.242 145.997 147.022H146.775C146.775 147.162 146.807 147.286 146.871 147.393C146.938 147.499 147.031 147.582 147.149 147.642C147.269 147.702 147.407 147.732 147.562 147.732C147.725 147.732 147.866 147.703 147.985 147.645C148.103 147.587 148.193 147.501 148.256 147.387C148.32 147.273 148.352 147.135 148.352 146.974C148.352 146.791 148.317 146.643 148.246 146.529C148.175 146.415 148.074 146.331 147.943 146.277C147.811 146.221 147.656 146.193 147.478 146.193H147.013ZM151.979 143.573V148.287H151.201V144.496L150.049 144.887V144.245L151.885 143.573H151.979ZM156.731 143.59V144.015L154.853 148.287H154.034L155.908 144.209H153.476V143.59H156.731Z" fill="white"/>
<circle cx="200" cy="496.262" r="12.979" stroke="black" stroke-width="0.471963"/>
<circle cx="200" cy="496.262" r="12.979" stroke="black" stroke-width="0.471963"/>
<path d="M279.526 527.647H120.474C111.873 527.647 104.899 520.674 104.899 512.072C104.899 503.471 111.873 496.498 120.474 496.498H177.173C178.344 496.498 179.502 496.74 180.575 497.209C181.882 497.781 182.944 498.798 183.573 500.079L185.546 504.1C191.682 516.606 209.727 515.952 214.942 503.035L216.389 499.45C216.748 498.56 217.393 497.814 218.222 497.331C219.157 496.785 220.221 496.498 221.304 496.498H279.526C288.127 496.498 295.1 503.471 295.1 512.072C295.1 520.674 288.127 527.647 279.526 527.647Z" stroke="black" stroke-width="0.471963"/>
<rect x="221.002" y="504.048" width="15.5748" height="15.5748" stroke="black" stroke-width="0.471963"/>
<rect x="271.03" y="504.048" width="15.5748" height="15.5748" stroke="black" stroke-width="0.471963"/>
<rect x="158.231" y="504.521" width="15.5748" height="15.5748" stroke="black" stroke-width="0.471963"/>
<rect x="119.53" y="504.521" width="15.5748" height="15.5748" stroke="black" stroke-width="0.471963"/>
</g>
<rect x="98.4437" y="110.11" width="203.113" height="438.15" rx="14.7151" stroke="black" stroke-width="1.1125"/>
</g>
<rect x="0.5" y="1.16602" width="399" height="657" stroke="black"/>
<g clip-path="url(#clip5_416_4790)">
<rect x="400" y="0.666016" width="400" height="658" fill="#EAEAEA"/>
<g style="mix-blend-mode:multiply" opacity="0.5">
<path d="M532.127 -48.3392C459.146 -68.8085 390.348 -33.0471 378.338 31.338C366.327 95.723 415.605 164.602 488.586 185.071C561.568 205.54 630.365 169.779 642.376 105.394C654.386 41.0088 605.108 -27.8698 532.127 -48.3392Z" stroke="black" stroke-opacity="0.22"/>
</g>
<g style="mix-blend-mode:multiply" opacity="0.3">
<path d="M797.726 595.146C681.408 562.522 571.679 619.506 552.517 722.224C533.356 824.942 611.971 934.752 728.29 967.376C844.608 1000 954.337 943.016 973.499 840.298C992.66 737.58 914.045 627.77 797.726 595.146Z" stroke="black" stroke-opacity="0.22"/>
</g>
<g clip-path="url(#clip6_416_4790)">
<rect x="493" y="97.666" width="214" height="463" rx="15" fill="white"/>
<path d="M493.25 94.416H706.75V173.353L692.852 175.541C673.376 178.608 654.575 185.015 637.279 194.48L623.582 201.976C609.029 209.94 591.305 209.402 577.262 200.569L576.481 200.078C555.63 186.964 532.196 178.502 507.777 175.27L493.25 173.347V94.416Z" fill="white" stroke="black" stroke-width="0.5"/>
<g filter="url(#filter0_b_416_4790)">
<circle cx="601.5" cy="160.666" r="38" fill="white" fill-opacity="0.05"/>
<circle cx="601.5" cy="160.666" r="38.25" stroke="black" stroke-width="0.5"/>
</g>
<rect x="562.75" y="210.416" width="80.5" height="40.5" stroke="black" stroke-width="0.5"/>
<rect x="503.125" y="257.791" width="171.75" height="23.75" rx="2.875" fill="white"/>
<path opacity="0.5" fill-rule="evenodd" clip-rule="evenodd" d="M524.157 274.116L522.016 271.975C522.654 271.178 523.001 270.187 523 269.166C523 266.682 520.984 264.666 518.5 264.666C516.016 264.666 514 266.682 514 269.166C514 271.65 516.016 273.666 518.5 273.666C519.521 273.667 520.512 273.32 521.308 272.682L523.45 274.823L524.157 274.116ZM522 269.166C522.001 270.076 521.647 270.951 521.012 271.604L520.938 271.679C520.285 272.313 519.41 272.667 518.5 272.666C516.566 272.666 515 271.1 515 269.166C515 267.232 516.566 265.666 518.5 265.666C520.434 265.666 522 267.232 522 269.166Z" fill="black"/>
<path opacity="0.5" d="M532.384 272.722C532.016 272.722 531.685 272.658 531.392 272.53C531.104 272.397 530.877 272.215 530.712 271.986C530.547 271.751 530.461 271.482 530.456 271.178H531.232C531.259 271.439 531.365 271.661 531.552 271.842C531.744 272.018 532.021 272.106 532.384 272.106C532.731 272.106 533.003 272.021 533.2 271.85C533.403 271.674 533.504 271.45 533.504 271.178C533.504 270.965 533.445 270.791 533.328 270.658C533.211 270.525 533.064 270.423 532.888 270.354C532.712 270.285 532.475 270.21 532.176 270.13C531.808 270.034 531.512 269.938 531.288 269.842C531.069 269.746 530.88 269.597 530.72 269.394C530.565 269.186 530.488 268.909 530.488 268.562C530.488 268.258 530.565 267.989 530.72 267.754C530.875 267.519 531.091 267.338 531.368 267.21C531.651 267.082 531.973 267.018 532.336 267.018C532.859 267.018 533.285 267.149 533.616 267.41C533.952 267.671 534.141 268.018 534.184 268.45H533.384C533.357 268.237 533.245 268.05 533.048 267.89C532.851 267.725 532.589 267.642 532.264 267.642C531.96 267.642 531.712 267.722 531.52 267.882C531.328 268.037 531.232 268.255 531.232 268.538C531.232 268.741 531.288 268.906 531.4 269.034C531.517 269.162 531.659 269.261 531.824 269.33C531.995 269.394 532.232 269.469 532.536 269.554C532.904 269.655 533.2 269.757 533.424 269.858C533.648 269.954 533.84 270.106 534 270.314C534.16 270.517 534.24 270.794 534.24 271.146C534.24 271.418 534.168 271.674 534.024 271.914C533.88 272.154 533.667 272.349 533.384 272.498C533.101 272.647 532.768 272.722 532.384 272.722ZM539.311 270.306C539.311 270.445 539.303 270.591 539.287 270.746H535.783C535.81 271.178 535.957 271.517 536.223 271.762C536.495 272.002 536.823 272.122 537.207 272.122C537.522 272.122 537.783 272.05 537.991 271.906C538.205 271.757 538.354 271.559 538.439 271.314H539.223C539.106 271.735 538.871 272.079 538.519 272.346C538.167 272.607 537.73 272.738 537.207 272.738C536.791 272.738 536.418 272.645 536.087 272.458C535.762 272.271 535.506 272.007 535.319 271.666C535.133 271.319 535.039 270.919 535.039 270.466C535.039 270.013 535.13 269.615 535.311 269.274C535.493 268.933 535.746 268.671 536.071 268.49C536.402 268.303 536.781 268.21 537.207 268.21C537.623 268.21 537.991 268.301 538.311 268.482C538.631 268.663 538.877 268.914 539.047 269.234C539.223 269.549 539.311 269.906 539.311 270.306ZM538.559 270.154C538.559 269.877 538.498 269.639 538.375 269.442C538.253 269.239 538.085 269.087 537.871 268.986C537.663 268.879 537.431 268.826 537.175 268.826C536.807 268.826 536.493 268.943 536.231 269.178C535.975 269.413 535.829 269.738 535.791 270.154H538.559ZM540 270.458C540 270.01 540.091 269.618 540.272 269.282C540.454 268.941 540.702 268.677 541.016 268.49C541.336 268.303 541.691 268.21 542.08 268.21C542.464 268.21 542.798 268.293 543.08 268.458C543.363 268.623 543.574 268.831 543.712 269.082V268.282H544.448V272.666H543.712V271.85C543.568 272.106 543.352 272.319 543.064 272.49C542.782 272.655 542.451 272.738 542.072 272.738C541.683 272.738 541.331 272.642 541.016 272.45C540.702 272.258 540.454 271.989 540.272 271.642C540.091 271.295 540 270.901 540 270.458ZM543.712 270.466C543.712 270.135 543.646 269.847 543.512 269.602C543.379 269.357 543.198 269.17 542.968 269.042C542.744 268.909 542.496 268.842 542.224 268.842C541.952 268.842 541.704 268.906 541.48 269.034C541.256 269.162 541.078 269.349 540.944 269.594C540.811 269.839 540.744 270.127 540.744 270.458C540.744 270.794 540.811 271.087 540.944 271.338C541.078 271.583 541.256 271.773 541.48 271.906C541.704 272.034 541.952 272.098 542.224 272.098C542.496 272.098 542.744 272.034 542.968 271.906C543.198 271.773 543.379 271.583 543.512 271.338C543.646 271.087 543.712 270.797 543.712 270.466ZM546.407 268.994C546.535 268.743 546.716 268.549 546.951 268.41C547.191 268.271 547.481 268.202 547.823 268.202V268.954H547.631C546.815 268.954 546.407 269.397 546.407 270.282V272.666H545.679V268.282H546.407V268.994ZM548.391 270.466C548.391 270.013 548.482 269.618 548.663 269.282C548.844 268.941 549.095 268.677 549.415 268.49C549.74 268.303 550.111 268.21 550.527 268.21C551.066 268.21 551.508 268.341 551.855 268.602C552.207 268.863 552.439 269.226 552.551 269.69H551.767C551.692 269.423 551.546 269.213 551.327 269.058C551.114 268.903 550.847 268.826 550.527 268.826C550.111 268.826 549.775 268.97 549.519 269.258C549.263 269.541 549.135 269.943 549.135 270.466C549.135 270.994 549.263 271.402 549.519 271.69C549.775 271.978 550.111 272.122 550.527 272.122C550.847 272.122 551.114 272.047 551.327 271.898C551.54 271.749 551.687 271.535 551.767 271.258H552.551C552.434 271.706 552.199 272.066 551.847 272.338C551.495 272.605 551.055 272.738 550.527 272.738C550.111 272.738 549.74 272.645 549.415 272.458C549.095 272.271 548.844 272.007 548.663 271.666C548.482 271.325 548.391 270.925 548.391 270.466ZM555.698 268.202C556.029 268.202 556.328 268.274 556.594 268.418C556.861 268.557 557.069 268.767 557.218 269.05C557.373 269.333 557.45 269.677 557.45 270.082V272.666H556.73V270.186C556.73 269.749 556.621 269.415 556.402 269.186C556.184 268.951 555.885 268.834 555.506 268.834C555.122 268.834 554.816 268.954 554.586 269.194C554.362 269.434 554.25 269.783 554.25 270.242V272.666H553.522V266.746H554.25V268.906C554.394 268.682 554.592 268.509 554.842 268.386C555.098 268.263 555.384 268.202 555.698 268.202Z" fill="black"/>
<rect x="503.125" y="257.791" width="171.75" height="23.75" rx="2.875" stroke="black" stroke-width="0.25"/>
<g opacity="0.5">
<rect x="685" y="263.666" width="12" height="12" stroke="black" stroke-width="0.5" stroke-miterlimit="0" stroke-linejoin="bevel"/>
</g>
<rect width="195" height="144" transform="translate(503 291.666)" fill="#253341"/>
<rect x="503.125" y="291.791" width="92.25" height="143.75" rx="2.875" fill="white" fill-opacity="0.07" stroke="black" stroke-width="0.25"/>
<mask id="mask0_416_4790" style="mask-type:alpha" maskUnits="userSpaceOnUse" x="509" y="297" width="81" height="99">
<path d="M509.25 303.666C509.25 300.49 511.824 297.916 515 297.916H583.5C586.676 297.916 589.25 300.49 589.25 303.666V394.916H509.25V303.666Z" fill="#2A2D3A" stroke="black" stroke-width="0.5"/>
</mask>
<g mask="url(#mask0_416_4790)">
<path d="M509.25 303.666C509.25 300.49 511.824 297.916 515 297.916H583.5C586.676 297.916 589.25 300.49 589.25 303.666V394.916H509.25V303.666Z" stroke="black" stroke-width="0.5"/>
</g>
<rect x="509.5" y="402.916" width="79.5" height="26.5" stroke="black" stroke-width="0.5"/>
<rect x="605.625" y="291.791" width="92.25" height="143.75" rx="2.875" fill="white" fill-opacity="0.07" stroke="black" stroke-width="0.25"/>
<mask id="mask1_416_4790" style="mask-type:alpha" maskUnits="userSpaceOnUse" x="611" y="297" width="81" height="99">
<path d="M611.75 303.666C611.75 300.49 614.324 297.916 617.5 297.916H686C689.176 297.916 691.75 300.49 691.75 303.666V394.916H611.75V303.666Z" fill="#2A2D3A" stroke="black" stroke-width="0.5"/>
</mask>
<g mask="url(#mask1_416_4790)">
<path d="M611.75 303.666C611.75 300.49 614.324 297.916 617.5 297.916H686C689.176 297.916 691.75 300.49 691.75 303.666V394.916H611.75V303.666Z" stroke="black" stroke-width="0.5"/>
</g>
<rect x="612" y="402.916" width="79.5" height="26.5" stroke="black" stroke-width="0.5"/>
<rect width="195" height="144" transform="translate(503 445.666)" fill="#253341"/>
<rect x="503.125" y="445.791" width="92.25" height="143.75" rx="2.875" fill="white" fill-opacity="0.07" stroke="black" stroke-width="0.25"/>
<mask id="mask2_416_4790" style="mask-type:alpha" maskUnits="userSpaceOnUse" x="509" y="451" width="81" height="99">
<path d="M509.25 457.666C509.25 454.49 511.824 451.916 515 451.916H583.5C586.676 451.916 589.25 454.49 589.25 457.666V548.916H509.25V457.666Z" fill="#2A2D3A" stroke="black" stroke-width="0.5"/>
</mask>
<g mask="url(#mask2_416_4790)">
<path d="M509.25 457.666C509.25 454.49 511.824 451.916 515 451.916H583.5C586.676 451.916 589.25 454.49 589.25 457.666V548.916H509.25V457.666Z" stroke="black" stroke-width="0.5"/>
</g>
<rect x="509.5" y="556.916" width="79.5" height="26.5" stroke="black" stroke-width="0.5"/>
<rect x="605.625" y="445.791" width="92.25" height="143.75" rx="2.875" fill="white" fill-opacity="0.07" stroke="black" stroke-width="0.25"/>
<mask id="mask3_416_4790" style="mask-type:alpha" maskUnits="userSpaceOnUse" x="611" y="451" width="81" height="99">
<path d="M611.75 457.666C611.75 454.49 614.324 451.916 617.5 451.916H686C689.176 451.916 691.75 454.49 691.75 457.666V548.916H611.75V457.666Z" fill="#2A2D3A" stroke="black" stroke-width="0.5"/>
</mask>
<g mask="url(#mask3_416_4790)">
<path d="M611.75 457.666C611.75 454.49 614.324 451.916 617.5 451.916H686C689.176 451.916 691.75 454.49 691.75 457.666V548.916H611.75V457.666Z" stroke="black" stroke-width="0.5"/>
</g>
<rect x="612" y="556.916" width="79.5" height="26.5" stroke="black" stroke-width="0.5"/>
<g filter="url(#filter1_b_416_4790)">
<path fill-rule="evenodd" clip-rule="evenodd" d="M515 127.375C510.743 127.375 507.292 123.924 507.292 119.667C507.292 115.41 510.743 111.958 515 111.958C519.257 111.958 522.708 115.41 522.708 119.667C522.708 123.924 519.257 127.375 515 127.375Z" fill="white" fill-opacity="0.05"/>
<path d="M515 127.625C510.605 127.625 507.042 124.062 507.042 119.667C507.042 115.272 510.605 111.708 515 111.708C519.395 111.708 522.958 115.272 522.958 119.667C522.958 124.062 519.395 127.625 515 127.625Z" stroke="white" stroke-opacity="0.2" stroke-width="0.5"/>
</g>
<path d="M516.202 122.559L513.297 119.666L516.202 116.774" stroke="white" stroke-linecap="round" stroke-linejoin="round"/>
<path fill-rule="evenodd" clip-rule="evenodd" d="M692 128.666C692.552 128.666 693 129.114 693 129.666C693 130.218 692.552 130.666 692 130.666C691.448 130.666 691 130.218 691 129.666C691 129.114 691.448 128.666 692 128.666ZM692 124.666C692.552 124.666 693 125.114 693 125.666C693 126.218 692.552 126.666 692 126.666C691.448 126.666 691 126.218 691 125.666C691 125.114 691.448 124.666 692 124.666ZM693 121.666C693 121.114 692.552 120.666 692 120.666C691.448 120.666 691 121.114 691 121.666C691 122.218 691.448 122.666 692 122.666C692.552 122.666 693 122.218 693 121.666Z" fill="white"/>
</g>
<rect x="493.25" y="97.916" width="213.5" height="462.5" rx="14.75" stroke="black" stroke-width="0.5"/>
</g>
<rect x="400.5" y="1.16602" width="399" height="657" stroke="black"/>
<g clip-path="url(#clip7_416_4790)">
<rect x="800" y="0.666016" width="400" height="658" fill="#EAEAEA"/>
<g style="mix-blend-mode:multiply" opacity="0.5">
<path d="M1121.13 -50.388C1048.15 -70.8574 979.348 -35.0959 967.338 29.2891C955.327 93.6742 1004.61 162.553 1077.59 183.022C1150.57 203.491 1219.37 167.73 1231.38 103.345C1243.39 38.96 1194.11 -29.9187 1121.13 -50.388Z" stroke="black" stroke-opacity="0.22"/>
</g>
<g style="mix-blend-mode:multiply" opacity="0.3">
<path d="M1197.73 595.146C1081.41 562.522 971.679 619.506 952.517 722.224C933.356 824.942 1011.97 934.752 1128.29 967.376C1244.61 1000 1354.34 943.016 1373.5 840.298C1392.66 737.58 1314.05 627.77 1197.73 595.146Z" stroke="black" stroke-opacity="0.22"/>
</g>
<g clip-path="url(#clip8_416_4790)">
<rect x="893" y="97.666" width="214" height="463" rx="15" fill="white"/>
<rect x="908.25" y="302.916" width="126.5" height="23.5" stroke="black" stroke-width="0.5"/>
<g clip-path="url(#clip9_416_4790)">
<rect x="908" y="331.666" width="87.2821" height="89.641" rx="5.89744" fill="#253341"/>
<path d="M908.25 337.563C908.25 334.444 910.778 331.916 913.897 331.916H989.385C992.504 331.916 995.032 334.444 995.032 337.563V358.544H908.25V337.563Z" stroke="black" stroke-width="0.5"/>
<rect x="956.724" y="363.889" width="7.89084" height="7.86697" rx="3.93348" fill="#253341"/>
<rect x="938.917" y="344.891" width="25.4487" height="26.6282" stroke="black" stroke-width="0.5"/>
<rect x="930.891" y="376.736" width="41.5" height="7.5" stroke="black" stroke-width="0.5"/>
<rect x="914.147" y="389.455" width="74.9872" height="20.859" stroke="black" stroke-width="0.5"/>
<rect x="1004.72" y="331.666" width="87.2821" height="89.641" rx="5.89744" fill="#253341"/>
<path d="M1004.97 337.563C1004.97 334.444 1007.5 331.916 1010.62 331.916H1086.1C1089.22 331.916 1091.75 334.444 1091.75 337.563V358.544H1004.97V337.563Z" stroke="black" stroke-width="0.5"/>
<rect x="1053.44" y="363.889" width="7.89084" height="7.86697" rx="3.93348" fill="#253341"/>
<rect x="1035.63" y="344.891" width="25.4487" height="26.6282" stroke="black" stroke-width="0.5"/>
<rect x="1027.61" y="376.736" width="41.5" height="7.5" stroke="black" stroke-width="0.5"/>
<rect x="1010.87" y="389.455" width="74.9872" height="20.859" stroke="black" stroke-width="0.5"/>
<rect x="908" y="430.742" width="87.2821" height="89.641" rx="5.89744" fill="#253341"/>
<path d="M908.25 436.64C908.25 433.521 910.778 430.992 913.897 430.992H989.385C992.504 430.992 995.032 433.521 995.032 436.64V457.62H908.25V436.64Z" stroke="black" stroke-width="0.5"/>
<rect x="956.724" y="462.965" width="7.89084" height="7.86697" rx="3.93348" fill="#253341"/>
<rect x="938.917" y="443.967" width="25.4487" height="26.6282" stroke="black" stroke-width="0.5"/>
<rect x="930.891" y="475.812" width="41.5" height="7.5" stroke="black" stroke-width="0.5"/>
<rect x="914.147" y="488.531" width="74.9872" height="20.859" stroke="black" stroke-width="0.5"/>
<rect x="1004.72" y="430.742" width="87.2821" height="89.641" rx="5.89744" fill="#253341"/>
<path d="M1004.97 436.64C1004.97 433.521 1007.5 430.992 1010.62 430.992H1086.1C1089.22 430.992 1091.75 433.521 1091.75 436.64V457.62H1004.97V436.64Z" stroke="black" stroke-width="0.5"/>
<rect x="1053.44" y="462.965" width="7.89084" height="7.86697" rx="3.93348" fill="#253341"/>
<rect x="1035.63" y="443.967" width="25.4487" height="26.6282" stroke="black" stroke-width="0.5"/>
<rect x="1027.61" y="475.812" width="41.5" height="7.5" stroke="black" stroke-width="0.5"/>
<rect x="1010.87" y="488.531" width="74.9872" height="20.859" stroke="black" stroke-width="0.5"/>
</g>
<rect x="893.25" y="97.916" width="213.5" height="127.5" rx="4.75" stroke="black" stroke-width="0.5"/>
<rect x="908.25" y="235.916" width="39.5" height="23.5" stroke="black" stroke-width="0.5"/>
<rect x="908.25" y="264.635" width="183.5" height="23.5" stroke="black" stroke-width="0.5"/>
<rect x="908.25" y="235.916" width="183.5" height="52.2179" stroke="black" stroke-width="0.5"/>
<rect x="924.25" y="113.916" width="155.5" height="16.5" stroke="black" stroke-width="0.5"/>
</g>
<rect x="892.5" y="97.166" width="215" height="464" rx="15.5" stroke="black"/>
</g>
<rect x="800.5" y="1.16602" width="399" height="657" stroke="black"/>
<defs>
<filter id="filter0_b_416_4790" x="543.133" y="102.299" width="116.734" height="116.734" filterUnits="userSpaceOnUse" color-interpolation-filters="sRGB">
<feFlood flood-opacity="0" result="BackgroundImageFix"/>
<feGaussianBlur in="BackgroundImageFix" stdDeviation="9.93357"/>
<feComposite in2="SourceAlpha" operator="in" result="effect1_backgroundBlur_416_4790"/>
<feBlend mode="normal" in="SourceGraphic" in2="effect1_backgroundBlur_416_4790" result="shape"/>
</filter>
<filter id="filter1_b_416_4790" x="486.924" y="91.5918" width="56.1509" height="56.1503" filterUnits="userSpaceOnUse" color-interpolation-filters="sRGB">
<feFlood flood-opacity="0" result="BackgroundImageFix"/>
<feGaussianBlur in="BackgroundImageFix" stdDeviation="9.93357"/>
<feComposite in2="SourceAlpha" operator="in" result="effect1_backgroundBlur_416_4790"/>
<feBlend mode="normal" in="SourceGraphic" in2="effect1_backgroundBlur_416_4790" result="shape"/>
</filter>
<clipPath id="clip0_416_4790">
<rect y="0.666016" width="400" height="658" fill="white"/>
</clipPath>
<clipPath id="clip1_416_4790">
<rect x="99" y="110.666" width="202" height="437.037" rx="14.1589" fill="white"/>
</clipPath>
<clipPath id="clip2_416_4790">
<rect x="131.22" y="385.346" width="4.59266" height="4.61644" rx="2.29633" fill="white"/>
</clipPath>
<clipPath id="clip3_416_4790">
<rect x="132.164" y="386.289" width="2.70481" height="2.72859" rx="1.35241" fill="white"/>
</clipPath>
<clipPath id="clip4_416_4790">
<rect x="264.786" y="385.346" width="4.59266" height="4.61644" rx="2.29633" fill="white"/>
</clipPath>
<clipPath id="clip5_416_4790">
<rect x="400" y="0.666016" width="400" height="658" fill="white"/>
</clipPath>
<clipPath id="clip6_416_4790">
<rect x="493" y="97.666" width="214" height="463" rx="15" fill="white"/>
</clipPath>
<clipPath id="clip7_416_4790">
<rect x="800" y="0.666016" width="400" height="658" fill="white"/>
</clipPath>
<clipPath id="clip8_416_4790">
<rect x="893" y="97.666" width="214" height="463" rx="15" fill="white"/>
</clipPath>
<clipPath id="clip9_416_4790">
<rect width="184" height="198" fill="white" transform="translate(908 331.666)"/>
</clipPath>
</defs>
</svg>
