<svg width="228" height="128" viewBox="0 0 228 128" fill="none" xmlns="http://www.w3.org/2000/svg">
<path d="M3.51705 37.5V20.0455H15.2784V23.0881H7.20739V27.2472H14.6733V30.2898H7.20739V34.4574H15.3125V37.5H3.51705ZM21.3658 20.0455L25.5845 33.3068H25.7464L29.9737 20.0455H34.0646L28.0476 37.5H23.2919L17.2663 20.0455H21.3658ZM35.0746 37.5L37.9723 20.0455H44.9609C46.245 20.0455 47.2848 20.2358 48.0803 20.6165C48.8814 20.9972 49.4411 21.5256 49.7592 22.2017C50.0774 22.8722 50.1626 23.6449 50.0149 24.5199C49.8956 25.2017 49.6541 25.7983 49.2905 26.3097C48.9325 26.821 48.4893 27.2415 47.9609 27.571C47.4325 27.9006 46.8587 28.1335 46.2393 28.2699L46.2053 28.4403C46.8643 28.4687 47.4581 28.6562 47.9865 29.0028C48.5149 29.3437 48.9098 29.8267 49.1712 30.4517C49.4325 31.0767 49.4922 31.8182 49.3501 32.6761C49.1967 33.6023 48.8303 34.429 48.2507 35.1562C47.6712 35.8778 46.8984 36.4489 45.9325 36.8693C44.9723 37.2898 43.8388 37.5 42.532 37.5H35.0746ZM39.2763 34.483H42.2848C43.3075 34.483 44.0888 34.2841 44.6286 33.8864C45.1683 33.4886 45.4922 32.9631 45.6001 32.3097C45.674 31.8267 45.6257 31.4006 45.4553 31.0312C45.2905 30.6619 45.0092 30.3722 44.6115 30.1619C44.2195 29.9517 43.7223 29.8466 43.12 29.8466H40.0348L39.2763 34.483ZM40.4609 27.3494H43.1967C43.6967 27.3494 44.1598 27.2614 44.5859 27.0852C45.0178 26.9034 45.3729 26.6477 45.6513 26.3182C45.9354 25.983 46.1143 25.5881 46.1882 25.1335C46.2905 24.4972 46.1484 23.9886 45.7621 23.608C45.3814 23.2216 44.7848 23.0284 43.9723 23.0284H41.1768L40.4609 27.3494ZM50.8736 37.5L53.0554 24.4091H56.6861L54.5043 37.5H50.8736ZM55.2457 22.7045C54.706 22.7045 54.2599 22.5256 53.9077 22.1676C53.5611 21.804 53.419 21.3722 53.4815 20.8722C53.544 20.3608 53.7884 19.929 54.2145 19.5767C54.6406 19.2187 55.1236 19.0398 55.6634 19.0398C56.2031 19.0398 56.6435 19.2187 56.9844 19.5767C57.3253 19.929 57.4673 20.3608 57.4105 20.8722C57.3537 21.3722 57.1122 21.804 56.6861 22.1676C56.2656 22.5256 55.7855 22.7045 55.2457 22.7045ZM61.3246 33.733L62.049 29.3778H62.5774L67.6143 24.4091H71.782L65.0661 30.9886H64.1967L61.3246 33.733ZM57.4126 37.5L60.3104 20.0455H63.9411L61.0433 37.5H57.4126ZM65.5945 37.5L62.6967 31.7983L65.5348 29.233L69.8473 37.5H65.5945ZM76.7741 37.7557C75.4332 37.7557 74.3224 37.483 73.4418 36.9375C72.5611 36.3864 71.9418 35.608 71.5838 34.6023C71.2315 33.5909 71.1719 32.3949 71.4048 31.0142C71.6321 29.6676 72.0895 28.4858 72.777 27.4688C73.4702 26.4517 74.3395 25.6591 75.3849 25.0909C76.4304 24.5227 77.5952 24.2386 78.8793 24.2386C79.7429 24.2386 80.5241 24.3778 81.223 24.6562C81.9276 24.929 82.5128 25.3437 82.9787 25.9006C83.4446 26.4517 83.7628 27.142 83.9332 27.9716C84.1094 28.8011 84.1065 29.7727 83.9247 30.8864L83.7628 31.8835H72.7173L73.0668 29.6335H80.7031C80.7884 29.1108 80.7543 28.6477 80.6009 28.2443C80.4474 27.8409 80.1918 27.5256 79.8338 27.2983C79.4759 27.0653 79.0355 26.9489 78.5128 26.9489C77.9787 26.9489 77.4787 27.0795 77.0128 27.3409C76.5469 27.6023 76.1548 27.946 75.8366 28.3722C75.5241 28.7926 75.3224 29.25 75.2315 29.7443L74.831 31.9773C74.7173 32.6648 74.7401 33.2358 74.8991 33.6903C75.0639 34.1449 75.348 34.4858 75.7514 34.7131C76.1548 34.9347 76.6662 35.0455 77.2855 35.0455C77.6889 35.0455 78.0668 34.9886 78.419 34.875C78.777 34.7614 79.0952 34.5938 79.3736 34.3722C79.652 34.1449 79.8793 33.8636 80.0554 33.5284L83.3707 33.75C83.0639 34.5568 82.598 35.2614 81.973 35.8636C81.348 36.4602 80.5952 36.9261 79.7145 37.2614C78.8395 37.5909 77.8594 37.7557 76.7741 37.7557ZM102.545 26.1562H98.8629C98.8743 25.6676 98.8118 25.2358 98.6754 24.8608C98.5391 24.4801 98.3345 24.1562 98.0618 23.8892C97.7947 23.6222 97.468 23.4205 97.0817 23.2841C96.6953 23.142 96.2607 23.071 95.7777 23.071C94.8459 23.071 93.9908 23.304 93.2124 23.7699C92.4339 24.2358 91.7777 24.9119 91.2436 25.7983C90.7095 26.679 90.3402 27.7443 90.1357 28.9943C89.9368 30.1989 89.9482 31.2074 90.1697 32.0199C90.3913 32.8324 90.7834 33.446 91.3459 33.8608C91.9141 34.2699 92.6214 34.4744 93.468 34.4744C93.9908 34.4744 94.4879 34.4091 94.9595 34.2784C95.4311 34.142 95.8601 33.9489 96.2464 33.6989C96.6385 33.4432 96.9794 33.1335 97.2692 32.7699C97.5646 32.4062 97.7947 31.9943 97.9595 31.5341H101.667C101.434 32.3352 101.07 33.108 100.576 33.8523C100.087 34.5966 99.4822 35.2614 98.7607 35.8466C98.0391 36.4261 97.218 36.8864 96.2976 37.2273C95.3771 37.5682 94.3686 37.7386 93.272 37.7386C91.6868 37.7386 90.326 37.375 89.1896 36.6477C88.0589 35.9205 87.2436 34.8722 86.7436 33.5028C86.2436 32.1335 86.1499 30.483 86.4624 28.5511C86.7749 26.6818 87.3857 25.0966 88.2947 23.7955C89.2095 22.4886 90.3203 21.4972 91.6271 20.821C92.9396 20.1449 94.343 19.8068 95.8374 19.8068C96.8771 19.8068 97.8175 19.9489 98.6584 20.233C99.4993 20.517 100.215 20.9318 100.806 21.4773C101.403 22.017 101.852 22.679 102.153 23.4631C102.454 24.2472 102.585 25.1449 102.545 26.1562ZM109.188 37.7557C107.853 37.7557 106.748 37.4716 105.873 36.9034C104.998 36.3295 104.381 35.5341 104.023 34.517C103.671 33.4943 103.606 32.304 103.827 30.946C104.043 29.6051 104.492 28.4318 105.174 27.4261C105.856 26.4205 106.722 25.6392 107.773 25.0824C108.825 24.5199 110.009 24.2386 111.327 24.2386C112.657 24.2386 113.759 24.5256 114.634 25.0994C115.509 25.6676 116.126 26.4631 116.484 27.4858C116.842 28.5085 116.91 29.6989 116.688 31.0568C116.467 32.392 116.012 33.5625 115.325 34.5682C114.637 35.5739 113.771 36.358 112.725 36.9205C111.68 37.4773 110.501 37.7557 109.188 37.7557ZM109.546 34.9432C110.16 34.9432 110.702 34.7699 111.174 34.4233C111.651 34.071 112.046 33.5937 112.359 32.9915C112.677 32.3835 112.898 31.696 113.023 30.929C113.148 30.1733 113.157 29.5028 113.049 28.9176C112.941 28.3267 112.714 27.8608 112.367 27.5199C112.026 27.179 111.558 27.0085 110.961 27.0085C110.347 27.0085 109.802 27.1847 109.325 27.5369C108.847 27.8835 108.452 28.3608 108.14 28.9688C107.827 29.5767 107.609 30.267 107.484 31.0398C107.364 31.7898 107.356 32.4602 107.458 33.0511C107.56 33.6364 107.785 34.0994 108.131 34.4403C108.478 34.7756 108.95 34.9432 109.546 34.9432ZM122.884 29.9318L121.623 37.5H118.001L120.183 24.4091H123.634L123.259 26.7188H123.404C123.819 25.9517 124.404 25.3466 125.16 24.9034C125.921 24.4602 126.788 24.2386 127.759 24.2386C128.668 24.2386 129.427 24.4375 130.035 24.8352C130.648 25.233 131.08 25.7983 131.33 26.5312C131.586 27.2642 131.629 28.142 131.458 29.1648L130.06 37.5H126.43L127.717 29.8125C127.847 29.0114 127.745 28.3864 127.41 27.9375C127.08 27.483 126.549 27.2557 125.816 27.2557C125.327 27.2557 124.879 27.3608 124.469 27.571C124.06 27.7812 123.717 28.0881 123.438 28.4915C123.165 28.8892 122.981 29.3693 122.884 29.9318ZM137.814 29.9318L136.553 37.5H132.93L135.112 24.4091H138.564L138.189 26.7188H138.334C138.749 25.9517 139.334 25.3466 140.089 24.9034C140.851 24.4602 141.717 24.2386 142.689 24.2386C143.598 24.2386 144.357 24.4375 144.964 24.8352C145.578 25.233 146.01 25.7983 146.26 26.5312C146.516 27.2642 146.558 28.142 146.388 29.1648L144.99 37.5H141.359L142.646 29.8125C142.777 29.0114 142.675 28.3864 142.339 27.9375C142.01 27.483 141.479 27.2557 140.746 27.2557C140.257 27.2557 139.808 27.3608 139.399 27.571C138.99 27.7812 138.646 28.0881 138.368 28.4915C138.095 28.8892 137.911 29.3693 137.814 29.9318ZM153.766 37.7557C152.425 37.7557 151.315 37.483 150.434 36.9375C149.553 36.3864 148.934 35.608 148.576 34.6023C148.224 33.5909 148.164 32.3949 148.397 31.0142C148.624 29.6676 149.082 28.4858 149.769 27.4688C150.462 26.4517 151.332 25.6591 152.377 25.0909C153.423 24.5227 154.587 24.2386 155.871 24.2386C156.735 24.2386 157.516 24.3778 158.215 24.6562C158.92 24.929 159.505 25.3437 159.971 25.9006C160.437 26.4517 160.755 27.142 160.925 27.9716C161.102 28.8011 161.099 29.7727 160.917 30.8864L160.755 31.8835H149.71L150.059 29.6335H157.695C157.781 29.1108 157.746 28.6477 157.593 28.2443C157.44 27.8409 157.184 27.5256 156.826 27.2983C156.468 27.0653 156.028 26.9489 155.505 26.9489C154.971 26.9489 154.471 27.0795 154.005 27.3409C153.539 27.6023 153.147 27.946 152.829 28.3722C152.516 28.7926 152.315 29.25 152.224 29.7443L151.823 31.9773C151.71 32.6648 151.732 33.2358 151.891 33.6903C152.056 34.1449 152.34 34.4858 152.744 34.7131C153.147 34.9347 153.658 35.0455 154.278 35.0455C154.681 35.0455 155.059 34.9886 155.411 34.875C155.769 34.7614 156.087 34.5938 156.366 34.3722C156.644 34.1449 156.871 33.8636 157.048 33.5284L160.363 33.75C160.056 34.5568 159.59 35.2614 158.965 35.8636C158.34 36.4602 157.587 36.9261 156.707 37.2614C155.832 37.5909 154.852 37.7557 153.766 37.7557ZM168.082 37.7557C166.736 37.7557 165.628 37.4716 164.759 36.9034C163.895 36.3295 163.29 35.5341 162.943 34.517C162.602 33.5 162.543 32.3295 162.764 31.0057C162.98 29.6648 163.432 28.4886 164.119 27.4773C164.807 26.4602 165.679 25.6676 166.736 25.0994C167.798 24.5256 168.991 24.2386 170.315 24.2386C171.457 24.2386 172.423 24.446 173.213 24.8608C174.003 25.2756 174.582 25.858 174.952 26.608C175.321 27.358 175.446 28.2386 175.327 29.25H171.909C171.915 28.6023 171.747 28.0767 171.406 27.6733C171.065 27.2699 170.565 27.0682 169.906 27.0682C169.338 27.0682 168.815 27.2216 168.338 27.5284C167.866 27.8295 167.466 28.2699 167.136 28.8494C166.813 29.429 166.585 30.1307 166.455 30.9545C166.318 31.7898 166.315 32.5 166.446 33.0852C166.577 33.6705 166.827 34.1165 167.196 34.4233C167.565 34.7301 168.031 34.8835 168.594 34.8835C169.014 34.8835 169.403 34.7983 169.761 34.6278C170.125 34.4574 170.443 34.2102 170.716 33.8864C170.989 33.5568 171.199 33.1619 171.347 32.7017H174.773C174.54 33.7074 174.116 34.5881 173.503 35.3438C172.895 36.0994 172.131 36.6903 171.21 37.1165C170.29 37.5426 169.247 37.7557 168.082 37.7557ZM185.433 24.4091L184.981 27.1364H177.089L177.549 24.4091H185.433ZM179.85 21.2727H183.481L181.452 33.4773C181.396 33.8125 181.404 34.0739 181.478 34.2614C181.552 34.4432 181.674 34.571 181.844 34.6449C182.021 34.7187 182.231 34.7557 182.475 34.7557C182.646 34.7557 182.819 34.7415 182.995 34.7131C183.171 34.679 183.305 34.6534 183.396 34.6364L183.532 37.3381C183.327 37.4006 183.052 37.4687 182.705 37.5426C182.364 37.6165 181.961 37.6619 181.495 37.679C180.609 37.7131 179.859 37.5966 179.245 37.3295C178.631 37.0568 178.191 36.6392 177.924 36.0767C177.657 35.5142 177.6 34.8068 177.754 33.9545L179.85 21.2727Z" fill="white"/>
<rect y="73" width="228" height="5" rx="2.5" fill="url(#paint0_linear_190_16796)"/>
<g clip-path="url(#clip0_190_16796)">
<path fill-rule="evenodd" clip-rule="evenodd" d="M12.7052 122.058L5.23728 125.984L6.66354 117.668L0.621826 111.779L8.97127 110.566L12.7052 103L16.4392 110.566L24.7887 111.779L18.747 117.668L20.1732 125.984L12.7052 122.058Z" fill="#FFBA00"/>
<path fill-rule="evenodd" clip-rule="evenodd" d="M43.8332 122.058L36.3652 125.984L37.7915 117.668L31.7498 111.779L40.0992 110.566L43.8332 103L47.5672 110.566L55.9166 111.779L49.8749 117.668L51.3011 125.984L43.8332 122.058Z" fill="#FFBA00"/>
<path fill-rule="evenodd" clip-rule="evenodd" d="M74.9611 122.058L67.4931 125.984L68.9194 117.668L62.8777 111.779L71.2271 110.566L74.9611 103L78.6951 110.566L87.0445 111.779L81.0028 117.668L82.4291 125.984L74.9611 122.058Z" fill="#FFBA00"/>
<path fill-rule="evenodd" clip-rule="evenodd" d="M106.089 122.058L98.6211 125.984L100.047 117.668L94.0056 111.779L102.355 110.566L106.089 103L109.823 110.566L118.172 111.779L112.131 117.668L113.557 125.984L106.089 122.058Z" fill="#FFBA00"/>
<path fill-rule="evenodd" clip-rule="evenodd" d="M137.217 122.058L129.749 125.984L131.175 117.668L125.133 111.779L133.483 110.566L137.217 103L140.951 110.566L149.3 111.779L143.258 117.668L144.685 125.984L137.217 122.058Z" fill="#D2D6D8"/>
</g>
<defs>
<linearGradient id="paint0_linear_190_16796" x1="9.64615" y1="76" x2="238.272" y2="66.7822" gradientUnits="userSpaceOnUse">
<stop stop-color="#9747FF"/>
<stop offset="1" stop-color="#9747FF" stop-opacity="0"/>
</linearGradient>
<clipPath id="clip0_190_16796">
<rect width="149.922" height="24.14" fill="white" transform="translate(0 103)"/>
</clipPath>
</defs>
</svg>
