<svg width="327" height="348" viewBox="0 0 327 348" fill="none" xmlns="http://www.w3.org/2000/svg">
<path d="M62.5021 31.2493C61.4496 31.2493 60.5462 30.983 59.7919 30.4503C59.0419 29.9134 58.4645 29.1399 58.0597 28.13C57.6591 27.1158 57.4588 25.8949 57.4588 24.4673C57.4631 23.0398 57.6655 21.8253 58.0661 20.8239C58.4709 19.8182 59.0483 19.0511 59.7983 18.5227C60.5526 17.9943 61.4538 17.7301 62.5021 17.7301C63.5504 17.7301 64.4517 17.9943 65.206 18.5227C65.9602 19.0511 66.5376 19.8182 66.9382 20.8239C67.343 21.8295 67.5455 23.044 67.5455 24.4673C67.5455 25.8991 67.343 27.1222 66.9382 28.1364C66.5376 29.1463 65.9602 29.9176 65.206 30.4503C64.456 30.983 63.5547 31.2493 62.5021 31.2493ZM62.5021 29.2486C63.3203 29.2486 63.9659 28.8459 64.4389 28.0405C64.9162 27.2308 65.1548 26.0398 65.1548 24.4673C65.1548 23.4276 65.0462 22.554 64.8288 21.8466C64.6115 21.1392 64.3047 20.6065 63.9084 20.2486C63.5121 19.8864 63.0433 19.7053 62.5021 19.7053C61.6882 19.7053 61.0447 20.1101 60.5717 20.9197C60.0987 21.7251 59.8601 22.9077 59.8558 24.4673C59.8516 25.5114 59.956 26.3892 60.169 27.1009C60.3864 27.8125 60.6932 28.3494 61.0895 28.7116C61.4858 29.0696 61.9567 29.2486 62.5021 29.2486ZM74.9938 17.9091V31H72.6223V20.2166H72.5456L69.4838 22.1726V19.9993L72.7374 17.9091H74.9938ZM88.1518 17.2955L83.9331 32.9688H81.9068L86.1255 17.2955H88.1518ZM101.31 21.5078C101.25 20.9496 100.999 20.5149 100.556 20.2038C100.117 19.8928 99.5456 19.7372 98.8425 19.7372C98.3482 19.7372 97.9242 19.8118 97.5705 19.9609C97.2168 20.1101 96.9462 20.3125 96.7587 20.5682C96.5712 20.8239 96.4753 21.1158 96.4711 21.4439C96.4711 21.7166 96.5328 21.9531 96.6564 22.1534C96.7843 22.3537 96.9569 22.5241 97.1742 22.6648C97.3915 22.8011 97.6323 22.9162 97.8965 23.0099C98.1607 23.1037 98.427 23.1825 98.6955 23.2464L99.9228 23.5533C100.417 23.6683 100.892 23.8239 101.348 24.0199C101.808 24.2159 102.22 24.4631 102.582 24.7614C102.948 25.0597 103.238 25.4197 103.451 25.8416C103.664 26.2635 103.771 26.7578 103.771 27.3246C103.771 28.0916 103.575 28.767 103.183 29.3509C102.791 29.9304 102.224 30.3842 101.482 30.7124C100.745 31.0362 99.8525 31.1982 98.8042 31.1982C97.7857 31.1982 96.9015 31.0405 96.1515 30.7251C95.4057 30.4098 94.8219 29.9496 94.4 29.3445C93.9824 28.7393 93.7566 28.0021 93.7225 27.1328H96.0556C96.0897 27.5888 96.2303 27.968 96.4775 28.2706C96.7246 28.5732 97.0463 28.799 97.4426 28.9482C97.8432 29.0973 98.2907 29.1719 98.785 29.1719C99.3006 29.1719 99.7523 29.0952 100.14 28.9418C100.532 28.7841 100.839 28.5668 101.061 28.2898C101.282 28.0085 101.395 27.6804 101.399 27.3054C101.395 26.9645 101.295 26.6832 101.099 26.4616C100.903 26.2358 100.628 26.0483 100.274 25.8991C99.9249 25.7457 99.5158 25.6094 99.0471 25.4901L97.5577 25.1065C96.4796 24.8295 95.6273 24.4098 95.0009 23.8473C94.3787 23.2805 94.0676 22.5284 94.0676 21.5909C94.0676 20.8196 94.2765 20.1442 94.6941 19.5646C95.1159 18.9851 95.6891 18.5355 96.4135 18.2159C97.138 17.892 97.9583 17.7301 98.8745 17.7301C99.8034 17.7301 100.617 17.892 101.316 18.2159C102.019 18.5355 102.571 18.9808 102.972 19.5518C103.372 20.1186 103.579 20.7706 103.592 21.5078H101.31ZM110.685 21.1818V22.9716H105.041V21.1818H110.685ZM106.435 18.8295H108.749V28.0469C108.749 28.358 108.795 28.5966 108.889 28.7628C108.987 28.9247 109.115 29.0355 109.273 29.0952C109.43 29.1548 109.605 29.1847 109.797 29.1847C109.942 29.1847 110.074 29.174 110.193 29.1527C110.317 29.1314 110.411 29.1122 110.474 29.0952L110.864 30.9041C110.741 30.9467 110.564 30.9936 110.334 31.0447C110.108 31.0959 109.831 31.1257 109.503 31.1342C108.923 31.1513 108.401 31.0639 107.937 30.8722C107.472 30.6761 107.104 30.3736 106.831 29.9645C106.563 29.5554 106.43 29.044 106.435 28.4304V18.8295ZM112.621 31V21.1818H114.864V22.8182H114.966C115.145 22.2514 115.452 21.8146 115.887 21.5078C116.326 21.1967 116.827 21.0412 117.389 21.0412C117.517 21.0412 117.66 21.0476 117.817 21.0604C117.979 21.0689 118.113 21.0838 118.22 21.1051V23.2337C118.122 23.1996 117.966 23.1697 117.753 23.1442C117.545 23.1143 117.342 23.0994 117.146 23.0994C116.724 23.0994 116.345 23.1911 116.008 23.3743C115.676 23.5533 115.414 23.8026 115.222 24.1222C115.03 24.4418 114.934 24.8104 114.934 25.228V31H112.621ZM122.407 31.1982C121.785 31.1982 121.224 31.0874 120.726 30.8658C120.231 30.6399 119.839 30.3075 119.55 29.8686C119.264 29.4297 119.121 28.8885 119.121 28.245C119.121 27.6911 119.224 27.233 119.428 26.8707C119.633 26.5085 119.912 26.2188 120.265 26.0014C120.619 25.7841 121.018 25.62 121.461 25.5092C121.908 25.3942 122.371 25.3111 122.848 25.2599C123.423 25.2003 123.89 25.147 124.248 25.1001C124.606 25.049 124.866 24.9723 125.028 24.87C125.194 24.7635 125.277 24.5994 125.277 24.3778V24.3395C125.277 23.858 125.134 23.4851 124.849 23.2209C124.563 22.9567 124.152 22.8246 123.615 22.8246C123.048 22.8246 122.599 22.9482 122.266 23.1953C121.938 23.4425 121.716 23.7344 121.601 24.071L119.441 23.7642C119.611 23.1676 119.893 22.669 120.285 22.2685C120.677 21.8636 121.156 21.5611 121.723 21.3608C122.29 21.1562 122.916 21.054 123.602 21.054C124.075 21.054 124.546 21.1094 125.015 21.2202C125.483 21.331 125.912 21.5142 126.3 21.7699C126.687 22.0213 126.998 22.3643 127.233 22.799C127.471 23.2337 127.591 23.777 127.591 24.429V31H125.366V29.6513H125.29C125.149 29.924 124.951 30.1797 124.695 30.4183C124.444 30.6527 124.126 30.8423 123.743 30.9872C123.363 31.1278 122.918 31.1982 122.407 31.1982ZM123.008 29.4979C123.472 29.4979 123.875 29.4062 124.216 29.223C124.557 29.0355 124.819 28.7884 125.002 28.4815C125.189 28.1747 125.283 27.8402 125.283 27.478V26.321C125.211 26.3807 125.087 26.4361 124.912 26.4872C124.742 26.5384 124.55 26.5831 124.337 26.6214C124.124 26.6598 123.913 26.6939 123.704 26.7237C123.496 26.7536 123.314 26.7791 123.161 26.8004C122.816 26.8473 122.507 26.924 122.234 27.0305C121.961 27.1371 121.746 27.2862 121.589 27.478C121.431 27.6655 121.352 27.9084 121.352 28.2067C121.352 28.6328 121.508 28.9545 121.819 29.1719C122.13 29.3892 122.526 29.4979 123.008 29.4979ZM134.82 21.1818V22.9716H129.176V21.1818H134.82ZM130.569 18.8295H132.883V28.0469C132.883 28.358 132.93 28.5966 133.024 28.7628C133.122 28.9247 133.25 29.0355 133.407 29.0952C133.565 29.1548 133.74 29.1847 133.932 29.1847C134.077 29.1847 134.209 29.174 134.328 29.1527C134.452 29.1314 134.545 29.1122 134.609 29.0952L134.999 30.9041C134.876 30.9467 134.699 30.9936 134.469 31.0447C134.243 31.0959 133.966 31.1257 133.638 31.1342C133.058 31.1513 132.536 31.0639 132.072 30.8722C131.607 30.6761 131.238 30.3736 130.966 29.9645C130.697 29.5554 130.565 29.044 130.569 28.4304V18.8295ZM140.996 31.1918C140.012 31.1918 139.162 30.9872 138.446 30.5781C137.734 30.1648 137.187 29.581 136.803 28.8267C136.42 28.0682 136.228 27.1754 136.228 26.1484C136.228 25.1385 136.42 24.2521 136.803 23.4893C137.191 22.7223 137.732 22.1257 138.427 21.6996C139.121 21.2692 139.938 21.054 140.875 21.054C141.48 21.054 142.051 21.152 142.588 21.348C143.129 21.5398 143.607 21.8381 144.02 22.2429C144.438 22.6477 144.766 23.1634 145.004 23.7898C145.243 24.4119 145.362 25.1534 145.362 26.0142V26.7237H137.315V25.1641H143.144C143.14 24.7209 143.044 24.3267 142.857 23.9815C142.669 23.6321 142.407 23.3572 142.07 23.157C141.738 22.9567 141.35 22.8565 140.907 22.8565C140.434 22.8565 140.018 22.9716 139.661 23.2017C139.303 23.4276 139.023 23.7259 138.823 24.0966C138.627 24.4631 138.527 24.8658 138.523 25.3047V26.6662C138.523 27.2372 138.627 27.7273 138.836 28.1364C139.045 28.5412 139.337 28.8523 139.712 29.0696C140.087 29.2827 140.526 29.3892 141.028 29.3892C141.365 29.3892 141.67 29.3423 141.942 29.2486C142.215 29.1506 142.452 29.0078 142.652 28.8203C142.852 28.6328 143.004 28.4006 143.106 28.1236L145.266 28.3665C145.13 28.9375 144.87 29.4361 144.487 29.8622C144.107 30.2841 143.621 30.6122 143.029 30.8466C142.437 31.0767 141.759 31.1918 140.996 31.1918ZM151.59 34.8864C150.759 34.8864 150.045 34.7734 149.448 34.5476C148.852 34.326 148.372 34.0277 148.01 33.6527C147.648 33.2777 147.396 32.8622 147.256 32.4062L149.34 31.9013C149.433 32.093 149.57 32.2827 149.749 32.4702C149.928 32.6619 150.169 32.8196 150.471 32.9432C150.778 33.071 151.164 33.1349 151.628 33.1349C152.284 33.1349 152.828 32.9751 153.258 32.6555C153.688 32.3402 153.904 31.8203 153.904 31.0959V29.2358H153.789C153.669 29.4744 153.494 29.7195 153.264 29.9709C153.039 30.2223 152.738 30.4332 152.363 30.6037C151.992 30.7741 151.526 30.8594 150.963 30.8594C150.209 30.8594 149.525 30.6825 148.911 30.3288C148.302 29.9709 147.816 29.4382 147.454 28.7308C147.096 28.0192 146.917 27.1286 146.917 26.0589C146.917 24.9808 147.096 24.071 147.454 23.3295C147.816 22.5838 148.304 22.0192 148.918 21.6357C149.531 21.2479 150.215 21.054 150.97 21.054C151.545 21.054 152.018 21.152 152.389 21.348C152.764 21.5398 153.062 21.772 153.284 22.0447C153.505 22.3132 153.673 22.5668 153.789 22.8054H153.916V21.1818H156.198V31.1598C156.198 31.9993 155.998 32.6939 155.597 33.2436C155.197 33.7933 154.649 34.2045 153.955 34.4773C153.26 34.75 152.472 34.8864 151.59 34.8864ZM151.609 29.044C152.099 29.044 152.517 28.9247 152.862 28.6861C153.207 28.4474 153.469 28.1044 153.648 27.657C153.827 27.2095 153.916 26.6726 153.916 26.0462C153.916 25.4283 153.827 24.8871 153.648 24.4226C153.473 23.9581 153.213 23.598 152.868 23.3423C152.527 23.0824 152.107 22.9524 151.609 22.9524C151.093 22.9524 150.663 23.0866 150.318 23.3551C149.972 23.6236 149.713 23.9922 149.538 24.4609C149.363 24.9254 149.276 25.4538 149.276 26.0462C149.276 26.647 149.363 27.1733 149.538 27.625C149.717 28.0724 149.979 28.4219 150.324 28.6733C150.673 28.9205 151.102 29.044 151.609 29.044ZM160.008 34.6818C159.693 34.6818 159.401 34.6563 159.132 34.6051C158.868 34.5582 158.657 34.5028 158.499 34.4389L159.036 32.6364C159.373 32.7344 159.673 32.7813 159.938 32.777C160.202 32.7727 160.434 32.6896 160.634 32.5277C160.839 32.37 161.012 32.1058 161.152 31.7351L161.35 31.2045L157.79 21.1818H160.244L162.507 28.5966H162.61L164.879 21.1818H167.34L163.409 32.1889C163.225 32.7088 162.982 33.1541 162.68 33.5249C162.377 33.8999 162.007 34.1854 161.568 34.3814C161.133 34.5817 160.613 34.6818 160.008 34.6818ZM177.318 31.1918C176.423 31.1918 175.654 31.0298 175.01 30.706C174.367 30.3821 173.87 29.9453 173.521 29.3956C173.176 28.8416 173.003 28.2173 173.003 27.5227C173.003 26.9986 173.11 26.5341 173.323 26.1293C173.54 25.7244 173.838 25.3494 174.218 25.0043C174.601 24.6591 175.044 24.3161 175.547 23.9751L177.867 22.3963C178.208 22.1747 178.466 21.9403 178.641 21.6932C178.82 21.446 178.909 21.1562 178.909 20.8239C178.909 20.5426 178.79 20.2763 178.551 20.0249C178.317 19.7734 177.993 19.6477 177.58 19.6477C177.303 19.6477 177.058 19.7138 176.845 19.8459C176.636 19.9737 176.472 20.142 176.352 20.3509C176.237 20.5597 176.18 20.7812 176.18 21.0156C176.18 21.3011 176.259 21.5909 176.416 21.8849C176.578 22.179 176.787 22.4837 177.043 22.799C177.303 23.1143 177.58 23.4489 177.874 23.8026L184.017 31H181.511L176.41 25.1577C176.031 24.7145 175.664 24.2777 175.311 23.8473C174.961 23.4169 174.673 22.9695 174.448 22.505C174.226 22.0362 174.115 21.5291 174.115 20.9837C174.115 20.3658 174.258 19.8139 174.544 19.3281C174.829 18.8381 175.227 18.4524 175.739 18.1712C176.254 17.8899 176.857 17.7493 177.548 17.7493C178.238 17.7493 178.83 17.8857 179.325 18.1584C179.819 18.4311 180.2 18.7933 180.469 19.245C180.737 19.6967 180.872 20.1889 180.872 20.7216C180.872 21.3395 180.718 21.8935 180.411 22.3835C180.105 22.8693 179.678 23.3104 179.133 23.7067L176.487 25.6435C176.052 25.9588 175.741 26.2784 175.553 26.6023C175.366 26.9219 175.272 27.1946 175.272 27.4205C175.272 27.7656 175.36 28.0788 175.534 28.3601C175.709 28.6413 175.954 28.8672 176.269 29.0376C176.589 29.2038 176.962 29.2869 177.388 29.2869C177.857 29.2869 178.319 29.1825 178.775 28.9737C179.231 28.7607 179.646 28.4581 180.021 28.0661C180.396 27.674 180.695 27.2053 180.916 26.6598C181.138 26.1101 181.249 25.5007 181.249 24.8317H183.237C183.237 25.6584 183.145 26.3786 182.962 26.9922C182.779 27.6016 182.542 28.1172 182.252 28.5391C181.963 28.9567 181.656 29.2912 181.332 29.5426C181.23 29.6151 181.132 29.6875 181.038 29.7599C180.944 29.8324 180.846 29.9048 180.744 29.9773C180.284 30.3949 179.744 30.7017 179.127 30.8977C178.513 31.0938 177.91 31.1918 177.318 31.1918ZM189.908 31V17.9091H194.817C195.823 17.9091 196.667 18.0838 197.349 18.4332C198.035 18.7827 198.553 19.2727 198.902 19.9034C199.256 20.5298 199.433 21.2607 199.433 22.0959C199.433 22.9354 199.254 23.6641 198.896 24.282C198.542 24.8956 198.02 25.3707 197.33 25.7074C196.639 26.0398 195.791 26.206 194.786 26.206H191.289V24.2372H194.466C195.054 24.2372 195.536 24.1562 195.911 23.9943C196.286 23.8281 196.563 23.5874 196.741 23.272C196.925 22.9524 197.016 22.5604 197.016 22.0959C197.016 21.6314 196.925 21.2351 196.741 20.907C196.558 20.5746 196.279 20.3232 195.904 20.1527C195.529 19.978 195.045 19.8906 194.453 19.8906H192.28V31H189.908ZM196.671 25.0682L199.912 31H197.266L194.082 25.0682H196.671ZM205.719 31.1918C204.735 31.1918 203.885 30.9872 203.169 30.5781C202.457 30.1648 201.909 29.581 201.526 28.8267C201.142 28.0682 200.951 27.1754 200.951 26.1484C200.951 25.1385 201.142 24.2521 201.526 23.4893C201.914 22.7223 202.455 22.1257 203.15 21.6996C203.844 21.2692 204.66 21.054 205.598 21.054C206.203 21.054 206.774 21.152 207.311 21.348C207.852 21.5398 208.329 21.8381 208.743 22.2429C209.16 22.6477 209.488 23.1634 209.727 23.7898C209.966 24.4119 210.085 25.1534 210.085 26.0142V26.7237H202.037V25.1641H207.867C207.863 24.7209 207.767 24.3267 207.579 23.9815C207.392 23.6321 207.13 23.3572 206.793 23.157C206.461 22.9567 206.073 22.8565 205.63 22.8565C205.157 22.8565 204.741 22.9716 204.383 23.2017C204.025 23.4276 203.746 23.7259 203.546 24.0966C203.35 24.4631 203.25 24.8658 203.245 25.3047V26.6662C203.245 27.2372 203.35 27.7273 203.559 28.1364C203.767 28.5412 204.059 28.8523 204.434 29.0696C204.809 29.2827 205.248 29.3892 205.751 29.3892C206.088 29.3892 206.392 29.3423 206.665 29.2486C206.938 29.1506 207.174 29.0078 207.375 28.8203C207.575 28.6328 207.726 28.4006 207.828 28.1236L209.989 28.3665C209.853 28.9375 209.593 29.4361 209.209 29.8622C208.83 30.2841 208.344 30.6122 207.752 30.8466C207.159 31.0767 206.482 31.1918 205.719 31.1918ZM219.802 23.777L217.693 24.0071C217.633 23.794 217.529 23.5938 217.38 23.4062C217.235 23.2188 217.039 23.0675 216.792 22.9524C216.545 22.8374 216.242 22.7798 215.884 22.7798C215.403 22.7798 214.998 22.8842 214.67 23.093C214.346 23.3018 214.186 23.5724 214.19 23.9048C214.186 24.1903 214.29 24.4226 214.503 24.6016C214.721 24.7805 215.079 24.9276 215.577 25.0426L217.252 25.4006C218.181 25.6009 218.871 25.9183 219.323 26.353C219.779 26.7876 220.009 27.3565 220.013 28.0597C220.009 28.6776 219.828 29.223 219.47 29.696C219.116 30.1648 218.624 30.5312 217.993 30.7955C217.363 31.0597 216.638 31.1918 215.82 31.1918C214.618 31.1918 213.651 30.9403 212.918 30.4375C212.185 29.9304 211.748 29.2251 211.608 28.3217L213.864 28.1044C213.966 28.5476 214.184 28.8821 214.516 29.108C214.849 29.3338 215.281 29.4467 215.814 29.4467C216.363 29.4467 216.805 29.3338 217.137 29.108C217.474 28.8821 217.642 28.603 217.642 28.2706C217.642 27.9893 217.533 27.7571 217.316 27.5739C217.103 27.3906 216.77 27.25 216.319 27.152L214.644 26.8004C213.702 26.6044 213.006 26.2741 212.554 25.8097C212.102 25.3409 211.878 24.7486 211.883 24.0327C211.878 23.4276 212.042 22.9034 212.375 22.4602C212.711 22.0128 213.178 21.6676 213.775 21.4247C214.376 21.1776 215.068 21.054 215.852 21.054C217.003 21.054 217.908 21.299 218.569 21.7891C219.233 22.2791 219.645 22.9418 219.802 23.777ZM226.268 31.1918C225.284 31.1918 224.433 30.9872 223.718 30.5781C223.006 30.1648 222.458 29.581 222.075 28.8267C221.691 28.0682 221.499 27.1754 221.499 26.1484C221.499 25.1385 221.691 24.2521 222.075 23.4893C222.463 22.7223 223.004 22.1257 223.698 21.6996C224.393 21.2692 225.209 21.054 226.146 21.054C226.752 21.054 227.323 21.152 227.86 21.348C228.401 21.5398 228.878 21.8381 229.291 22.2429C229.709 22.6477 230.037 23.1634 230.276 23.7898C230.514 24.4119 230.634 25.1534 230.634 26.0142V26.7237H222.586V25.1641H228.416C228.411 24.7209 228.316 24.3267 228.128 23.9815C227.941 23.6321 227.678 23.3572 227.342 23.157C227.009 22.9567 226.622 22.8565 226.178 22.8565C225.705 22.8565 225.29 22.9716 224.932 23.2017C224.574 23.4276 224.295 23.7259 224.095 24.0966C223.899 24.4631 223.798 24.8658 223.794 25.3047V26.6662C223.794 27.2372 223.899 27.7273 224.107 28.1364C224.316 28.5412 224.608 28.8523 224.983 29.0696C225.358 29.2827 225.797 29.3892 226.3 29.3892C226.637 29.3892 226.941 29.3423 227.214 29.2486C227.487 29.1506 227.723 29.0078 227.923 28.8203C228.124 28.6328 228.275 28.4006 228.377 28.1236L230.538 28.3665C230.401 28.9375 230.142 29.4361 229.758 29.8622C229.379 30.2841 228.893 30.6122 228.301 30.8466C227.708 31.0767 227.031 31.1918 226.268 31.1918ZM235.417 31.1982C234.794 31.1982 234.234 31.0874 233.735 30.8658C233.241 30.6399 232.849 30.3075 232.559 29.8686C232.274 29.4297 232.131 28.8885 232.131 28.245C232.131 27.6911 232.233 27.233 232.438 26.8707C232.642 26.5085 232.922 26.2188 233.275 26.0014C233.629 25.7841 234.027 25.62 234.471 25.5092C234.918 25.3942 235.38 25.3111 235.858 25.2599C236.433 25.2003 236.9 25.147 237.257 25.1001C237.615 25.049 237.875 24.9723 238.037 24.87C238.203 24.7635 238.287 24.5994 238.287 24.3778V24.3395C238.287 23.858 238.144 23.4851 237.858 23.2209C237.573 22.9567 237.162 22.8246 236.625 22.8246C236.058 22.8246 235.608 22.9482 235.276 23.1953C234.948 23.4425 234.726 23.7344 234.611 24.071L232.451 23.7642C232.621 23.1676 232.902 22.669 233.294 22.2685C233.686 21.8636 234.166 21.5611 234.733 21.3608C235.299 21.1562 235.926 21.054 236.612 21.054C237.085 21.054 237.556 21.1094 238.025 21.2202C238.493 21.331 238.922 21.5142 239.309 21.7699C239.697 22.0213 240.008 22.3643 240.243 22.799C240.481 23.2337 240.6 23.777 240.6 24.429V31H238.376V29.6513H238.299C238.159 29.924 237.961 30.1797 237.705 30.4183C237.453 30.6527 237.136 30.8423 236.752 30.9872C236.373 31.1278 235.928 31.1982 235.417 31.1982ZM236.017 29.4979C236.482 29.4979 236.885 29.4062 237.225 29.223C237.566 29.0355 237.828 28.7884 238.012 28.4815C238.199 28.1747 238.293 27.8402 238.293 27.478V26.321C238.221 26.3807 238.097 26.4361 237.922 26.4872C237.752 26.5384 237.56 26.5831 237.347 26.6214C237.134 26.6598 236.923 26.6939 236.714 26.7237C236.505 26.7536 236.324 26.7791 236.171 26.8004C235.826 26.8473 235.517 26.924 235.244 27.0305C234.971 27.1371 234.756 27.2862 234.598 27.478C234.441 27.6655 234.362 27.9084 234.362 28.2067C234.362 28.6328 234.517 28.9545 234.828 29.1719C235.14 29.3892 235.536 29.4979 236.017 29.4979ZM242.927 31V21.1818H245.171V22.8182H245.273C245.452 22.2514 245.759 21.8146 246.194 21.5078C246.632 21.1967 247.133 21.0412 247.696 21.0412C247.824 21.0412 247.966 21.0476 248.124 21.0604C248.286 21.0689 248.42 21.0838 248.527 21.1051V23.2337C248.429 23.1996 248.273 23.1697 248.06 23.1442C247.851 23.1143 247.649 23.0994 247.453 23.0994C247.031 23.0994 246.652 23.1911 246.315 23.3743C245.983 23.5533 245.721 23.8026 245.529 24.1222C245.337 24.4418 245.241 24.8104 245.241 25.228V31H242.927ZM253.942 31.1918C252.962 31.1918 252.121 30.9766 251.417 30.5462C250.719 30.1158 250.18 29.5213 249.8 28.7628C249.425 28 249.238 27.1222 249.238 26.1293C249.238 25.1321 249.43 24.2521 249.813 23.4893C250.197 22.7223 250.738 22.1257 251.437 21.6996C252.14 21.2692 252.971 21.054 253.93 21.054C254.726 21.054 255.432 21.201 256.045 21.495C256.663 21.7848 257.155 22.196 257.522 22.7287C257.888 23.2571 258.097 23.875 258.148 24.5824H255.937C255.847 24.1094 255.634 23.7152 255.297 23.3999C254.965 23.0803 254.52 22.9205 253.961 22.9205C253.488 22.9205 253.073 23.0483 252.715 23.304C252.357 23.5554 252.078 23.9176 251.878 24.3906C251.682 24.8636 251.584 25.4304 251.584 26.0909C251.584 26.7599 251.682 27.3352 251.878 27.8168C252.074 28.294 252.349 28.6626 252.702 28.9226C253.06 29.1783 253.48 29.3061 253.961 29.3061C254.302 29.3061 254.607 29.2422 254.876 29.1143C255.148 28.9822 255.376 28.7926 255.559 28.5455C255.743 28.2983 255.868 27.9979 255.937 27.6442H258.148C258.093 28.3388 257.888 28.9545 257.535 29.4915C257.181 30.0241 256.699 30.4418 256.09 30.7443C255.481 31.0426 254.765 31.1918 253.942 31.1918ZM262.362 25.2472V31H260.048V17.9091H262.311V22.8501H262.426C262.656 22.2962 263.012 21.8594 263.494 21.5398C263.979 21.2159 264.597 21.054 265.347 21.054C266.029 21.054 266.624 21.1967 267.131 21.4822C267.638 21.7678 268.03 22.1854 268.307 22.7351C268.588 23.2848 268.729 23.956 268.729 24.7486V31H266.415V25.1065C266.415 24.446 266.244 23.9325 265.903 23.5661C265.567 23.1953 265.094 23.0099 264.484 23.0099C264.075 23.0099 263.709 23.0994 263.385 23.2784C263.065 23.4531 262.814 23.7067 262.631 24.0391C262.452 24.3714 262.362 24.7741 262.362 25.2472Z" fill="white"/>
<rect x="0.5" y="0.5" width="326" height="47" stroke="#8D1CFE" stroke-opacity="0.25"/>
<line x1="163" y1="99" x2="163" y2="49" stroke="#9747FF"/>
<path d="M12.0021 131.249C10.9496 131.249 10.0462 130.983 9.2919 130.45C8.5419 129.913 7.96449 129.14 7.55966 128.13C7.15909 127.116 6.95881 125.895 6.95881 124.467C6.96307 123.04 7.16548 121.825 7.56605 120.824C7.97088 119.818 8.5483 119.051 9.2983 118.523C10.0526 117.994 10.9538 117.73 12.0021 117.73C13.0504 117.73 13.9517 117.994 14.706 118.523C15.4602 119.051 16.0376 119.818 16.4382 120.824C16.843 121.83 17.0455 123.044 17.0455 124.467C17.0455 125.899 16.843 127.122 16.4382 128.136C16.0376 129.146 15.4602 129.918 14.706 130.45C13.956 130.983 13.0547 131.249 12.0021 131.249ZM12.0021 129.249C12.8203 129.249 13.4659 128.846 13.9389 128.04C14.4162 127.231 14.6548 126.04 14.6548 124.467C14.6548 123.428 14.5462 122.554 14.3288 121.847C14.1115 121.139 13.8047 120.607 13.4084 120.249C13.0121 119.886 12.5433 119.705 12.0021 119.705C11.1882 119.705 10.5447 120.11 10.0717 120.92C9.59872 121.725 9.36009 122.908 9.35582 124.467C9.35156 125.511 9.45597 126.389 9.66903 127.101C9.88636 127.812 10.1932 128.349 10.5895 128.712C10.9858 129.07 11.4567 129.249 12.0021 129.249ZM19.1692 131V129.287L23.714 124.832C24.1486 124.393 24.5108 124.003 24.8006 123.662C25.0904 123.321 25.3077 122.991 25.4526 122.671C25.5975 122.352 25.6699 122.011 25.6699 121.648C25.6699 121.235 25.5762 120.881 25.3887 120.587C25.2012 120.289 24.9434 120.059 24.6152 119.897C24.2871 119.735 23.9142 119.654 23.4966 119.654C23.0662 119.654 22.6891 119.744 22.3652 119.923C22.0414 120.097 21.79 120.347 21.611 120.67C21.4363 120.994 21.3489 121.38 21.3489 121.827H19.0925C19.0925 120.996 19.2821 120.274 19.6614 119.661C20.0407 119.047 20.5627 118.572 21.2275 118.235C21.8965 117.898 22.6635 117.73 23.5286 117.73C24.4064 117.73 25.1777 117.894 25.8425 118.222C26.5073 118.55 27.0229 119 27.3894 119.571C27.7601 120.142 27.9455 120.794 27.9455 121.527C27.9455 122.017 27.8517 122.499 27.6642 122.972C27.4767 123.445 27.1465 123.969 26.6735 124.544C26.2047 125.119 25.5463 125.816 24.6983 126.634L22.4419 128.929V129.018H28.1436V131H19.1692ZM40.1831 117.295L35.9643 132.969H33.938L38.1568 117.295H40.1831ZM54.4789 117.909H56.8503V126.462C56.8503 127.399 56.6287 128.224 56.1855 128.935C55.7466 129.647 55.1287 130.203 54.3319 130.604C53.535 131 52.6039 131.198 51.5385 131.198C50.4689 131.198 49.5357 131 48.7388 130.604C47.9419 130.203 47.324 129.647 46.8851 128.935C46.4462 128.224 46.2267 127.399 46.2267 126.462V117.909H48.5982V126.263C48.5982 126.809 48.7175 127.295 48.9561 127.721C49.199 128.147 49.54 128.482 49.9789 128.724C50.4178 128.963 50.9377 129.082 51.5385 129.082C52.1394 129.082 52.6593 128.963 53.0982 128.724C53.5414 128.482 53.8823 128.147 54.1209 127.721C54.3596 127.295 54.4789 126.809 54.4789 126.263V117.909ZM61.4094 117.909L64.2923 122.703H64.3945L67.2901 117.909H69.994L65.9606 124.455L70.0579 131H67.3093L64.3945 126.238H64.2923L61.3775 131H58.6417L62.7773 124.455L58.6928 117.909H61.4094ZM80.7566 131H76.3205V117.909H80.8461C82.1458 117.909 83.2623 118.171 84.1955 118.695C85.133 119.215 85.8532 119.963 86.356 120.939C86.8588 121.915 87.1103 123.082 87.1103 124.442C87.1103 125.805 86.8567 126.977 86.3496 127.957C85.8468 128.937 85.1202 129.69 84.1699 130.214C83.2239 130.738 82.0861 131 80.7566 131ZM78.6919 128.948H80.6415C81.5534 128.948 82.3141 128.782 82.9235 128.45C83.5328 128.113 83.9909 127.612 84.2978 126.947C84.6046 126.278 84.758 125.443 84.758 124.442C84.758 123.44 84.6046 122.609 84.2978 121.949C83.9909 121.284 83.5371 120.788 82.9363 120.46C82.3397 120.127 81.5982 119.961 80.7118 119.961H78.6919V128.948ZM93.6078 131.192C92.6234 131.192 91.7733 130.987 91.0574 130.578C90.3457 130.165 89.7981 129.581 89.4146 128.827C89.0311 128.068 88.8393 127.175 88.8393 126.148C88.8393 125.138 89.0311 124.252 89.4146 123.489C89.8024 122.722 90.3436 122.126 91.0382 121.7C91.7328 121.269 92.5488 121.054 93.4863 121.054C94.0914 121.054 94.6625 121.152 95.1994 121.348C95.7406 121.54 96.2179 121.838 96.6312 122.243C97.0488 122.648 97.377 123.163 97.6156 123.79C97.8542 124.412 97.9735 125.153 97.9735 126.014V126.724H89.926V125.164H95.7555C95.7512 124.721 95.6554 124.327 95.4679 123.982C95.2804 123.632 95.0183 123.357 94.6816 123.157C94.3493 122.957 93.9615 122.857 93.5183 122.857C93.0453 122.857 92.6298 122.972 92.2718 123.202C91.9139 123.428 91.6348 123.726 91.4345 124.097C91.2385 124.463 91.1383 124.866 91.1341 125.305V126.666C91.1341 127.237 91.2385 127.727 91.4473 128.136C91.6561 128.541 91.948 128.852 92.323 129.07C92.698 129.283 93.1369 129.389 93.6397 129.389C93.9764 129.389 94.2811 129.342 94.5538 129.249C94.8265 129.151 95.063 129.008 95.2633 128.82C95.4636 128.633 95.6149 128.401 95.7172 128.124L97.8777 128.366C97.7413 128.937 97.4814 129.436 97.0978 129.862C96.7186 130.284 96.2328 130.612 95.6404 130.847C95.0481 131.077 94.3706 131.192 93.6078 131.192ZM107.691 123.777L105.582 124.007C105.522 123.794 105.418 123.594 105.268 123.406C105.124 123.219 104.928 123.067 104.68 122.952C104.433 122.837 104.131 122.78 103.773 122.78C103.291 122.78 102.886 122.884 102.558 123.093C102.234 123.302 102.075 123.572 102.079 123.905C102.075 124.19 102.179 124.423 102.392 124.602C102.609 124.781 102.967 124.928 103.466 125.043L105.141 125.401C106.07 125.601 106.76 125.918 107.212 126.353C107.668 126.788 107.898 127.357 107.902 128.06C107.898 128.678 107.717 129.223 107.359 129.696C107.005 130.165 106.513 130.531 105.882 130.795C105.251 131.06 104.527 131.192 103.709 131.192C102.507 131.192 101.54 130.94 100.807 130.438C100.074 129.93 99.6371 129.225 99.4964 128.322L101.753 128.104C101.855 128.548 102.072 128.882 102.405 129.108C102.737 129.334 103.17 129.447 103.702 129.447C104.252 129.447 104.693 129.334 105.026 129.108C105.362 128.882 105.531 128.603 105.531 128.271C105.531 127.989 105.422 127.757 105.205 127.574C104.991 127.391 104.659 127.25 104.207 127.152L102.533 126.8C101.591 126.604 100.894 126.274 100.442 125.81C99.9908 125.341 99.767 124.749 99.7713 124.033C99.767 123.428 99.9311 122.903 100.263 122.46C100.6 122.013 101.067 121.668 101.663 121.425C102.264 121.178 102.957 121.054 103.741 121.054C104.891 121.054 105.797 121.299 106.457 121.789C107.122 122.279 107.533 122.942 107.691 123.777ZM109.81 131V121.182H112.124V131H109.81ZM110.973 119.788C110.607 119.788 110.292 119.667 110.027 119.424C109.763 119.177 109.631 118.881 109.631 118.536C109.631 118.186 109.763 117.89 110.027 117.647C110.292 117.4 110.607 117.276 110.973 117.276C111.344 117.276 111.659 117.4 111.919 117.647C112.184 117.89 112.316 118.186 112.316 118.536C112.316 118.881 112.184 119.177 111.919 119.424C111.659 119.667 111.344 119.788 110.973 119.788ZM118.773 134.886C117.942 134.886 117.229 134.773 116.632 134.548C116.035 134.326 115.556 134.028 115.194 133.653C114.831 133.278 114.58 132.862 114.439 132.406L116.523 131.901C116.617 132.093 116.753 132.283 116.932 132.47C117.111 132.662 117.352 132.82 117.655 132.943C117.961 133.071 118.347 133.135 118.812 133.135C119.468 133.135 120.011 132.975 120.442 132.656C120.872 132.34 121.087 131.82 121.087 131.096V129.236H120.972C120.853 129.474 120.678 129.719 120.448 129.971C120.222 130.222 119.922 130.433 119.547 130.604C119.176 130.774 118.709 130.859 118.147 130.859C117.393 130.859 116.709 130.683 116.095 130.329C115.486 129.971 115 129.438 114.638 128.731C114.28 128.019 114.101 127.129 114.101 126.059C114.101 124.981 114.28 124.071 114.638 123.33C115 122.584 115.488 122.019 116.101 121.636C116.715 121.248 117.399 121.054 118.153 121.054C118.729 121.054 119.202 121.152 119.572 121.348C119.947 121.54 120.246 121.772 120.467 122.045C120.689 122.313 120.857 122.567 120.972 122.805H121.1V121.182H123.382V131.16C123.382 131.999 123.182 132.694 122.781 133.244C122.381 133.793 121.833 134.205 121.138 134.477C120.444 134.75 119.655 134.886 118.773 134.886ZM118.792 129.044C119.282 129.044 119.7 128.925 120.045 128.686C120.39 128.447 120.653 128.104 120.831 127.657C121.01 127.21 121.1 126.673 121.1 126.046C121.1 125.428 121.01 124.887 120.831 124.423C120.657 123.958 120.397 123.598 120.052 123.342C119.711 123.082 119.291 122.952 118.792 122.952C118.277 122.952 117.846 123.087 117.501 123.355C117.156 123.624 116.896 123.992 116.721 124.461C116.547 124.925 116.459 125.454 116.459 126.046C116.459 126.647 116.547 127.173 116.721 127.625C116.9 128.072 117.162 128.422 117.508 128.673C117.857 128.92 118.285 129.044 118.792 129.044ZM128.067 125.247V131H125.753V121.182H127.965V122.85H128.08C128.306 122.3 128.666 121.864 129.16 121.54C129.659 121.216 130.275 121.054 131.008 121.054C131.685 121.054 132.275 121.199 132.778 121.489C133.285 121.778 133.677 122.198 133.954 122.748C134.236 123.298 134.374 123.964 134.37 124.749V131H132.056V125.107C132.056 124.45 131.885 123.937 131.545 123.566C131.208 123.195 130.741 123.01 130.145 123.01C129.74 123.01 129.38 123.099 129.064 123.278C128.753 123.453 128.508 123.707 128.329 124.039C128.155 124.371 128.067 124.774 128.067 125.247ZM145.099 131.192C144.204 131.192 143.435 131.03 142.791 130.706C142.148 130.382 141.651 129.945 141.302 129.396C140.957 128.842 140.784 128.217 140.784 127.523C140.784 126.999 140.891 126.534 141.104 126.129C141.321 125.724 141.619 125.349 141.999 125.004C142.382 124.659 142.825 124.316 143.328 123.975L145.649 122.396C145.99 122.175 146.247 121.94 146.422 121.693C146.601 121.446 146.691 121.156 146.691 120.824C146.691 120.543 146.571 120.276 146.333 120.025C146.098 119.773 145.774 119.648 145.361 119.648C145.084 119.648 144.839 119.714 144.626 119.846C144.417 119.974 144.253 120.142 144.134 120.351C144.019 120.56 143.961 120.781 143.961 121.016C143.961 121.301 144.04 121.591 144.198 121.885C144.36 122.179 144.568 122.484 144.824 122.799C145.084 123.114 145.361 123.449 145.655 123.803L151.798 131H149.292L144.191 125.158C143.812 124.714 143.445 124.278 143.092 123.847C142.742 123.417 142.455 122.969 142.229 122.505C142.007 122.036 141.896 121.529 141.896 120.984C141.896 120.366 142.039 119.814 142.325 119.328C142.61 118.838 143.009 118.452 143.52 118.171C144.036 117.89 144.639 117.749 145.329 117.749C146.019 117.749 146.612 117.886 147.106 118.158C147.6 118.431 147.982 118.793 148.25 119.245C148.519 119.697 148.653 120.189 148.653 120.722C148.653 121.339 148.499 121.893 148.193 122.384C147.886 122.869 147.46 123.31 146.914 123.707L144.268 125.643C143.833 125.959 143.522 126.278 143.335 126.602C143.147 126.922 143.053 127.195 143.053 127.42C143.053 127.766 143.141 128.079 143.316 128.36C143.49 128.641 143.735 128.867 144.051 129.038C144.37 129.204 144.743 129.287 145.169 129.287C145.638 129.287 146.1 129.183 146.556 128.974C147.012 128.761 147.428 128.458 147.803 128.066C148.178 127.674 148.476 127.205 148.698 126.66C148.919 126.11 149.03 125.501 149.03 124.832H151.018C151.018 125.658 150.926 126.379 150.743 126.992C150.56 127.602 150.323 128.117 150.034 128.539C149.744 128.957 149.437 129.291 149.113 129.543C149.011 129.615 148.913 129.688 148.819 129.76C148.725 129.832 148.627 129.905 148.525 129.977C148.065 130.395 147.526 130.702 146.908 130.898C146.294 131.094 145.691 131.192 145.099 131.192ZM160.061 117.909V131H157.69V117.909H160.061ZM164.841 125.247V131H162.527V121.182H164.738V122.85H164.854C165.079 122.3 165.439 121.864 165.934 121.54C166.432 121.216 167.048 121.054 167.781 121.054C168.459 121.054 169.049 121.199 169.552 121.489C170.059 121.778 170.451 122.198 170.728 122.748C171.009 123.298 171.148 123.964 171.143 124.749V131H168.829V125.107C168.829 124.45 168.659 123.937 168.318 123.566C167.981 123.195 167.515 123.01 166.918 123.01C166.513 123.01 166.153 123.099 165.838 123.278C165.527 123.453 165.282 123.707 165.103 124.039C164.928 124.371 164.841 124.774 164.841 125.247ZM178.398 121.182V122.972H172.754V121.182H178.398ZM174.148 118.83H176.461V128.047C176.461 128.358 176.508 128.597 176.602 128.763C176.7 128.925 176.828 129.036 176.986 129.095C177.143 129.155 177.318 129.185 177.51 129.185C177.655 129.185 177.787 129.174 177.906 129.153C178.03 129.131 178.123 129.112 178.187 129.095L178.577 130.904C178.454 130.947 178.277 130.994 178.047 131.045C177.821 131.096 177.544 131.126 177.216 131.134C176.636 131.151 176.114 131.064 175.65 130.872C175.185 130.676 174.817 130.374 174.544 129.964C174.275 129.555 174.143 129.044 174.148 128.43V118.83ZM184.575 131.192C183.59 131.192 182.74 130.987 182.024 130.578C181.313 130.165 180.765 129.581 180.381 128.827C179.998 128.068 179.806 127.175 179.806 126.148C179.806 125.138 179.998 124.252 180.381 123.489C180.769 122.722 181.31 122.126 182.005 121.7C182.7 121.269 183.516 121.054 184.453 121.054C185.058 121.054 185.629 121.152 186.166 121.348C186.707 121.54 187.185 121.838 187.598 122.243C188.016 122.648 188.344 123.163 188.582 123.79C188.821 124.412 188.94 125.153 188.94 126.014V126.724H180.893V125.164H186.722C186.718 124.721 186.622 124.327 186.435 123.982C186.247 123.632 185.985 123.357 185.648 123.157C185.316 122.957 184.928 122.857 184.485 122.857C184.012 122.857 183.597 122.972 183.239 123.202C182.881 123.428 182.602 123.726 182.401 124.097C182.205 124.463 182.105 124.866 182.101 125.305V126.666C182.101 127.237 182.205 127.727 182.414 128.136C182.623 128.541 182.915 128.852 183.29 129.07C183.665 129.283 184.104 129.389 184.607 129.389C184.943 129.389 185.248 129.342 185.521 129.249C185.793 129.151 186.03 129.008 186.23 128.82C186.43 128.633 186.582 128.401 186.684 128.124L188.844 128.366C188.708 128.937 188.448 129.436 188.065 129.862C187.685 130.284 187.2 130.612 186.607 130.847C186.015 131.077 185.337 131.192 184.575 131.192ZM190.898 131V121.182H193.142V122.818H193.244C193.423 122.251 193.73 121.815 194.164 121.508C194.603 121.197 195.104 121.041 195.666 121.041C195.794 121.041 195.937 121.048 196.095 121.06C196.257 121.069 196.391 121.084 196.497 121.105V123.234C196.399 123.2 196.244 123.17 196.031 123.144C195.822 123.114 195.619 123.099 195.423 123.099C195.002 123.099 194.622 123.191 194.286 123.374C193.953 123.553 193.691 123.803 193.499 124.122C193.308 124.442 193.212 124.81 193.212 125.228V131H190.898ZM200.684 131.198C200.062 131.198 199.502 131.087 199.003 130.866C198.509 130.64 198.117 130.308 197.827 129.869C197.541 129.43 197.399 128.888 197.399 128.245C197.399 127.691 197.501 127.233 197.705 126.871C197.91 126.509 198.189 126.219 198.543 126.001C198.896 125.784 199.295 125.62 199.738 125.509C200.186 125.394 200.648 125.311 201.125 125.26C201.7 125.2 202.167 125.147 202.525 125.1C202.883 125.049 203.143 124.972 203.305 124.87C203.471 124.763 203.554 124.599 203.554 124.378V124.339C203.554 123.858 203.411 123.485 203.126 123.221C202.84 122.957 202.429 122.825 201.892 122.825C201.325 122.825 200.876 122.948 200.544 123.195C200.215 123.442 199.994 123.734 199.879 124.071L197.718 123.764C197.889 123.168 198.17 122.669 198.562 122.268C198.954 121.864 199.433 121.561 200 121.361C200.567 121.156 201.193 121.054 201.879 121.054C202.352 121.054 202.823 121.109 203.292 121.22C203.761 121.331 204.189 121.514 204.577 121.77C204.965 122.021 205.276 122.364 205.51 122.799C205.749 123.234 205.868 123.777 205.868 124.429V131H203.644V129.651H203.567C203.426 129.924 203.228 130.18 202.972 130.418C202.721 130.653 202.404 130.842 202.02 130.987C201.641 131.128 201.195 131.198 200.684 131.198ZM201.285 129.498C201.749 129.498 202.152 129.406 202.493 129.223C202.834 129.036 203.096 128.788 203.279 128.482C203.467 128.175 203.561 127.84 203.561 127.478V126.321C203.488 126.381 203.365 126.436 203.19 126.487C203.019 126.538 202.828 126.583 202.615 126.621C202.401 126.66 202.191 126.694 201.982 126.724C201.773 126.754 201.592 126.779 201.438 126.8C201.093 126.847 200.784 126.924 200.512 127.031C200.239 127.137 200.024 127.286 199.866 127.478C199.708 127.665 199.629 127.908 199.629 128.207C199.629 128.633 199.785 128.955 200.096 129.172C200.407 129.389 200.803 129.498 201.285 129.498ZM212.477 131.192C211.497 131.192 210.656 130.977 209.953 130.546C209.254 130.116 208.715 129.521 208.335 128.763C207.96 128 207.773 127.122 207.773 126.129C207.773 125.132 207.965 124.252 208.348 123.489C208.732 122.722 209.273 122.126 209.972 121.7C210.675 121.269 211.506 121.054 212.465 121.054C213.262 121.054 213.967 121.201 214.58 121.495C215.198 121.785 215.691 122.196 216.057 122.729C216.423 123.257 216.632 123.875 216.683 124.582H214.472C214.382 124.109 214.169 123.715 213.833 123.4C213.5 123.08 213.055 122.92 212.497 122.92C212.024 122.92 211.608 123.048 211.25 123.304C210.892 123.555 210.613 123.918 210.413 124.391C210.217 124.864 210.119 125.43 210.119 126.091C210.119 126.76 210.217 127.335 210.413 127.817C210.609 128.294 210.884 128.663 211.237 128.923C211.595 129.178 212.015 129.306 212.497 129.306C212.838 129.306 213.142 129.242 213.411 129.114C213.683 128.982 213.911 128.793 214.095 128.545C214.278 128.298 214.404 127.998 214.472 127.644H216.683C216.628 128.339 216.423 128.955 216.07 129.491C215.716 130.024 215.235 130.442 214.625 130.744C214.016 131.043 213.3 131.192 212.477 131.192ZM223.486 121.182V122.972H217.842V121.182H223.486ZM219.235 118.83H221.549V128.047C221.549 128.358 221.596 128.597 221.69 128.763C221.788 128.925 221.916 129.036 222.074 129.095C222.231 129.155 222.406 129.185 222.598 129.185C222.743 129.185 222.875 129.174 222.994 129.153C223.118 129.131 223.211 129.112 223.275 129.095L223.665 130.904C223.542 130.947 223.365 130.994 223.135 131.045C222.909 131.096 222.632 131.126 222.304 131.134C221.724 131.151 221.202 131.064 220.738 130.872C220.273 130.676 219.904 130.374 219.632 129.964C219.363 129.555 219.231 129.044 219.235 128.43V118.83ZM225.421 131V121.182H227.735V131H225.421ZM226.585 119.788C226.218 119.788 225.903 119.667 225.639 119.424C225.374 119.177 225.242 118.881 225.242 118.536C225.242 118.186 225.374 117.89 225.639 117.647C225.903 117.4 226.218 117.276 226.585 117.276C226.955 117.276 227.271 117.4 227.531 117.647C227.795 117.89 227.927 118.186 227.927 118.536C227.927 118.881 227.795 119.177 227.531 119.424C227.271 119.667 226.955 119.788 226.585 119.788ZM234.397 131.192C233.439 131.192 232.608 130.981 231.904 130.559C231.201 130.137 230.656 129.547 230.268 128.788C229.885 128.03 229.693 127.143 229.693 126.129C229.693 125.115 229.885 124.227 230.268 123.464C230.656 122.701 231.201 122.109 231.904 121.687C232.608 121.265 233.439 121.054 234.397 121.054C235.356 121.054 236.187 121.265 236.89 121.687C237.593 122.109 238.137 122.701 238.52 123.464C238.908 124.227 239.102 125.115 239.102 126.129C239.102 127.143 238.908 128.03 238.52 128.788C238.137 129.547 237.593 130.137 236.89 130.559C236.187 130.981 235.356 131.192 234.397 131.192ZM234.41 129.338C234.93 129.338 235.365 129.195 235.714 128.91C236.064 128.62 236.324 128.232 236.494 127.746C236.669 127.261 236.756 126.719 236.756 126.123C236.756 125.522 236.669 124.979 236.494 124.493C236.324 124.003 236.064 123.613 235.714 123.323C235.365 123.033 234.93 122.888 234.41 122.888C233.877 122.888 233.434 123.033 233.081 123.323C232.731 123.613 232.469 124.003 232.294 124.493C232.124 124.979 232.039 125.522 232.039 126.123C232.039 126.719 232.124 127.261 232.294 127.746C232.469 128.232 232.731 128.62 233.081 128.91C233.434 129.195 233.877 129.338 234.41 129.338ZM243.38 125.247V131H241.066V121.182H243.278V122.85H243.393C243.618 122.3 243.979 121.864 244.473 121.54C244.971 121.216 245.587 121.054 246.32 121.054C246.998 121.054 247.588 121.199 248.091 121.489C248.598 121.778 248.99 122.198 249.267 122.748C249.548 123.298 249.687 123.964 249.682 124.749V131H247.368V125.107C247.368 124.45 247.198 123.937 246.857 123.566C246.52 123.195 246.054 123.01 245.457 123.01C245.052 123.01 244.692 123.099 244.377 123.278C244.066 123.453 243.821 123.707 243.642 124.039C243.467 124.371 243.38 124.774 243.38 125.247ZM261.038 131H256.602V117.909H261.127C262.427 117.909 263.544 118.171 264.477 118.695C265.414 119.215 266.134 119.963 266.637 120.939C267.14 121.915 267.392 123.082 267.392 124.442C267.392 125.805 267.138 126.977 266.631 127.957C266.128 128.937 265.401 129.69 264.451 130.214C263.505 130.738 262.367 131 261.038 131ZM258.973 128.948H260.923C261.835 128.948 262.595 128.782 263.205 128.45C263.814 128.113 264.272 127.612 264.579 126.947C264.886 126.278 265.039 125.443 265.039 124.442C265.039 123.44 264.886 122.609 264.579 121.949C264.272 121.284 263.818 120.788 263.218 120.46C262.621 120.127 261.879 119.961 260.993 119.961H258.973V128.948ZM273.889 131.192C272.905 131.192 272.055 130.987 271.339 130.578C270.627 130.165 270.079 129.581 269.696 128.827C269.312 128.068 269.121 127.175 269.121 126.148C269.121 125.138 269.312 124.252 269.696 123.489C270.084 122.722 270.625 122.126 271.319 121.7C272.014 121.269 272.83 121.054 273.768 121.054C274.373 121.054 274.944 121.152 275.481 121.348C276.022 121.54 276.499 121.838 276.912 122.243C277.33 122.648 277.658 123.163 277.897 123.79C278.135 124.412 278.255 125.153 278.255 126.014V126.724H270.207V125.164H276.037C276.032 124.721 275.937 124.327 275.749 123.982C275.562 123.632 275.3 123.357 274.963 123.157C274.631 122.957 274.243 122.857 273.8 122.857C273.327 122.857 272.911 122.972 272.553 123.202C272.195 123.428 271.916 123.726 271.716 124.097C271.52 124.463 271.42 124.866 271.415 125.305V126.666C271.415 127.237 271.52 127.727 271.729 128.136C271.937 128.541 272.229 128.852 272.604 129.07C272.979 129.283 273.418 129.389 273.921 129.389C274.258 129.389 274.562 129.342 274.835 129.249C275.108 129.151 275.344 129.008 275.545 128.82C275.745 128.633 275.896 128.401 275.998 128.124L278.159 128.366C278.023 128.937 277.763 129.436 277.379 129.862C277 130.284 276.514 130.612 275.922 130.847C275.329 131.077 274.652 131.192 273.889 131.192ZM287.972 123.777L285.863 124.007C285.803 123.794 285.699 123.594 285.55 123.406C285.405 123.219 285.209 123.067 284.962 122.952C284.714 122.837 284.412 122.78 284.054 122.78C283.572 122.78 283.168 122.884 282.839 123.093C282.516 123.302 282.356 123.572 282.36 123.905C282.356 124.19 282.46 124.423 282.673 124.602C282.891 124.781 283.249 124.928 283.747 125.043L285.422 125.401C286.351 125.601 287.041 125.918 287.493 126.353C287.949 126.788 288.179 127.357 288.183 128.06C288.179 128.678 287.998 129.223 287.64 129.696C287.286 130.165 286.794 130.531 286.163 130.795C285.533 131.06 284.808 131.192 283.99 131.192C282.788 131.192 281.821 130.94 281.088 130.438C280.355 129.93 279.918 129.225 279.778 128.322L282.034 128.104C282.136 128.548 282.354 128.882 282.686 129.108C283.018 129.334 283.451 129.447 283.984 129.447C284.533 129.447 284.974 129.334 285.307 129.108C285.643 128.882 285.812 128.603 285.812 128.271C285.812 127.989 285.703 127.757 285.486 127.574C285.273 127.391 284.94 127.25 284.489 127.152L282.814 126.8C281.872 126.604 281.175 126.274 280.724 125.81C280.272 125.341 280.048 124.749 280.053 124.033C280.048 123.428 280.212 122.903 280.545 122.46C280.881 122.013 281.348 121.668 281.945 121.425C282.545 121.178 283.238 121.054 284.022 121.054C285.173 121.054 286.078 121.299 286.739 121.789C287.403 122.279 287.815 122.942 287.972 123.777ZM290.091 131V121.182H292.405V131H290.091ZM291.255 119.788C290.888 119.788 290.573 119.667 290.309 119.424C290.044 119.177 289.912 118.881 289.912 118.536C289.912 118.186 290.044 117.89 290.309 117.647C290.573 117.4 290.888 117.276 291.255 117.276C291.625 117.276 291.941 117.4 292.201 117.647C292.465 117.89 292.597 118.186 292.597 118.536C292.597 118.881 292.465 119.177 292.201 119.424C291.941 119.667 291.625 119.788 291.255 119.788ZM299.055 134.886C298.224 134.886 297.51 134.773 296.913 134.548C296.317 134.326 295.837 134.028 295.475 133.653C295.113 133.278 294.861 132.862 294.721 132.406L296.805 131.901C296.898 132.093 297.035 132.283 297.214 132.47C297.393 132.662 297.633 132.82 297.936 132.943C298.243 133.071 298.628 133.135 299.093 133.135C299.749 133.135 300.292 132.975 300.723 132.656C301.153 132.34 301.368 131.82 301.368 131.096V129.236H301.253C301.134 129.474 300.959 129.719 300.729 129.971C300.503 130.222 300.203 130.433 299.828 130.604C299.457 130.774 298.991 130.859 298.428 130.859C297.674 130.859 296.99 130.683 296.376 130.329C295.767 129.971 295.281 129.438 294.919 128.731C294.561 128.019 294.382 127.129 294.382 126.059C294.382 124.981 294.561 124.071 294.919 123.33C295.281 122.584 295.769 122.019 296.383 121.636C296.996 121.248 297.68 121.054 298.434 121.054C299.01 121.054 299.483 121.152 299.854 121.348C300.229 121.54 300.527 121.772 300.748 122.045C300.97 122.313 301.138 122.567 301.253 122.805H301.381V121.182H303.663V131.16C303.663 131.999 303.463 132.694 303.062 133.244C302.662 133.793 302.114 134.205 301.42 134.477C300.725 134.75 299.937 134.886 299.055 134.886ZM299.074 129.044C299.564 129.044 299.981 128.925 300.327 128.686C300.672 128.447 300.934 128.104 301.113 127.657C301.292 127.21 301.381 126.673 301.381 126.046C301.381 125.428 301.292 124.887 301.113 124.423C300.938 123.958 300.678 123.598 300.333 123.342C299.992 123.082 299.572 122.952 299.074 122.952C298.558 122.952 298.128 123.087 297.782 123.355C297.437 123.624 297.177 123.992 297.003 124.461C296.828 124.925 296.741 125.454 296.741 126.046C296.741 126.647 296.828 127.173 297.003 127.625C297.182 128.072 297.444 128.422 297.789 128.673C298.138 128.92 298.567 129.044 299.074 129.044ZM308.349 125.247V131H306.035V121.182H308.246V122.85H308.361C308.587 122.3 308.947 121.864 309.442 121.54C309.94 121.216 310.556 121.054 311.289 121.054C311.966 121.054 312.557 121.199 313.059 121.489C313.567 121.778 313.959 122.198 314.236 122.748C314.517 123.298 314.655 123.964 314.651 124.749V131H312.337V125.107C312.337 124.45 312.167 123.937 311.826 123.566C311.489 123.195 311.023 123.01 310.426 123.01C310.021 123.01 309.661 123.099 309.346 123.278C309.035 123.453 308.79 123.707 308.611 124.039C308.436 124.371 308.349 124.774 308.349 125.247Z" fill="white"/>
<rect x="0.5" y="100.5" width="326" height="47" stroke="#8D1CFE" stroke-opacity="0.25"/>
<line x1="163" y1="199" x2="163" y2="149" stroke="#9747FF"/>
<path d="M45.0021 232.749C43.9496 232.749 43.0462 232.483 42.2919 231.95C41.5419 231.413 40.9645 230.64 40.5597 229.63C40.1591 228.616 39.9588 227.395 39.9588 225.967C39.9631 224.54 40.1655 223.325 40.5661 222.324C40.9709 221.318 41.5483 220.551 42.2983 220.023C43.0526 219.494 43.9538 219.23 45.0021 219.23C46.0504 219.23 46.9517 219.494 47.706 220.023C48.4602 220.551 49.0376 221.318 49.4382 222.324C49.843 223.33 50.0455 224.544 50.0455 225.967C50.0455 227.399 49.843 228.622 49.4382 229.636C49.0376 230.646 48.4602 231.418 47.706 231.95C46.956 232.483 46.0547 232.749 45.0021 232.749ZM45.0021 230.749C45.8203 230.749 46.4659 230.346 46.9389 229.54C47.4162 228.731 47.6548 227.54 47.6548 225.967C47.6548 224.928 47.5462 224.054 47.3288 223.347C47.1115 222.639 46.8047 222.107 46.4084 221.749C46.0121 221.386 45.5433 221.205 45.0021 221.205C44.1882 221.205 43.5447 221.61 43.0717 222.42C42.5987 223.225 42.3601 224.408 42.3558 225.967C42.3516 227.011 42.456 227.889 42.669 228.601C42.8864 229.312 43.1932 229.849 43.5895 230.212C43.9858 230.57 44.4567 230.749 45.0021 230.749ZM56.8674 232.679C55.9469 232.679 55.1287 232.521 54.4128 232.206C53.7012 231.891 53.1387 231.452 52.7253 230.889C52.312 230.327 52.0925 229.677 52.0669 228.94H54.4703C54.4917 229.293 54.6088 229.602 54.8219 229.866C55.035 230.126 55.3184 230.329 55.6721 230.474C56.0257 230.619 56.4221 230.691 56.861 230.691C57.3297 230.691 57.7452 230.61 58.1074 230.448C58.4696 230.282 58.753 230.052 58.9576 229.758C59.1621 229.464 59.2623 229.125 59.258 228.741C59.2623 228.345 59.16 227.996 58.9512 227.693C58.7424 227.391 58.4398 227.154 58.0435 226.984C57.6515 226.813 57.1784 226.728 56.6245 226.728H55.4675V224.9H56.6245C57.0804 224.9 57.4789 224.821 57.8198 224.663C58.165 224.506 58.4355 224.284 58.6316 223.999C58.8276 223.709 58.9235 223.374 58.9192 222.995C58.9235 222.624 58.8404 222.303 58.6699 222.03C58.5037 221.753 58.2672 221.538 57.9604 221.384C57.6578 221.231 57.302 221.154 56.8929 221.154C56.4924 221.154 56.1216 221.227 55.7807 221.371C55.4398 221.516 55.165 221.723 54.9561 221.991C54.7473 222.256 54.6365 222.571 54.6238 222.938H52.3418C52.3588 222.205 52.5698 221.561 52.9746 221.007C53.3837 220.449 53.9292 220.014 54.611 219.703C55.2928 219.388 56.0577 219.23 56.9057 219.23C57.7793 219.23 58.5378 219.394 59.1813 219.722C59.829 220.046 60.3297 220.483 60.6834 221.033C61.0371 221.582 61.214 222.19 61.214 222.854C61.2182 223.592 61.0009 224.21 60.562 224.708C60.1273 225.207 59.5563 225.533 58.8489 225.686V225.788C59.7694 225.916 60.4746 226.257 60.9647 226.811C61.459 227.361 61.704 228.045 61.6998 228.863C61.6998 229.596 61.4909 230.252 61.0733 230.832C60.66 231.407 60.089 231.859 59.3603 232.187C58.6358 232.515 57.8049 232.679 56.8674 232.679ZM73.728 218.795L69.5092 234.469H67.483L71.7017 218.795H73.728ZM88.0238 219.409H90.3952V227.962C90.3952 228.899 90.1737 229.724 89.7305 230.435C89.2915 231.147 88.6737 231.703 87.8768 232.104C87.0799 232.5 86.1488 232.698 85.0835 232.698C84.0138 232.698 83.0806 232.5 82.2837 232.104C81.4869 231.703 80.869 231.147 80.43 230.435C79.9911 229.724 79.7717 228.899 79.7717 227.962V219.409H82.1431V227.763C82.1431 228.309 82.2624 228.795 82.5011 229.221C82.744 229.647 83.0849 229.982 83.5238 230.224C83.9627 230.463 84.4826 230.582 85.0835 230.582C85.6843 230.582 86.2042 230.463 86.6431 230.224C87.0863 229.982 87.4272 229.647 87.6658 229.221C87.9045 228.795 88.0238 228.309 88.0238 227.763V219.409ZM95.3443 219.409V232.5H92.9728V219.409H95.3443ZM106.813 232.5H102.377V219.409H106.903C108.202 219.409 109.319 219.671 110.252 220.195C111.19 220.715 111.91 221.463 112.413 222.439C112.915 223.415 113.167 224.582 113.167 225.942C113.167 227.305 112.913 228.477 112.406 229.457C111.903 230.437 111.177 231.19 110.227 231.714C109.281 232.238 108.143 232.5 106.813 232.5ZM104.749 230.448H106.698C107.61 230.448 108.371 230.282 108.98 229.95C109.589 229.613 110.048 229.112 110.354 228.447C110.661 227.778 110.815 226.943 110.815 225.942C110.815 224.94 110.661 224.109 110.354 223.449C110.048 222.784 109.594 222.288 108.993 221.96C108.396 221.627 107.655 221.461 106.768 221.461H104.749V230.448ZM119.664 232.692C118.68 232.692 117.83 232.487 117.114 232.078C116.402 231.665 115.855 231.081 115.471 230.327C115.088 229.568 114.896 228.675 114.896 227.648C114.896 226.638 115.088 225.752 115.471 224.989C115.859 224.222 116.4 223.626 117.095 223.2C117.789 222.769 118.605 222.554 119.543 222.554C120.148 222.554 120.719 222.652 121.256 222.848C121.797 223.04 122.275 223.338 122.688 223.743C123.105 224.148 123.434 224.663 123.672 225.29C123.911 225.912 124.03 226.653 124.03 227.514V228.224H115.983V226.664H121.812C121.808 226.221 121.712 225.827 121.525 225.482C121.337 225.132 121.075 224.857 120.738 224.657C120.406 224.457 120.018 224.357 119.575 224.357C119.102 224.357 118.686 224.472 118.328 224.702C117.971 224.928 117.691 225.226 117.491 225.597C117.295 225.963 117.195 226.366 117.191 226.805V228.166C117.191 228.737 117.295 229.227 117.504 229.636C117.713 230.041 118.005 230.352 118.38 230.57C118.755 230.783 119.194 230.889 119.696 230.889C120.033 230.889 120.338 230.842 120.61 230.749C120.883 230.651 121.12 230.508 121.32 230.32C121.52 230.133 121.672 229.901 121.774 229.624L123.934 229.866C123.798 230.437 123.538 230.936 123.154 231.362C122.775 231.784 122.289 232.112 121.697 232.347C121.105 232.577 120.427 232.692 119.664 232.692ZM133.748 225.277L131.638 225.507C131.579 225.294 131.474 225.094 131.325 224.906C131.18 224.719 130.984 224.567 130.737 224.452C130.49 224.337 130.187 224.28 129.829 224.28C129.348 224.28 128.943 224.384 128.615 224.593C128.291 224.802 128.131 225.072 128.135 225.405C128.131 225.69 128.236 225.923 128.449 226.102C128.666 226.281 129.024 226.428 129.523 226.543L131.197 226.901C132.126 227.101 132.817 227.418 133.268 227.853C133.724 228.288 133.954 228.857 133.959 229.56C133.954 230.178 133.773 230.723 133.415 231.196C133.062 231.665 132.569 232.031 131.939 232.295C131.308 232.56 130.584 232.692 129.765 232.692C128.564 232.692 127.596 232.44 126.863 231.938C126.131 231.43 125.694 230.725 125.553 229.822L127.809 229.604C127.912 230.048 128.129 230.382 128.461 230.608C128.794 230.834 129.226 230.947 129.759 230.947C130.309 230.947 130.75 230.834 131.082 230.608C131.419 230.382 131.587 230.103 131.587 229.771C131.587 229.489 131.479 229.257 131.261 229.074C131.048 228.891 130.716 228.75 130.264 228.652L128.589 228.3C127.648 228.104 126.951 227.774 126.499 227.31C126.047 226.841 125.824 226.249 125.828 225.533C125.824 224.928 125.988 224.403 126.32 223.96C126.657 223.513 127.123 223.168 127.72 222.925C128.321 222.678 129.013 222.554 129.797 222.554C130.948 222.554 131.854 222.799 132.514 223.289C133.179 223.779 133.59 224.442 133.748 225.277ZM135.867 232.5V222.682H138.181V232.5H135.867ZM137.03 221.288C136.664 221.288 136.348 221.167 136.084 220.924C135.82 220.677 135.688 220.381 135.688 220.036C135.688 219.686 135.82 219.39 136.084 219.147C136.348 218.9 136.664 218.776 137.03 218.776C137.401 218.776 137.716 218.9 137.976 219.147C138.24 219.39 138.372 219.686 138.372 220.036C138.372 220.381 138.24 220.677 137.976 220.924C137.716 221.167 137.401 221.288 137.03 221.288ZM144.83 236.386C143.999 236.386 143.285 236.273 142.689 236.048C142.092 235.826 141.613 235.528 141.25 235.153C140.888 234.778 140.637 234.362 140.496 233.906L142.58 233.401C142.674 233.593 142.81 233.783 142.989 233.97C143.168 234.162 143.409 234.32 143.711 234.443C144.018 234.571 144.404 234.635 144.868 234.635C145.525 234.635 146.068 234.475 146.498 234.156C146.929 233.84 147.144 233.32 147.144 232.596V230.736H147.029C146.909 230.974 146.735 231.219 146.505 231.471C146.279 231.722 145.978 231.933 145.603 232.104C145.233 232.274 144.766 232.359 144.203 232.359C143.449 232.359 142.765 232.183 142.152 231.829C141.542 231.471 141.056 230.938 140.694 230.231C140.336 229.519 140.157 228.629 140.157 227.559C140.157 226.481 140.336 225.571 140.694 224.83C141.056 224.084 141.544 223.519 142.158 223.136C142.772 222.748 143.456 222.554 144.21 222.554C144.785 222.554 145.258 222.652 145.629 222.848C146.004 223.04 146.302 223.272 146.524 223.545C146.745 223.813 146.914 224.067 147.029 224.305H147.157V222.682H149.439V232.66C149.439 233.499 149.238 234.194 148.838 234.744C148.437 235.293 147.89 235.705 147.195 235.977C146.5 236.25 145.712 236.386 144.83 236.386ZM144.849 230.544C145.339 230.544 145.757 230.425 146.102 230.186C146.447 229.947 146.709 229.604 146.888 229.157C147.067 228.71 147.157 228.173 147.157 227.546C147.157 226.928 147.067 226.387 146.888 225.923C146.713 225.458 146.453 225.098 146.108 224.842C145.767 224.582 145.348 224.452 144.849 224.452C144.333 224.452 143.903 224.587 143.558 224.855C143.213 225.124 142.953 225.492 142.778 225.961C142.603 226.425 142.516 226.954 142.516 227.546C142.516 228.147 142.603 228.673 142.778 229.125C142.957 229.572 143.219 229.922 143.564 230.173C143.914 230.42 144.342 230.544 144.849 230.544ZM154.124 226.747V232.5H151.81V222.682H154.022V224.35H154.137C154.363 223.8 154.723 223.364 155.217 223.04C155.716 222.716 156.331 222.554 157.064 222.554C157.742 222.554 158.332 222.699 158.835 222.989C159.342 223.278 159.734 223.698 160.011 224.248C160.292 224.798 160.431 225.464 160.426 226.249V232.5H158.113V226.607C158.113 225.95 157.942 225.437 157.601 225.066C157.265 224.695 156.798 224.51 156.201 224.51C155.797 224.51 155.436 224.599 155.121 224.778C154.81 224.953 154.565 225.207 154.386 225.539C154.211 225.871 154.124 226.274 154.124 226.747ZM171.156 232.692C170.261 232.692 169.491 232.53 168.848 232.206C168.205 231.882 167.708 231.445 167.359 230.896C167.013 230.342 166.841 229.717 166.841 229.023C166.841 228.499 166.947 228.034 167.161 227.629C167.378 227.224 167.676 226.849 168.055 226.504C168.439 226.159 168.882 225.816 169.385 225.475L171.705 223.896C172.046 223.675 172.304 223.44 172.479 223.193C172.658 222.946 172.747 222.656 172.747 222.324C172.747 222.043 172.628 221.776 172.389 221.525C172.155 221.273 171.831 221.148 171.418 221.148C171.141 221.148 170.896 221.214 170.683 221.346C170.474 221.474 170.31 221.642 170.19 221.851C170.075 222.06 170.018 222.281 170.018 222.516C170.018 222.801 170.097 223.091 170.254 223.385C170.416 223.679 170.625 223.984 170.881 224.299C171.141 224.614 171.418 224.949 171.712 225.303L177.854 232.5H175.349L170.248 226.658C169.869 226.214 169.502 225.778 169.148 225.347C168.799 224.917 168.511 224.469 168.286 224.005C168.064 223.536 167.953 223.029 167.953 222.484C167.953 221.866 168.096 221.314 168.381 220.828C168.667 220.338 169.065 219.952 169.577 219.671C170.092 219.39 170.695 219.249 171.386 219.249C172.076 219.249 172.668 219.386 173.163 219.658C173.657 219.931 174.038 220.293 174.307 220.745C174.575 221.197 174.71 221.689 174.71 222.222C174.71 222.839 174.556 223.393 174.249 223.884C173.942 224.369 173.516 224.81 172.971 225.207L170.325 227.143C169.89 227.459 169.579 227.778 169.391 228.102C169.204 228.422 169.11 228.695 169.11 228.92C169.11 229.266 169.197 229.579 169.372 229.86C169.547 230.141 169.792 230.367 170.107 230.538C170.427 230.704 170.8 230.787 171.226 230.787C171.695 230.787 172.157 230.683 172.613 230.474C173.069 230.261 173.484 229.958 173.859 229.566C174.234 229.174 174.533 228.705 174.754 228.16C174.976 227.61 175.087 227.001 175.087 226.332H177.075C177.075 227.158 176.983 227.879 176.8 228.492C176.616 229.102 176.38 229.617 176.09 230.039C175.8 230.457 175.494 230.791 175.17 231.043C175.067 231.115 174.969 231.188 174.876 231.26C174.782 231.332 174.684 231.405 174.582 231.477C174.121 231.895 173.582 232.202 172.964 232.398C172.351 232.594 171.748 232.692 171.156 232.692ZM183.746 232.5V219.409H188.655C189.661 219.409 190.505 219.597 191.187 219.972C191.873 220.347 192.39 220.862 192.74 221.518C193.094 222.17 193.27 222.912 193.27 223.743C193.27 224.582 193.094 225.328 192.74 225.98C192.386 226.632 191.864 227.146 191.174 227.521C190.483 227.891 189.633 228.077 188.623 228.077H185.37V226.127H188.304C188.892 226.127 189.373 226.025 189.748 225.82C190.123 225.616 190.4 225.335 190.579 224.977C190.763 224.619 190.854 224.207 190.854 223.743C190.854 223.278 190.763 222.869 190.579 222.516C190.4 222.162 190.121 221.887 189.742 221.691C189.367 221.491 188.883 221.391 188.291 221.391H186.118V232.5H183.746ZM195.228 232.5V222.682H197.472V224.318H197.574C197.753 223.751 198.06 223.315 198.494 223.008C198.933 222.697 199.434 222.541 199.996 222.541C200.124 222.541 200.267 222.548 200.425 222.56C200.587 222.569 200.721 222.584 200.827 222.605V224.734C200.729 224.7 200.574 224.67 200.361 224.644C200.152 224.614 199.95 224.599 199.754 224.599C199.332 224.599 198.952 224.691 198.616 224.874C198.283 225.053 198.021 225.303 197.83 225.622C197.638 225.942 197.542 226.31 197.542 226.728V232.5H195.228ZM206.243 232.692C205.284 232.692 204.453 232.481 203.75 232.059C203.047 231.637 202.502 231.047 202.114 230.288C201.73 229.53 201.539 228.643 201.539 227.629C201.539 226.615 201.73 225.727 202.114 224.964C202.502 224.201 203.047 223.609 203.75 223.187C204.453 222.765 205.284 222.554 206.243 222.554C207.202 222.554 208.033 222.765 208.736 223.187C209.439 223.609 209.982 224.201 210.366 224.964C210.754 225.727 210.948 226.615 210.948 227.629C210.948 228.643 210.754 229.53 210.366 230.288C209.982 231.047 209.439 231.637 208.736 232.059C208.033 232.481 207.202 232.692 206.243 232.692ZM206.256 230.838C206.776 230.838 207.21 230.695 207.56 230.41C207.909 230.12 208.169 229.732 208.34 229.246C208.514 228.761 208.602 228.219 208.602 227.623C208.602 227.022 208.514 226.479 208.34 225.993C208.169 225.503 207.909 225.113 207.56 224.823C207.21 224.533 206.776 224.388 206.256 224.388C205.723 224.388 205.28 224.533 204.926 224.823C204.577 225.113 204.315 225.503 204.14 225.993C203.97 226.479 203.884 227.022 203.884 227.623C203.884 228.219 203.97 228.761 204.14 229.246C204.315 229.732 204.577 230.12 204.926 230.41C205.28 230.695 205.723 230.838 206.256 230.838ZM217.814 222.682V224.472H212.17V222.682H217.814ZM213.564 220.33H215.877V229.547C215.877 229.858 215.924 230.097 216.018 230.263C216.116 230.425 216.244 230.536 216.402 230.595C216.559 230.655 216.734 230.685 216.926 230.685C217.071 230.685 217.203 230.674 217.322 230.653C217.446 230.631 217.539 230.612 217.603 230.595L217.993 232.404C217.87 232.447 217.693 232.494 217.463 232.545C217.237 232.596 216.96 232.626 216.632 232.634C216.052 232.651 215.53 232.564 215.066 232.372C214.601 232.176 214.233 231.874 213.96 231.464C213.691 231.055 213.559 230.544 213.564 229.93V220.33ZM223.927 232.692C222.968 232.692 222.137 232.481 221.434 232.059C220.731 231.637 220.185 231.047 219.797 230.288C219.414 229.53 219.222 228.643 219.222 227.629C219.222 226.615 219.414 225.727 219.797 224.964C220.185 224.201 220.731 223.609 221.434 223.187C222.137 222.765 222.968 222.554 223.927 222.554C224.885 222.554 225.716 222.765 226.42 223.187C227.123 223.609 227.666 224.201 228.05 224.964C228.437 225.727 228.631 226.615 228.631 227.629C228.631 228.643 228.437 229.53 228.05 230.288C227.666 231.047 227.123 231.637 226.42 232.059C225.716 232.481 224.885 232.692 223.927 232.692ZM223.939 230.838C224.459 230.838 224.894 230.695 225.243 230.41C225.593 230.12 225.853 229.732 226.023 229.246C226.198 228.761 226.285 228.219 226.285 227.623C226.285 227.022 226.198 226.479 226.023 225.993C225.853 225.503 225.593 225.113 225.243 224.823C224.894 224.533 224.459 224.388 223.939 224.388C223.407 224.388 222.964 224.533 222.61 224.823C222.26 225.113 221.998 225.503 221.824 225.993C221.653 226.479 221.568 227.022 221.568 227.623C221.568 228.219 221.653 228.761 221.824 229.246C221.998 229.732 222.26 230.12 222.61 230.41C222.964 230.695 223.407 230.838 223.939 230.838ZM235.498 222.682V224.472H229.854V222.682H235.498ZM231.247 220.33H233.561V229.547C233.561 229.858 233.608 230.097 233.702 230.263C233.8 230.425 233.928 230.536 234.085 230.595C234.243 230.655 234.418 230.685 234.609 230.685C234.754 230.685 234.886 230.674 235.006 230.653C235.129 230.631 235.223 230.612 235.287 230.595L235.677 232.404C235.553 232.447 235.376 232.494 235.146 232.545C234.92 232.596 234.643 232.626 234.315 232.634C233.736 232.651 233.214 232.564 232.749 232.372C232.285 232.176 231.916 231.874 231.643 231.464C231.375 231.055 231.243 230.544 231.247 229.93V220.33ZM238.871 236.182C238.556 236.182 238.264 236.156 237.996 236.105C237.731 236.058 237.52 236.003 237.363 235.939L237.9 234.136C238.236 234.234 238.537 234.281 238.801 234.277C239.065 234.273 239.297 234.19 239.498 234.028C239.702 233.87 239.875 233.606 240.015 233.235L240.214 232.705L236.653 222.682H239.108L241.371 230.097H241.473L243.742 222.682H246.203L242.272 233.689C242.089 234.209 241.846 234.654 241.543 235.025C241.241 235.4 240.87 235.685 240.431 235.881C239.996 236.082 239.476 236.182 238.871 236.182ZM247.804 236.182V222.682H250.08V224.305H250.214C250.333 224.067 250.502 223.813 250.719 223.545C250.936 223.272 251.23 223.04 251.601 222.848C251.972 222.652 252.445 222.554 253.02 222.554C253.779 222.554 254.463 222.748 255.072 223.136C255.686 223.519 256.171 224.088 256.529 224.842C256.892 225.592 257.073 226.513 257.073 227.604C257.073 228.682 256.896 229.598 256.542 230.352C256.188 231.107 255.707 231.682 255.097 232.078C254.488 232.474 253.798 232.673 253.026 232.673C252.464 232.673 251.997 232.579 251.627 232.391C251.256 232.204 250.958 231.978 250.732 231.714C250.51 231.445 250.338 231.192 250.214 230.953H250.118V236.182H247.804ZM250.073 227.591C250.073 228.226 250.163 228.782 250.342 229.259C250.525 229.737 250.787 230.109 251.128 230.378C251.473 230.642 251.891 230.774 252.381 230.774C252.892 230.774 253.32 230.638 253.666 230.365C254.011 230.088 254.271 229.711 254.445 229.234C254.624 228.752 254.714 228.205 254.714 227.591C254.714 226.982 254.627 226.44 254.452 225.967C254.277 225.494 254.017 225.124 253.672 224.855C253.327 224.587 252.896 224.452 252.381 224.452C251.887 224.452 251.467 224.582 251.122 224.842C250.776 225.102 250.514 225.467 250.335 225.935C250.161 226.404 250.073 226.956 250.073 227.591ZM259.054 232.5V222.682H261.368V232.5H259.054ZM260.218 221.288C259.851 221.288 259.536 221.167 259.271 220.924C259.007 220.677 258.875 220.381 258.875 220.036C258.875 219.686 259.007 219.39 259.271 219.147C259.536 218.9 259.851 218.776 260.218 218.776C260.588 218.776 260.904 218.9 261.164 219.147C261.428 219.39 261.56 219.686 261.56 220.036C261.56 220.381 261.428 220.677 261.164 220.924C260.904 221.167 260.588 221.288 260.218 221.288ZM266.061 226.747V232.5H263.748V222.682H265.959V224.35H266.074C266.3 223.8 266.66 223.364 267.154 223.04C267.653 222.716 268.269 222.554 269.002 222.554C269.679 222.554 270.27 222.699 270.772 222.989C271.279 223.278 271.672 223.698 271.949 224.248C272.23 224.798 272.368 225.464 272.364 226.249V232.5H270.05V226.607C270.05 225.95 269.88 225.437 269.539 225.066C269.202 224.695 268.735 224.51 268.139 224.51C267.734 224.51 267.374 224.599 267.059 224.778C266.748 224.953 266.502 225.207 266.324 225.539C266.149 225.871 266.061 226.274 266.061 226.747ZM278.986 236.386C278.155 236.386 277.441 236.273 276.845 236.048C276.248 235.826 275.769 235.528 275.407 235.153C275.044 234.778 274.793 234.362 274.652 233.906L276.736 233.401C276.83 233.593 276.966 233.783 277.145 233.97C277.324 234.162 277.565 234.32 277.868 234.443C278.174 234.571 278.56 234.635 279.025 234.635C279.681 234.635 280.224 234.475 280.654 234.156C281.085 233.84 281.3 233.32 281.3 232.596V230.736H281.185C281.066 230.974 280.891 231.219 280.661 231.471C280.435 231.722 280.135 231.933 279.76 232.104C279.389 232.274 278.922 232.359 278.36 232.359C277.605 232.359 276.922 232.183 276.308 231.829C275.699 231.471 275.213 230.938 274.85 230.231C274.493 229.519 274.314 228.629 274.314 227.559C274.314 226.481 274.493 225.571 274.85 224.83C275.213 224.084 275.701 223.519 276.314 223.136C276.928 222.748 277.612 222.554 278.366 222.554C278.941 222.554 279.414 222.652 279.785 222.848C280.16 223.04 280.458 223.272 280.68 223.545C280.902 223.813 281.07 224.067 281.185 224.305H281.313V222.682H283.595V232.66C283.595 233.499 283.395 234.194 282.994 234.744C282.593 235.293 282.046 235.705 281.351 235.977C280.657 236.25 279.868 236.386 278.986 236.386ZM279.005 230.544C279.495 230.544 279.913 230.425 280.258 230.186C280.603 229.947 280.865 229.604 281.044 229.157C281.223 228.71 281.313 228.173 281.313 227.546C281.313 226.928 281.223 226.387 281.044 225.923C280.87 225.458 280.61 225.098 280.265 224.842C279.924 224.582 279.504 224.452 279.005 224.452C278.49 224.452 278.059 224.587 277.714 224.855C277.369 225.124 277.109 225.492 276.934 225.961C276.76 226.425 276.672 226.954 276.672 227.546C276.672 228.147 276.76 228.673 276.934 229.125C277.113 229.572 277.375 229.922 277.721 230.173C278.07 230.42 278.498 230.544 279.005 230.544Z" fill="white"/>
<rect x="0.5" y="200.5" width="326" height="47" stroke="#8D1CFE" stroke-opacity="0.25"/>
<line x1="163" y1="299" x2="163" y2="249" stroke="#9747FF"/>
<path d="M48.0021 331.249C46.9496 331.249 46.0462 330.983 45.2919 330.45C44.5419 329.913 43.9645 329.14 43.5597 328.13C43.1591 327.116 42.9588 325.895 42.9588 324.467C42.9631 323.04 43.1655 321.825 43.5661 320.824C43.9709 319.818 44.5483 319.051 45.2983 318.523C46.0526 317.994 46.9538 317.73 48.0021 317.73C49.0504 317.73 49.9517 317.994 50.706 318.523C51.4602 319.051 52.0376 319.818 52.4382 320.824C52.843 321.83 53.0455 323.044 53.0455 324.467C53.0455 325.899 52.843 327.122 52.4382 328.136C52.0376 329.146 51.4602 329.918 50.706 330.45C49.956 330.983 49.0547 331.249 48.0021 331.249ZM48.0021 329.249C48.8203 329.249 49.4659 328.846 49.9389 328.04C50.4162 327.231 50.6548 326.04 50.6548 324.467C50.6548 323.428 50.5462 322.554 50.3288 321.847C50.1115 321.139 49.8047 320.607 49.4084 320.249C49.0121 319.886 48.5433 319.705 48.0021 319.705C47.1882 319.705 46.5447 320.11 46.0717 320.92C45.5987 321.725 45.3601 322.908 45.3558 324.467C45.3516 325.511 45.456 326.389 45.669 327.101C45.8864 327.812 46.1932 328.349 46.5895 328.712C46.9858 329.07 47.4567 329.249 48.0021 329.249ZM54.9327 328.571V326.685L60.4874 317.909H62.0598V320.594H61.101L57.3617 326.519V326.621H65.1152V328.571H54.9327ZM61.1777 331V327.996L61.2033 327.152V317.909H63.4405V331H61.1777ZM76.9917 317.295L72.7729 332.969H70.7466L74.9654 317.295H76.9917ZM91.2875 317.909H93.6589V326.462C93.6589 327.399 93.4373 328.224 92.9941 328.935C92.5552 329.647 91.9373 330.203 91.1404 330.604C90.3436 331 89.4125 331.198 88.3471 331.198C87.2775 331.198 86.3443 331 85.5474 330.604C84.7505 330.203 84.1326 329.647 83.6937 328.935C83.2548 328.224 83.0353 327.399 83.0353 326.462V317.909H85.4068V326.263C85.4068 326.809 85.5261 327.295 85.7647 327.721C86.0076 328.147 86.3485 328.482 86.7875 328.724C87.2264 328.963 87.7463 329.082 88.3471 329.082C88.948 329.082 89.4679 328.963 89.9068 328.724C90.35 328.482 90.6909 328.147 90.9295 327.721C91.1681 327.295 91.2875 326.809 91.2875 326.263V317.909ZM103.894 323.777L101.785 324.007C101.725 323.794 101.621 323.594 101.472 323.406C101.327 323.219 101.131 323.067 100.884 322.952C100.636 322.837 100.334 322.78 99.9759 322.78C99.4943 322.78 99.0895 322.884 98.7614 323.093C98.4375 323.302 98.2777 323.572 98.282 323.905C98.2777 324.19 98.3821 324.423 98.5952 324.602C98.8125 324.781 99.1705 324.928 99.669 325.043L101.344 325.401C102.273 325.601 102.963 325.918 103.415 326.353C103.871 326.788 104.101 327.357 104.105 328.06C104.101 328.678 103.92 329.223 103.562 329.696C103.208 330.165 102.716 330.531 102.085 330.795C101.455 331.06 100.73 331.192 99.9119 331.192C98.7102 331.192 97.7429 330.94 97.0099 330.438C96.277 329.93 95.8402 329.225 95.6996 328.322L97.956 328.104C98.0582 328.548 98.2756 328.882 98.608 329.108C98.9403 329.334 99.3729 329.447 99.9055 329.447C100.455 329.447 100.896 329.334 101.229 329.108C101.565 328.882 101.734 328.603 101.734 328.271C101.734 327.989 101.625 327.757 101.408 327.574C101.195 327.391 100.862 327.25 100.411 327.152L98.7358 326.8C97.794 326.604 97.0973 326.274 96.6456 325.81C96.1939 325.341 95.9702 324.749 95.9744 324.033C95.9702 323.428 96.1342 322.903 96.4666 322.46C96.8033 322.013 97.2699 321.668 97.8665 321.425C98.4673 321.178 99.1598 321.054 99.9439 321.054C101.094 321.054 102 321.299 102.661 321.789C103.325 322.279 103.737 322.942 103.894 323.777ZM110.36 331.192C109.375 331.192 108.525 330.987 107.809 330.578C107.098 330.165 106.55 329.581 106.167 328.827C105.783 328.068 105.591 327.175 105.591 326.148C105.591 325.138 105.783 324.252 106.167 323.489C106.554 322.722 107.096 322.126 107.79 321.7C108.485 321.269 109.301 321.054 110.238 321.054C110.843 321.054 111.414 321.152 111.951 321.348C112.493 321.54 112.97 321.838 113.383 322.243C113.801 322.648 114.129 323.163 114.368 323.79C114.606 324.412 114.725 325.153 114.725 326.014V326.724H106.678V325.164H112.507C112.503 324.721 112.407 324.327 112.22 323.982C112.032 323.632 111.77 323.357 111.434 323.157C111.101 322.957 110.713 322.857 110.27 322.857C109.797 322.857 109.382 322.972 109.024 323.202C108.666 323.428 108.387 323.726 108.186 324.097C107.99 324.463 107.89 324.866 107.886 325.305V326.666C107.886 327.237 107.99 327.727 108.199 328.136C108.408 328.541 108.7 328.852 109.075 329.07C109.45 329.283 109.889 329.389 110.392 329.389C110.728 329.389 111.033 329.342 111.306 329.249C111.578 329.151 111.815 329.008 112.015 328.82C112.216 328.633 112.367 328.401 112.469 328.124L114.63 328.366C114.493 328.937 114.233 329.436 113.85 329.862C113.471 330.284 112.985 330.612 112.392 330.847C111.8 331.077 111.123 331.192 110.36 331.192ZM116.683 331V321.182H118.927V322.818H119.029C119.208 322.251 119.515 321.815 119.949 321.508C120.388 321.197 120.889 321.041 121.452 321.041C121.579 321.041 121.722 321.048 121.88 321.06C122.042 321.069 122.176 321.084 122.282 321.105V323.234C122.184 323.2 122.029 323.17 121.816 323.144C121.607 323.114 121.405 323.099 121.209 323.099C120.787 323.099 120.407 323.191 120.071 323.374C119.738 323.553 119.476 323.803 119.285 324.122C119.093 324.442 118.997 324.81 118.997 325.228V331H116.683ZM127.812 319.897V317.909H138.256V319.897H134.21V331H131.858V319.897H127.812ZM143.09 331.192C142.106 331.192 141.256 330.987 140.54 330.578C139.828 330.165 139.281 329.581 138.897 328.827C138.513 328.068 138.322 327.175 138.322 326.148C138.322 325.138 138.513 324.252 138.897 323.489C139.285 322.722 139.826 322.126 140.521 321.7C141.215 321.269 142.031 321.054 142.969 321.054C143.574 321.054 144.145 321.152 144.682 321.348C145.223 321.54 145.7 321.838 146.114 322.243C146.531 322.648 146.859 323.163 147.098 323.79C147.337 324.412 147.456 325.153 147.456 326.014V326.724H139.408V325.164H145.238C145.234 324.721 145.138 324.327 144.95 323.982C144.763 323.632 144.501 323.357 144.164 323.157C143.832 322.957 143.444 322.857 143.001 322.857C142.528 322.857 142.112 322.972 141.754 323.202C141.396 323.428 141.117 323.726 140.917 324.097C140.721 324.463 140.621 324.866 140.616 325.305V326.666C140.616 327.237 140.721 327.727 140.93 328.136C141.138 328.541 141.43 328.852 141.805 329.07C142.18 329.283 142.619 329.389 143.122 329.389C143.459 329.389 143.763 329.342 144.036 329.249C144.309 329.151 144.545 329.008 144.746 328.82C144.946 328.633 145.097 328.401 145.2 328.124L147.36 328.366C147.224 328.937 146.964 329.436 146.58 329.862C146.201 330.284 145.715 330.612 145.123 330.847C144.531 331.077 143.853 331.192 143.09 331.192ZM157.173 323.777L155.064 324.007C155.004 323.794 154.9 323.594 154.751 323.406C154.606 323.219 154.41 323.067 154.163 322.952C153.916 322.837 153.613 322.78 153.255 322.78C152.774 322.78 152.369 322.884 152.041 323.093C151.717 323.302 151.557 323.572 151.561 323.905C151.557 324.19 151.661 324.423 151.874 324.602C152.092 324.781 152.45 324.928 152.948 325.043L154.623 325.401C155.552 325.601 156.242 325.918 156.694 326.353C157.15 326.788 157.38 327.357 157.384 328.06C157.38 328.678 157.199 329.223 156.841 329.696C156.487 330.165 155.995 330.531 155.365 330.795C154.734 331.06 154.009 331.192 153.191 331.192C151.99 331.192 151.022 330.94 150.289 330.438C149.556 329.93 149.119 329.225 148.979 328.322L151.235 328.104C151.338 328.548 151.555 328.882 151.887 329.108C152.22 329.334 152.652 329.447 153.185 329.447C153.735 329.447 154.176 329.334 154.508 329.108C154.845 328.882 155.013 328.603 155.013 328.271C155.013 327.989 154.904 327.757 154.687 327.574C154.474 327.391 154.142 327.25 153.69 327.152L152.015 326.8C151.073 326.604 150.377 326.274 149.925 325.81C149.473 325.341 149.249 324.749 149.254 324.033C149.249 323.428 149.414 322.903 149.746 322.46C150.083 322.013 150.549 321.668 151.146 321.425C151.747 321.178 152.439 321.054 153.223 321.054C154.374 321.054 155.279 321.299 155.94 321.789C156.605 322.279 157.016 322.942 157.173 323.777ZM164.195 321.182V322.972H158.551V321.182H164.195ZM159.944 318.83H162.258V328.047C162.258 328.358 162.305 328.597 162.399 328.763C162.497 328.925 162.625 329.036 162.782 329.095C162.94 329.155 163.115 329.185 163.307 329.185C163.452 329.185 163.584 329.174 163.703 329.153C163.827 329.131 163.92 329.112 163.984 329.095L164.374 330.904C164.251 330.947 164.074 330.994 163.844 331.045C163.618 331.096 163.341 331.126 163.013 331.134C162.433 331.151 161.911 331.064 161.447 330.872C160.982 330.676 160.613 330.374 160.341 329.964C160.072 329.555 159.94 329.044 159.944 328.43V318.83ZM166.13 331V321.182H168.444V331H166.13ZM167.294 319.788C166.927 319.788 166.612 319.667 166.348 319.424C166.083 319.177 165.951 318.881 165.951 318.536C165.951 318.186 166.083 317.89 166.348 317.647C166.612 317.4 166.927 317.276 167.294 317.276C167.664 317.276 167.98 317.4 168.24 317.647C168.504 317.89 168.636 318.186 168.636 318.536C168.636 318.881 168.504 319.177 168.24 319.424C167.98 319.667 167.664 319.788 167.294 319.788ZM173.138 325.247V331H170.824V321.182H173.035V322.85H173.15C173.376 322.3 173.736 321.864 174.231 321.54C174.729 321.216 175.345 321.054 176.078 321.054C176.756 321.054 177.346 321.199 177.849 321.489C178.356 321.778 178.748 322.198 179.025 322.748C179.306 323.298 179.444 323.964 179.44 324.749V331H177.126V325.107C177.126 324.45 176.956 323.937 176.615 323.566C176.278 323.195 175.812 323.01 175.215 323.01C174.81 323.01 174.45 323.099 174.135 323.278C173.824 323.453 173.579 323.707 173.4 324.039C173.225 324.371 173.138 324.774 173.138 325.247ZM186.062 334.886C185.231 334.886 184.518 334.773 183.921 334.548C183.324 334.326 182.845 334.028 182.483 333.653C182.121 333.278 181.869 332.862 181.729 332.406L183.812 331.901C183.906 332.093 184.042 332.283 184.221 332.47C184.4 332.662 184.641 332.82 184.944 332.943C185.251 333.071 185.636 333.135 186.101 333.135C186.757 333.135 187.3 332.975 187.731 332.656C188.161 332.34 188.376 331.82 188.376 331.096V329.236H188.261C188.142 329.474 187.967 329.719 187.737 329.971C187.511 330.222 187.211 330.433 186.836 330.604C186.465 330.774 185.998 330.859 185.436 330.859C184.682 330.859 183.998 330.683 183.384 330.329C182.775 329.971 182.289 329.438 181.927 328.731C181.569 328.019 181.39 327.129 181.39 326.059C181.39 324.981 181.569 324.071 181.927 323.33C182.289 322.584 182.777 322.019 183.39 321.636C184.004 321.248 184.688 321.054 185.442 321.054C186.018 321.054 186.491 321.152 186.861 321.348C187.236 321.54 187.535 321.772 187.756 322.045C187.978 322.313 188.146 322.567 188.261 322.805H188.389V321.182H190.671V331.16C190.671 331.999 190.471 332.694 190.07 333.244C189.67 333.793 189.122 334.205 188.427 334.477C187.733 334.75 186.944 334.886 186.062 334.886ZM186.081 329.044C186.572 329.044 186.989 328.925 187.334 328.686C187.68 328.447 187.942 328.104 188.121 327.657C188.3 327.21 188.389 326.673 188.389 326.046C188.389 325.428 188.3 324.887 188.121 324.423C187.946 323.958 187.686 323.598 187.341 323.342C187 323.082 186.58 322.952 186.081 322.952C185.566 322.952 185.135 323.087 184.79 323.355C184.445 323.624 184.185 323.992 184.01 324.461C183.836 324.925 183.748 325.454 183.748 326.046C183.748 326.647 183.836 327.173 184.01 327.625C184.189 328.072 184.452 328.422 184.797 328.673C185.146 328.92 185.574 329.044 186.081 329.044ZM201.419 331.192C200.524 331.192 199.755 331.03 199.112 330.706C198.468 330.382 197.972 329.945 197.622 329.396C197.277 328.842 197.105 328.217 197.105 327.523C197.105 326.999 197.211 326.534 197.424 326.129C197.642 325.724 197.94 325.349 198.319 325.004C198.703 324.659 199.146 324.316 199.649 323.975L201.969 322.396C202.31 322.175 202.568 321.94 202.742 321.693C202.921 321.446 203.011 321.156 203.011 320.824C203.011 320.543 202.892 320.276 202.653 320.025C202.419 319.773 202.095 319.648 201.681 319.648C201.404 319.648 201.159 319.714 200.946 319.846C200.737 319.974 200.573 320.142 200.454 320.351C200.339 320.56 200.281 320.781 200.281 321.016C200.281 321.301 200.36 321.591 200.518 321.885C200.68 322.179 200.889 322.484 201.144 322.799C201.404 323.114 201.681 323.449 201.975 323.803L208.118 331H205.612L200.512 325.158C200.132 324.714 199.766 324.278 199.412 323.847C199.063 323.417 198.775 322.969 198.549 322.505C198.328 322.036 198.217 321.529 198.217 320.984C198.217 320.366 198.36 319.814 198.645 319.328C198.931 318.838 199.329 318.452 199.84 318.171C200.356 317.89 200.959 317.749 201.649 317.749C202.34 317.749 202.932 317.886 203.426 318.158C203.921 318.431 204.302 318.793 204.57 319.245C204.839 319.697 204.973 320.189 204.973 320.722C204.973 321.339 204.82 321.893 204.513 322.384C204.206 322.869 203.78 323.31 203.235 323.707L200.588 325.643C200.154 325.959 199.843 326.278 199.655 326.602C199.468 326.922 199.374 327.195 199.374 327.42C199.374 327.766 199.461 328.079 199.636 328.36C199.811 328.641 200.056 328.867 200.371 329.038C200.691 329.204 201.063 329.287 201.49 329.287C201.958 329.287 202.421 329.183 202.877 328.974C203.333 328.761 203.748 328.458 204.123 328.066C204.498 327.674 204.796 327.205 205.018 326.66C205.24 326.11 205.35 325.501 205.35 324.832H207.338C207.338 325.658 207.247 326.379 207.063 326.992C206.88 327.602 206.644 328.117 206.354 328.539C206.064 328.957 205.757 329.291 205.433 329.543C205.331 329.615 205.233 329.688 205.139 329.76C205.046 329.832 204.948 329.905 204.845 329.977C204.385 330.395 203.846 330.702 203.228 330.898C202.615 331.094 202.012 331.192 201.419 331.192ZM216.381 317.909V331H214.01V317.909H216.381ZM223.75 321.182V322.972H218.106V321.182H223.75ZM219.499 318.83H221.813V328.047C221.813 328.358 221.86 328.597 221.954 328.763C222.052 328.925 222.18 329.036 222.337 329.095C222.495 329.155 222.67 329.185 222.861 329.185C223.006 329.185 223.138 329.174 223.258 329.153C223.381 329.131 223.475 329.112 223.539 329.095L223.929 330.904C223.805 330.947 223.628 330.994 223.398 331.045C223.172 331.096 222.895 331.126 222.567 331.134C221.988 331.151 221.466 331.064 221.001 330.872C220.537 330.676 220.168 330.374 219.895 329.964C219.627 329.555 219.495 329.044 219.499 328.43V318.83ZM229.926 331.192C228.942 331.192 228.092 330.987 227.376 330.578C226.664 330.165 226.116 329.581 225.733 328.827C225.349 328.068 225.158 327.175 225.158 326.148C225.158 325.138 225.349 324.252 225.733 323.489C226.121 322.722 226.662 322.126 227.357 321.7C228.051 321.269 228.867 321.054 229.805 321.054C230.41 321.054 230.981 321.152 231.518 321.348C232.059 321.54 232.536 321.838 232.95 322.243C233.367 322.648 233.695 323.163 233.934 323.79C234.173 324.412 234.292 325.153 234.292 326.014V326.724H226.244V325.164H232.074C232.07 324.721 231.974 324.327 231.786 323.982C231.599 323.632 231.337 323.357 231 323.157C230.668 322.957 230.28 322.857 229.837 322.857C229.364 322.857 228.948 322.972 228.59 323.202C228.232 323.428 227.953 323.726 227.753 324.097C227.557 324.463 227.457 324.866 227.452 325.305V326.666C227.452 327.237 227.557 327.727 227.766 328.136C227.974 328.541 228.266 328.852 228.641 329.07C229.016 329.283 229.455 329.389 229.958 329.389C230.295 329.389 230.599 329.342 230.872 329.249C231.145 329.151 231.381 329.008 231.582 328.82C231.782 328.633 231.933 328.401 232.036 328.124L234.196 328.366C234.06 328.937 233.8 329.436 233.416 329.862C233.037 330.284 232.551 330.612 231.959 330.847C231.366 331.077 230.689 331.192 229.926 331.192ZM236.249 331V321.182H238.493V322.818H238.595C238.774 322.251 239.081 321.815 239.516 321.508C239.955 321.197 240.455 321.041 241.018 321.041C241.146 321.041 241.289 321.048 241.446 321.06C241.608 321.069 241.742 321.084 241.849 321.105V323.234C241.751 323.2 241.595 323.17 241.382 323.144C241.173 323.114 240.971 323.099 240.775 323.099C240.353 323.099 239.974 323.191 239.637 323.374C239.305 323.553 239.043 323.803 238.851 324.122C238.659 324.442 238.563 324.81 238.563 325.228V331H236.249ZM246.036 331.198C245.414 331.198 244.853 331.087 244.355 330.866C243.86 330.64 243.468 330.308 243.178 329.869C242.893 329.43 242.75 328.888 242.75 328.245C242.75 327.691 242.852 327.233 243.057 326.871C243.262 326.509 243.541 326.219 243.894 326.001C244.248 325.784 244.646 325.62 245.09 325.509C245.537 325.394 245.999 325.311 246.477 325.26C247.052 325.2 247.519 325.147 247.877 325.1C248.235 325.049 248.494 324.972 248.656 324.87C248.823 324.763 248.906 324.599 248.906 324.378V324.339C248.906 323.858 248.763 323.485 248.477 323.221C248.192 322.957 247.781 322.825 247.244 322.825C246.677 322.825 246.227 322.948 245.895 323.195C245.567 323.442 245.345 323.734 245.23 324.071L243.07 323.764C243.24 323.168 243.521 322.669 243.914 322.268C244.306 321.864 244.785 321.561 245.352 321.361C245.919 321.156 246.545 321.054 247.231 321.054C247.704 321.054 248.175 321.109 248.644 321.22C249.112 321.331 249.541 321.514 249.928 321.77C250.316 322.021 250.627 322.364 250.862 322.799C251.1 323.234 251.22 323.777 251.22 324.429V331H248.995V329.651H248.919C248.778 329.924 248.58 330.18 248.324 330.418C248.073 330.653 247.755 330.842 247.372 330.987C246.992 331.128 246.547 331.198 246.036 331.198ZM246.637 329.498C247.101 329.498 247.504 329.406 247.845 329.223C248.186 329.036 248.448 328.788 248.631 328.482C248.818 328.175 248.912 327.84 248.912 327.478V326.321C248.84 326.381 248.716 326.436 248.541 326.487C248.371 326.538 248.179 326.583 247.966 326.621C247.753 326.66 247.542 326.694 247.333 326.724C247.124 326.754 246.943 326.779 246.79 326.8C246.445 326.847 246.136 326.924 245.863 327.031C245.59 327.137 245.375 327.286 245.218 327.478C245.06 327.665 244.981 327.908 244.981 328.207C244.981 328.633 245.137 328.955 245.448 329.172C245.759 329.389 246.155 329.498 246.637 329.498ZM258.449 321.182V322.972H252.805V321.182H258.449ZM254.198 318.83H256.512V328.047C256.512 328.358 256.559 328.597 256.653 328.763C256.751 328.925 256.879 329.036 257.036 329.095C257.194 329.155 257.369 329.185 257.561 329.185C257.705 329.185 257.838 329.174 257.957 329.153C258.08 329.131 258.174 329.112 258.238 329.095L258.628 330.904C258.504 330.947 258.328 330.994 258.097 331.045C257.872 331.096 257.595 331.126 257.267 331.134C256.687 331.151 256.165 331.064 255.7 330.872C255.236 330.676 254.867 330.374 254.595 329.964C254.326 329.555 254.194 329.044 254.198 328.43V318.83ZM260.384 331V321.182H262.698V331H260.384ZM261.548 319.788C261.181 319.788 260.866 319.667 260.602 319.424C260.337 319.177 260.205 318.881 260.205 318.536C260.205 318.186 260.337 317.89 260.602 317.647C260.866 317.4 261.181 317.276 261.548 317.276C261.918 317.276 262.234 317.4 262.494 317.647C262.758 317.89 262.89 318.186 262.89 318.536C262.89 318.881 262.758 319.177 262.494 319.424C262.234 319.667 261.918 319.788 261.548 319.788ZM269.36 331.192C268.401 331.192 267.57 330.981 266.867 330.559C266.164 330.137 265.619 329.547 265.231 328.788C264.847 328.03 264.656 327.143 264.656 326.129C264.656 325.115 264.847 324.227 265.231 323.464C265.619 322.701 266.164 322.109 266.867 321.687C267.57 321.265 268.401 321.054 269.36 321.054C270.319 321.054 271.15 321.265 271.853 321.687C272.556 322.109 273.1 322.701 273.483 323.464C273.871 324.227 274.065 325.115 274.065 326.129C274.065 327.143 273.871 328.03 273.483 328.788C273.1 329.547 272.556 330.137 271.853 330.559C271.15 330.981 270.319 331.192 269.36 331.192ZM269.373 329.338C269.893 329.338 270.328 329.195 270.677 328.91C271.026 328.62 271.286 328.232 271.457 327.746C271.632 327.261 271.719 326.719 271.719 326.123C271.719 325.522 271.632 324.979 271.457 324.493C271.286 324.003 271.026 323.613 270.677 323.323C270.328 323.033 269.893 322.888 269.373 322.888C268.84 322.888 268.397 323.033 268.044 323.323C267.694 323.613 267.432 324.003 267.257 324.493C267.087 324.979 267.002 325.522 267.002 326.123C267.002 326.719 267.087 327.261 267.257 327.746C267.432 328.232 267.694 328.62 268.044 328.91C268.397 329.195 268.84 329.338 269.373 329.338ZM278.343 325.247V331H276.029V321.182H278.24V322.85H278.355C278.581 322.3 278.941 321.864 279.436 321.54C279.934 321.216 280.55 321.054 281.283 321.054C281.961 321.054 282.551 321.199 283.054 321.489C283.561 321.778 283.953 322.198 284.23 322.748C284.511 323.298 284.65 323.964 284.645 324.749V331H282.331V325.107C282.331 324.45 282.161 323.937 281.82 323.566C281.483 323.195 281.017 323.01 280.42 323.01C280.015 323.01 279.655 323.099 279.34 323.278C279.029 323.453 278.784 323.707 278.605 324.039C278.43 324.371 278.343 324.774 278.343 325.247Z" fill="white"/>
<rect x="0.5" y="300.5" width="326" height="47" stroke="#8D1CFE" stroke-opacity="0.25"/>
</svg>
