<svg width="17" height="16" viewBox="0 0 17 16" fill="none" xmlns="http://www.w3.org/2000/svg">
<g id="bi:download" clip-path="url(#clip0_279_3965)">
<g id="Group">
<path id="Vector" d="M0.828125 9.90002C0.960733 9.90002 1.08791 9.9527 1.18168 10.0465C1.27545 10.1402 1.32812 10.2674 1.32812 10.4V12.9C1.32812 13.1652 1.43348 13.4196 1.62102 13.6071C1.80855 13.7947 2.06291 13.9 2.32812 13.9H14.3281C14.5933 13.9 14.8477 13.7947 15.0352 13.6071C15.2228 13.4196 15.3281 13.1652 15.3281 12.9V10.4C15.3281 10.2674 15.3808 10.1402 15.4746 10.0465C15.5683 9.9527 15.6955 9.90002 15.8281 9.90002C15.9607 9.90002 16.0879 9.9527 16.1817 10.0465C16.2754 10.1402 16.3281 10.2674 16.3281 10.4V12.9C16.3281 13.4305 16.1174 13.9392 15.7423 14.3142C15.3673 14.6893 14.8586 14.9 14.3281 14.9H2.32812C1.79769 14.9 1.28898 14.6893 0.913911 14.3142C0.538839 13.9392 0.328125 13.4305 0.328125 12.9V10.4C0.328125 10.2674 0.380803 10.1402 0.474572 10.0465C0.56834 9.9527 0.695517 9.90002 0.828125 9.90002Z" fill="white"/>
<path id="Vector_2" d="M7.97476 11.854C8.0212 11.9006 8.07638 11.9375 8.13712 11.9627C8.19787 11.9879 8.26299 12.0009 8.32876 12.0009C8.39452 12.0009 8.45964 11.9879 8.52039 11.9627C8.58114 11.9375 8.63631 11.9006 8.68276 11.854L11.6828 8.854C11.7766 8.76011 11.8294 8.63278 11.8294 8.5C11.8294 8.36722 11.7766 8.23989 11.6828 8.146C11.5889 8.05211 11.4615 7.99937 11.3288 7.99937C11.196 7.99937 11.0686 8.05211 10.9748 8.146L8.82876 10.293V1.5C8.82876 1.36739 8.77608 1.24021 8.68231 1.14645C8.58854 1.05268 8.46136 1 8.32876 1C8.19615 1 8.06897 1.05268 7.9752 1.14645C7.88144 1.24021 7.82876 1.36739 7.82876 1.5V10.293L5.68276 8.146C5.58887 8.05211 5.46153 7.99937 5.32876 7.99937C5.19598 7.99937 5.06864 8.05211 4.97476 8.146C4.88087 8.23989 4.82812 8.36722 4.82812 8.5C4.82812 8.63278 4.88087 8.76011 4.97476 8.854L7.97476 11.854Z" fill="white"/>
</g>
</g>
<defs>
<clipPath id="clip0_279_3965">
<rect width="16" height="16" fill="white" transform="translate(0.328125)"/>
</clipPath>
</defs>
</svg>
