<svg width="144" height="18" viewBox="0 0 144 18" fill="none" xmlns="http://www.w3.org/2000/svg">
<path d="M3.848 18C3.208 18 2.616 17.84 2.072 17.52C1.528 17.2 1.096 16.768 0.776 16.224C0.456 15.68 0.296 15.088 0.296 14.448V0.719999H4.016V14.256H13.808V0.719999H17.576V14.448C17.576 15.088 17.408 15.68 17.072 16.224C16.752 16.768 16.32 17.2 15.776 17.52C15.248 17.84 14.664 18 14.024 18H3.848ZM19.979 18V16.728L26.147 9.36L19.979 1.992V0.719999H23.843L28.643 6.408L33.395 0.719999H37.259V1.992L31.067 9.36L37.259 16.704V18H33.395L28.595 12.336L23.843 18H19.979ZM39.6476 18V14.328H43.3196V18H39.6476Z" fill="url(#paint0_linear_11_4137)"/>
<path d="M45.3211 18V0.719999H49.0411V7.488H59.2411V0.719999H62.9611V18H59.2411V11.232H49.0411V18H45.3211ZM65.7592 18V4.272C65.7592 3.616 65.9192 3.024 66.2392 2.496C66.5592 1.952 66.9912 1.52 67.5352 1.2C68.0792 0.879999 68.6712 0.719999 69.3112 0.719999H79.4632C80.1192 0.719999 80.7112 0.879999 81.2392 1.2C81.7832 1.52 82.2152 1.952 82.5352 2.496C82.8712 3.024 83.0392 3.616 83.0392 4.272V18H79.2712V12.432H69.4792V18H65.7592ZM69.4792 8.688H79.2712V4.464H69.4792V8.688ZM99.1897 18L94.1737 12.024H99.0457L103.03 16.728V18H99.1897ZM85.7737 18V0.743999H99.4777C100.134 0.743999 100.726 0.903999 101.254 1.224C101.798 1.544 102.23 1.976 102.55 2.52C102.886 3.064 103.054 3.656 103.054 4.296V8.76C103.054 9.4 102.886 9.992 102.55 10.536C102.23 11.08 101.798 11.512 101.254 11.832C100.726 12.152 100.134 12.312 99.4777 12.312L89.4937 12.336V18H85.7737ZM89.4937 8.568H99.2857V4.464H89.4937V8.568ZM109.082 18C108.442 18 107.85 17.84 107.306 17.52C106.762 17.2 106.33 16.768 106.01 16.224C105.69 15.68 105.53 15.088 105.53 14.448V12.84H109.25V14.256H119.042V11.232H109.082C108.442 11.232 107.85 11.072 107.306 10.752C106.762 10.432 106.33 10.008 106.01 9.48C105.69 8.936 105.53 8.336 105.53 7.68V4.272C105.53 3.616 105.69 3.024 106.01 2.496C106.33 1.952 106.762 1.52 107.306 1.2C107.85 0.879999 108.442 0.719999 109.082 0.719999H119.258C119.898 0.719999 120.482 0.879999 121.01 1.2C121.554 1.52 121.986 1.952 122.306 2.496C122.642 3.024 122.81 3.616 122.81 4.272V5.88H119.042V4.464H109.25V7.488H119.258C119.898 7.488 120.482 7.648 121.01 7.968C121.554 8.288 121.986 8.72 122.306 9.264C122.642 9.792 122.81 10.384 122.81 11.04V14.448C122.81 15.088 122.642 15.68 122.306 16.224C121.986 16.768 121.554 17.2 121.01 17.52C120.482 17.84 119.898 18 119.258 18H109.082ZM125.477 18V0.719999H129.197V7.488H139.397V0.719999H143.117V18H139.397V11.232H129.197V18H125.477Z" fill="#1C51FE"/>
<defs>
<linearGradient id="paint0_linear_11_4137" x1="2.93077" y1="-26.4098" x2="73.9334" y2="44.1724" gradientUnits="userSpaceOnUse">
<stop stop-color="#B235FF"/>
<stop offset="1" stop-color="#001447"/>
</linearGradient>
</defs>
</svg>
