<svg width="31" height="30" viewBox="0 0 31 30" fill="none" xmlns="http://www.w3.org/2000/svg">
<g id="radix-icons:mobile">
<path id="Vector" fill-rule="evenodd" clip-rule="evenodd" d="M8.33398 5C8.33398 4.73478 8.43934 4.48043 8.62688 4.29289C8.81441 4.10536 9.06877 4 9.33398 4H21.334C21.5992 4 21.8536 4.10536 22.0411 4.29289C22.2286 4.48043 22.334 4.73478 22.334 5V25C22.334 25.2652 22.2286 25.5196 22.0411 25.7071C21.8536 25.8946 21.5992 26 21.334 26H9.33398C9.06877 26 8.81441 25.8946 8.62688 25.7071C8.43934 25.5196 8.33398 25.2652 8.33398 25V5ZM9.33398 2C8.53833 2 7.77527 2.31607 7.21266 2.87868C6.65005 3.44129 6.33398 4.20435 6.33398 5V25C6.33398 25.7956 6.65005 26.5587 7.21266 27.1213C7.77527 27.6839 8.53833 28 9.33398 28H21.334C22.1296 28 22.8927 27.6839 23.4553 27.1213C24.0179 26.5587 24.334 25.7956 24.334 25V5C24.334 4.20435 24.0179 3.44129 23.4553 2.87868C22.8927 2.31607 22.1296 2 21.334 2H9.33398ZM12.334 23.3C12.1483 23.3 11.9703 23.3738 11.839 23.505C11.7077 23.6363 11.634 23.8143 11.634 24C11.634 24.1857 11.7077 24.3637 11.839 24.495C11.9703 24.6262 12.1483 24.7 12.334 24.7H18.334C18.5196 24.7 18.6977 24.6262 18.829 24.495C18.9602 24.3637 19.034 24.1857 19.034 24C19.034 23.8143 18.9602 23.6363 18.829 23.505C18.6977 23.3738 18.5196 23.3 18.334 23.3H12.334Z" fill="#9747FF"/>
</g>
</svg>
