<svg width="30" height="30" viewBox="0 0 30 30" fill="none" xmlns="http://www.w3.org/2000/svg">
<g id="ph:tag">
<path id="Vector" d="M28.5129 15.9375L16.875 4.29962C16.7015 4.12475 16.495 3.98611 16.2675 3.89176C16.04 3.79741 15.7959 3.74922 15.5496 3.75001H4.68751C4.43887 3.75001 4.20041 3.84878 4.0246 4.0246C3.84878 4.20041 3.75001 4.43887 3.75001 4.68751V15.5496C3.74922 15.7959 3.79741 16.04 3.89176 16.2675C3.98611 16.495 4.12475 16.7015 4.29962 16.875L15.9375 28.5129C16.1116 28.6871 16.3183 28.8252 16.5459 28.9195C16.7734 29.0137 17.0172 29.0622 17.2635 29.0622C17.5098 29.0622 17.7536 29.0137 17.9811 28.9195C18.2086 28.8252 18.4153 28.6871 18.5895 28.5129L28.5129 18.5895C28.6871 18.4153 28.8252 18.2086 28.9195 17.9811C29.0137 17.7536 29.0622 17.5098 29.0622 17.2635C29.0622 17.0172 29.0137 16.7734 28.9195 16.5459C28.8252 16.3183 28.6871 16.1116 28.5129 15.9375ZM17.2629 27.1875L5.62501 15.5496V5.62501H15.5496L27.1875 17.2629L17.2629 27.1875ZM11.25 9.84376C11.25 10.1219 11.1675 10.3938 11.013 10.625C10.8585 10.8563 10.6389 11.0365 10.3819 11.143C10.1249 11.2494 9.8422 11.2772 9.56941 11.223C9.29663 11.1687 9.04606 11.0348 8.84939 10.8381C8.65272 10.6415 8.51879 10.3909 8.46453 10.1181C8.41027 9.84532 8.43812 9.56257 8.54455 9.30561C8.65099 9.04865 8.83123 8.82903 9.06249 8.67451C9.29375 8.51998 9.56563 8.43751 9.84376 8.43751C10.2167 8.43751 10.5744 8.58567 10.8381 8.84939C11.1019 9.11311 11.25 9.4708 11.25 9.84376Z" fill="#9747FF"/>
</g>
</svg>
