<svg width="104" height="101" viewBox="0 0 104 101" fill="none" xmlns="http://www.w3.org/2000/svg">
<g id="Frame" clip-path="url(#clip0_38_8560)">
<g id="Group">
<path id="Vector" d="M37.7934 85.1124C24.6247 76.3413 17.8014 71.1951 6.05447 61.1719C5.62574 60.7996 5.46555 60.2228 5.63856 59.6946L20.5614 14.1325L21.2607 13.8596C21.6864 13.7264 22.1528 13.8106 22.5046 14.08L53.1931 37.6277L51.6678 39.614L22.2449 17.0367L8.253 59.7565C19.5612 69.3818 26.3224 74.4641 39.1809 83.0282L37.7934 85.1124Z" fill="url(#paint0_linear_38_8560)"/>
<path id="Vector_2" d="M37.6886 85.2328L37.2423 84.669C36.9993 84.3128 36.9352 83.8729 37.0693 83.4636L51.7945 38.5047C51.9757 37.9515 52.4892 37.5704 53.0719 37.557L92.3006 36.7154L92.7893 37.2865C93.0553 37.645 93.1302 38.1122 92.9918 38.5345L78.2685 83.4875C78.1014 83.9978 77.6488 84.366 77.1151 84.427C63.7087 85.9984 55.0015 86.1858 38.3048 85.266L37.6878 85.2312L37.6886 85.2328ZM38.4437 82.7664C38.4437 82.7664 38.4437 82.7664 38.4414 82.7656C38.4414 82.7656 38.4422 82.7658 38.4437 82.7664ZM53.9254 40.0431L39.9066 82.845C55.3766 83.6607 63.5181 83.4712 76.1135 82.0228L90.1175 39.2662L53.9254 40.0431ZM76.8285 81.9395C76.8285 81.9395 76.8241 81.9407 76.8217 81.9399C76.8241 81.9407 76.8257 81.9399 76.8285 81.9395Z" fill="url(#paint1_linear_38_8560)"/>
<path id="Vector_3" d="M91.0719 39.0565L61.2157 14.6446L21.6361 16.2841L21.5308 13.7822L62.0196 12.1058L62.4742 12.4391L92.6553 37.1182L91.0719 39.0565Z" fill="url(#paint2_linear_38_8560)"/>
<path id="Vector_4" d="M7.26121 62.0611L7.18911 59.5582L46.6077 58.3902L47.0404 58.6861L77.1281 81.5746L75.6116 83.5664L45.8402 60.9185L7.26121 62.0611Z" fill="url(#paint3_linear_38_8560)"/>
<path id="Vector_5" d="M41.8493 74.0413L41.4087 73.7415L24.5761 60.9249C24.1385 60.5919 23.9403 60.0304 24.0753 59.4936C27.4898 46.615 30.002 38.9487 35.2764 25.2947C35.4775 24.7651 35.9773 24.4177 36.5493 24.4127L56.8085 24.161L60.3147 13.4558L62.6942 14.2351L59.1809 24.9617L74.0276 36.6984C74.4656 37.0382 74.656 37.6354 74.4934 38.1762C70.3198 52.5478 67.8131 60.2053 63.3157 72.3038C63.1153 72.831 62.6302 73.1779 62.0788 73.2002L41.8493 74.0413ZM26.6928 59.3893L42.6037 71.5048L61.2294 70.7299C65.5115 59.1762 67.883 51.9315 71.8793 38.1935L57.2899 26.6609L37.3379 26.9079C32.3857 39.7677 29.9214 47.2876 26.6928 59.3893ZM36.5818 26.9158L36.5739 26.9159C36.5739 26.9159 36.5786 26.9174 36.5818 26.9158ZM72.4677 38.6576C72.4677 38.6576 72.4772 38.6646 72.4824 38.669L72.4677 38.6576ZM37.6121 26.1915C37.6121 26.1915 37.6098 26.1986 37.609 26.201C37.6098 26.1986 37.6109 26.195 37.6121 26.1915Z" fill="url(#paint4_linear_38_8560)"/>
<path id="Vector_6" d="M39.5384 87.4836C36.2598 85.5481 15.3196 68.4643 6.37114 60.8371L38.0672 83.8387C50.0309 83.5508 75.027 83.1472 77.3318 83.2052C78.1146 83.2244 78.6215 83.8647 82.5906 86.7732C84.724 88.3361 72.6768 87.8049 69.7404 88.4082C66.804 89.0115 56.5642 89.1079 51.2054 89.1917C46.244 89.2688 43.6372 89.9036 39.538 87.4847L39.5384 87.4836Z" fill="url(#paint5_linear_38_8560)"/>
</g>
</g>
<defs>
<linearGradient id="paint0_linear_38_8560" x1="39.3864" y1="19.5284" x2="19.8326" y2="79.2297" gradientUnits="userSpaceOnUse">
<stop stop-color="#9747FF"/>
<stop offset="1" stop-color="#ED008E"/>
</linearGradient>
<linearGradient id="paint1_linear_38_8560" x1="74.8555" y1="31.0017" x2="55.2134" y2="90.9726" gradientUnits="userSpaceOnUse">
<stop stop-color="#9747FF"/>
<stop offset="1" stop-color="#ED008E"/>
</linearGradient>
<linearGradient id="paint2_linear_38_8560" x1="61.5175" y1="11.9414" x2="56.3602" y2="27.6875" gradientUnits="userSpaceOnUse">
<stop stop-color="#9747FF"/>
<stop offset="1" stop-color="#ED008E"/>
</linearGradient>
<linearGradient id="paint3_linear_38_8560" x1="46.1913" y1="58.2539" x2="41.2936" y2="73.2076" gradientUnits="userSpaceOnUse">
<stop stop-color="#9747FF"/>
<stop offset="1" stop-color="#ED008E"/>
</linearGradient>
<linearGradient id="paint4_linear_38_8560" x1="60.727" y1="13.5908" x2="41.0171" y2="73.7687" gradientUnits="userSpaceOnUse">
<stop stop-color="#9747FF"/>
<stop offset="1" stop-color="#ED008E"/>
</linearGradient>
<linearGradient id="paint5_linear_38_8560" x1="45.0682" y1="72.5805" x2="40.016" y2="88.0056" gradientUnits="userSpaceOnUse">
<stop stop-color="#9747FF"/>
<stop offset="1" stop-color="#ED008E"/>
</linearGradient>
<clipPath id="clip0_38_8560">
<rect width="81.9083" height="78.9788" fill="white" transform="translate(25.1777 0.0395966) rotate(18.135)"/>
</clipPath>
</defs>
</svg>
