<svg width="34" height="34" viewBox="0 0 34 34" fill="none" xmlns="http://www.w3.org/2000/svg">
<path id="Vector" d="M14.6923 32H19.3077M14.6923 32L15.2692 26.5455H18.7308L19.3077 32M14.6923 32H11.2308M19.3077 32H22.7692M4.30769 2H29.6923C30.3043 2 30.8913 2.28734 31.3241 2.7988C31.7569 3.31026 32 4.00396 32 4.72727V23.8182C32 24.5415 31.7569 25.2352 31.3241 25.7467C30.8913 26.2581 30.3043 26.5455 29.6923 26.5455H4.30769C3.69565 26.5455 3.10868 26.2581 2.67591 25.7467C2.24313 25.2352 2 24.5415 2 23.8182V4.72727C2 4.00396 2.24313 3.31026 2.67591 2.7988C3.10868 2.28734 3.69565 2 4.30769 2Z" stroke="#9747FF" stroke-width="2.29167" stroke-linecap="round" stroke-linejoin="round"/>
</svg>
