<svg width="30" height="30" viewBox="0 0 30 30" fill="none" xmlns="http://www.w3.org/2000/svg">
<g id="ic:baseline-shopify">
<path id="Vector" d="M19.7877 3.39129C19.7877 3.39129 19.4575 3.48817 18.8962 3.66577C18.7972 3.37515 18.6651 3.0038 18.467 2.6486C17.8396 1.46999 16.9151 0.856463 15.7925 0.840318C15.7099 0.840318 15.6439 0.840318 15.5613 0.856463C15.5283 0.824172 15.4953 0.775736 15.4623 0.743445C14.9835 0.226792 14.3561 -0.0153891 13.6132 0.000756324C12.1769 0.0491926 10.7406 1.06635 9.5684 2.87464C8.74292 4.15013 8.13207 5.74852 7.95047 6.97557C6.29953 7.47608 5.14387 7.83128 5.11085 7.83128C4.26887 8.08961 4.25236 8.1219 4.13679 8.88073C4.05424 9.46197 1.875 25.9949 1.875 25.9949L20.0024 29.0625V3.359C19.9198 3.359 19.8373 3.37515 19.7877 3.39129ZM15.5943 4.66678C14.6368 4.9574 13.5802 5.28031 12.5401 5.58707C12.8373 4.47304 13.3986 3.37515 14.092 2.6486C14.3561 2.37413 14.7028 2.08351 15.1321 1.90591C15.5283 2.72933 15.6108 3.87566 15.5943 4.66678ZM13.6297 0.93719C13.9599 0.93719 14.2571 1.00177 14.5047 1.16323C14.1085 1.35697 13.7453 1.64759 13.3821 2.01893C12.4741 2.97151 11.7641 4.47304 11.4835 5.90998C10.6085 6.1683 9.76651 6.42663 8.97406 6.66881C9.46934 4.39231 11.4175 1.00177 13.6297 0.93719ZM10.8231 13.8374C10.9222 15.3389 14.9835 15.678 15.2146 19.2138C15.3962 21.9908 13.7123 23.896 11.2689 24.0413C8.36321 24.2189 6.74528 22.5398 6.74528 22.5398L7.35613 19.9726C7.35613 19.9726 8.97406 21.1674 10.2618 21.0867C11.1038 21.0382 11.4009 20.3601 11.3844 19.8919C11.2524 17.9222 7.95047 18.0352 7.75236 14.8061C7.57075 12.0775 9.4033 9.3328 13.4316 9.07448C15 8.97761 15.7925 9.3651 15.7925 9.3651L14.8679 12.7395C14.8679 12.7395 13.8443 12.2874 12.6226 12.352C10.8396 12.465 10.8066 13.5629 10.8231 13.8374ZM16.5519 4.37616C16.5354 3.66577 16.4528 2.66475 16.1061 1.80904C17.1958 2.01893 17.7406 3.21369 17.9717 3.94024C17.559 4.0694 17.0802 4.21471 16.5519 4.37616ZM20.5967 28.9979L28.125 27.1735C28.125 27.1735 24.8891 5.76467 24.8726 5.61936C24.8561 5.47405 24.7241 5.39332 24.6085 5.37718C24.4929 5.36103 22.3797 5.32874 22.3797 5.32874C22.3797 5.32874 21.092 4.10169 20.5967 3.63347V28.9979Z" fill="#9747FF"/>
</g>
</svg>
