<svg width="31" height="30" viewBox="0 0 31 30" fill="none" xmlns="http://www.w3.org/2000/svg">
<g id="basil:apple-outline">
<path id="Vector" fill-rule="evenodd" clip-rule="evenodd" d="M21.5555 1.7212C21.5496 1.58609 21.5146 1.45385 21.4528 1.33355C21.391 1.21325 21.3039 1.10775 21.1975 1.02427C21.0912 0.94079 20.968 0.881318 20.8364 0.849935C20.7049 0.818551 20.5681 0.815998 20.4355 0.842451C19.8105 0.967451 17.7705 1.47495 16.1605 3.08495C15.338 3.90745 14.883 4.94495 14.6355 5.88995C14.5168 6.35012 14.4357 6.81916 14.393 7.29245C14.2919 7.24872 14.1906 7.20539 14.0892 7.16245C13.223 6.79245 12.1017 6.36245 10.8267 6.36245C9.46172 6.36245 7.52422 6.91745 5.92422 8.48745C4.30172 10.08 3.10547 12.635 3.10547 16.4875C3.10547 18.6525 4.18797 21.8 5.64672 24.3562C6.38422 25.6475 7.25297 26.85 8.19047 27.7362C9.10172 28.5962 10.2117 29.2837 11.4217 29.2525C12.3217 29.2487 13.2342 28.895 13.943 28.62L14.0055 28.595C14.823 28.2787 15.4055 28.065 15.8942 28.065C16.3617 28.065 16.9492 28.2787 17.7792 28.5975L17.8405 28.62C18.5605 28.8962 19.4892 29.2525 20.3805 29.2525C21.0542 29.2525 21.833 28.8925 22.5155 28.4687C23.3357 27.9468 24.0896 27.3273 24.7605 26.6237C26.1817 25.1462 27.5317 23.035 27.4792 20.775C27.4752 20.6014 27.423 20.4323 27.3286 20.2867C27.2341 20.141 27.101 20.0244 26.9442 19.95C26.2836 19.6138 25.6937 19.1538 25.2067 18.595C24.6155 17.9162 24.1792 17.08 24.1517 16.11C24.1217 14.8859 24.4163 13.6758 25.0055 12.6025C25.533 11.64 26.1305 11.09 26.408 10.9437C26.5266 10.8815 26.6305 10.7946 26.7127 10.6888C26.7949 10.5831 26.8535 10.461 26.8845 10.3307C26.9155 10.2004 26.9183 10.065 26.8926 9.93355C26.8669 9.80211 26.8133 9.6777 26.7355 9.5687C26.308 8.9687 25.4955 8.1787 24.538 7.54245C23.5917 6.91245 22.358 6.3362 21.0955 6.3612C20.8742 6.3662 20.658 6.38245 20.4455 6.40745C20.908 5.71995 21.178 4.86745 21.3355 4.11995C21.5029 3.33179 21.5772 2.52669 21.5567 1.7212H21.5555ZM17.4867 4.40995C18.163 3.7337 18.958 3.3062 19.6167 3.04245C19.5871 3.27432 19.5484 3.50492 19.5005 3.7337C19.3367 4.5112 19.0792 5.1612 18.763 5.5312C18.163 6.22995 17.358 6.99245 16.278 7.2937C16.313 6.99745 16.368 6.6812 16.4505 6.3637C16.6442 5.61995 16.9755 4.92245 17.4867 4.40995ZM21.133 8.23495C21.8392 8.22245 22.6855 8.5612 23.5005 9.1037C23.9305 9.3887 24.3105 9.7037 24.613 9.9937C24.1667 10.4412 23.728 11.0312 23.3605 11.7012C22.6115 13.0669 22.238 14.6067 22.278 16.1637C22.3205 17.6887 23.008 18.9262 23.793 19.8262C24.368 20.485 25.018 20.9937 25.5805 21.3387C25.4217 22.7075 24.5505 24.1387 23.4092 25.3237C22.8461 25.9151 22.2136 26.4364 21.5255 26.8762C20.8905 27.2712 20.4955 27.3775 20.3805 27.3775C19.8805 27.3775 19.2705 27.16 18.4505 26.8462L18.3505 26.8087C17.6455 26.5375 16.743 26.1912 15.8942 26.1912C15.0192 26.1912 14.1217 26.54 13.4192 26.8125L13.3292 26.8475C12.5192 27.16 11.9205 27.3775 11.408 27.3775H11.3792C10.9092 27.3925 10.2617 27.1125 9.47922 26.3737C8.71922 25.655 7.95797 24.62 7.27547 23.4262C5.89547 21.0087 4.98047 18.1925 4.98047 16.4887C4.98047 13.0425 6.03672 11.0037 7.23672 9.8262C8.45922 8.6262 9.91297 8.2362 10.828 8.2362C11.6967 8.2362 12.5192 8.52995 13.353 8.8862L13.6905 9.03245C13.988 9.1612 14.2967 9.29495 14.5767 9.4012C14.9667 9.54745 15.4255 9.68745 15.8942 9.68745C16.363 9.68745 16.8267 9.5562 17.2317 9.41245C17.533 9.3062 17.863 9.16995 18.1817 9.0387L18.4967 8.9087C19.363 8.5562 20.2242 8.25495 21.133 8.2362V8.23495Z" fill="#9747FF"/>
</g>
</svg>
