<svg width="68" height="59" viewBox="0 0 68 59" fill="none" xmlns="http://www.w3.org/2000/svg">
<g id="Frame" clip-path="url(#clip0_38_8600)">
<g id="Group">
<path id="Vector" d="M39.3704 58.8169C36.0554 58.8169 32.6904 58.1159 29.0944 56.5199C19.7204 52.3749 8.39939 41.1549 7.92139 40.6789C7.61939 40.4179 -0.603614 33.1109 0.0353864 22.3699L2.03139 22.4889C1.45239 32.2309 9.20739 39.1489 9.28539 39.2179C9.44739 39.3759 20.8704 50.6969 29.9034 54.6909C38.7884 58.6329 46.2734 56.6129 55.4744 52.0799C59.6494 50.0229 61.8724 46.9519 61.9034 43.1969V40.9939H63.9034V43.2049C63.8664 47.7079 61.1874 51.4949 56.3594 53.8729C50.2834 56.8669 44.8974 58.8169 39.3704 58.8169ZM56.5314 28.8449L54.8814 27.7139C55.2734 27.1439 55.8294 26.5769 56.5844 25.9809C58.0034 24.8609 59.4104 24.4109 60.6514 24.0139C62.5094 23.4189 63.8534 22.9899 64.9564 20.6239C65.2594 19.9749 65.2924 18.1369 65.1244 17.6559L67.0134 16.9979C67.3504 17.9639 67.2904 20.3519 66.7694 21.4689C65.2964 24.6279 63.2454 25.2839 61.2614 25.9189C60.0764 26.2979 58.9584 26.6559 57.8234 27.5519C57.2384 28.0139 56.8034 28.4489 56.5324 28.8449H56.5314Z" fill="url(#paint0_linear_38_8600)"/>
<path id="Vector_2" d="M39.3706 56.8169C36.0556 56.8169 32.6896 56.1159 29.0936 54.5199C19.7196 50.3749 8.39862 39.1549 7.92062 38.6799C7.81162 38.5829 4.29562 35.4029 1.98262 30.6189C-1.14338 24.1469 -0.519382 17.9029 3.78862 12.5609C13.3446 0.7129 28.3916 -1.2721 38.3786 0.6279C46.7466 2.2209 56.8016 8.1499 57.6716 8.6699C58.6656 9.1339 65.4196 12.4089 66.8586 16.3389C67.2576 17.4319 67.2276 18.4849 66.7686 19.4689C65.2956 22.6279 63.2446 23.2839 61.2606 23.9189C60.0756 24.2979 58.9576 24.6559 57.8226 25.5519C56.7726 26.3809 56.2126 27.1209 56.2046 27.6909C56.1926 28.5019 57.2886 29.4179 58.4476 30.3869C59.3036 31.1029 60.1886 31.8439 60.8876 32.7339C63.4156 35.9559 64.4436 40.0039 63.6336 43.5629C62.8406 47.0459 60.3246 49.9189 56.3596 51.8739C50.2836 54.8679 44.8976 56.8169 39.3716 56.8169H39.3706ZM31.4766 1.9959C22.7896 1.9959 12.4456 5.0129 5.34562 13.8169C1.51462 18.5669 0.981618 23.9099 3.75962 29.6979C5.89262 34.1399 9.26062 37.1959 9.29462 37.2269C9.44662 37.3759 20.8696 48.6969 29.9026 52.6909C38.7836 56.6319 46.2726 54.6139 55.4736 50.0799C58.9296 48.3769 61.0186 46.0349 61.6826 43.1199C62.4796 39.6149 60.9816 36.0949 59.3136 33.9699C58.7446 33.2439 57.9406 32.5719 57.1636 31.9219C55.6966 30.6949 54.1796 29.4259 54.2036 27.6629C54.2216 26.4359 54.9996 25.2319 56.5826 23.9819C58.0026 22.8609 59.4096 22.4109 60.6506 22.0139C62.5086 21.4189 63.8526 20.9899 64.9556 18.6239C65.1846 18.1319 65.1926 17.6099 64.9796 17.0269C63.9796 14.2929 58.7236 11.3609 56.7826 10.4619L56.6866 10.4109C56.5826 10.3489 46.2166 4.1559 38.0026 2.5919C36.0096 2.2129 33.8026 1.9959 31.4766 1.9959Z" fill="url(#paint1_linear_38_8600)"/>
<g id="Group_2">
<path id="Vector_3" d="M13.7117 28.1228C13.7117 28.1228 11.1877 31.4478 14.4977 35.1118C17.8077 38.7758 19.3547 38.0538 20.5427 36.4008C22.3917 33.8298 18.5057 24.5318 13.7117 28.1228Z" fill="url(#paint2_linear_38_8600)"/>
<path id="Vector_4" d="M18.4649 38.7559C17.0859 38.7559 15.5829 37.8059 13.7549 35.7819C10.6969 32.3969 11.8679 28.8959 12.9139 27.5179L13.1109 27.3219C15.1299 25.8119 17.3479 25.9879 19.1979 27.8019C21.4619 30.0219 22.9299 34.7899 21.3529 36.9839C20.8339 37.7059 19.9869 38.6749 18.6299 38.7509C18.5749 38.7539 18.5209 38.7559 18.4649 38.7559ZM14.4349 28.8329C14.0569 29.4119 12.8109 31.7529 15.2399 34.4409C17.1089 36.5109 18.1009 36.7649 18.5199 36.7539C18.7809 36.7389 19.1529 36.6199 19.7309 35.8159C20.4579 34.8049 19.7769 31.1699 17.7979 29.2299C16.7019 28.1559 15.6019 28.0239 14.4349 28.8329Z" fill="url(#paint3_linear_38_8600)"/>
</g>
<g id="Group_3">
<path id="Vector_5" d="M28.5706 40.59C28.5706 40.59 27.6197 44.781 33.0047 46.283C38.3907 47.785 39.1626 43.867 37.0626 42.123C34.9626 40.379 30.2386 35.902 28.5706 40.59Z" fill="url(#paint4_linear_38_8600)"/>
<path id="Vector_6" d="M35.1739 47.617C34.4869 47.617 33.6819 47.51 32.7369 47.246C27.7519 45.855 27.1939 42.139 27.5949 40.369L27.6279 40.255C28.1409 38.814 28.9729 37.929 30.0999 37.626C32.5359 36.972 35.3529 39.365 37.2209 40.949L37.7009 41.354C39.0749 42.495 39.5289 44.357 38.7819 45.783C38.5189 46.285 37.5909 47.616 35.1729 47.616L35.1739 47.617ZM29.5379 40.858C29.4459 41.383 29.1659 44.174 33.2739 45.319C35.1559 45.843 36.5869 45.665 37.0109 44.855C37.3189 44.27 37.0659 43.425 36.4239 42.892L35.9279 42.474C34.5689 41.322 32.0439 39.178 30.6199 39.557C30.1779 39.676 29.8139 40.114 29.5379 40.858Z" fill="url(#paint5_linear_38_8600)"/>
</g>
<g id="Group_4">
<path id="Vector_7" d="M17.1348 12.9259C14.6858 12.0699 11.5188 13.1439 9.99284 17.0959C8.46684 21.0479 11.1428 21.8719 13.9418 20.7159C16.7408 19.5599 19.5838 13.7819 17.1348 12.9259Z" fill="url(#paint6_linear_38_8600)"/>
<path id="Vector_8" d="M11.7821 22.1979C10.8141 22.1979 9.98706 21.9089 9.40306 21.3389C8.70106 20.6529 8.07106 19.2969 9.06006 16.7359C10.8581 12.0799 14.6761 11.0069 17.4651 11.9829C18.4481 12.3269 19.0321 13.1989 19.0651 14.3769C19.1361 16.9259 16.6991 20.6599 14.3241 21.6409C13.4221 22.0139 12.5561 22.1979 11.7821 22.1979ZM15.5021 13.6489C13.8071 13.6489 11.9741 14.7439 10.9261 17.4569C10.4751 18.6269 10.4281 19.5439 10.8011 19.9089C11.2361 20.3339 12.3701 20.2839 13.5611 19.7919C15.3051 19.0709 17.1111 16.0299 17.0671 14.4319C17.0531 13.9569 16.8931 13.9009 16.8061 13.8699C16.3931 13.7259 15.9521 13.6489 15.5021 13.6489Z" fill="url(#paint7_linear_38_8600)"/>
</g>
<g id="Group_5">
<path id="Vector_9" d="M32.9452 10.8698C36.1522 10.3988 36.6172 7.17778 33.6422 6.15978C32.2632 5.68878 30.4502 5.44578 28.2192 5.85578C22.1292 6.97978 22.5882 9.52978 25.4032 10.4118C28.2192 11.2928 30.0002 11.2958 32.9452 10.8708V10.8698Z" fill="url(#paint8_linear_38_8600)"/>
<path id="Vector_10" d="M29.77 12.1478C28.311 12.1478 26.898 11.9278 25.104 11.3658C23.371 10.8238 22.34 9.70978 22.416 8.46078C22.487 7.28478 23.52 5.70778 28.037 4.87278C30.163 4.48078 32.158 4.59678 33.966 5.21378C35.719 5.81378 36.761 7.18578 36.62 8.70978C36.471 10.3308 35.085 11.5668 33.091 11.8598H33.089C31.859 12.0378 30.803 12.1488 29.771 12.1488L29.77 12.1478ZM30.441 6.64578C29.783 6.64578 29.101 6.70978 28.399 6.83878C25.139 7.44078 24.424 8.36578 24.412 8.58078C24.403 8.73778 24.782 9.16878 25.702 9.45678C28.411 10.3058 30.082 10.2718 32.8 9.88078C33.993 9.70578 34.578 9.07378 34.629 8.52578C34.683 7.94478 34.181 7.40078 33.318 7.10678C32.422 6.79978 31.459 6.64578 30.441 6.64578Z" fill="url(#paint9_linear_38_8600)"/>
</g>
<path id="Vector_11" d="M52.2088 22.3189C50.6238 22.3189 49.0238 21.8669 47.7598 20.9629C46.4388 20.0189 45.6698 18.6829 45.6508 17.2969C45.6318 15.9449 46.2968 14.6889 47.5198 13.7609C49.9318 11.9509 53.7998 11.9519 56.3298 13.7589C57.6538 14.7049 58.4228 16.0469 58.4388 17.4399C58.4548 18.7939 57.7898 20.0459 56.5658 20.9639C55.3628 21.8669 53.7948 22.3179 52.2108 22.3179L52.2088 22.3189ZM51.8758 14.4139C50.7118 14.4139 49.5638 14.7279 48.7238 15.3579C48.0238 15.8889 47.6408 16.5689 47.6508 17.2699C47.6618 18.0239 48.1128 18.7579 48.9218 19.3369C50.7218 20.6219 53.6718 20.6349 55.3638 19.3659C56.0648 18.8399 56.4468 18.1649 56.4378 17.4649C56.4288 16.7049 55.9778 15.9679 55.1668 15.3879C54.2598 14.7399 53.0598 14.4149 51.8758 14.4149V14.4139Z" fill="url(#paint10_linear_38_8600)"/>
</g>
</g>
<defs>
<linearGradient id="paint0_linear_38_8600" x1="33.6116" y1="16.9979" x2="33.6116" y2="58.8169" gradientUnits="userSpaceOnUse">
<stop stop-color="#9747FF"/>
<stop offset="1" stop-color="#D2C447"/>
</linearGradient>
<linearGradient id="paint1_linear_38_8600" x1="33.5802" y1="0.000244141" x2="33.5802" y2="56.8169" gradientUnits="userSpaceOnUse">
<stop stop-color="#9747FF"/>
<stop offset="1" stop-color="#D2C447"/>
</linearGradient>
<linearGradient id="paint2_linear_38_8600" x1="16.9017" y1="27.3086" x2="16.9017" y2="37.7559" gradientUnits="userSpaceOnUse">
<stop stop-color="#9747FF"/>
<stop offset="1" stop-color="#D2C447"/>
</linearGradient>
<linearGradient id="paint3_linear_38_8600" x1="16.9022" y1="26.3032" x2="16.9022" y2="38.7559" gradientUnits="userSpaceOnUse">
<stop stop-color="#9747FF"/>
<stop offset="1" stop-color="#D2C447"/>
</linearGradient>
<linearGradient id="paint4_linear_38_8600" x1="33.3233" y1="38.5149" x2="33.3233" y2="46.6191" gradientUnits="userSpaceOnUse">
<stop stop-color="#9747FF"/>
<stop offset="1" stop-color="#D2C447"/>
</linearGradient>
<linearGradient id="paint5_linear_38_8600" x1="33.3148" y1="37.5154" x2="33.3148" y2="47.617" gradientUnits="userSpaceOnUse">
<stop stop-color="#9747FF"/>
<stop offset="1" stop-color="#D2C447"/>
</linearGradient>
<linearGradient id="paint6_linear_38_8600" x1="13.808" y1="12.6507" x2="13.808" y2="21.1966" gradientUnits="userSpaceOnUse">
<stop stop-color="#9747FF"/>
<stop offset="1" stop-color="#D2C447"/>
</linearGradient>
<linearGradient id="paint7_linear_38_8600" x1="13.8077" y1="11.6526" x2="13.8077" y2="22.1989" gradientUnits="userSpaceOnUse">
<stop stop-color="#9747FF"/>
<stop offset="1" stop-color="#D2C447"/>
</linearGradient>
<linearGradient id="paint8_linear_38_8600" x1="29.5223" y1="5.647" x2="29.5223" y2="11.1467" gradientUnits="userSpaceOnUse">
<stop stop-color="#9747FF"/>
<stop offset="1" stop-color="#D2C447"/>
</linearGradient>
<linearGradient id="paint9_linear_38_8600" x1="29.5224" y1="4.64551" x2="29.5224" y2="12.1488" gradientUnits="userSpaceOnUse">
<stop stop-color="#9747FF"/>
<stop offset="1" stop-color="#D2C447"/>
</linearGradient>
<linearGradient id="paint10_linear_38_8600" x1="52.0447" y1="12.4036" x2="52.0447" y2="22.3189" gradientUnits="userSpaceOnUse">
<stop stop-color="#9747FF"/>
<stop offset="1" stop-color="#D2C447"/>
</linearGradient>
<clipPath id="clip0_38_8600">
<rect width="67.223" height="58.817" fill="white"/>
</clipPath>
</defs>
</svg>
