<svg width="30" height="30" viewBox="0 0 30 30" fill="none" xmlns="http://www.w3.org/2000/svg">
<g id="solar:tv-linear">
<g id="Group">
<path id="Vector" d="M27.5 20C27.5 23.535 27.5 25.3038 26.4013 26.4013C25.3038 27.5 23.535 27.5 20 27.5H10C6.465 27.5 4.69625 27.5 3.59875 26.4013C2.5 25.3038 2.5 23.535 2.5 20V15C2.5 11.465 2.5 9.69625 3.59875 8.59875C4.69625 7.5 6.465 7.5 10 7.5H20C23.535 7.5 25.3038 7.5 26.4013 8.59875C27.5 9.69625 27.5 11.465 27.5 15V20Z" stroke="#9747FF" stroke-width="1.5"/>
<path id="Vector_2" d="M11.25 2.5L15 6.875L18.75 2.5M20 7.5V27.5" stroke="#9747FF" stroke-width="1.5" stroke-linecap="round"/>
<path id="Vector_3" d="M25 20C25 19.6685 24.8683 19.3505 24.6339 19.1161C24.3995 18.8817 24.0815 18.75 23.75 18.75C23.4185 18.75 23.1005 18.8817 22.8661 19.1161C22.6317 19.3505 22.5 19.6685 22.5 20C22.5 20.3315 22.6317 20.6495 22.8661 20.8839C23.1005 21.1183 23.4185 21.25 23.75 21.25C24.0815 21.25 24.3995 21.1183 24.6339 20.8839C24.8683 20.6495 25 20.3315 25 20ZM25 15C25 14.6685 24.8683 14.3505 24.6339 14.1161C24.3995 13.8817 24.0815 13.75 23.75 13.75C23.4185 13.75 23.1005 13.8817 22.8661 14.1161C22.6317 14.3505 22.5 14.6685 22.5 15C22.5 15.3315 22.6317 15.6495 22.8661 15.8839C23.1005 16.1183 23.4185 16.25 23.75 16.25C24.0815 16.25 24.3995 16.1183 24.6339 15.8839C24.8683 15.6495 25 15.3315 25 15Z" fill="#9747FF"/>
</g>
</g>
</svg>
