<svg width="30" height="30" viewBox="0 0 30 30" fill="none" xmlns="http://www.w3.org/2000/svg">
<g id="streamline:computer-smart-watch-1-device-timepiece-cirle-computer-electronics-face-blank-watch-smart">
<g id="Group">
<path id="Vector" d="M15 22.5C19.1421 22.5 22.5 19.1421 22.5 15C22.5 10.8579 19.1421 7.5 15 7.5C10.8579 7.5 7.5 10.8579 7.5 15C7.5 19.1421 10.8579 22.5 15 22.5Z" stroke="#9747FF" stroke-linecap="round" stroke-linejoin="round"/>
<path id="Vector_2" d="M19.2863 8.84998V3.21427C19.2863 2.64595 19.0605 2.1009 18.6586 1.69904C18.2568 1.29718 17.7117 1.07141 17.1434 1.07141H12.8577C12.2894 1.07141 11.7443 1.29718 11.3425 1.69904C10.9406 2.1009 10.7148 2.64595 10.7148 3.21427V8.84998M19.2863 21.15V26.7857C19.2863 27.354 19.0605 27.8991 18.6586 28.3009C18.2568 28.7028 17.7117 28.9286 17.1434 28.9286H12.8577C12.2894 28.9286 11.7443 28.7028 11.3425 28.3009C10.9406 27.8991 10.7148 27.354 10.7148 26.7857V21.15" stroke="#9747FF" stroke-linecap="round" stroke-linejoin="round"/>
</g>
</g>
</svg>
