<svg width="31" height="30" viewBox="0 0 31 30" fill="none" xmlns="http://www.w3.org/2000/svg">
<g id="fluent-mdl2:web-environment" clip-path="url(#clip0_38_8473)">
<path id="Vector" d="M28.791 18.75L30.666 28.125H0.666016L2.54102 18.75H5.93945C5.44141 17.8906 5.06543 16.9873 4.81152 16.04C4.55762 15.0928 4.42578 14.1211 4.41602 13.125C4.41602 12.0898 4.54785 11.0938 4.81152 10.1367C5.0752 9.17969 5.45605 8.28613 5.9541 7.45606C6.45215 6.62598 7.03809 5.86426 7.71191 5.1709C8.38574 4.47754 9.14258 3.8916 9.98242 3.41309C10.8223 2.93457 11.7207 2.55859 12.6777 2.28516C13.6348 2.01172 14.6309 1.875 15.666 1.875C16.7012 1.875 17.6973 2.00684 18.6543 2.27051C19.6113 2.53418 20.5049 2.91504 21.335 3.41309C22.165 3.91113 22.9268 4.49707 23.6201 5.1709C24.3135 5.84473 24.8994 6.60156 25.3779 7.44141C25.8564 8.28125 26.2324 9.17969 26.5059 10.1367C26.7793 11.0938 26.916 12.0898 26.916 13.125C26.916 14.1211 26.7891 15.0928 26.5352 16.04C26.2812 16.9873 25.9004 17.8906 25.3926 18.75H28.791ZM25.041 13.125C25.041 12.8125 25.0264 12.5 24.9971 12.1875C24.9678 11.875 24.9189 11.5625 24.8506 11.25H21.2031C21.2617 11.8848 21.291 12.5098 21.291 13.125C21.291 13.75 21.2617 14.375 21.2031 15H24.8506C24.9092 14.6875 24.9531 14.375 24.9824 14.0625C25.0117 13.75 25.0312 13.4375 25.041 13.125ZM12.0039 15H19.3281C19.3867 14.375 19.416 13.75 19.416 13.125C19.416 12.5098 19.3867 11.8848 19.3281 11.25H12.0039C11.9453 11.8848 11.916 12.5098 11.916 13.125C11.916 13.75 11.9453 14.375 12.0039 15ZM19.0645 16.875H12.2676C12.3066 17.0996 12.375 17.3926 12.4727 17.7539C12.5703 18.1152 12.6924 18.5107 12.8389 18.9404C12.9854 19.3701 13.1562 19.79 13.3516 20.2002C13.5469 20.6104 13.7617 20.9912 13.9961 21.3428C14.2305 21.6943 14.4893 21.9727 14.7725 22.1777C15.0557 22.3828 15.3535 22.4902 15.666 22.5C15.9785 22.5 16.2715 22.3926 16.5449 22.1777C16.8184 21.9629 17.0771 21.6846 17.3213 21.3428C17.5654 21.001 17.7803 20.6201 17.9658 20.2002C18.1514 19.7803 18.3223 19.3604 18.4785 18.9404C18.6348 18.5205 18.7568 18.1299 18.8447 17.7686C18.9326 17.4072 19.0059 17.1094 19.0645 16.875ZM12.0771 21.7822C11.6279 21.04 11.2666 20.249 10.9932 19.4092C10.7197 18.5693 10.5098 17.7246 10.3633 16.875H7.08203C7.31641 17.3926 7.60938 17.8955 7.96094 18.3838C8.3125 18.8721 8.70312 19.3359 9.13281 19.7754C9.5625 20.2148 10.0312 20.6006 10.5391 20.9326C11.0469 21.2647 11.5596 21.5479 12.0771 21.7822ZM20.9688 16.875C20.8125 17.7148 20.6025 18.5547 20.3389 19.3945C20.0752 20.2344 19.7188 21.0303 19.2695 21.7822C19.7969 21.5479 20.3047 21.2598 20.793 20.918C21.2812 20.5762 21.7451 20.1953 22.1846 19.7754C22.624 19.3555 23.0195 18.8965 23.3711 18.3984C23.7227 17.9004 24.0156 17.3926 24.25 16.875H20.9688ZM24.25 9.375C23.752 8.27148 23.0781 7.29492 22.2285 6.44531C21.3789 5.5957 20.3877 4.93652 19.2549 4.46777C19.7041 5.20996 20.0605 6.00098 20.3242 6.84082C20.5879 7.68066 20.8027 8.52539 20.9688 9.375H24.25ZM15.666 3.75C15.3535 3.75 15.0605 3.85742 14.7871 4.07227C14.5137 4.28711 14.2549 4.56543 14.0107 4.90723C13.7666 5.24902 13.5518 5.62988 13.3662 6.04981C13.1807 6.46973 13.0098 6.88965 12.8535 7.30957C12.6973 7.72949 12.5703 8.12012 12.4727 8.48145C12.375 8.84277 12.3066 9.14063 12.2676 9.375H19.0645C19.0156 9.15039 18.9473 8.85742 18.8594 8.49609C18.7715 8.13477 18.6494 7.73926 18.4932 7.30957C18.3369 6.87988 18.166 6.45996 17.9805 6.04981C17.7949 5.63965 17.5801 5.25879 17.3359 4.90723C17.0918 4.55566 16.833 4.27734 16.5596 4.07227C16.2861 3.86719 15.9883 3.75977 15.666 3.75ZM12.0771 4.46777C10.9541 4.93652 9.96777 5.5957 9.11816 6.44531C8.26855 7.29492 7.58984 8.27148 7.08203 9.375H10.3633C10.5195 8.52539 10.7295 7.68066 10.9932 6.84082C11.2568 6.00098 11.6182 5.20996 12.0771 4.46777ZM6.48145 11.25C6.42285 11.5625 6.37891 11.875 6.34961 12.1875C6.32031 12.5 6.30078 12.8125 6.29102 13.125C6.29102 13.4375 6.30566 13.75 6.33496 14.0625C6.36426 14.375 6.41309 14.6875 6.48145 15H10.1289C10.0703 14.375 10.041 13.75 10.041 13.125C10.041 12.5098 10.0703 11.8848 10.1289 11.25H6.48145ZM2.95117 26.25H28.3809L27.2529 20.625H24.0303C23.5029 21.2207 22.9219 21.748 22.2871 22.207C21.6523 22.666 20.9736 23.0615 20.251 23.3936C19.5283 23.7256 18.7861 23.9697 18.0244 24.126C17.2627 24.2822 16.4766 24.3652 15.666 24.375C14.8652 24.375 14.0791 24.292 13.3076 24.126C12.5361 23.96 11.7939 23.7158 11.0811 23.3936C10.3682 23.0713 9.69434 22.6807 9.05957 22.2217C8.4248 21.7627 7.83887 21.2305 7.30176 20.625H4.0791L2.95117 26.25Z" fill="#9747FF"/>
</g>
<defs>
<clipPath id="clip0_38_8473">
<rect width="30" height="30" fill="white" transform="translate(0.666016)"/>
</clipPath>
</defs>
</svg>
