<svg width="30" height="30" viewBox="0 0 30 30" fill="none" xmlns="http://www.w3.org/2000/svg">
<g id="mdi:smartwatch">
<path id="Vector" d="M3.75 7.5H26.25V5H3.75C2.375 5 1.25 6.125 1.25 7.5V22.5C1.25 23.875 2.375 25 3.75 25H8.75V22.5H3.75V7.5ZM16.25 15H11.25V17.225C10.4875 17.9125 10 18.8875 10 20C10 21.1125 10.4875 22.0875 11.25 22.775V25H16.25V22.775C17.0125 22.0875 17.5 21.1 17.5 20C17.5 18.9 17.0125 17.9125 16.25 17.225V15ZM13.75 21.875C12.7125 21.875 11.875 21.0375 11.875 20C11.875 18.9625 12.7125 18.125 13.75 18.125C14.7875 18.125 15.625 18.9625 15.625 20C15.625 21.0375 14.7875 21.875 13.75 21.875ZM27.5 10H20C19.375 10 18.75 10.625 18.75 11.25V23.75C18.75 24.375 19.375 25 20 25H27.5C28.125 25 28.75 24.375 28.75 23.75V11.25C28.75 10.625 28.125 10 27.5 10ZM26.25 22.5H21.25V12.5H26.25V22.5Z" fill="#9747FF"/>
</g>
</svg>
