<svg width="57" height="65" viewBox="0 0 57 65" fill="none" xmlns="http://www.w3.org/2000/svg">
<g id="Frame" clip-path="url(#clip0_201_595)">
<g id="Group">
<path id="Vector" fill-rule="evenodd" clip-rule="evenodd" d="M5.7442 59.5725C13.9997 61.7364 29.2025 63.8747 40.644 58.2564C41.866 57.6723 42.7461 56.5963 43.1773 55.3252C44.2709 55.5045 45.3274 55.7035 46.3799 55.9132C54.8108 57.5939 54.3522 61.0954 49.072 63.2544C43.7917 65.4123 26.1125 64.5852 19.2408 63.4572C18.1226 63.274 17.0936 63.1182 16.14 62.9741C11.3782 62.2558 8.49016 61.8197 5.7442 59.5725Z" fill="white"/>
<path id="Vector_2" d="M25.489 63.4152C18.7447 63.4152 12.6314 62.4362 7.22574 60.485C4.84043 59.6285 3.82612 56.6189 3.68402 54.3022C3.4498 50.7908 3.01468 44.705 2.54232 38.0665C1.08147 17.5819 0.492492 7.18771 0.775385 6.88391L1.06546 6.57227H2.08368L2.35906 7.09167C3.23616 8.74199 13.8368 11.1841 23.5868 10.8715L24.3473 10.848C31.3935 10.6295 44.5098 10.2218 45.3154 8.08441L45.5535 7.45035H47.2705L47.2774 8.48719L44.6167 54.7451C44.0581 59.2659 39.699 62.2039 35.88 62.7057C32.2706 63.179 28.8034 63.4162 25.488 63.4162L25.489 63.4152ZM2.54722 9.61321C2.83241 14.5818 3.77516 27.7932 4.49644 37.9274C4.96978 44.5688 5.4049 50.6576 5.6401 54.1767C5.75084 55.9799 6.5025 58.1428 7.89018 58.6416C15.6567 61.4464 24.9882 62.1598 35.6261 60.7623C38.7592 60.3517 42.2509 57.9213 42.6674 54.5687L45.1968 10.5501C41.7874 12.1318 34.3962 12.4983 24.41 12.808L23.6505 12.8315C17.0522 13.0422 6.90822 11.8692 2.5482 9.61419L2.54722 9.61321Z" fill="white"/>
<path id="Vector_3" d="M46.2352 8.39579C45.9295 8.39579 45.6276 8.25271 45.4375 7.98517C45.4042 7.94107 41.2118 2.61967 24.4185 2.61967C4.59798 2.61967 2.5145 6.58279 2.51058 6.62297C2.4459 7.15903 1.95786 7.53731 1.41886 7.47655C0.880837 7.40991 0.499617 6.92089 0.565277 6.38385C0.681897 5.42737 2.38514 0.659668 24.4175 0.659668C42.4074 0.659668 46.8517 6.59357 47.031 6.84543C47.3456 7.28545 47.2437 7.89795 46.8036 8.21253C46.6312 8.33503 46.4322 8.39579 46.2352 8.39579Z" fill="white"/>
<path id="Vector_4" d="M48.8749 42.6539C46.9482 42.6539 45.2792 42.0208 44.5305 41.7376L44.2728 41.6416C43.7612 41.4662 43.4878 40.9085 43.6632 40.397C43.8386 39.8854 44.3972 39.61 44.9088 39.7874C44.9901 39.8149 45.096 39.855 45.2253 39.904C46.3455 40.3294 49.3237 41.4554 51.7845 39.8884C53.4113 38.8907 53.6573 36.9101 54.1041 32.1277C54.6206 26.5525 54.7607 24.2368 53.0046 22.8952C50.5703 20.894 46.5934 21.481 45.8212 21.6192C45.2832 21.7172 44.7794 21.3595 44.6844 20.8264C44.5893 20.2933 44.9441 19.7846 45.4772 19.6896C46.7728 19.4603 51.2308 18.8968 54.2227 21.3595C56.8834 23.3901 56.5894 26.5584 56.0573 32.309C55.6075 37.112 55.337 40.0109 52.8233 41.5504C51.5228 42.3785 50.143 42.6529 48.8749 42.6529V42.6539Z" fill="white"/>
<path id="Vector_5" d="M43.3729 9.74529C43.3729 10.9615 33.0633 14.0014 24.2835 13.2919C9.11896 12.1776 5.39398 11.2653 5.39398 8.83389C5.39398 7.61771 15.6369 6.60439 24.2835 6.80725C33.1299 7.11105 43.4395 8.53009 43.3729 9.74529Z" fill="white"/>
<path id="Vector_6" d="M22.0818 42.4233C21.6251 42.4233 21.1694 42.2655 20.8038 41.949C17.318 38.9276 9.51425 31.4806 12.3161 27.5685C13.7567 25.5575 15.359 24.5383 17.0808 24.5383H17.1014C18.8144 24.5471 20.5049 25.5526 22.1357 27.5322C23.3783 25.9858 25.1962 24.0581 27.4629 24.0581H27.4884C28.9702 24.0679 30.3481 24.9068 31.5848 26.5512C35.2216 31.3865 28.4959 37.3792 24.4769 40.9592C24.0947 41.2992 23.7429 41.6128 23.4342 41.8961C23.05 42.2469 22.5649 42.4233 22.0818 42.4233ZM13.9105 28.7082C12.7139 30.3791 16.1528 35.3232 22.0876 40.4672C22.4257 40.1615 22.7844 39.842 23.1725 39.4951C26.4575 36.5688 32.5707 31.1229 30.0188 27.7292C29.1691 26.5992 28.3136 26.023 27.4757 26.0181H27.4629C25.7724 26.0181 24.0369 28.2652 23.1029 29.4736L22.0827 30.7848L21.3223 29.7009C20.3001 28.2447 18.736 26.5071 17.0926 26.4983H17.0818C16.0273 26.4983 14.9601 27.2411 13.9105 28.7082Z" fill="white"/>
</g>
</g>
<defs>
<clipPath id="clip0_201_595">
<rect width="55.8571" height="63.9391" fill="white" transform="translate(0.559692 0.660156)"/>
</clipPath>
</defs>
</svg>
