<svg width="12" height="15" viewBox="0 0 12 15" fill="none" xmlns="http://www.w3.org/2000/svg">
<path id="Vector" d="M10.6 7.5998C10.4 7.5998 10.2 8.0998 10.1 8.1998L9.40001 8.8998C8.90001 9.3998 8.60001 10.1998 8.20001 10.7998C7.57043 11.5724 6.82891 12.2465 6.00001 12.7998C5.60001 13.0998 5.00001 13.4998 4.60001 13.5998L4.00001 13.7998H3.40001C3.10001 13.7998 2.90001 13.5998 2.70001 13.4998L1.90001 12.9998L0.900009 11.5998C0.691394 11.0927 0.589279 10.5481 0.600009 9.9998C0.600009 8.7998 1.40001 7.9998 1.90001 6.9998L3.40001 5.2998L4.60001 3.8998L6.10001 2.3998C6.50001 1.8998 6.90001 1.6998 7.50001 1.4998L8.20001 1.2998H9.10001L10.4 1.3998C10.6 1.3998 10.9 1.6998 11 1.9998C11.5 2.9998 11.3 3.7998 10.8 4.2998L9.80001 5.2998C9.00001 5.8998 8.40001 6.4998 7.90001 7.2998C7.30001 8.2998 6.50001 8.9998 5.70001 9.7998C5.00001 10.4998 4.40001 11.0998 3.50001 11.0998C2.50001 11.0998 2.90001 9.6998 3.10001 9.1998L4.20001 7.6998C4.60001 7.2998 5.00001 6.7998 5.50001 6.4998L6.80001 5.4998C6.90001 5.1998 7.30001 4.7998 7.50001 4.6998" stroke="#6F6F71" stroke-width="1.2" stroke-linecap="round"/>
</svg>
