<svg width="286" height="35" viewBox="0 0 286 35" fill="none" xmlns="http://www.w3.org/2000/svg">
<path d="M6.832 35C5.68 35 4.624 34.728 3.664 34.184C2.736 33.608 1.984 32.856 1.408 31.928C0.864 30.968 0.592 29.912 0.592 28.76V0.439999H5.776V28.616C5.776 28.936 5.888 29.224 6.112 29.48C6.368 29.704 6.656 29.816 6.976 29.816H28.768C29.088 29.816 29.36 29.704 29.584 29.48C29.808 29.224 29.92 28.936 29.92 28.616V0.439999H35.152V28.76C35.152 29.912 34.864 30.968 34.288 31.928C33.744 32.856 32.992 33.608 32.032 34.184C31.072 34.728 30.032 35 28.912 35H6.832ZM39.958 35V34.04L53.686 17.72L39.958 1.4V0.439999H45.958L57.094 13.64L68.182 0.439999H74.182V1.4L60.454 17.72L74.23 34.04V35H68.182L57.046 21.8L45.958 35H39.958ZM79.2951 35V29.816H84.4791V35H79.2951Z" fill="url(#paint0_linear_1_2693)"/>
<path d="M90.0329 35V0.439999H95.2169V15.128H120.177V0.439999H125.409V35H120.177V20.312H95.2169V35H90.0329ZM130.909 35V6.68C130.909 5.528 131.181 4.488 131.725 3.56C132.301 2.6 133.053 1.848 133.981 1.304C134.941 0.727999 135.997 0.439999 137.149 0.439999H159.181C160.333 0.439999 161.389 0.727999 162.349 1.304C163.309 1.848 164.061 2.6 164.605 3.56C165.181 4.488 165.469 5.528 165.469 6.68V35H160.237V22.904H136.093V35H130.909ZM136.093 17.72H160.237V6.824C160.237 6.504 160.125 6.232 159.901 6.008C159.677 5.752 159.405 5.624 159.085 5.624H137.293C136.973 5.624 136.685 5.752 136.429 6.008C136.205 6.232 136.093 6.504 136.093 6.824V17.72ZM199.258 35L188.458 22.088H195.226L205.306 34.04V35H199.258ZM170.938 35V0.487998H199.21C200.362 0.487998 201.418 0.775998 202.378 1.352C203.338 1.928 204.09 2.696 204.634 3.656C205.21 4.584 205.498 5.608 205.498 6.728V16.424C205.498 17.576 205.21 18.632 204.634 19.592C204.09 20.52 203.338 21.272 202.378 21.848C201.418 22.392 200.362 22.664 199.21 22.664L176.122 22.712V35H170.938ZM177.322 17.432H199.114C199.434 17.432 199.706 17.32 199.93 17.096C200.154 16.872 200.266 16.6 200.266 16.28V6.872C200.266 6.552 200.154 6.28 199.93 6.056C199.706 5.8 199.434 5.672 199.114 5.672H177.322C177.002 5.672 176.714 5.8 176.458 6.056C176.234 6.28 176.122 6.552 176.122 6.872V16.28C176.122 16.6 176.234 16.872 176.458 17.096C176.714 17.32 177.002 17.432 177.322 17.432ZM216.595 35C215.475 35 214.435 34.728 213.475 34.184C212.515 33.608 211.747 32.856 211.171 31.928C210.627 30.968 210.355 29.912 210.355 28.76V26.744H215.539V28.616C215.539 28.936 215.651 29.224 215.875 29.48C216.131 29.704 216.419 29.816 216.739 29.816H238.531C238.851 29.816 239.123 29.704 239.347 29.48C239.571 29.224 239.683 28.936 239.683 28.616V21.512C239.683 21.16 239.571 20.872 239.347 20.648C239.123 20.424 238.851 20.312 238.531 20.312H216.595C215.475 20.312 214.435 20.04 213.475 19.496C212.515 18.92 211.747 18.168 211.171 17.24C210.627 16.28 210.355 15.224 210.355 14.072V6.68C210.355 5.528 210.627 4.488 211.171 3.56C211.747 2.6 212.515 1.848 213.475 1.304C214.435 0.727999 215.475 0.439999 216.595 0.439999H238.675C239.795 0.439999 240.835 0.727999 241.795 1.304C242.755 1.848 243.507 2.6 244.051 3.56C244.627 4.488 244.915 5.528 244.915 6.68V8.696H239.683V6.824C239.683 6.504 239.571 6.232 239.347 6.008C239.123 5.752 238.851 5.624 238.531 5.624H216.739C216.419 5.624 216.131 5.752 215.875 6.008C215.651 6.232 215.539 6.504 215.539 6.824V13.928C215.539 14.28 215.651 14.568 215.875 14.792C216.131 15.016 216.419 15.128 216.739 15.128H238.675C239.795 15.128 240.835 15.416 241.795 15.992C242.755 16.536 243.507 17.288 244.051 18.248C244.627 19.176 244.915 20.216 244.915 21.368V28.76C244.915 29.912 244.627 30.968 244.051 31.928C243.507 32.856 242.755 33.608 241.795 34.184C240.835 34.728 239.795 35 238.675 35H216.595ZM250.158 35V0.439999H255.342V15.128H280.302V0.439999H285.534V35H280.302V20.312H255.342V35H250.158Z" fill="#1C51FE"/>
<defs>
<linearGradient id="paint0_linear_1_2693" x1="5.83463" y1="-53.8197" x2="147.836" y2="86.8577" gradientUnits="userSpaceOnUse">
<stop stop-color="#B235FF"/>
<stop offset="1" stop-color="#001447"/>
</linearGradient>
</defs>
</svg>
