<svg width="159" height="31" viewBox="0 0 159 31" fill="none" xmlns="http://www.w3.org/2000/svg">
<g clip-path="url(#clip0_1_2568)">
<rect x="0.596313" width="31" height="31" rx="15.5" fill="white"/>
<rect x="0.596313" width="31" height="31" rx="15.5" fill="white"/>
<circle cx="12.8532" cy="22.863" r="9.92969" transform="rotate(40.3483 12.8532 22.863)" stroke="#140A2B" stroke-width="1.45312"/>
<circle cx="24.5873" cy="15.0357" r="9.92969" transform="rotate(40.3483 24.5873 15.0357)" stroke="#140A2B" stroke-width="1.45312"/>
<circle cx="11.7418" cy="9.20807" r="9.92969" transform="rotate(40.3483 11.7418 9.20807)" stroke="#140A2B" stroke-width="1.45312"/>
</g>
<path d="M42.1194 24H39.4069V6.52617H42.1194V24ZM47.9803 24H45.3405V6.52617H47.7987L56.8565 19.4105H56.9534V6.52617H59.5932V24H57.1471L48.0893 11.1277H47.9803V24ZM62.0514 19.132H64.7276C64.9213 20.8637 66.6045 22.002 68.9053 22.002C71.1092 22.002 72.6955 20.8637 72.6955 19.3016C72.6955 17.9453 71.7389 17.134 69.4745 16.577L67.21 16.032C64.001 15.257 62.5116 13.7555 62.5116 11.3215C62.5116 8.30625 65.1393 6.23555 68.869 6.23555C72.5623 6.23555 75.0932 8.30625 75.178 11.3215H72.5381C72.3807 9.57773 70.9397 8.52422 68.8327 8.52422C66.7256 8.52422 65.2846 9.58984 65.2846 11.1398C65.2846 12.375 66.2049 13.1016 68.4573 13.6586L70.3827 14.1309C73.967 14.9785 75.4565 16.4195 75.4565 18.9746C75.4565 22.2441 72.853 24.2906 68.7116 24.2906C64.8366 24.2906 62.2209 22.2926 62.0514 19.132ZM85.2893 24H82.5768V16.8434L76.4252 6.52617H79.4526L83.9088 14.2398H83.9936L88.4498 6.52617H91.453L85.2893 16.8434V24ZM96.0303 24H93.3905V6.52617H95.8487L104.906 19.4105H105.003V6.52617H107.643V24H105.197L96.1393 11.1277H96.0303V24ZM118.251 24.2906C113.347 24.2906 110.247 20.8273 110.247 15.257C110.247 9.72305 113.371 6.23555 118.251 6.23555C122.211 6.23555 125.202 8.66953 125.662 12.3145H122.974C122.489 10.0742 120.624 8.60898 118.251 8.60898C115.078 8.60898 113.02 11.2125 113.02 15.257C113.02 19.3379 115.054 21.9172 118.263 21.9172C120.697 21.9172 122.429 20.6699 122.974 18.5629H125.674C125.008 22.1715 122.271 24.2906 118.251 24.2906Z" fill="white"/>
<defs>
<clipPath id="clip0_1_2568">
<rect x="0.596313" width="31" height="31" rx="15.5" fill="white"/>
</clipPath>
</defs>
</svg>
