<svg width="137" height="51" viewBox="0 0 137 51" fill="none" xmlns="http://www.w3.org/2000/svg">
<circle cx="24.5835" cy="25.5" r="23.9114" stroke="#6130DE" stroke-width="1.34428"/>
<g clip-path="url(#clip0_1_2559)">
<path fill-rule="evenodd" clip-rule="evenodd" d="M20.2318 27.0849L20.0374 27.4587L19.8393 27.8371L19.6496 28.1966L19.4981 28.4818L19.3525 28.7539L19.1855 29.0631L19.0789 29.2589L18.926 29.5368L18.8528 29.6686L18.7584 29.8371L18.6901 29.958L18.6024 30.1118L18.5391 30.2217L18.4382 30.3943L18.3805 30.4917L18.325 30.5842L18.2716 30.6722L18.2202 30.7554L18.171 30.8338L18.1087 30.9312L18.0645 30.9986L18.0361 31.0409L18.0088 31.0813L17.9695 31.1377L17.9445 31.1728L17.9087 31.2215L17.8973 31.2366C17.1803 32.1799 16.3983 32.8941 15.4365 33.3061C13.4145 34.3124 10.9009 34.3594 8.95972 33.1154L13.7804 24.3188L13.967 24.1974C17.2491 22.1284 18.8365 24.2763 20.2317 27.0849H20.2318Z" fill="#6130DE"/>
<path fill-rule="evenodd" clip-rule="evenodd" d="M37.6326 23.1448C34.5495 17.4332 31.3624 12.052 27.7014 19.9457C27.2006 20.9605 26.8356 22.9327 26.0178 22.9327V22.9226C25.2001 22.9226 24.8351 20.9505 24.3344 19.9357C20.6732 12.042 17.4862 17.4232 14.4031 23.1348C14.171 23.5656 13.9481 23.9766 13.7574 24.3339C20.823 19.5979 20.2281 33.9055 26.0178 34.0192V34.0292C31.8076 33.9155 31.2126 19.608 38.2782 24.3438C38.0877 23.9866 37.8647 23.5756 37.6326 23.1448Z" fill="#6130DE"/>
<path fill-rule="evenodd" clip-rule="evenodd" d="M38.0114 34.0293C39.7777 34.0293 41.2097 32.5131 41.2097 30.6428C41.2097 28.7725 39.7777 27.2563 38.0114 27.2563C36.245 27.2563 34.813 28.7725 34.813 30.6428C34.813 32.5131 36.245 34.0293 38.0114 34.0293Z" fill="#6130DE"/>
</g>
<path d="M80.2611 36H77.2313V20.3043H77.1279L70.6989 35.8374H68.2455L61.8017 20.3043H61.6982V36H58.6832V14.6734H62.5111L69.4131 31.5071H69.5313L76.4185 14.6734H80.2611V36ZM97.1391 20.4521V36H94.0798V33.3693H94.0059C93.1487 35.2315 91.5673 36.2808 89.1878 36.2808C85.8034 36.2808 83.7343 34.0787 83.7343 30.5169V20.4521H86.9266V29.8961C86.9266 32.2608 88.0498 33.5318 90.2519 33.5318C92.5575 33.5318 93.9468 31.9357 93.9468 29.5119V20.4521H97.1391ZM100.42 36V14.6734H103.612V36H100.42ZM108.431 41.7935C108.179 41.7935 107.366 41.764 107.13 41.7196V39.1332C107.366 39.1923 107.899 39.1923 108.165 39.1923C109.657 39.1923 110.441 38.5716 110.928 36.9754C110.928 36.9459 111.209 36.0296 111.209 36.0148L105.593 20.4521H109.051L112.997 33.1032H113.042L116.988 20.4521H120.358L114.52 36.8129C113.19 40.5816 111.667 41.7935 108.431 41.7935ZM127.348 33.7388C129.58 33.7388 131.324 32.2017 131.324 30.1769V28.9502L127.496 29.1867C125.589 29.3197 124.511 30.1622 124.511 31.4923C124.511 32.852 125.634 33.7388 127.348 33.7388ZM126.461 36.266C123.417 36.266 121.289 34.3743 121.289 31.581C121.289 28.8616 123.372 27.1915 127.067 26.9846L131.324 26.7333V25.5362C131.324 23.807 130.156 22.7725 128.205 22.7725C126.358 22.7725 125.205 23.6592 124.924 25.0485H121.909C122.087 22.2404 124.481 20.1713 128.324 20.1713C132.092 20.1713 134.501 22.1665 134.501 25.285V36H131.442V33.4432H131.368C130.467 35.1724 128.501 36.266 126.461 36.266Z" fill="#6130DE"/>
<defs>
<clipPath id="clip0_1_2559">
<rect width="34.1159" height="36.1227" fill="white" transform="translate(8.02716 6.93701)"/>
</clipPath>
</defs>
</svg>
