<svg width="144" height="18" viewBox="0 0 144 18" fill="none" xmlns="http://www.w3.org/2000/svg">
<path d="M3.848 17.5C3.208 17.5 2.616 17.34 2.072 17.02C1.528 16.7 1.096 16.268 0.776 15.724C0.456 15.18 0.296 14.588 0.296 13.948V0.219999H4.016V13.756H13.808V0.219999H17.576V13.948C17.576 14.588 17.408 15.18 17.072 15.724C16.752 16.268 16.32 16.7 15.776 17.02C15.248 17.34 14.664 17.5 14.024 17.5H3.848ZM19.979 17.5V16.228L26.147 8.86L19.979 1.492V0.219999H23.843L28.643 5.908L33.395 0.219999H37.259V1.492L31.067 8.86L37.259 16.204V17.5H33.395L28.595 11.836L23.843 17.5H19.979ZM39.6476 17.5V13.828H43.3196V17.5H39.6476Z" fill="url(#paint0_linear_1_2536)"/>
<path d="M45.3211 17.5V0.219999H49.0411V6.988H59.2411V0.219999H62.9611V17.5H59.2411V10.732H49.0411V17.5H45.3211ZM65.7592 17.5V3.772C65.7592 3.116 65.9192 2.524 66.2392 1.996C66.5592 1.452 66.9912 1.02 67.5352 0.699999C68.0792 0.379999 68.6712 0.219999 69.3112 0.219999H79.4632C80.1192 0.219999 80.7112 0.379999 81.2392 0.699999C81.7832 1.02 82.2152 1.452 82.5352 1.996C82.8712 2.524 83.0392 3.116 83.0392 3.772V17.5H79.2712V11.932H69.4792V17.5H65.7592ZM69.4792 8.188H79.2712V3.964H69.4792V8.188ZM99.1897 17.5L94.1737 11.524H99.0457L103.03 16.228V17.5H99.1897ZM85.7737 17.5V0.243999H99.4777C100.134 0.243999 100.726 0.403999 101.254 0.723999C101.798 1.044 102.23 1.476 102.55 2.02C102.886 2.564 103.054 3.156 103.054 3.796V8.26C103.054 8.9 102.886 9.492 102.55 10.036C102.23 10.58 101.798 11.012 101.254 11.332C100.726 11.652 100.134 11.812 99.4777 11.812L89.4937 11.836V17.5H85.7737ZM89.4937 8.068H99.2857V3.964H89.4937V8.068ZM109.082 17.5C108.442 17.5 107.85 17.34 107.306 17.02C106.762 16.7 106.33 16.268 106.01 15.724C105.69 15.18 105.53 14.588 105.53 13.948V12.34H109.25V13.756H119.042V10.732H109.082C108.442 10.732 107.85 10.572 107.306 10.252C106.762 9.932 106.33 9.508 106.01 8.98C105.69 8.436 105.53 7.836 105.53 7.18V3.772C105.53 3.116 105.69 2.524 106.01 1.996C106.33 1.452 106.762 1.02 107.306 0.699999C107.85 0.379999 108.442 0.219999 109.082 0.219999H119.258C119.898 0.219999 120.482 0.379999 121.01 0.699999C121.554 1.02 121.986 1.452 122.306 1.996C122.642 2.524 122.81 3.116 122.81 3.772V5.38H119.042V3.964H109.25V6.988H119.258C119.898 6.988 120.482 7.148 121.01 7.468C121.554 7.788 121.986 8.22 122.306 8.764C122.642 9.292 122.81 9.884 122.81 10.54V13.948C122.81 14.588 122.642 15.18 122.306 15.724C121.986 16.268 121.554 16.7 121.01 17.02C120.482 17.34 119.898 17.5 119.258 17.5H109.082ZM125.477 17.5V0.219999H129.197V6.988H139.397V0.219999H143.117V17.5H139.397V10.732H129.197V17.5H125.477Z" fill="#1C51FE"/>
<defs>
<linearGradient id="paint0_linear_1_2536" x1="2.93077" y1="-26.9098" x2="73.9334" y2="43.6724" gradientUnits="userSpaceOnUse">
<stop stop-color="#B235FF"/>
<stop offset="1" stop-color="#001447"/>
</linearGradient>
</defs>
</svg>
