<svg width="81" height="33" viewBox="0 0 81 33" fill="none" xmlns="http://www.w3.org/2000/svg">
<path d="M5.12321 0.0574341V5.81223H9.36358L8.26743 9.90837H5.12321V25.8603C2.57033 25.8603 0.493408 23.7833 0.493408 21.2305V0.0574341H5.12321Z" fill="white"/>
<path d="M19.3898 10.9036C18.3946 10.9036 17.4715 11.1633 16.6206 11.6681C15.7552 12.1729 15.0773 12.8507 14.5869 13.7017C14.0677 14.5238 13.8081 15.4613 13.8081 16.4998L13.8802 26.0046H9.74076L9.71191 15.8652C9.71191 14.1921 10.1446 12.6488 10.9956 11.2209C11.8609 9.79306 13.0436 8.65364 14.5436 7.8171C16.0004 6.99499 17.5869 6.57672 19.2744 6.57672L20.1975 6.64884V10.9902C19.7792 10.9325 19.5196 10.9036 19.3898 10.9036Z" fill="white"/>
<path d="M30.8396 25.8889C29.1233 25.8889 27.5223 25.4562 26.0511 24.6053C24.58 23.7399 23.4117 22.5716 22.5752 21.086C21.7098 19.6437 21.2627 18.0572 21.2627 16.312C21.2627 14.5957 21.6954 12.9947 22.5463 11.5236C23.4117 10.0524 24.58 8.88414 26.0656 8.00434C27.5223 7.15338 29.1088 6.73511 30.8396 6.73511C32.5415 6.73511 34.1136 7.15338 35.5848 7.98991C37.0559 8.82645 38.2242 9.95145 39.104 11.3649C39.9694 12.8072 40.4165 14.3505 40.4165 16.0235L40.3877 25.7735H36.4357V24.0716C34.7194 25.2831 32.8588 25.8889 30.8396 25.8889ZM33.6377 11.4803C32.7867 10.9899 31.8636 10.7447 30.8396 10.7447C29.8444 10.7447 28.9213 11.0043 28.0704 11.5091C27.205 12.0139 26.5271 12.6918 26.0367 13.5428C25.5175 14.3649 25.2579 15.3024 25.2579 16.3409C25.2579 17.336 25.5175 18.2591 26.0223 19.1101C26.5271 19.9755 27.205 20.6533 28.0559 21.1437C28.8781 21.663 29.8156 21.9226 30.854 21.9226C31.8492 21.9226 32.7723 21.663 33.6232 21.1582C34.4886 20.6533 35.1665 19.9755 35.6857 19.1245C36.1761 18.2735 36.4213 17.3505 36.4213 16.3264C36.4213 15.3312 36.1617 14.4082 35.6569 13.5572C35.1521 12.7062 34.4742 11.9995 33.6377 11.4803Z" fill="#F06523"/>
<path d="M51.0899 6.77789C52.4312 6.77789 53.8158 7.0952 55.2582 7.74423C56.7005 8.39327 57.9264 9.46058 58.936 10.9462C60.0466 12.6192 60.5947 14.4221 60.5947 16.3548C60.5947 16.874 60.5658 17.3788 60.4937 17.8692L60.4216 17.8404V17.8692L45.7966 18.2586C46.0851 19.0375 46.5034 19.7154 47.0659 20.2923C47.6284 20.8692 48.2918 21.3019 49.0418 21.5759C49.6476 21.8067 50.311 21.9221 51.0178 21.9221C51.8255 21.9221 52.5899 21.7634 53.3255 21.4461C54.061 21.1288 54.6957 20.6817 55.2149 20.0904L59.0658 21.5759C58.2005 22.9173 57.0466 23.9846 55.6043 24.749C54.162 25.5278 52.6332 25.9173 51.0178 25.9173C49.6476 25.9173 48.263 25.6 46.8351 24.9509C45.4072 24.3019 44.1957 23.2202 43.1716 21.7202C42.0466 20.0471 41.4697 18.2442 41.4697 16.3115C41.4697 15.1865 41.6861 14.0471 42.1043 12.9221C42.8111 11.0904 43.9938 9.60481 45.638 8.46539C47.2966 7.34039 49.0995 6.77789 51.0899 6.77789ZM56.2389 14.3356C55.9793 13.6 55.5755 12.9654 55.013 12.4029C54.4649 11.8548 53.8014 11.4365 53.0514 11.1481C52.4457 10.9173 51.7822 10.8019 51.0755 10.8019C49.9216 10.8019 48.8687 11.1192 47.9024 11.7538C46.9361 12.3885 46.2438 13.2683 45.8111 14.3644L45.7389 14.5808L56.2389 14.3356Z" fill="white"/>
<path d="M79.5039 21.2594C78.6386 22.6728 77.4703 23.7978 75.9847 24.6488C74.4991 25.4997 72.9126 25.918 71.2107 25.918C69.4943 25.918 67.8934 25.4853 66.4222 24.6344C64.9511 23.769 63.7828 22.6007 62.9463 21.1151C62.0809 19.6728 61.6338 18.0863 61.6338 16.3411C61.6338 14.6248 62.0665 13.0238 62.9174 11.5527C63.7828 10.0815 64.9511 8.91324 66.4367 8.03343C67.8934 7.18248 69.4799 6.76421 71.2107 6.76421C73.2299 6.76421 75.0905 7.36998 76.7924 8.56709V2.13441L80.7443 0.0142212L80.7732 16.6152C80.802 18.3026 80.3693 19.8459 79.5039 21.2594ZM74.0088 11.5094C73.1578 11.019 72.2347 10.7738 71.2107 10.7738C70.2155 10.7738 69.2924 11.0334 68.4415 11.5382C67.5761 12.043 66.8982 12.7209 66.4078 13.5719C65.8886 14.394 65.629 15.3315 65.629 16.37C65.629 17.3651 65.8886 18.2882 66.3934 19.1392C66.8982 20.0046 67.5761 20.6824 68.427 21.1728C69.2492 21.6921 70.1867 21.9517 71.2251 21.9517C72.2203 21.9517 73.1434 21.6921 73.9943 21.1872C74.8597 20.6824 75.5376 20.0046 76.0568 19.1536C76.5472 18.3026 76.7924 17.3796 76.7924 16.3555C76.7924 15.3603 76.5328 14.4373 76.028 13.5863C75.5376 12.7209 74.8597 12.0286 74.0088 11.5094Z" fill="white"/>
<g opacity="0.6">
<path d="M5.49316 30.0574H7.05085V30.3747H5.86816V31.3267H6.94989V31.6295H5.86816V32.942H5.49316V30.0574Z" fill="white"/>
<path d="M9.74707 30.0572V32.9418H9.37207V30.0572H9.74707Z" fill="white"/>
<path d="M12.2 32.942V30.0574H12.6038L13.5269 31.5142C13.7432 31.8459 13.9019 32.1632 14.0461 32.4517H14.0605C14.0317 32.0622 14.0173 31.7161 14.0173 31.269V30.0574H14.3634V32.942H13.9884L13.0653 31.4709C12.8634 31.1536 12.6759 30.8219 12.5317 30.5045H12.5173C12.5317 30.8651 12.5461 31.2113 12.5461 31.7017V32.9276H12.2V32.942Z" fill="white"/>
<path d="M17.2909 32.0331L16.9881 32.9418H16.5986L17.5794 30.0572H18.0265L19.0073 32.9418H18.6034L18.3006 32.0331H17.2909ZM18.2284 31.7447L17.94 30.9081C17.8823 30.7206 17.839 30.5476 17.7957 30.3745H17.7813C17.7381 30.5476 17.6948 30.7206 17.6371 30.8937L17.3486 31.7303H18.2284V31.7447Z" fill="white"/>
<path d="M21.2432 32.942V30.0574H21.647L22.5701 31.5142C22.7864 31.8459 22.9451 32.1632 23.0893 32.4517H23.1037C23.0749 32.0622 23.0605 31.7161 23.0605 31.269V30.0574H23.4066V32.942H23.0316L22.1085 31.4709C21.9066 31.1536 21.7191 30.8219 21.5749 30.5045H21.5605C21.5749 30.8651 21.5893 31.2113 21.5893 31.7017V32.9276H21.2432V32.942Z" fill="white"/>
<path d="M27.8612 32.8556C27.7314 32.9277 27.4574 32.9854 27.0968 32.9854C26.2891 32.9854 25.6689 32.4661 25.6689 31.5286C25.6689 30.62 26.2747 30.0142 27.1689 30.0142C27.5295 30.0142 27.7603 30.0863 27.8468 30.144L27.7459 30.4469C27.6161 30.3748 27.4141 30.3315 27.1689 30.3315C26.4911 30.3315 26.0439 30.7642 26.0439 31.5142C26.0439 32.2209 26.4478 32.6681 27.1545 32.6681C27.3853 32.6681 27.6161 32.6248 27.7603 32.5527L27.8612 32.8556Z" fill="white"/>
<path d="M31.626 31.586H30.501V32.6245H31.7558V32.9418H30.126V30.0572H31.6837V30.3745H30.501V31.2831H31.6116V31.586H31.626Z" fill="white"/>
<path d="M36.6611 30.101C36.8486 30.0578 37.1227 30.0433 37.3823 30.0433C37.7861 30.0433 38.0457 30.1155 38.2188 30.2885C38.3631 30.4183 38.4496 30.6058 38.4496 30.8366C38.4496 31.2116 38.2044 31.4712 37.9015 31.5722V31.5866C38.1179 31.6587 38.2477 31.8751 38.3198 32.1635C38.4207 32.5674 38.4784 32.8414 38.5361 32.9568H38.1467C38.1034 32.8703 38.0313 32.6251 37.9592 32.2645C37.8727 31.8606 37.714 31.7164 37.3823 31.702H37.0361V32.9568H36.6611V30.101ZM37.0361 31.4135H37.4111C37.815 31.4135 38.0602 31.1972 38.0602 30.8655C38.0602 30.4905 37.7861 30.3318 37.3967 30.3318C37.2236 30.3318 37.0938 30.3462 37.0217 30.3606V31.4135H37.0361Z" fill="white"/>
<path d="M42.2561 31.586H41.1455V32.6245H42.4003V32.9418H40.7705V30.0572H42.3282V30.3745H41.1455V31.2831H42.2561V31.586Z" fill="white"/>
<path d="M45.04 30.0572V32.9418H44.665V30.0572H45.04Z" fill="white"/>
<path d="M49.9156 31.6726C49.9012 31.2687 49.8724 30.7783 49.8724 30.4322H49.8579C49.757 30.7639 49.6416 31.1389 49.4974 31.5283L48.9926 32.9274H48.7041L48.2281 31.5572C48.0983 31.1533 47.9829 30.7783 47.8964 30.4322H47.882C47.8676 30.7928 47.8531 31.2687 47.8243 31.7014L47.7522 32.9418H47.3916L47.5935 30.0572H48.0695L48.5599 31.4562C48.6753 31.8168 48.7762 32.1341 48.8483 32.437H48.8628C48.9349 32.1485 49.0358 31.8312 49.1656 31.4562L49.6849 30.0572H50.1608L50.3339 32.9418H49.9589L49.9156 31.6726Z" fill="white"/>
<path d="M53.162 32.0331L52.8592 32.9418H52.4697L53.4505 30.0572H53.8976L54.8784 32.9418H54.4745L54.1716 32.0331H53.162ZM54.0995 31.7447L53.8111 30.9081C53.7534 30.7206 53.7101 30.5476 53.6668 30.3745H53.6524C53.6091 30.5476 53.5659 30.7206 53.5082 30.8937L53.2197 31.7303H54.0995V31.7447Z" fill="white"/>
<path d="M59.248 32.8115C59.0749 32.8692 58.7432 32.9702 58.3537 32.9702C57.921 32.9702 57.5605 32.8548 57.272 32.5952C57.0268 32.35 56.8682 31.975 56.8682 31.5135C56.8682 30.6481 57.4595 30.0279 58.4259 30.0279C58.7576 30.0279 59.0316 30.1 59.147 30.1577L59.046 30.4606C58.8874 30.3885 58.6999 30.3308 58.4114 30.3308C57.7047 30.3308 57.2576 30.7635 57.2576 31.4846C57.2576 32.2202 57.6903 32.6529 58.3682 32.6529C58.6134 32.6529 58.772 32.624 58.8585 32.5808V31.7154H58.2816V31.4125H59.2335V32.8115H59.248Z" fill="white"/>
<path d="M61.9853 30.0572V32.9418H61.6104V30.0572H61.9853Z" fill="white"/>
<path d="M64.4229 32.9418V30.0572H64.8267L65.7498 31.5139C65.9661 31.8456 66.1248 32.163 66.269 32.4514H66.2834C66.2546 32.062 66.2402 31.7158 66.2402 31.2687V30.0572H66.5863V32.9418H66.2113L65.2882 31.4706C65.0863 31.1533 64.8988 30.8216 64.7546 30.5043H64.7402C64.7546 30.8649 64.769 31.211 64.769 31.7014V32.9274H64.4229V32.9418Z" fill="white"/>
<path d="M70.5412 31.586H69.4307V32.6245H70.6855V32.9418H69.0557V30.0572H70.5989V30.3745H69.4162V31.2831H70.5268V31.586H70.5412Z" fill="white"/>
<path d="M72.949 30.1012C73.1798 30.0724 73.4538 30.0435 73.7423 30.0435C74.2759 30.0435 74.6653 30.1733 74.9105 30.4041C75.1701 30.6349 75.3144 30.9666 75.3144 31.4426C75.3144 31.9185 75.1701 32.2935 74.8961 32.5676C74.6221 32.8416 74.175 32.9858 73.6125 32.9858C73.3384 32.9858 73.1221 32.9714 72.9346 32.957V30.1012H72.949ZM73.324 32.6541C73.425 32.6685 73.5548 32.6685 73.699 32.6685C74.4923 32.6685 74.9249 32.2214 74.9249 31.4426C74.9249 30.7647 74.55 30.332 73.7567 30.332C73.5692 30.332 73.425 30.3464 73.324 30.3753V32.6541Z" fill="white"/>
</g>
</svg>
